<svg xmlns="http://www.w3.org/2000/svg" xmlns:xlink="http://www.w3.org/1999/xlink" width="323.265" height="251.212" viewBox="0 0 323.265 251.212"><defs><style>.a{fill:url(#a);}.b{fill:url(#b);}.c{fill:#e0e0e0;}.aj,.d{fill:#b8b8b8;}.e{fill:#d9d9d9;}.f{fill:#8c6df2;}.g{fill:url(#c);}.h,.t{fill:#fff;}.i{fill:#1a598c;}.j{fill:#2273b5;}.k{fill:#3d96e0;}.l{fill:#4b59c7;}.m{fill:#6f5be0;}.n{fill:#b487fe;}.o{fill:#3788cc;}.p{fill:#252ca1;}.q{fill:url(#d);}.r{fill:url(#e);}.s{fill:url(#f);}.t{opacity:0.73;}.u{fill:#42cde8;}.v{fill:url(#g);}.w{fill:#7bd6e8;}.x{fill:url(#h);}.y{fill:url(#i);}.z{fill:url(#j);}.aa{fill:#ffb74d;}.ab{fill:#2d3038;}.ac{fill:#eea886;}.ad{fill:#e4e8eb;}.ae{fill:#bdc0c2;}.af{fill:#c6c9cc;}.ag{fill:#0f324f;}.ah{fill:#e54242;}.ai{fill:#1d3b54;}.aj{opacity:0.1;}.ak{fill:#869ac2;opacity:0.3;}.al{fill:#3f444f;}.am{fill:#292c47;}.an{fill:#e2d2ca;}.ao{fill:#ead8cf;}.ap{fill:#da9b5b;}.aq{fill:#424773;}.ar{fill:#3a3f47;}.as{fill:#323657;}.at{fill:#252840;}</style><linearGradient id="a" x1="0.5" y1="1.9" x2="0.5" y2="-0.534" gradientUnits="objectBoundingBox"><stop offset="0" stop-color="#d5e4ff"/><stop offset="1" stop-color="#edfffe"/></linearGradient><linearGradient id="b" x1="0.25" y1="0.002" x2="0.922" y2="1.342" xlink:href="#a"/><linearGradient id="c" y1="0.5" x2="1" y2="0.5" gradientUnits="objectBoundingBox"><stop offset="0" stop-color="#40d5e6"/><stop offset="1" stop-color="#57f"/></linearGradient><linearGradient id="d" x1="1.488" y1="0.5" x2="-0.668" y2="0.5" xlink:href="#c"/><linearGradient id="e" x1="1.378" y1="0.5" x2="-0.618" y2="0.5" xlink:href="#c"/><linearGradient id="f" x1="2.123" y1="0.5" x2="-0.952" y2="0.5" xlink:href="#c"/><linearGradient id="g" y1="0.5" x2="1" y2="0.5" gradientUnits="objectBoundingBox"><stop offset="0" stop-color="#8c6df2"/><stop offset="1" stop-color="#7af0ff"/></linearGradient><linearGradient id="h" x1="0.5" y1="-1.823" x2="0.5" y2="4.51" xlink:href="#c"/><linearGradient id="i" x1="0.5" y1="-1.484" x2="0.5" y2="1.601" xlink:href="#c"/><linearGradient id="j" x1="0.5" y1="0.122" x2="0.5" y2="1.268" xlink:href="#c"/></defs><g transform="translate(-251.158 -124.206)"><path class="a" d="M5.769,0H116.608a5.769,5.769,0,0,1,5.769,5.769V15.91a5.768,5.768,0,0,1-5.768,5.768H5.768A5.768,5.768,0,0,1,0,15.91V5.769A5.769,5.769,0,0,1,5.769,0Z" transform="translate(350.708 308.163)"/><rect class="b" width="216.056" height="194.796" rx="11.814" transform="translate(306.829 124.206)"/><g transform="translate(319.548 214.892)"><g transform="translate(0 6.178)"><rect class="c" width="0.478" height="50.135"/></g><g transform="translate(33.977 6.178)"><rect class="c" width="0.478" height="50.135"/></g><g transform="translate(67.955 6.178)"><rect class="c" width="0.478" height="50.135"/></g><g transform="translate(101.932 6.178)"><rect class="c" width="0.478" height="50.135"/></g><g transform="translate(135.91 6.178)"><rect class="c" width="0.478" height="50.135"/></g><rect class="d" width="5.405" height="1.743" transform="translate(0.239 59.283)"/><rect class="e" width="8.138" height="1.307" transform="translate(0.239 0)"/><rect class="e" width="11.544" height="1.307" transform="translate(0.239 2.415)"/><rect class="e" width="9.555" height="1.307" transform="translate(33.85 0)"/><rect class="e" width="6.109" height="1.307" transform="translate(33.85 2.415)"/><rect class="e" width="5.921" height="1.307" transform="translate(68.433 0)"/><rect class="e" width="6.901" height="1.307" transform="translate(68.433 2.415)"/><rect class="e" width="8.625" height="1.307" transform="translate(102.41 0)"/><rect class="e" width="6.901" height="1.307" transform="translate(102.41 2.415)"/><rect class="e" width="5.151" height="1.307" transform="translate(136.149 0)"/><rect class="e" width="4.122" height="1.307" transform="translate(136.149 2.415)"/><rect class="d" width="5.405" height="1.743" transform="translate(34.217 59.283)"/><rect class="d" width="5.406" height="1.743" transform="translate(68.433 59.283)"/><rect class="d" width="5.406" height="1.743" transform="translate(102.41 59.283)"/><rect class="d" width="5.406" height="1.743" transform="translate(136.388 59.283)"/><g transform="translate(0.239 19.176)"><path class="f" d="M468.549,295.732c-10.6,0-19.81-4.582-29.415-9.357-11.856-5.9-24.117-11.993-40.451-10.324-10.432,1.066-16.979,5.313-22.755,9.061-5.23,3.393-10.176,6.378-16.872,6.633-10.823.411-14.579-4.2-14.641-4.486V284.3h0c.013.051,2.377,5.232,14.629,5.171,6.034-.03,10.488-2.92,15.645-6.266,5.993-3.888,12.784-8.295,23.762-9.417,16.99-1.737,29.551,4.509,41.7,10.549,12.711,6.321,24.839,12.248,40.176,7.106v2.435A34.641,34.641,0,0,1,468.549,295.732Z" transform="translate(-344.414 -273.49)"/></g><g transform="translate(0.239 12.388)"><path class="g" d="M404.936,292.728c-7.823,0-14.027-5.26-20.1-10.41-4.606-3.9-9.384-7.9-14.9-9.866-16.833-6.01-25.445,4.964-25.522,5.06v-3.339c.091-.114,1.627-2.108,6.071-4.013,4.046-1.734,10.835-3.117,20.2.14,5.932,2.064,10.859,6.241,15.624,10.28,9.666,8.194,18.013,15.272,32.509,4.187,10.98-8.4,21.329-16.4,31.514-19.319,9.96-2.859,20.345-.766,30.065,8.954l-.072,3.031c-20.649-20.739-38.229-7.6-60.123,9.143C414.4,291.01,409.4,292.727,404.936,292.728Z" transform="translate(-344.414 -264.267)"/></g></g><g transform="translate(318.145 145.17)"><g transform="translate(0)"><path class="h" d="M363.92,153.054a18.151,18.151,0,1,0-7.169,35.586q.6.12,1.2.2a18.151,18.151,0,0,0,5.968-35.787Zm9.756,20.481a13.594,13.594,0,0,1-15.128,10.8c-.3-.04-.6-.09-.9-.15a13.608,13.608,0,1,1,16.028-10.652Z" transform="translate(-342.182 -152.693)"/></g><g transform="translate(0 9.253)"><path class="i" d="M350.159,183.2l-3.4,3.015a18.175,18.175,0,0,1-2.249-20.95l3.96,2.228a13.626,13.626,0,0,0,1.687,15.707Z" transform="translate(-342.182 -165.267)"/></g><g transform="translate(4.579 27.188)"><path class="j" d="M360.191,194.094l-.6,4.5q-.6-.081-1.2-.2a18.069,18.069,0,0,1-9.991-5.744l3.4-3.015a13.546,13.546,0,0,0,7.49,4.306C359.591,194,359.892,194.054,360.191,194.094Z" transform="translate(-348.404 -189.638)"/></g><g transform="translate(15.77 31.586)"><path class="k" d="M368.932,200.1a18.052,18.052,0,0,1-5.322.078l.6-4.5a13.55,13.55,0,0,0,3.99-.058Z" transform="translate(-363.611 -195.614)"/></g></g><g transform="translate(368.288 145.169)"><g transform="translate(0 0)"><path class="h" d="M445.174,177.957a18.15,18.15,0,1,0-33.4-14.22q-.241.563-.44,1.134a18.151,18.151,0,0,0,33.839,13.086Zm-22.031,5.411a13.591,13.591,0,0,1-7.518-17q.149-.427.329-.851a13.608,13.608,0,1,1,7.189,17.852Z" transform="translate(-410.319 -152.691)"/></g><g transform="translate(9.102 0)"><path class="l" d="M424.953,159.052l-2.266-3.939a18.176,18.176,0,0,1,20.972,2.038l-2.983,3.427a13.632,13.632,0,0,0-15.723-1.526Z" transform="translate(-422.687 -152.691)"/></g><g transform="translate(1.015 2.422)"><path class="m" d="M415.989,167.235l-4.29-1.5q.2-.571.44-1.134a18.073,18.073,0,0,1,7.646-8.624l2.266,3.939a13.542,13.542,0,0,0-5.733,6.464Q416.138,166.807,415.989,167.235Z" transform="translate(-411.699 -155.982)"/></g><g transform="translate(0.015 12.179)"><path class="n" d="M410.34,174.469a18.063,18.063,0,0,1,1-5.228l4.29,1.5a13.516,13.516,0,0,0-.751,3.92Z" transform="translate(-410.34 -169.241)"/></g></g><g transform="translate(418.436 145.173)"><g transform="translate(0 0)"><path class="h" d="M507.453,156.291a18.15,18.15,0,1,0-21.68,29.115c.327.244.66.476,1,.695a18.151,18.151,0,0,0,20.682-29.809Zm.074,22.685a13.591,13.591,0,0,1-18.292,3.307c-.254-.163-.5-.338-.75-.52a13.608,13.608,0,1,1,19.042-2.786Z" transform="translate(-478.461 -152.697)"/></g><g transform="translate(0 3.345)"><path class="i" d="M483.551,175.87l-4.36,1.275a18.177,18.177,0,0,1,6.915-19.9l2.629,3.705a13.627,13.627,0,0,0-5.184,14.923Z" transform="translate(-478.461 -157.242)"/></g><g transform="translate(0.73 21.973)"><path class="j" d="M489.5,190.167l-2.464,3.818c-.338-.219-.671-.451-1-.695a18.075,18.075,0,0,1-6.582-9.461l4.36-1.275a13.555,13.555,0,0,0,4.934,7.092C488.993,189.83,489.243,190,489.5,190.167Z" transform="translate(-479.453 -182.555)"/></g><g transform="translate(8.31 29.586)"><path class="o" d="M494.6,198.919a18.077,18.077,0,0,1-4.846-2.2l2.464-3.818a13.524,13.524,0,0,0,3.633,1.652Z" transform="translate(-489.753 -192.899)"/></g></g><rect class="f" width="36.311" height="2.8" transform="translate(318.143 190.103)"/><rect class="f" width="27.173" height="2.8" transform="translate(318.143 196.055)"/><rect class="f" width="20.022" height="2.8" transform="translate(368.288 190.103)"/><rect class="f" width="29.72" height="2.8" transform="translate(368.288 196.055)"/><rect class="f" width="22.253" height="2.8" transform="translate(421.727 190.103)"/><rect class="f" width="25.775" height="2.8" transform="translate(421.727 196.055)"/><rect class="p" width="26.405" height="2.65" transform="translate(478.055 153.774)"/><rect class="p" width="30.349" height="2.65" transform="translate(478.055 161.975)"/><rect class="p" width="15.702" height="2.649" transform="translate(478.009 170.131)"/><rect class="p" width="24.192" height="2.65" transform="translate(478.009 178.287)"/><rect class="h" width="115.54" height="2.71" transform="translate(318.143 292.09)"/><rect class="h" width="124.843" height="2.71" transform="translate(318.143 298.413)"/><rect class="h" width="81.006" height="2.709" transform="translate(318.143 304.736)"/><rect class="q" width="60.161" height="2.71" transform="translate(318.143 292.09)"/><rect class="r" width="65.005" height="2.71" transform="translate(318.143 298.413)"/><rect class="s" width="42.179" height="2.709" transform="translate(318.143 304.736)"/><rect class="t" width="91.624" height="131.884" rx="12.163" transform="translate(464.406 201.331)"/><g transform="translate(474.913 267.272)"><g transform="translate(0 0)"><rect class="u" width="0.361" height="46.325"/></g><g transform="translate(17.562 0)"><rect class="u" width="0.361" height="46.325"/></g><g transform="translate(35.125 0)"><rect class="u" width="0.361" height="46.325"/></g><g transform="translate(52.688 0)"><rect class="u" width="0.361" height="46.325"/></g><g transform="translate(70.25 0)"><rect class="u" width="0.361" height="46.325"/></g></g><path class="v" d="M555.449,347.34s6.51,3.945,13.427-3.193,14.375-12.773,21.428-6.762,11.391,7.513,18.444.751,6.51-15.028,16.952-15.028v43.014h-70.25Z" transform="translate(-80.356 -52.526)"/><rect class="w" width="6.963" height="1.686" transform="translate(475.093 263.414)"/><rect class="w" width="4.364" height="1.686" transform="translate(492.656 263.414)"/><rect class="w" width="5.379" height="1.686" transform="translate(510.218 263.414)"/><rect class="w" width="8.289" height="1.686" transform="translate(527.781 263.414)"/><rect class="w" width="2.89" height="1.686" transform="translate(545.344 263.414)"/><rect class="h" width="23.484" height="2.97" transform="translate(518.788 232.954)"/><rect class="h" width="21.557" height="2.97" transform="translate(518.788 245.405)"/><rect class="h" width="18.652" height="2.971" transform="translate(518.788 239.179)"/><path class="x" d="M583.267,264.742a4.106,4.106,0,1,1-4.107-4.106A4.106,4.106,0,0,1,583.267,264.742Z" transform="translate(-85.534 -36.028)"/><path class="y" d="M585.357,281.733v7.81a18.059,18.059,0,0,1-14.885,0v-7.81a7.443,7.443,0,0,1,14.885,0Z" transform="translate(-84.323 -39.634)"/><g transform="translate(475.093 215.006)"><path class="z" d="M573.947,284.585a18.343,18.343,0,0,1-7.645-1.648,18.5,18.5,0,1,1,15.29,0A18.348,18.348,0,0,1,573.947,284.585Zm0-36.019a17.524,17.524,0,1,0,17.522,17.521A17.541,17.541,0,0,0,573.947,248.566Z" transform="translate(-555.449 -247.589)"/></g><g transform="translate(251.158 232.329)"><path class="m" d="M291.151,328.936s5.071-11.488-.812-10.536a21.439,21.439,0,0,0-4.057,5.028c-1.557,2.555-4.793,9.315-4.674,11.6s1.746,3.992,3.5,7.665c0,0,3.651,6.815,3.805,7.637l3.859-2s-3.27-6.517-5.575-12.246Z" transform="translate(-259.198 -283.597)"/><rect class="aa" width="78.81" height="13.399" transform="matrix(-0.986, 0.168, -0.168, -0.986, 79.941, 66.554)"/><rect class="ab" width="4.209" height="10.17" transform="matrix(-0.986, 0.168, -0.168, -0.986, 83.819, 64.256)"/><path class="ac" d="M334.04,460.947H335s-.319-3.613.567-3.649,3.081,2.941,4.392,3.4,8.041.85,8.077-.389-2.586-1.736-3.4-2.09-4.783-4.215-5.491-4.676-1.918-3.663-1.918-3.663l-3.757-.166s-.212,2.992-.44,4.577a13.99,13.99,0,0,0-.155,1.484A27.4,27.4,0,0,0,334.04,460.947Z" transform="translate(-272.737 -318.289)"/><path class="ac" d="M301.207,460.072h.8v-3.364c.664.057,2.9,2.169,3.588,2.78s1.637.584,4.547.769,3.183-1.558,2.723-2.15-1.949-.852-2.723-1.222-3.83-3.817-4.646-4.633a8.46,8.46,0,0,1-1.311-3.15l-3.4.3a20.812,20.812,0,0,1-.366,3.928h0l0,.012c-.032.153-.068.3-.108.45C299.8,455.653,301.207,460.072,301.207,460.072Z" transform="translate(-264.108 -318.127)"/><path class="ad" d="M313.6,359.543a34,34,0,0,1,1.4,3.807c.113.768,3.122,8.04,3.992,12.944.521,2.935,1.959,12.124,2.075,13.292.2,2,1.141,6.414,1.286,8.455.081,1.141,5.7,18.666,7.066,27.815a16.886,16.886,0,0,1-5.664-.163,95.834,95.834,0,0,1-7.676-22.869,92.231,92.231,0,0,0-4.39-15.711c-1.279-3.328-8.523-12.75-9.278-13.808s-5.493-6.909-1.008-13.247S313.6,359.543,313.6,359.543Z" transform="translate(-263.922 -293.832)"/><path class="ad" d="M295.717,385.931c.41,2.729-.021,6.313-.878,16.29s1.5,22.055,1.5,22.055a11.973,11.973,0,0,0,6.372,0c-.079-.7,0-24.316,0-26.42s.6-4.492.759-6.908a49.24,49.24,0,0,1,1.734-7.778c.258-.929.525-1.861.784-2.765v0c.146-.506.289-1,.428-1.485,1.214-4.209,2.846-20.46,2.846-20.46s-9.045-7.286-13.449-.426-2.143,11.845-1.987,12.7S295.306,383.2,295.717,385.931Z" transform="translate(-262.236 -293.3)"/><path class="ae" d="M301.749,377.083c.07.155,4.577,10.159,5.737,11.894.258-.929.525-1.861.784-2.765h0S301.9,377.3,301.749,377.083Z" transform="translate(-264.518 -299.108)"/><path class="af" d="M301.207,461.357h.8v-3.364c.664.057,2.9,2.169,3.588,2.78s1.637.584,4.547.769,3.183-1.558,2.723-2.15-1.949-.851-2.723-1.222c-3.112.166-6.91-4.21-8.734-4.2-.968,0-.96.541-.989.643h0l0,.012c-.032.153-.068.3-.108.45C299.8,456.938,301.207,461.357,301.207,461.357Z" transform="translate(-264.108 -319.412)"/><path class="af" d="M334.04,462.55H335s-.319-3.613.567-3.649,3.081,2.941,4.392,3.4,8.041.85,8.077-.389-2.586-1.736-3.4-2.09c-2.777-.006-7.291-3.062-8.691-3.681a5.059,5.059,0,0,0-2.915-.247,13.992,13.992,0,0,0-.155,1.484A27.4,27.4,0,0,0,334.04,462.55Z" transform="translate(-272.737 -319.891)"/><path class="ac" d="M305.515,307.631s-1.443,3.819-.321,6.77c0,0-5.292-.344-5.492-.962s.213-6.339-.515-8.03S305.515,307.631,305.515,307.631Z" transform="translate(-263.828 -280.069)"/><path class="m" d="M303.815,315.861s3.127,1.112,4.541,1.421,4.37,1.71,4.13,6.982a110.28,110.28,0,0,1-1.444,12.11,47.763,47.763,0,0,0,.4,10.833,39.643,39.643,0,0,1-16.317,0s1.563-4.778,1.523-6.014-5.212-11.409-5.452-13.015-1.283-8.692,1.083-10.257,4.29-1.359,5.292-2.059S302.352,315.359,303.815,315.861Z" transform="translate(-261.616 -282.821)"/><path class="m" d="M291.655,357.249a43.834,43.834,0,0,0,23,.013,31.683,31.683,0,0,1-2.108-5.661h0a33.968,33.968,0,0,1-.788-3.8h0a34.407,34.407,0,0,1,.316-12.321c-1.478-12.168-19.89-15.8-21.364-11.943s2.857,20.433,3.076,21.855S291.655,357.249,291.655,357.249Z" transform="translate(-261.523 -284.579)"/><path class="ac" d="M299.786,287.615c2.128-.73,7.878-1.506,9.351,7.32s-1.735,8.978-5.031,8.727-8.453-6.209-8.847-8.02S293.717,289.7,299.786,287.615Z" transform="translate(-262.712 -275.373)"/><path class="ag" d="M307.748,290.752s-1.757,3.758-4.061,5.068c0,0-1.442,3.993-4.569,5.607,0,0-8.295-5.494-3.482-12.024S307.206,288.073,307.748,290.752Z" transform="translate(-262.508 -275.12)"/><path class="ac" d="M306.644,297.255a1.084,1.084,0,0,0-1.987.054c-.558,1.26,1.445,3.479,1.993,3.359S307.353,299,306.644,297.255Z" transform="translate(-265.26 -277.858)"/><path class="ag" d="M294.056,291.6c-.181-.283-5.674-2.826-6.817,2.487s4.424,11.492,5.4,14.149-.441,8.883-.441,8.883,3.35-3.166,4.363-6.48C297.673,307,298.047,297.824,294.056,291.6Z" transform="translate(-260.646 -276.308)"/><path class="ah" d="M296.181,291.654a5.544,5.544,0,0,1,1.9,3.429,4.122,4.122,0,0,0-.362-2.638A1.518,1.518,0,0,0,296.181,291.654Z" transform="translate(-263.048 -276.544)"/><path class="ai" d="M318.808,355.788a33.935,33.935,0,0,1-.788-3.8h0s-.844-1.795-1.129-2.653-2.406-11.406-2.406-11.406S312.242,347.836,318.808,355.788Z" transform="translate(-267.784 -288.769)"/><path class="ac" d="M332.384,363.029a12.375,12.375,0,0,0,2.186,1.805c.534.166,1.564-.744,5.356-1.026.333-.024.918.275.781.715a5.934,5.934,0,0,1-2.5,1.82c-.706.183-4.039,1.507-5.664.857a6.662,6.662,0,0,1-2.73-2.716Z" transform="translate(-271.931 -295.397)"/><path class="m" d="M314.973,318.348s4.386,1.738,4.647,7.834a86.163,86.163,0,0,0,.736,10.22c.238.941.692,4.723,1.8,7,1.071,2.208,8.1,9.195,8.1,9.195l-3.4,3.2s-9.8-9.831-10.393-11.628-3.044-14.307-3.239-16.416C313.06,326.048,310.818,318.474,314.973,318.348Z" transform="translate(-267.35 -283.598)"/><circle class="aj" cx="42.042" cy="42.042" r="42.042" transform="translate(87.613 6.719)"/><path class="ak" d="M390.069,292.119s53.263-6.6,63.876,49.612h0a41.048,41.048,0,0,0-63.877-49.611Z" transform="translate(-287.841 -273.85)"/><path class="al" d="M409.845,271.128a48.763,48.763,0,1,0,48.762,48.762A48.764,48.764,0,0,0,409.845,271.128Zm0,89.586a40.823,40.823,0,1,1,40.824-40.824A40.822,40.822,0,0,1,409.845,360.714Z" transform="translate(-280.186 -271.128)"/></g><g transform="translate(518.946 243.455)"><g transform="translate(0 15.288)"><path class="am" d="M639.344,324.636,627.217,331.3l-12.179-19.165,14.73-5.117Z" transform="translate(-615.038 -307.02)"/></g><g transform="translate(0.806 15.855)"><path class="an" d="M638.864,324.263,627.523,330.5l-11.389-17.922,13.775-4.785Z" transform="translate(-616.134 -307.79)"/></g><g transform="translate(13.31 24.993)"><path class="ac" d="M647.5,324.191s-2.111-1.01-3.038-1.537-3.309-1.252-3.5-1.423-7.065-.6-7.481-.956-.823.843.958,1.233,4.259,1.344,4.4,2.04-1.83.861-2.029,1.434.056.445.338.568,2.337-1.016,3.241-.693,2.286-.124,2.979.114,4.062,1.37,4.062,1.37Z" transform="translate(-633.125 -320.208)"/></g><g transform="translate(22.793 26.959)"><path class="ao" d="M647.1,326.386l-1.088-.4s1.356-3.183,1.947-3.1a14.633,14.633,0,0,1,1.533.314Z" transform="translate(-646.011 -322.878)"/></g><g transform="translate(23.633 26.746)"><path class="ap" d="M647.152,326.86c.138-.1,2.31-4.271,2.31-4.271l4.641.631-2.508,4.935Z" transform="translate(-647.152 -322.589)"/></g><g transform="translate(2.301 25.013)"><path class="ac" d="M627.451,332.387s-1.773-1.6-2.631-2.264-2.468-2.632-2.705-2.746-3.312-6.425-3.814-6.678.474-1.1,1.536.424,2.925,3.491,3.633,3.348.1-2.059.562-2.47.442-.121.667.1-.046,2.6.609,3.323.773,2.2,1.267,2.763,2.873,3.294,2.873,3.294Z" transform="translate(-618.165 -320.234)"/></g><g transform="translate(49.777 122.127)"><path class="aq" d="M682.677,452.541s.384,2.662.431,3.062,4.268-.236,4.268-.236l.341-3.17S683.2,452.165,682.677,452.541Z" transform="translate(-682.677 -452.197)"/></g><g transform="translate(42.842 125.014)"><path class="am" d="M680.575,456.3a11.381,11.381,0,0,1-2.629,2.3c-1.293.7-3.324.977-4.089,1.7-.552.523-2.011,2.772,3.359,2.727s7.958.317,8.534-.545-.833-6.366-.833-6.366A11.367,11.367,0,0,1,680.575,456.3Z" transform="translate(-673.254 -456.12)"/></g><g transform="translate(19.546 122.127)"><path class="aq" d="M641.6,452.541s.383,2.662.432,3.062,4.267-.236,4.267-.236l.341-3.17S642.126,452.165,641.6,452.541Z" transform="translate(-641.598 -452.197)"/></g><g transform="translate(10.13 125.014)"><path class="am" d="M638.606,456.3a11.383,11.383,0,0,1-2.629,2.3c-1.293.7-6.051,1.274-6.815,2-.552.523-1.47,2.626,6.086,2.429,5.368-.141,7.958.317,8.534-.545s-.832-6.366-.832-6.366A10.327,10.327,0,0,1,638.606,456.3Z" transform="translate(-628.804 -456.12)"/></g><g transform="translate(36.603 54.057)"><path class="am" d="M674.456,359.7s3.965,6.3,3.669,11.992,1.438,11.91,2.033,17.858c.664,6.63,3.381,22.327,3.48,25.874s-.422,14.873-.422,14.873l-5.438.124s-4.568-27.443-5.751-30.243-7.05-22.763-7.247-25S674.456,359.7,674.456,359.7Z" transform="translate(-664.776 -359.7)"/></g><g transform="translate(18.811 52.971)"><path class="am" d="M647.2,360.164s-2.989,15.605-3.382,19.09-.658,16.864-.854,19.042-1.314,28.5-2.367,31.737h6.954s5.337-19.135,5.337-28.19,4.124-19.683,6.786-25.656,8.755-6.115,10.391-17.2C670.067,358.988,649.417,356.649,647.2,360.164Z" transform="translate(-640.599 -358.225)"/></g><g transform="translate(30.19 0.613)"><path class="ac" d="M665.539,287.567s-5.322-1.988-7.775,2.063-2.217,12.16.465,13.157,6.712.475,8.085-2.058,2.613-6.2,2.554-8.648A5.335,5.335,0,0,0,665.539,287.567Z" transform="translate(-656.062 -287.079)"/></g><g transform="translate(32.778 11.456)"><path class="ac" d="M659.735,306.864a4.6,4.6,0,0,1-.144,2.144c-.366.708,6.893.726,6.893.726a47.945,47.945,0,0,1,1.707-7.1C669.309,299.379,659.735,306.864,659.735,306.864Z" transform="translate(-659.578 -301.813)"/></g><g transform="translate(30.419)"><path class="ar" d="M667.345,298.521s-.5.826-2.546.506-4.541-3.042-5.4-3.341-.862-.8-.862-.8l-.535.782-.907.057s.827-2.434-.421-3.426,1.3-7.88,7.854-5.587c0,0,5.039,1.389,4.856,4.254S668.473,297.093,667.345,298.521Z" transform="translate(-656.373 -286.246)"/></g><g transform="translate(32.36 16.576)"><path class="an" d="M659.01,310.76s.023-1.353.636-1.482,6.766-.722,7.518-.425v1.575S665.714,311.319,659.01,310.76Z" transform="translate(-659.01 -308.77)"/></g><g transform="translate(32.563 6.553)"><path class="ac" d="M659.447,296.195c.114-.48,1.337-1.853,1.8-.383s-.707,3.448-1.362,3.279S659.156,297.413,659.447,296.195Z" transform="translate(-659.286 -295.151)"/></g><g transform="translate(7.917 34.541)"><path class="as" d="M625.821,333.183h.01C625.789,333.2,625.783,333.2,625.821,333.183Z" transform="translate(-625.796 -333.182)"/></g><g transform="translate(7.953 18.233)"><path class="as" d="M668.648,361.85a56.4,56.4,0,0,1-8.828,1.573c-5.565.613-19.469-.222-19.556-.879s2.99-24.48,2.816-25.708-.269-5.6-.269-5.6A30.779,30.779,0,0,1,640.048,340c-.533.964-2.318,3.984-3.178,3.3-4.165-3.326-10.615-15.858-11.024-15.964.344-.149,3.056-1.4,3.438-1.526.333-.111,3.338,3.07,5.16,5.043.811.879,1.387,1.517,1.387,1.517.526-1.183,2.442-8.635,3.036-11.214,1.343-5.817,1.135-6.058,1.135-6.058,4.072-1.232,10.251-3.738,10.251-3.738l8.154-.333s7.484,1.648,10.43,2.979c.28.126.281,6.676,1.049,8.393l-2.444,5.155s-1.411,10.211-1.7,14.752C665.6,344.386,668.648,361.85,668.648,361.85Z" transform="translate(-625.845 -311.021)"/></g><g transform="translate(43.254 21.212)"><path class="as" d="M682.891,331.966a3.223,3.223,0,0,1-1.807,1.522,2.334,2.334,0,0,1-1.306.131l-.319-.059h0l-5.588-1.036s-1.223-14.081,7.633-17.455C681.737,315.146,684.846,325.662,682.891,331.966Z" transform="translate(-673.813 -315.069)"/></g><g transform="translate(48.899 32.507)"><path class="at" d="M683.109,337.541h0a2.335,2.335,0,0,1-1.306.131l-.319-.059h0l.551-7.2Z" transform="translate(-681.484 -330.418)"/></g><g transform="translate(16.549 38.058)"><path class="at" d="M638.914,339.478l-.682,2.893a22.852,22.852,0,0,1-.7-4.41C638.338,338.84,638.914,339.478,638.914,339.478Z" transform="translate(-637.525 -337.961)"/></g><g transform="translate(41.183 1.567)"><path class="ar" d="M671,288.387s6.975-.8.119,10.845Z" transform="translate(-670.999 -288.375)"/></g><g transform="translate(4.897 16.232)"><path class="am" d="M622.4,311.448l-.709-1.218,5.584-1.927.709,1.212Z" transform="translate(-621.693 -308.303)"/></g></g></g></svg>