<svg xmlns="http://www.w3.org/2000/svg" width="438.5" height="258.278" viewBox="0 0 438.5 258.278"><defs><style>.a,.o{fill:#dfe5f4;}.b{fill:#8c6df2;}.c,.u{fill:#d6c9ff;}.d{fill:#221e50;}.e{fill:#c98c93;}.f{fill:#d98789;}.g{fill:#e7b2b6;}.h{fill:#12263f;}.i{fill:#c5592d;}.j{fill:#333383;}.k{fill:#2b295e;}.ac,.af,.l{fill:#d0d6ec;}.m{fill:#ffb74d;}.n{fill:#252ca1;}.o{opacity:0.4;}.p{fill:#af7041;}.q{fill:#a05f32;}.r{fill:#ad4926;}.r,.u,.z{opacity:0.2;}.s{fill:#dde3f2;}.t{fill:#d1872b;}.v{fill:#d35c2b;}.w{fill:#555ca5;}.x{fill:#e1acb0;}.y{fill:#eecf70;}.z{fill:#da8b39;}.aa{fill:#eef4ff;}.ab{fill:#e7edf7;}.ac{opacity:0.3;}.ad{fill:#de8f39;}.ae{fill:#f2d370;}.af{opacity:0.5;}.ag{fill:#333380;}.ah{fill:#555c9f;}.ai{fill:#dbe1f0;}</style></defs><g transform="translate(-850.703 -4154.278)"><g transform="translate(1064.616 4154.277)"><path class="a" d="M1826.858,344.558H1604.923V208.86h221.934ZM1609.479,340H1822.3V213.415H1609.479Z" transform="translate(-1604.923 -208.86)"/></g><g transform="translate(850.703 4237.469)"><g transform="translate(0.001 76.994)"><path class="b" d="M334.252,1266.823c0,.025-.006.05-.01.075a27.478,27.478,0,0,1-3.257,9.972c-3.222,5.432-9.331,11.478-23.981,13.454-.71.094-1.442.181-2.193.257q-2.05.209-4.313.313c-.192.008-.384.017-.578.021a71.039,71.039,0,0,1-14.347-2.149c-10.915-2.59-18.026-7.921-22.523-14.4,0,0,0,0,0,0a35.172,35.172,0,0,1-3.43-6.231,47.7,47.7,0,0,1-3.543-17.955,59.281,59.281,0,0,1,1.9-14.084,25.6,25.6,0,0,1,3.47-7.724,20.874,20.874,0,0,1,1.327-1.763,19.659,19.659,0,0,1,5.383-4.534c5.214-2.971,22.364-5.932,36.891,1.734C331.781,1237.909,335.806,1255.338,334.252,1266.823Z" transform="translate(-256.074 -1218.932)"/><path class="c" d="M403.853,1632.636H382.58v-33.619h-5.948v33.619H354.5a2.093,2.093,0,1,0,0,4.186h49.349a2.093,2.093,0,1,0,0-4.186Z" transform="translate(-337.133 -1538.74)"/><path class="b" d="M352.779,1513.543a27.479,27.479,0,0,0,3.257-9.972c0-.017,0-.034.007-.051-8.5-.9-19.324-1.986-28.749-2.907a91.286,91.286,0,0,0-12.071-.336,139,139,0,0,0-33.247,5.773,34.676,34.676,0,0,0,2.866,4.981,0,0,0,0,0,0,0c4.5,6.483,11.608,11.814,22.523,14.4a71.047,71.047,0,0,0,14.347,2.149c.194,0,.386-.012.578-.021q2.263-.1,4.313-.312c.751-.076,1.484-.163,2.193-.257C343.448,1525.021,349.558,1518.975,352.779,1513.543Z" transform="translate(-277.869 -1455.606)"/></g><path class="a" d="M641.776,990.632s-.737.947-1.768,2.189c-2.231,2.652-5.914,6.672-6.9,5.535-1.621-1.831-10.019-10.586-16.165-17.553l-.042-.021c-.211-.232-.421-.463-.61-.695-7.177-8.145-7.914-25.4-7.977-27.446V952.6a.172.172,0,0,0,0-.147.8.8,0,0,0,.105.042c.379.126,1.6.589,2.8,1.052q.379.158.821.316c.211.084.421.168.59.232.21.084.442.168.652.252.358.147.589.231.589.231,2.526.989,5.03,2.021,5.493,2.315C623.38,959.628,641.776,990.632,641.776,990.632Z" transform="translate(-552.449 -917.717)"/><path class="d" d="M985.367,1797.866l1.58,6.02,16.393.007S999.243,1795.939,985.367,1797.866Z" transform="translate(-869.709 -1628.806)"/><path class="d" d="M770.4,1711.4l-2.375,5.753,12.949,10.053S782.628,1718.239,770.4,1711.4Z" transform="translate(-686.837 -1556.304)"/><path class="a" d="M420.469,979.331v-.169c0-.358-.021-.716-.042-1.073a131.419,131.419,0,0,0-2.989-24.963s-.232-.084-.589-.232c-.19-.063-.4-.147-.652-.252-.169-.064-.379-.147-.589-.232l-.821-.316c-1.2-.463-2.421-.926-2.8-1.052-.063-.021-.084-.042-.105-.042a.172.172,0,0,1,0,.147v.042l-.042.042a3.481,3.481,0,0,1-.863.968,10.437,10.437,0,0,1-3.283,1.684v.021a15.566,15.566,0,0,1-2.294.505,7.659,7.659,0,0,1-.8.611h-.021a1.731,1.731,0,0,1-.4.189.873.873,0,0,1-.21.084.413.413,0,0,1-.147.021,15.843,15.843,0,0,1-1.726-.021,19.948,19.948,0,0,1-4.5-.758,18.4,18.4,0,0,1-5.409-2.4,3.8,3.8,0,0,1-1.326-1.41h-.021c-12.165,4.1-13.681,5.7-13.681,6.272-.042,2.5-2.547,5.557-2.273,11.2.358,7.535.947,16.922,1.6,25.657.842,11.324,1.81,21.574,2.568,25.363a4.294,4.294,0,0,0,.147.653,3.7,3.7,0,0,0,.21.673.073.073,0,0,0,.021.042.458.458,0,0,0,.063.105h.758c2.1-.042,8.209-.168,14.755-.421,1.81-.063,3.725-.126,5.62-.189,7.682-.316,15.218-.674,16.038-1.494.484-.484,1.473-4.693,2.336-11.2.631-4.63,1.179-10.44,1.41-16.881.021-.778.063-1.557.084-2.336C420.532,985.308,420.553,982.362,420.469,979.331Z" transform="translate(-356.02 -916.267)"/><path class="e" d="M502.472,952.387a64.772,64.772,0,0,0-18.99.541L485,955.771l10.926,1.628,6.042-.832Z" transform="translate(-447.417 -917.276)"/><path class="f" d="M507.966,880.716s1.254,10.28,1.4,11.733l-8.319,1.284-5.464-4.524a25.1,25.1,0,0,0,2.15-12.589Z" transform="translate(-457.596 -853.912)"/><path class="g" d="M514.127,801.371s-11.918.545-12.143-6.883-1.915-12.359,5.685-13.02,9.165,2.127,9.843,4.588S517.221,801.038,514.127,801.371Z" transform="translate(-462.72 -773.767)"/><path class="h" d="M486.681,754.155s.891-9.911,11.508-9.555,6.024-9.686-3.1-11.166c0,0,.952,3.538-4.787,4.1C478.258,738.7,485.611,752.583,486.681,754.155Z" transform="translate(-447.417 -733.434)"/><path class="i" d="M537.808,977.2l5.472-.581a.811.811,0,0,1,.554,1.012c-.132.862-1.936,3.2-2.616,3.312S536.325,978.783,537.808,977.2Z" transform="translate(-492.863 -938.051)"/><path class="j" d="M378.118,1384.913s6.895,17.945,29.43,18.372c35.391.672,35.388.8,35.388.8s-2.7,17.13,22.411,40.379h14.137l-27.141-66.16-46.185-1.741s-32.288-.726-34.829,3.727C370.776,1381.262,378.118,1384.913,378.118,1384.913Z" transform="translate(-353.025 -1274.537)"/><path class="k" d="M638.382,1297.45l30.392-14.223a17.365,17.365,0,0,1,12.6.236l4.356,1.79a4.2,4.2,0,0,1,2.448,5l-16.622,66-13.328-4.109s-1.884-24.091,1.5-35.413c2.642-8.83,6.138-17.344,6.138-17.344Z" transform="translate(-577.752 -1195.137)"/><g transform="translate(34.422 32.792)"><path class="l" d="M560.848,941.56s-.911,4.066-3.313,6.033l3.7,4.818s4.487-5.311,4.356-9.114A29.971,29.971,0,0,0,560.848,941.56Z" transform="translate(-544.148 -941.345)"/><path class="a" d="M562,941.56s-.694,3.828-3.1,5.795l3.559,4.381s3.906-4.54,4.284-8.438A29.975,29.975,0,0,0,562,941.56Z" transform="translate(-545.3 -941.345)"/><path class="l" d="M477.358,941.56s5.665,5.368,9.37,5.795l-2.536,6.33s-11.035-6.538-11.068-10.454C473.125,943.231,476.162,941.594,477.358,941.56Z" transform="translate(-473.125 -941.345)"/><path class="a" d="M479.823,940.206s5.347,5.582,9.052,6.01l-2.053,5.834s-11.113-6.256-11.146-10.173C475.676,941.877,478.627,940.24,479.823,940.206Z" transform="translate(-475.271 -940.206)"/></g><g transform="translate(39.048 111.346)"><path class="k" d="M549.539,1444.926a7.978,7.978,0,0,1-2-.692,7.707,7.707,0,0,0-1.813-.642c-7.022-1.024-13.387-2.277-19-3.384q-2.209-.435-4.329-.846c-12.78-2.462-20.032-3.81-20.1-3.819h0c.072.009,7.377.924,20.174,3.388q2.123.409,4.331.847c5.61,1.1,11.969,2.357,18.98,3.38a8,8,0,0,1,1.937.677,7.672,7.672,0,0,0,1.868.656C551.432,1444.746,551.388,1445.181,549.539,1444.926Z" transform="translate(-502.294 -1435.543)"/></g><g transform="translate(81.369 82.376)"><path class="k" d="M769.156,1252.866c.006.015.013.036.023.065Z" transform="translate(-769.156 -1252.866)"/><path class="k" d="M882.731,1565.487l-.121.033c-4.328-7.724-8.989-17.05-13.315-26.955-.662-1.513-1.331-3.076-1.993-4.64-.728-1.726-1.455-3.479-2.16-5.208a6.25,6.25,0,0,1-.346-1.6v0c.127-.186.25-.376.373-.565,0,.015,0,.029,0,.044a7.707,7.707,0,0,0,.367,1.945c.7,1.728,1.429,3.478,2.158,5.2.661,1.563,1.331,3.124,1.99,4.636C874.009,1548.269,878.41,1557.776,882.731,1565.487Z" transform="translate(-849.629 -1483.148)"/></g><path class="l" d="M403.11,1110.937c-6.777.021-17.533.294-23.8,1.621-1.326-5.346-3.452-33.74-4.315-51.672,4.062,3.073,11.26,9.029,11.513,12.544.358,4.925.168,20.332,3.157,23.068C392.439,1099.023,402.962,1108.011,403.11,1110.937Z" transform="translate(-356.131 -1008.955)"/><path class="l" d="M494.829,1063.773c-.021.779-.063,1.557-.084,2.336l-3.957,10.566s-27.025,1.658-27.509-7.813c-.505-9.472,1.908-28.283,1.908-28.283.484.4,9.711,22.269,24.444,22.9C491.882,1063.583,493.566,1063.688,494.829,1063.773Z" transform="translate(-430.359 -991.869)"/><path class="m" d="M545.3,998.506s-1.038,9.79-1.222,13.065c-.519,9.214-.709,36.909-.709,36.909a6.289,6.289,0,0,0,1.341,4.346,24.8,24.8,0,0,0,3.3,3.249,12.209,12.209,0,0,0,3.307-5.964c.625-2.59-.875-24.335-2.388-38.82a129.913,129.913,0,0,0-2.017-12.981S545.675,998.093,545.3,998.506Z" transform="translate(-497.793 -956.255)"/><path class="n" d="M306.262,1333.319c-4.76-20.486-33.617-52.66-43.839-63.4a25,25,0,0,0-4.457,9.071,59.269,59.269,0,0,0-1.9,14.085,47.722,47.722,0,0,0,3.543,17.956c4.839,11.249,14.036,17.825,25.955,20.636C296.148,1334.174,300.469,1334.058,306.262,1333.319Z" transform="translate(-256.07 -1184.838)"/></g><g transform="translate(1071.476 4161.754)"><rect class="o" width="207.849" height="119.639" transform="translate(0)"/><g transform="translate(170.782 9.079)"><path class="l" d="M2737.5,338.126a12.435,12.435,0,1,1,12.435-12.435A12.449,12.449,0,0,1,2737.5,338.126Zm0-24.294a11.859,11.859,0,1,0,11.859,11.859A11.872,11.872,0,0,0,2737.5,313.832Z" transform="translate(-2725.069 -313.256)"/><path class="l" d="M2753.894,335.241l-10.692-3.853,7.762,8.295a11.316,11.316,0,1,1,2.929-4.442Z" transform="translate(-2730.767 -318.953)"/></g><g transform="translate(170.782 40.005)"><path class="l" d="M2737.5,533.13a12.435,12.435,0,1,1,12.435-12.435A12.449,12.449,0,0,1,2737.5,533.13Zm0-24.294a11.859,11.859,0,1,0,11.859,11.859A11.872,11.872,0,0,0,2737.5,508.836Z" transform="translate(-2725.069 -508.26)"/><path class="l" d="M2753.894,530.245l-10.692-3.853,7.762,8.3a11.316,11.316,0,1,1,2.929-4.442Z" transform="translate(-2730.767 -513.957)"/></g><g transform="translate(170.782 70.93)"><path class="l" d="M2737.5,728.134a12.435,12.435,0,1,1,12.435-12.435A12.449,12.449,0,0,1,2737.5,728.134Zm0-24.294a11.859,11.859,0,1,0,11.859,11.859A11.872,11.872,0,0,0,2737.5,703.84Z" transform="translate(-2725.069 -703.264)"/><path class="l" d="M2753.894,725.249,2743.2,721.4l7.762,8.3a11.316,11.316,0,1,1,2.929-4.442Z" transform="translate(-2730.767 -708.961)"/></g><g transform="translate(12.592 80.523)"><path class="l" d="M1744.02,796.638a16.441,16.441,0,1,1,16.441-16.441A16.46,16.46,0,0,1,1744.02,796.638Zm0-32.12A15.679,15.679,0,1,0,1759.7,780.2,15.7,15.7,0,0,0,1744.02,764.518Z" transform="translate(-1727.579 -763.756)"/><path class="l" d="M1765.689,792.823l-14.136-5.094,10.263,10.967a14.967,14.967,0,1,1,3.873-5.873Z" transform="translate(-1735.113 -771.288)"/></g><g transform="translate(53.553 80.523)"><path class="l" d="M2002.3,796.638a16.441,16.441,0,1,1,16.441-16.441A16.46,16.46,0,0,1,2002.3,796.638Zm0-32.12a15.679,15.679,0,1,0,15.679,15.68A15.7,15.7,0,0,0,2002.3,764.518Z" transform="translate(-1985.862 -763.756)"/><path class="l" d="M2023.973,792.823l-14.136-5.094L2020.1,798.7a14.966,14.966,0,1,1,3.873-5.873Z" transform="translate(-1993.396 -771.288)"/></g><g transform="translate(12.592 41.309)"><path class="l" d="M1744.02,549.365a16.441,16.441,0,1,1,16.441-16.441A16.46,16.46,0,0,1,1744.02,549.365Zm0-32.12a15.679,15.679,0,1,0,15.679,15.68A15.7,15.7,0,0,0,1744.02,517.245Z" transform="translate(-1727.579 -516.483)"/><path class="l" d="M1765.689,545.55l-14.136-5.094,10.263,10.967a14.967,14.967,0,1,1,3.873-5.873Z" transform="translate(-1735.113 -524.015)"/></g><g transform="translate(53.553 41.309)"><path class="l" d="M2002.3,549.365a16.441,16.441,0,1,1,16.441-16.441A16.46,16.46,0,0,1,2002.3,549.365Zm0-32.12a15.679,15.679,0,1,0,15.679,15.68A15.7,15.7,0,0,0,2002.3,517.245Z" transform="translate(-1985.862 -516.483)"/><path class="l" d="M2023.973,545.55l-14.136-5.094,10.263,10.967a14.966,14.966,0,1,1,3.873-5.873Z" transform="translate(-1993.396 -524.015)"/></g><rect class="l" width="10.58" height="88.851" transform="translate(150.706 10.153)"/><rect class="l" width="10.58" height="68.389" transform="translate(133.144 30.615)"/><rect class="l" width="10.58" height="45.751" transform="translate(115.583 53.253)"/><rect class="l" width="10.58" height="52.286" transform="translate(98.022 46.718)"/><g transform="translate(7.8 9.367)"><path class="l" d="M1754.767,318.125h-55.881a1.531,1.531,0,0,1-1.527-1.527h0a1.531,1.531,0,0,1,1.527-1.527h55.881a1.531,1.531,0,0,1,1.527,1.527h0A1.531,1.531,0,0,1,1754.767,318.125Z" transform="translate(-1697.359 -315.072)"/><path class="l" d="M2107.422,318.125h-27.375a1.531,1.531,0,0,1-1.527-1.527h0a1.531,1.531,0,0,1,1.527-1.527h27.375a1.531,1.531,0,0,1,1.527,1.527h0A1.531,1.531,0,0,1,2107.422,318.125Z" transform="translate(-2018.073 -315.072)"/><path class="l" d="M1726.261,354.8h-27.375a1.531,1.531,0,0,1-1.527-1.527h0a1.531,1.531,0,0,1,1.527-1.527h27.375a1.531,1.531,0,0,1,1.527,1.527h0A1.531,1.531,0,0,1,1726.261,354.8Z" transform="translate(-1697.359 -345.932)"/><path class="l" d="M1958.568,354.8h-55.43a1.531,1.531,0,0,1-1.527-1.527h0a1.531,1.531,0,0,1,1.527-1.527h55.43a1.531,1.531,0,0,1,1.527,1.527h0A1.531,1.531,0,0,1,1958.568,354.8Z" transform="translate(-1869.219 -345.932)"/><path class="l" d="M1755.738,391.477h-55.431a1.531,1.531,0,0,1-1.527-1.527h0a1.531,1.531,0,0,1,1.527-1.527h55.431a1.531,1.531,0,0,1,1.527,1.527h0A1.531,1.531,0,0,1,1755.738,391.477Z" transform="translate(-1698.555 -376.791)"/></g><g transform="translate(96.672 104.155)"><path class="l" d="M2286.658,915.823h-27.375a1.531,1.531,0,0,1-1.526-1.526h0a1.531,1.531,0,0,1,1.526-1.527h27.375a1.531,1.531,0,0,1,1.527,1.527h0A1.531,1.531,0,0,1,2286.658,915.823Z" transform="translate(-2257.756 -912.77)"/><path class="l" d="M2518.967,915.823h-55.431a1.531,1.531,0,0,1-1.527-1.526h0a1.531,1.531,0,0,1,1.527-1.527h55.431a1.531,1.531,0,0,1,1.526,1.527h0A1.531,1.531,0,0,1,2518.967,915.823Z" transform="translate(-2429.616 -912.77)"/><path class="l" d="M2316.135,952.5H2260.7a1.531,1.531,0,0,1-1.526-1.527h0a1.53,1.53,0,0,1,1.526-1.527h55.431a1.531,1.531,0,0,1,1.527,1.527h0A1.531,1.531,0,0,1,2316.135,952.5Z" transform="translate(-2258.952 -943.629)"/></g></g><g transform="translate(982.146 4193.635)"><g transform="translate(17.239 95.787)"><path class="d" d="M1434.542,1799.8l1.719,5.688h17.065S1448.961,1797.812,1434.542,1799.8Z" transform="translate(-1396.331 -1682.361)"/><path class="k" d="M1246.711,1179.66l-13.235-.171-3.161-.04a455.1,455.1,0,0,1-8.978-59.1c-.329-4.142-.9-6.833-1.183-9.712-2.485,28.515-5.782,61.057-10.408,69.028l-15.972-.211s-.683-19.894.641-57.915c.489-26.057,1.343-51.877,2.819-55.726h0c.012-.221.027-.441.041-.665.651-9.977,42.108,1.324,42.108,1.324l.438,6.783.031.489Z" transform="translate(-1193.598 -1061.028)"/><g transform="translate(40.145 8.327)"><path class="d" d="M1452.684,1118.559a13.093,13.093,0,0,1-5.946-4.8l.37-.218a12.613,12.613,0,0,0,5.544,4.545Z" transform="translate(-1446.738 -1113.538)"/></g></g><g transform="translate(17.415 100.566)"><path class="d" d="M1199.389,1799.8l1.72,5.688h17.065S1213.808,1797.812,1199.389,1799.8Z" transform="translate(-1198.647 -1687.141)"/><path class="j" d="M1225.78,1091.6V1112s-1.875.5-2.118,1.86-.919,55.969-12.983,91.162h-15.972s.517-106.905,3.463-113.852Z" transform="translate(-1194.707 -1091.168)"/><g transform="translate(5.239 3.013)"><path class="d" d="M1228.031,1116.255a13.589,13.589,0,0,0,11.536-5.876l-.37-.216a13.178,13.178,0,0,1-11.449,5.661l-.007.428Z" transform="translate(-1227.74 -1110.164)"/></g><g transform="translate(2.848 12.794)"><path class="k" d="M1212.78,1258.163c1.284-8.469,2.346-18.519,2.931-29.005.089-1.6.171-3.253.244-4.9.08-1.82.15-3.663.208-5.478a8.275,8.275,0,0,0-.317-2.042,7.98,7.98,0,0,1-.3-1.857c.171-6.9.03-13.223-.095-18.8q-.049-2.195-.091-4.3c-.234-12.681-.322-19.866-.319-19.937h0c0,.07-.319,7.22-.085,19.918q.039,2.107.09,4.3c.125,5.572.266,11.886.095,18.777a8.316,8.316,0,0,0,.313,1.982,7.957,7.957,0,0,1,.3,1.913c-.058,1.813-.128,3.655-.208,5.473-.073,1.648-.155,3.3-.244,4.9-.583,10.472-1.361,20.611-2.643,29.066Z" transform="translate(-1212.664 -1171.843)"/></g></g><path class="p" d="M1802.9,585.572l2.385-2.051a8.758,8.758,0,0,1,8.6-6.9s3.041.12,2.017,2.142-.916,1.132-2.3,4.006-3.937,5.01-6.223,5.066l-4.187.674Z" transform="translate(-1689.031 -557.654)"/><path class="q" d="M1287.218,602.883c1.2-1.5-1.292-1.788-2.627-1.931-.208-.022-.531-.041-.944-.055-.1,0-.142-.092-.177-.185-1.748-4.659-1.373-7.55-1.373-7.55l-10.5-7.219c-.205,9.105-1.049,10.976-2.406,14.826-.03.085-.071.164-.161.165-.73.01-2.275.157-2.275.157S1272.175,615.125,1287.218,602.883Z" transform="translate(-1237.91 -565.5)"/><path class="p" d="M1292.5,523.755s-12.082,4.22-14.594-3.345-5.764-12.114,1.844-15.128,10.073-.628,11.525,1.693S1295.579,522.463,1292.5,523.755Z" transform="translate(-1244.865 -496.438)"/><path class="h" d="M1257.973,481.526s-2.172-10.673,9.074-13.627,3.282-12.046-6.749-10.739c0,0,2.107,3.412-3.736,5.8C1244.3,467.962,1256.357,480.213,1257.973,481.526Z" transform="translate(-1224.756 -457.033)"/><g transform="translate(1.845 25.867)"><path class="m" d="M1213.027,624.451s-19.84,22.983-21.772,23.3c-15.312,2.5-28.561-1.412-29.623-1.1-.046.012-.069.034-.069.063.084,8.688.279,22.182-3.855,48.789,0,0-.209,1.515-5.643.925-2.849-.309-11.5-.457-19.483-.477-7.243-.02-13.935.064-15.248.224-2.757.337-2.5-.844-2.5-2.024s3.6-18.711,2.5-24.379c-.727-3.782-.592-4.837-1.6-7.9v0a1.961,1.961,0,0,0-2.18-1.93l-.013,0c-4.219,4.955-8.913,9.854-10.469,10.952-2.868,2.025-6.551-10.151-6.551-10.151,4.871-12.456,13.078-27.127,14.806-28.291,2.924-1.967,14.853-3.55,14.853-3.55s6.192,3.975,10.128,3.469,3.312-4.737,3.312-4.737,9.244-2.46,14.07-1.719c6.519,1,31.712,9.1,32.387,9.1s22.153-13.652,24.853-14.873l1.687,3.474Z" transform="translate(-1096.526 -620.139)"/><path class="r" d="M1222.952,897.527c-7.243-.02-13.935.064-15.248.224-2.757.337-2.5-.844-2.5-2.025s3.6-18.712,2.5-24.379c-.727-3.782-.592-4.837-1.6-7.9v0a1.961,1.961,0,0,0-2.18-1.93,3.322,3.322,0,0,1,2.482-1.783c2.755-.648,13.682,13.815,14.593,16.449C1221.841,878.606,1224.927,894.068,1222.952,897.527Z" transform="translate(-1186.896 -821.721)"/><path class="r" d="M1557.059,642.881s-19.84,22.983-21.772,23.3c-15.312,2.5-28.56-1.412-29.623-1.1-.456-.839-.448-1.748,1.056-2.3,3.374-1.237,24.743,2.137,27.1,1.012,2.166-1.031,19.907-18.813,22.828-21.746Z" transform="translate(-1440.558 -638.569)"/></g><g transform="translate(0 66.468)"><path class="s" d="M1304.42,932.538h19.233l-3.88,22.1h-19.064Z" transform="translate(-1266.482 -923.597)"/><path class="p" d="M1268.618,980.128l3.136.235a8.757,8.757,0,0,1,10.96,1.2s2.066,2.235-.087,2.941-1.448.153-4.458,1.209-6.325.761-7.982-.816l-3.438-2.483Z" transform="translate(-1237.91 -962.65)"/><path class="t" d="M1086.738,876.156s25.063,12.483,32,17.713l-1.529,5.638s-31.736-8.252-32.242-12.975S1086.738,876.156,1086.738,876.156Z" transform="translate(-1084.893 -876.156)"/></g></g><g transform="translate(1091.643 4327.275)"><path class="c" d="M1785.665,1301.045V1383.2a1.331,1.331,0,0,1-1.328,1.328h-7.666a1.331,1.331,0,0,1-1.326-1.328v-82.151a1.331,1.331,0,0,1,1.326-1.328h7.666A1.331,1.331,0,0,1,1785.665,1301.045Z" transform="translate(-1775.345 -1299.717)"/><path class="u" d="M1782.459,1301.045V1383.2a1.332,1.332,0,0,1-1.328,1.328h-4.461a1.331,1.331,0,0,1-1.326-1.328v-82.151a1.331,1.331,0,0,1,1.326-1.328h4.461A1.332,1.332,0,0,1,1782.459,1301.045Z" transform="translate(-1775.345 -1299.717)"/></g><path class="c" d="M1699.353,1717.814H1645.9c0-12.447,11.966-22.539,26.727-22.539a31.662,31.662,0,0,1,4.892.378C1689.943,1697.589,1699.353,1706.776,1699.353,1717.814Z" transform="translate(-574.786 2694.731)"/><g transform="translate(1080.9 4390.383)"><path class="c" d="M1751.27,1719.819H1707.6c0-11.038,9.41-20.225,21.834-22.161C1741.859,1699.594,1751.27,1708.781,1751.27,1719.819Z" transform="translate(-1707.602 -1697.658)"/></g><rect class="c" width="382.724" height="10.978" rx="5.489" transform="translate(906.479 4318.999)"/><g transform="translate(1151.644 4254.433)"><g transform="translate(36.495 83.767)"><path class="g" d="M2448.278,1742.575l-2.318,9.135-4.841-.444-1.468-13.817Z" transform="translate(-2430.796 -1678.955)"/><path class="v" d="M2400.393,1804.213l-1.518,5.02h-15.061S2387.667,1802.461,2400.393,1804.213Z" transform="translate(-2383.814 -1734.887)"/><path class="j" d="M2456.617,1368.6s-31.454,30.18-31.454,31.951,1.771,33.019,1.771,33.019h9.524s5.226-15.875,5.753-20.1a89.326,89.326,0,0,0,.918-11.721Z" transform="translate(-2418.606 -1368.604)"/></g><g transform="translate(4.974 83.767)"><path class="g" d="M2251.324,1738.192l-6.6,6.728-3.96-2.82,5.685-12.679Z" transform="translate(-2231.929 -1672.199)"/><path class="v" d="M2201.637,1804.213l-1.518,5.02h-15.061S2188.91,1802.461,2201.637,1804.213Z" transform="translate(-2185.058 -1734.887)"/><path class="w" d="M2303.51,1368.6s-37.344,11.438-41.672,17.8-18.639,48.505-18.639,48.505h11.81a91.448,91.448,0,0,0,11.641-15.894c5.107-9.13,8.288-16.057,9.574-17.26,2.742-2.563,33.784-8.513,33.784-8.513Z" transform="translate(-2233.978 -1368.604)"/><g transform="translate(16.579 15.275)"><path class="j" d="M2334.421,1465.023c-6.036,1.188-12.876,2.535-20.418,3.635a8.615,8.615,0,0,0-2.083.729,8.253,8.253,0,0,1-2.01.705,4.148,4.148,0,0,0-1.4.354l-.017-.027c0,.014,0,.029,0,.043-.052.043-.057.082-.013.112a7.791,7.791,0,0,1-.383,1.984c-.757,1.859-1.537,3.742-2.321,5.6-.712,1.681-1.432,3.36-2.142,4.988-4.646,10.64-9.38,20.866-14.029,29.163l.13.036c4.656-8.31,9.67-18.341,14.323-29,.711-1.627,1.432-3.309,2.143-4.992.783-1.856,1.564-3.742,2.323-5.6a6.748,6.748,0,0,0,.373-1.719v0c-.092-.133.406-.376,1.067-.468a8.582,8.582,0,0,0,2.147-.745,8.278,8.278,0,0,1,1.95-.69c7.554-1.1,14.4-2.45,20.442-3.64C2336.082,1465.174,2336.006,1464.711,2334.421,1465.023Z" transform="translate(-2289.599 -1464.92)"/></g></g><g transform="translate(0 42.826)"><path class="w" d="M2153.691,1110.443h32.019l11.719,21.535h-33.317Z" transform="translate(-2153.691 -1110.443)"/><path class="l" d="M2162.941,1114.918h29.908l10.97,20.116h-31.145Z" transform="translate(-2161.475 -1114.208)"/><rect class="w" width="42.308" height="0.915" transform="translate(10.46 20.826)"/></g><path class="x" d="M2261.023,1217.224l-3.663-.205a5.966,5.966,0,0,0-7.116,2.4s-1.046,1.79.49,1.944.985-.111,3.142.15,4.32-.422,5.191-1.715l.959-1.442Z" transform="translate(-2234.64 -1156.981)"/><g transform="translate(23.287)"><path class="f" d="M2599.847,953.915s-.225,7.311,1.012,11.922h11.766s-2.882-11.2-2.263-15.893Z" transform="translate(-2552.365 -932.571)"/><path class="g" d="M2567.5,883.944s10.807,4.78,13.68-2,6.2-10.722-.576-14.06-9.224-1.325-10.733.7S2564.76,882.526,2567.5,883.944Z" transform="translate(-2524.32 -862.031)"/><path class="y" d="M2551.938,1075.422v0a49.1,49.1,0,0,0-2.869-12.511,32.529,32.529,0,0,0-4.447-8.253c-.014-.021-.03-.041-.046-.062a24.614,24.614,0,0,1-3.722-8.6c-2.444-9.392-2.4-21.076-2.4-21.076s25.81-6.262,29.607-4.416,13.159,54.919,13.159,54.919Z" transform="translate(-2500.718 -991.655)"/><path class="y" d="M2354.9,1028.067s-13.941,1.31-16.641,3.5-11.489,24.294-11.489,24.294-10.83.961-14.5,1.315c-3.286.316-11.743,1.194-11.743,1.194l.656,3.3s8.464.859,11.319.968c4.978.191,20.013.231,20.013.231s5.7-6.876,7.424-9.425C2344.1,1047.295,2354.9,1028.067,2354.9,1028.067Z" transform="translate(-2300.53 -998.305)"/><path class="h" d="M2603.091,882.546a45.992,45.992,0,0,0-1.346-5.1c.2.943.46,3.837.59,5.388A86.432,86.432,0,0,1,2592,885.59a17.219,17.219,0,0,1-.806-1.6,14.445,14.445,0,0,0,.335,1.707c-1.68.358-3.266.671-4.594.924h0c-1.246-2.834-1.673-8.565-1.673-8.565-.545,2.632.3,6.966.753,8.739-1.709.321-2.806.5-2.806.5-1.6-4.545-.889-16.544-.074-21.487s-5.382-10.565-6.7-14.632,1.451-7.634,1.451-7.634a23.765,23.765,0,0,1,9.6-3.084c6.664-.506,8.93,2.407,9.785,4.663,5.9,15.582,7.393,36.672,7.393,36.672A11.854,11.854,0,0,1,2603.091,882.546Z" transform="translate(-2532.384 -840.4)"/><path class="z" d="M2577.613,1200.283h-12.92a49.119,49.119,0,0,0-2.869-12.511,32.519,32.519,0,0,0-4.447-8.253l-.046-.062a24.606,24.606,0,0,1-3.722-8.6c.416-.982,1.077-2.044,2.044-2.282,1.871-.461,3.922,8.264,7.018,9.323S2577.613,1200.283,2577.613,1200.283Z" transform="translate(-2513.474 -1116.516)"/></g></g><g transform="translate(1195.939 4316.88)"><path class="c" d="M2559.223,1621.177h-24.068v-35.342h-6.47v35.342h-23.139a2.277,2.277,0,0,0,0,4.554h53.677a2.277,2.277,0,0,0,0-4.554Z" transform="translate(-2492.125 -1530.066)"/><path class="b" d="M2507.6,1234.232c4.5-.521,7.962,2.738,9.324,7.063,4.4,13.955,6.164,49.148-28.609,57.4-34.135,8.1-49.807-10.649-54.333-16.67a6.13,6.13,0,0,1-.359-6.027C2440.237,1265.122,2484.045,1236.953,2507.6,1234.232Z" transform="translate(-2432.998 -1234.177)"/><path class="n" d="M2591.3,1298.854c7.837,2.2,17.729,2.76,30.01-.155,34.773-8.252,33.007-43.444,28.607-57.4-1.363-4.322-4.818-7.584-9.323-7.059-5.839.673-12.921,2.909-20.378,6.066.132.326.254.657.358.994,4.394,13.959,6.166,49.151-28.607,57.4C2591.741,1298.755,2591.52,1298.8,2591.3,1298.854Z" transform="translate(-2566.195 -1234.182)"/></g><g transform="translate(1110.487 4293.987)"><path class="aa" d="M1906.129,1102.95l.026,14.021a3.028,3.028,0,0,1-3.013,3.025l-5.748.01a3.2,3.2,0,0,1-3.2-3.185l-.026-13.851a5.8,5.8,0,0,1,3.453-5.3.66.66,0,0,0,.4-.686,1.972,1.972,0,0,1-.017-.256v-.741l4.271-.008,0,.74a2,2,0,0,1-.021.286.579.579,0,0,0,.337.626A5.808,5.808,0,0,1,1906.129,1102.95Z" transform="translate(-1894.172 -1095.001)"/><path class="ab" d="M1917.459,1102.95l.026,14.021a3.028,3.028,0,0,1-3.013,3.025l-3.612.006a3.2,3.2,0,0,1-3.2-3.185l-.026-13.85a5.8,5.8,0,0,1,3.453-5.3.7.7,0,0,0,.25-.188.641.641,0,0,0,.146-.5,1.961,1.961,0,0,1-.017-.256v-.741l2.135,0v.74a1.9,1.9,0,0,1-.021.286.579.579,0,0,0,.336.626A5.808,5.808,0,0,1,1917.459,1102.95Z" transform="translate(-1905.502 -1095.001)"/><path class="ac" d="M1915.091,1110.9l.026,14.021a3.028,3.028,0,0,1-3.013,3.024l-1.244,0a3.2,3.2,0,0,1-3.2-3.185l-.026-13.851a5.8,5.8,0,0,1,3.453-5.3.7.7,0,0,0,.25-.188.533.533,0,0,0,.211.16A5.808,5.808,0,0,1,1915.091,1110.9Z" transform="translate(-1905.502 -1102.949)"/><path class="ad" d="M1922.594,1090.607v.312l-4.271.008v-.312a1.853,1.853,0,0,1,.172-.788l3.922-.007A1.859,1.859,0,0,1,1922.594,1090.607Z" transform="translate(-1914.493 -1089.82)"/><rect class="ae" width="11.957" height="8.23" transform="matrix(1, -0.002, 0.002, 1, 0.002, 9.171)"/></g><g transform="translate(1098.123 4309.349)"><g transform="translate(0 0)"><rect class="ab" width="9.674" height="9.674"/><rect class="ac" width="9.674" height="1.515" transform="translate(0 8.127)"/></g><rect class="af" width="4.44" height="9.642" transform="translate(2.608 0)"/></g><g transform="translate(976.446 4309.349)"><g transform="translate(0 0)"><rect class="ab" width="9.674" height="9.674"/><rect class="ac" width="9.674" height="1.515" transform="translate(0 8.127)"/></g><rect class="af" width="4.44" height="9.642" transform="translate(2.608 0)"/></g><path class="l" d="M685.1,1134.53c-2.231,2.652-5.914,6.672-6.9,5.535-1.621-1.831-10.019-10.586-16.165-17.553a.616.616,0,0,1-.042-.19,2.372,2.372,0,0,1-.042-1.073.426.426,0,0,1,.358-.379c.884-.105,14.691,12.966,21.406,13.345A3.056,3.056,0,0,1,685.1,1134.53Z" transform="translate(253.159 3178.043)"/><g transform="translate(920.761 4292.197)"><path class="ag" d="M768.209,1078.528h35.556l-7.362,25.909H761.146Z" transform="translate(-751.104 -1078.528)"/><path class="ah" d="M771.651,1078.528h35.556l-7.362,25.909H764.589Z" transform="translate(-754.001 -1078.528)"/><rect class="ag" width="45.845" height="0.893" transform="translate(0 25.909)"/><path class="ai" d="M895.516,1150.477a2.75,2.75,0,0,1,2.013-2.515,1.521,1.521,0,0,1,2.013,1.511,2.749,2.749,0,0,1-2.013,2.515A1.521,1.521,0,0,1,895.516,1150.477Z" transform="translate(-864.164 -1136.898)"/></g><g transform="translate(868.434 4272.578)"><path class="g" d="M647.326,1204.129l4.3.833s6.22-3.852,10.976,1.832c0,0,1.776,2.471-.447,2.908s-1.456-.025-4.572.654-6.371-.02-7.823-1.788l-4.1-1.281Z" transform="translate(-601.607 -1164.218)"/><path class="a" d="M383.064,954.816s-10.993,3.225-13.037,5.014-2.279,11.534-2.1,14.605,14.759,23.624,16.644,24.676,33.1,2.117,33.1,2.117v-6.151s-23.861-6.43-26.309-7.688Z" transform="translate(-367.875 -954.816)"/></g></g></svg>