<svg xmlns="http://www.w3.org/2000/svg" xmlns:xlink="http://www.w3.org/1999/xlink" width="269.533" height="231.928" viewBox="0 0 269.533 231.928"><defs><style>.a{fill:#bef5fc;}.b{fill:none;}.c{fill:url(#a);}.d{fill:#646aa2;}.e{fill:#432c47;}.f{fill:#fd5e5a;}.g{fill:#fc7575;}.h{fill:#230044;}.i{fill:#131537;}.j{fill:#1d1c22;}.k{fill:#e85553;}.l{fill:#0f1d5b;}.m{fill:#1a0033;}.ac,.m{opacity:0.53;}.n{fill:#fff7cf;}.o{fill:#d1ccb2;}.p{fill:#2e005b;}.q{fill:#4f3369;}.r{fill:#53587d;}.s{fill:#3a3745;}.t{fill:#341102;}.u{fill:url(#b);}.v{fill:#375866;}.w{fill:#d1fedf;}.x{fill:url(#c);}.y{fill:url(#d);}.z{fill:#262943;opacity:0.57;}.aa{fill:#3b1b36;}.ab{fill:#a07fc0;}.ac{fill:#a992c0;mix-blend-mode:screen;isolation:isolate;}.ad{fill:#73557a;}.ae{fill:#70497a;}.af{fill:#381a3f;}.ag{fill:#653870;}.ah{fill:#172866;}.ai{fill:#2f499f;}.aj{fill:#fff;}.ak{fill:#2e162b;}.al{fill:#452140;}.am{fill:#341930;}.an{fill:#4c2a54;}.ao{fill:#363a68;}.ap{fill:#5c2c55;}.aq{fill:#284758;}.ar{fill:#e3feec;}.as{fill:#f4fff7;}.at{fill:#a4c1ad;}.au{fill:#6ca3c2;}.av{fill:#517a92;}.aw{fill:#9dbfa7;}.ax{fill:url(#f);}.ay{fill:#58307d;}</style><linearGradient id="a" x1="0.269" y1="1.087" x2="0.731" y2="-0.073" gradientUnits="objectBoundingBox"><stop offset="0" stop-color="#f59bf3"/><stop offset="1" stop-color="#ffaf90"/></linearGradient><linearGradient id="b" x1="0.901" y1="0.01" x2="0.026" y2="1.167" gradientUnits="objectBoundingBox"><stop offset="0" stop-color="#29002c"/><stop offset="1" stop-color="#330065"/></linearGradient><linearGradient id="c" y1="0.5" x2="1" y2="0.5" gradientUnits="objectBoundingBox"><stop offset="0" stop-color="#290051"/><stop offset="1" stop-color="#330065"/></linearGradient><linearGradient id="d" x1="0.73" y1="0.019" x2="0.2" y2="0.854" xlink:href="#c"/><linearGradient id="f" x1="0.924" y1="0.922" x2="-0.426" y2="0.057" xlink:href="#c"/></defs><g transform="translate(6060.767 9083)"><g transform="translate(-6060.767 -9075.725)"><circle class="a" cx="12.667" cy="12.667" r="12.667" transform="translate(9.669 65.019) rotate(-45)"/><circle class="a" cx="4.789" cy="4.789" r="4.789" transform="translate(22.331 24.238)"/><circle class="a" cx="13.439" cy="13.439" r="13.439" transform="translate(240.76 33.815)"/><circle class="a" cx="3.09" cy="3.09" r="3.09" transform="translate(230.638 12.574) rotate(-58.283)"/><circle class="a" cx="6.179" cy="6.179" r="6.179" transform="translate(253.387 125.719) rotate(-22.5)"/><circle class="a" cx="3.398" cy="3.398" r="3.398" transform="translate(0 149.416) rotate(-68.367)"/><circle class="a" cx="4.943" cy="4.943" r="4.943" transform="translate(5.03 91.898)"/><circle class="a" cx="5.252" cy="5.252" r="5.252" transform="matrix(0.23, -0.973, 0.973, 0.23, 190.262, 10.223)"/></g><path class="a" d="M455.353,339.426c-8.412-3.379-19.242.561-26.539-4.679-5.915-4.247-6.5-12.426-6.134-19.5s.9-14.953-3.863-20.371c-3.842-4.372-10.211-5.89-16.175-6.048s-11.948.783-17.886.211c-12.778-1.231-23.557-9.167-34.838-15.044-14.618-7.614-31.334-12.056-47.922-10.779s-32.948,8.664-43.054,21.327-13.125,30.7-5.968,45.087c3.695,7.428,10.045,14.916,7.807,22.859-1.544,5.484-6.913,9.225-12.43,11.309s-11.48,2.968-16.918,5.236a33.882,33.882,0,0,0-19.117,20.514,31.519,31.519,0,0,0-1.3,12.726,34.155,34.155,0,0,0-.134,3.756A49.719,49.719,0,0,0,218.6,431.36c5.055,8.143,5.2,19.931,6.883,29.206,1.394,7.691,2.923,15.7,7.695,21.939,5.74,7.509,15.415,11.267,24.914,12.163s19.031-.7,28.482-2a454.436,454.436,0,0,1,98.8-2.708c14.354,1.175,29.076,3,42.952-.8s26.871-14.993,27.485-29.168a26.913,26.913,0,0,0-.681-7.191c-2.135-9.345-8.754-17.745-14.711-25.663-7.447-9.9-14.6-22.063-11.073-33.881l.016-.053a11.236,11.236,0,0,1,6.094-6.955c7.045-3.224,21.364-10.42,26.16-17.577C468.013,359.122,466.274,343.812,455.353,339.426Z" transform="translate(-6259.072 -9346)"/><rect class="b" width="204" height="204" transform="translate(-6020.267 -9068)"/><g transform="translate(-6210.561 -9328.999)"><path class="c" d="M359.623,464.622c-20.654-13.432,15.113-35.109,7.194-56.548s-34.053.6-48.115,11.165-30.54-8.335-41.465-8.842-4.776,7.752-9.7,18.451-41.246,1.814-55.806,12.147,8.636,32.324,10.589,45.437-23.125,27.951-7.058,47.413l79.821-.385c8.032-2.014,13.272-3.61,13.272-3.61C383.078,503.526,380.277,478.054,359.623,464.622Z" transform="translate(0 -83.715)"/><path class="d" d="M370.233,831.657c0,2.383-49.831,5.894-86.136,1.891-36.745-4.052-57.2-.687-57.2-3.07s33.754-4.29,70.721-4.29S370.233,829.274,370.233,831.657Z" transform="translate(-13.805 -379.367)"/><path class="e" d="M323.17,826.369h8.63l-5.52-3.411.6-2.706c-1.26,0-1.565.853-2.838.853C323.683,823.1,323.17,826.369,323.17,826.369Z" transform="translate(-80.439 -375.26)"/><g transform="translate(275.037 332.685)"><path class="f" d="M428.107,458.883l6.555-3.436-.2,2.256-1.246,6.225-4.745-1.3Z" transform="translate(-428.107 -455.447)"/><path class="g" d="M444.68,461.585c-1.723.7-7.751.525-7.751.525s-4.62,3.646-4.424,4.48.488.613,1.038,1.326a7.031,7.031,0,0,0,1.859,1.4,2.613,2.613,0,0,0,2.2.711c1.2-.28,4.09-3.292,5.4-3.6.268-.063,1.432-.327,3.118-.719Z" transform="translate(-431.147 -459.695)"/><path class="f" d="M447.867,455.447s3.615,2.841,3.281,3.379-3.962-.963-3.962-.963Z" transform="translate(-441.312 -455.447)"/><path class="f" d="M453.526,475.57s-3.554-1.668-3.925-1.071,1.512,1.636,1.512,1.636-2.016-.925-2.358-.673,1.414,1.545,1.414,1.545-1.957-1.084-2.459-.779,1.25,2.2,1.25,2.2S453.734,477.359,453.526,475.57Z" transform="translate(-441.612 -468.544)"/></g><g transform="translate(286.947 304.993)"><g transform="translate(0 0)"><path class="h" d="M549.991,472.549l-6.014.884,3.381-15.6,3.268,1.68Z" transform="translate(-520.216 -429.407)"/><path class="i" d="M496.709,371.905s-10.839,15.666-13.088,17.914-16.827,9.526-16.827,9.526l2.483,5.216,17.489-8.934,10.645-9.764Z" transform="translate(-466.795 -369.932)"/><path class="j" d="M606.484,821.105l-.093,5.763.641.019.826-6.57Z" transform="translate(-563.416 -680.297)"/><g transform="translate(9.473 80.697)"><path class="g" d="M588.613,658.159s.686,9.011,1.79,11.7-.869,38.281-1.806,41.151a8.753,8.753,0,0,1-.78,1.7c-1.023,1.749-1.255,2.105.116,2.11,1.761.006,3.3-.329,3.646-1.051.591-1.245,1.112-5.535,2.317-5.53a5.024,5.024,0,0,0,.618-2.441c-.309-1.266-1.17-.615-1.164-2.377S599.192,674.9,598.278,671s-1.561-4.362-1.546-9S588.613,658.159,588.613,658.159Z" transform="translate(-559.451 -648.722)"/><path class="f" d="M522.745,627.621s-6.573,12.525-6.152,16.234,1.808,6.705.617,11.768-10.617,23.427-10.842,26.784c-.095,1.415.337,1.548.337,1.548-.019,2.439-.78,5.052-1.287,5.556-.651.647-1.384,3.861-2,3.859s-5.84.556-5.84.556c-.135-1.191,1.463-.234,2.4-2.7s1.5-6.175,2.695-11.177,6.075-27.826,6.093-33.079-.465-5.279.35-8.737a72.132,72.132,0,0,1,3.865-9.937Z" transform="translate(-497.567 -627.621)"/><path class="k" d="M541.476,643.855c-.42-3.709,6.152-16.234,6.152-16.234l-9.77.674a72.141,72.141,0,0,0-3.865,9.937,15.283,15.283,0,0,0-.408,5.488c1.868.4,4.773.988,8.091,1.524C541.6,644.788,541.53,644.328,541.476,643.855Z" transform="translate(-522.45 -627.621)"/><path class="f" d="M600.41,662c.015-4.635-8.12-3.845-8.12-3.845s.438,5.746,1.176,9.432a36.906,36.906,0,0,0,7.5-.276A18.545,18.545,0,0,1,600.41,662Z" transform="translate(-563.129 -648.722)"/></g><path class="l" d="M539.487,485.557s-1.145,17.642-2.01,21.845-5.809,33.989-5.809,33.989,22.025,1.854,27.34,0c0,0,.593-38.222-.658-43.135s-6.723-13.853-6.723-13.853Z" transform="translate(-511.696 -447.797)"/><path class="m" d="M556.706,485.557s-.058.9-.159,2.352a19.453,19.453,0,0,1,4.865,7.176c1.042,3.271,9.072,2.789,13.871,2.191-1.636-5.031-6.436-12.873-6.436-12.873Z" transform="translate(-528.916 -447.797)"/><path class="h" d="M573.712,365.982l-6.681-.484-2.367,4.632,9.506.99Z" transform="translate(-534.534 -365.498)"/><path class="n" d="M553.866,369.591s3.042-2.32,13.352.007c.281.063.539,11.229.539,11.229s-4.783,18.724-3.873,23.4c0,0-5.468,4.614-13.625.6,0,0,1.06-14.7.318-17.979s-2.222-6.246-.121-9.644A38.552,38.552,0,0,0,553.866,369.591Z" transform="translate(-523.951 -367.619)"/><path class="o" d="M570.105,385.392v21.616a11.737,11.737,0,0,0,8.125-2.193c-.909-4.673,3.874-23.4,3.874-23.4s-.256-11.187-.538-11.251c-1.636-.369-3.089-.621-4.375-.783Z" transform="translate(-538.3 -368.188)"/><path class="p" d="M580.942,367.07l-5.832,16.7v27.716l12.887.622L583.5,406.23l-1.522-7.371,3.586-19.064-.541-11.232Z" transform="translate(-541.765 -366.586)"/><path class="p" d="M552.713,365.5l-4.8,15.937-1.245,28.089h-2.689l2.888-14.841-1.693-16.734L550,367.141Z" transform="translate(-520.216 -365.498)"/><path class="q" d="M580.942,367.07l-5.832,16.7,7.452-9.712,1.242-6.543Z" transform="translate(-541.765 -366.586)"/><path class="q" d="M561.558,365.5l-4.8,15.937.433-11.4,2-4.052Z" transform="translate(-529.062 -365.498)"/><path class="f" d="M608.718,494.642c.167-.167,1.629-2.32,1.941-2.008s-1.294,2.3-1.294,2.3,1.863-1.885,2.231-1.517-2.489,2.914-2.79,2.914S608.718,494.642,608.718,494.642Z" transform="translate(-564.975 -453.473)"/><path class="g" d="M599.737,485.058s-.788,1.2-.207,1.783.269,1.182.664,1.575,2.156.456,2.156.456a12.1,12.1,0,0,1,1-3.649,13.57,13.57,0,0,1,1.408-2,23.906,23.906,0,0,0-2.433-1.392C600.862,483.723,599.763,485.012,599.737,485.058Z" transform="translate(-558.518 -446.017)"/><path class="q" d="M605.989,371.908s-1.023,8.126,0,10.365c1,2.179,6.814,4.693,7.812,9.107.746,3.3-5.242,9.987-8.406,14.1a36.968,36.968,0,0,0,3.985,2.885c3.221-4.1,11.344-13.75,11.547-16.013C621.175,389.568,610.313,371.618,605.989,371.908Z" transform="translate(-562.725 -369.932)"/><path class="r" d="M605.989,371.916c-.154,1.9-.275,3.71-.311,5.643-.032,3.413.173,4.49.927,5.346,1.749,2.027,6.43,4.5,7.2,8.483-1.09-3.945-5.617-6.141-7.446-8.271a4.257,4.257,0,0,1-.908-2.722A42.334,42.334,0,0,1,605.989,371.916Z" transform="translate(-562.726 -369.94)"/><path class="s" d="M592.13,808.247c-.541,3.222-2.351,8.776-3.6,9.3-2.061.432-2.072.218-2.06-.908-1.023,1.749-2.181,2.643-.81,2.648,1.761.006,4.508.122,4.851-.6.591-1.245.927-5.962,2.132-5.958l-.394,5.807.64.019s.975-7.994.77-8.793A2.311,2.311,0,0,0,592.13,808.247Z" transform="translate(-548.636 -671.943)"/><path class="s" d="M496.32,819.014c-1.435.888-3.212.907-3.1,1.862,0,0,6.761-.267,7.379-.266s1.156-3.8,1.807-4.443.232,4.45.232,4.45l.666,0a54.538,54.538,0,0,1,1.088-7.288,2.213,2.213,0,0,0-.7-2.72C501.648,814.484,501.43,819.94,496.32,819.014Z" transform="translate(-485.079 -673.579)"/></g></g><path class="f" d="M396.438,572.5s2.873,8.709,3.385,9.6.525,4.984-.294,5.539-.222-1.658-.44-2.828a9.293,9.293,0,0,0-1.286-2.728,7.594,7.594,0,0,1,1.175,2.677c.221,1.126-.064,2.556-.448,2.777-.885.51-.16-.858-.463-2.49a4.329,4.329,0,0,0-1.2-2.4s.739,3.042-.045,3.476-3.5-11.846-3.5-11.846Z" transform="translate(-128.997 -203.782)"/><path class="t" d="M366.459,378.673a35.2,35.2,0,0,1,5.333,15.1c.272,3.422.032,20.382,1.688,27.442,2.144,9.14,5.13,17.88,5.13,17.88l-6.942,4.2-5.459-21.778L364.725,406Z" transform="translate(-109.201 -69.624)"/><path class="u" d="M330.912,575.419l-9.541,66.919,4.528-.758,7.778-36.275s5.125-33.665,5.125-45.82Z" transform="translate(-79.194 -194.772)"/><path class="e" d="M271.752,827.9h8.811l-5.52-3.41.6-2.706c-1.26,0-1.565.853-2.838.853C272.447,824.632,271.752,827.9,271.752,827.9Z" transform="translate(-44.85 -376.323)"/><path class="v" d="M330.187,361.619l-.337,5.262,12.47-1.417-2.914-3.57Z" transform="translate(-85.063 -57.82)"/><path class="w" d="M328.432,406.733c-.032-17.852-2.767-35.609-6.667-37.868,0,0-4.534-.312-6.866-.39-3.48-.117-6.188,1.641-9.078,11.487-1.822,6.208-2.076,20.056-1.88,33.113.086,5.789.623,11.589.747,15.688,9.829,0,14.07.419,23.607.419C328.9,411.52,328.442,412.04,328.432,406.733Z" transform="translate(-67.091 -62.562)"/><path class="x" d="M361.964,369.755s5.277,2.361,6.891,18.222,3.839,48.244,3.839,48.244h-7.349s-.8-46.262-.8-49.434S361.964,369.755,361.964,369.755Z" transform="translate(-107.29 -63.451)"/><path class="g" d="M319.538,442.722l-.015-.016C319.656,442.7,319.647,442.7,319.538,442.722Z" transform="translate(-77.915 -113.941)"/><path class="y" d="M300.977,527.731l-18.631.466-1.541,10.068-.6,42.836s-9.015,30.19-10.826,40.215c0,0,5.152-.315,4.856-.315l15.16-35.816,6.845-32.72,5.606-12.72Z" transform="translate(-43.206 -172.793)"/><path class="z" d="M322.99,547.794c-.116-5.919-.4-12.945-.719-19.726l-14.485.363L306.244,538.5l-.114,8.1Z" transform="translate(-68.645 -173.026)"/><path class="aa" d="M310.454,528.188l-.468,2.993h19.353l-.254-3.449Z" transform="translate(-71.314 -172.794)"/><rect class="ab" width="4.931" height="2.739" transform="translate(252.587 355.17)"/><path class="ac" d="M360.117,528.486h-4.931v.257c.951-.027,3.424.012,3.884,1.113a7.956,7.956,0,0,1,.442,1.37h.6Z" transform="translate(-102.599 -173.316)"/><path class="ad" d="M307.155,608.081l-8.2,32.254L285.15,676.616,300.31,640.8Z" transform="translate(-54.124 -228.407)"/><path class="x" d="M303.331,391.188c.027.214-5.8-21-5.8-21a24.471,24.471,0,0,0-4.55,1.923l-3.754,11.9s-1.55,21.722-1.55,23.446c0,.927-1.867,14.8-3.592,27.433l21.265,1.629C305.031,418.9,303.331,391.188,303.331,391.188Z" transform="translate(-53.387 -63.75)"/><path class="z" d="M313.392,430.358s-13.163-15.338-14.553-13.394c-.125,1.765-.47,6.628-.8,11.418,3.323,8.39,14.077,22.1,16.486,25.112C314.175,444.836,313.716,436.148,313.392,430.358Z" transform="translate(-63.048 -96.009)"/><path class="ae" d="M346.6,438.406l2.02,45.331S347.84,438.962,346.6,438.406Z" transform="translate(-96.655 -110.968)"/><g transform="translate(239.234 278.38)"><path class="af" d="M331.392,310.727c-.215-.137-2.893-6.8-2.893-6.8s-1.787-5-.633-5.848,3.9-3.783,6.3-3.836a9.127,9.127,0,0,1,4.231.8c.215.137,1.773,2.766,1.773,2.766s-.725-.886-1.1,2.4S331.392,310.727,331.392,310.727Z" transform="translate(-322.655 -289.565)"/><path class="g" d="M342.664,335.261c-.285.851-.162,6.925-.388,8.455-.223,1.51-7.116,3.85-7.251-1.642s.407-11.951.407-11.951Z" transform="translate(-327.864 -314.399)"/><path class="f" d="M343.053,335.26h0l-2.4-1.706-4.831-3.433v.018c0,.023-.005.066-.01.127-.016.2-.046.6-.085,1.151v0c-.007.112-.016.229-.024.353,0,.008,0,.016,0,.024-.026.4-.055.858-.084,1.363l0,.085c-.007.12-.014.242-.021.367v0c0,.065-.007.13-.011.2,0,.007,0,.014,0,.021,0,.025,0,.05,0,.074s0,.019,0,.029l-.007.13c.9,2.944,4.291,6.141,7.226,6.521.006-.2.017-.409.032-.615A34.553,34.553,0,0,1,343.053,335.26Z" transform="translate(-328.253 -314.399)"/><path class="g" d="M334.225,307.306a10.592,10.592,0,0,0,1.174,9.25c2.1,3.038,5.01,4.6,7.091,3.072s2.677-11.145,1.173-13.618S335.571,303.959,334.225,307.306Z" transform="translate(-326.928 -296.615)"/><path class="ag" d="M319.111,298.968s-.468-3.143-1.674-3.91-1.751-1.233-1.969-2.343-4.242-1.853-3.585-3.679,3.808-2.68,5.41-5.854,3.331-4.931,7.066-3.775,4.254,3.435,4.254,3.435a2.634,2.634,0,0,1,2.655,1.686,3.369,3.369,0,0,1-.364,4.017s.139-2.6-.754-2.422.007,3.044.007,3.044a23.557,23.557,0,0,1-2.77-2.794c-1.429-1.7-1.077.288-.655,2.439s-2.747.124-4.156-1.431-3.424-.1-4.16,2.1S320.854,295.154,319.111,298.968Z" transform="translate(-311.811 -279.051)"/><path class="g" d="M332.62,321.565s-1.317-2.249-2-1.271-.12,3.9,1.332,3.926S332.62,321.565,332.62,321.565Z" transform="translate(-324.628 -307.426)"/><path class="f" d="M333.219,323.353s.05-1.3-.657-.871.005,2.524.657,2.483S333.219,323.353,333.219,323.353Z" transform="translate(-325.971 -309.05)"/><path class="ah" d="M358.161,323.55a8.153,8.153,0,0,1,.528,1.856,4.848,4.848,0,0,1-.02,2.056c-.16-.03-.587-.093-1.151-.241.363-.01.724,0,1.083.019l-.121.089A25,25,0,0,0,358.161,323.55Z" transform="translate(-343.447 -309.851)"/><path class="ai" d="M351.45,323.263a.652.652,0,0,1-.38.812c-.287.058-.581-.212-.658-.6a.651.651,0,0,1,.38-.811C351.078,322.6,351.372,322.873,351.45,323.263Z" transform="translate(-338.515 -309.23)"/><path class="ai" d="M364.26,321.443a.652.652,0,0,1-.38.812c-.286.058-.581-.212-.658-.6a.653.653,0,0,1,.38-.812C363.889,320.784,364.183,321.053,364.26,321.443Z" transform="translate(-347.382 -307.97)"/><path class="ah" d="M346.54,318.5a2.8,2.8,0,0,1,1.615-1.267c1.009-.2.7.645.469.692S346.5,318.3,346.54,318.5Z" transform="translate(-335.848 -305.455)"/><path class="ah" d="M361.819,315.707s1.2.354,1.422.9c0,0-1.265-.1-1.493-.4A.337.337,0,0,1,361.819,315.707Z" transform="translate(-346.315 -304.422)"/><path class="aj" d="M349.266,340.931s3.086,1.16,4.759.045c0,0-.469,1.553-.9,1.834C352.232,343.4,350.025,342.952,349.266,340.931Z" transform="translate(-337.735 -321.881)"/></g><g transform="translate(315.718 281.225)"><path class="ak" d="M573.966,289.7c.415.384,4.381-.2,7.74,3.419,4.442,4.78,3.918,15.948,3.918,15.948a57.371,57.371,0,0,1-6.582,1.148,56.122,56.122,0,0,1-7.681-.766c-2.067-.305-3.181-11.929-1.79-15.008A11.45,11.45,0,0,1,573.966,289.7Z" transform="translate(-566.274 -289.265)"/><path class="al" d="M567.943,289.685s-4.428-.255-5.525,2.605-.633,12-2.168,12.954a4.578,4.578,0,0,0,2.132.687s.641,1.128-.9,2.793a12.614,12.614,0,0,0,3.853.709c.135,0,1.571.4,1.7-.812.156-1.437-.993-4.621-.844-6.012C566.826,296.717,567.943,289.685,567.943,289.685Z" transform="translate(-560.251 -289.252)"/><path class="am" d="M573.056,291.41a4.248,4.248,0,0,0-1.163.135s-3.8,1.589-3.968,4.383.215,3.879-.09,5.687c-.48,2.842,1.318,8.127,4.412,8.058.072-1.5-1-4.521-.855-5.867C571.919,298.878,572.787,293.15,573.056,291.41Z" transform="translate(-565.447 -290.45)"/><path class="g" d="M572.782,341.617s-.711,5.392-1.452,6.815-1.921,7.631-.884,7.631,5.862-4.831,6.173-6.787,1.822-10.03,1.822-10.03Z" transform="translate(-567.025 -323.56)"/><path class="f" d="M578.463,341.013c-.04.019-.159,1.136-.165,1.18-.171,1.2-.222,1.127-.17,1.287.4,1.257,2.024,2.045,4.415-.093a11.851,11.851,0,0,0,.876-.872c.336-1.819.607-3.268.607-3.268S578.511,340.993,578.463,341.013Z" transform="translate(-572.611 -323.56)"/><path class="g" d="M573.682,291.5s-3.587,1.52-3.749,4.195.205,3.713-.083,5.444.457,6.357,3.172,7.526,6.327-3.31,6.96-5.321a16.121,16.121,0,0,0,.167-8.035C579.461,292.16,575.677,290.945,573.682,291.5Z" transform="translate(-566.855 -290.421)"/><path class="f" d="M578.2,306.488a9.79,9.79,0,0,0,2-3.147,16.122,16.122,0,0,0,.167-8.035c-.687-3.146-4.471-4.361-6.466-3.809,0,0-3.587,1.52-3.749,4.195-.054.9-.049,1.609-.029,2.225h0l3.378-.115s-.209-2.867.463-3.595l.112,3.446,2.315.017a6.485,6.485,0,0,0,.795-2.831,7.719,7.719,0,0,1-.394,2.838s1.886-.1,1.925.881c.031.8-.247,5.806-.389,7.132A7.579,7.579,0,0,1,578.2,306.488Z" transform="translate(-567.075 -290.421)"/><path class="an" d="M583.753,294.007c-2.709-5.581-7.622-6.4-10.347-5.282-1.736.09-3.713.816-4.584,2.279a4.918,4.918,0,0,0-.269,4.455l3.224-.034s.126-3.307.8-4.034l.157,4,2.287-.09a11.363,11.363,0,0,0,.692-3.341s.447,2.318-.026,3.315c0,0,1.63.181,1.669,1.158.031.8-.247,5.806-.389,7.132a6.81,6.81,0,0,1-1.669,3.89s5.375.946,6.484-.254l-.562,1.676a19.267,19.267,0,0,0,3.844-.782C585.889,307.659,585.312,297.219,583.753,294.007Z" transform="translate(-565.712 -288.292)"/><path class="ag" d="M568.822,291.976a4.918,4.918,0,0,0-.269,4.455l3.224-.034s.126-3.307.8-4.035l.157,4,2.287-.09a11.363,11.363,0,0,0,.692-3.341s.447,2.318-.026,3.315c0,0,1.63.181,1.669,1.158.031.8-.247,5.806-.389,7.132-.015.143-.034.282-.056.418h0c3.008-3.008,2.49-10.219,1.686-12.768s-5.189-2.487-5.189-2.487C571.669,289.786,569.692,290.512,568.822,291.976Z" transform="translate(-565.712 -289.264)"/><path class="ag" d="M585.266,290.356c4.064-.219,6.936.7,8.369,4.527,1.393,3.682,2.768,9.4,1.478,13.12l-1.328-.508c1.234-2.965.492-7.91-.342-11.031C592.4,292.555,591.051,290.4,585.266,290.356Z" transform="translate(-577.565 -289.699)"/><g transform="translate(3.124 0.843)"><path class="ao" d="M574.272,291.116c-1.386.414-2.915,1.112-3.532,2.413a6.185,6.185,0,0,0-.049,3.878l.344,0C570.379,294.682,570.047,292.543,574.272,291.116Z" transform="translate(-570.398 -291.09)"/><path class="ao" d="M577.916,291.448c-2.862,1.221-2.751,3.435-2.051,6.172l.34,0C575.3,294.93,575.088,292.75,577.916,291.448Z" transform="translate(-573.894 -291.32)"/><path class="ao" d="M585.145,291.031a9.117,9.117,0,0,1,.166,6.22l.328-.013A9.431,9.431,0,0,0,585.145,291.031Z" transform="translate(-580.605 -291.031)"/></g><path class="al" d="M577.751,324.6a3.71,3.71,0,0,0,.463-2.409,7.6,7.6,0,0,1-.7,2.333l-.073.09a1.623,1.623,0,0,0,1.1.484A2.445,2.445,0,0,1,577.751,324.6Z" transform="translate(-572.146 -311.752)"/><path class="aj" d="M581.452,344.244h0Z" transform="translate(-574.924 -327.019)"/><g transform="translate(4.997 14.048)"><path class="aj" d="M579.856,333.923a10.449,10.449,0,0,1-3.375.733,3.58,3.58,0,0,0,.412.564,10.374,10.374,0,0,0,2.692-.576A4.492,4.492,0,0,0,579.856,333.923Z" transform="translate(-576.481 -333.923)"/><path class="ak" d="M580.513,336.263a10.378,10.378,0,0,1-2.692.576C578.832,337.96,579.849,337.644,580.513,336.263Z" transform="translate(-577.409 -335.543)"/></g><path class="ap" d="M583.2,314.026a1.828,1.828,0,0,1,.917-.463,4.308,4.308,0,0,1,1.935.58,11.165,11.165,0,0,0-1.681-.334,2.672,2.672,0,0,0-.942.371Z" transform="translate(-576.133 -305.771)"/><path class="ap" d="M572.131,314.509a1.674,1.674,0,0,0-.778-.442,3.737,3.737,0,0,0-1.69.359,9.868,9.868,0,0,1,1.463-.171,2.457,2.457,0,0,1,.8.366Z" transform="translate(-566.765 -306.113)"/><path class="ak" d="M583,319.661a1.691,1.691,0,0,1,1.383-.391c.58.114.907.587,1.268.66-.543.133-.727-.475-1.977-.411A2.278,2.278,0,0,0,583,319.661Z" transform="translate(-575.998 -309.719)"/><path class="ak" d="M571.33,320.073a1.691,1.691,0,0,0-1.346-.5c-.587.067-.951.512-1.317.555.53.177.763-.415,2-.249A2.28,2.28,0,0,1,571.33,320.073Z" transform="translate(-566.075 -309.937)"/><ellipse class="f" cx="1.526" cy="0.598" rx="1.526" ry="0.598" transform="translate(7.966 10.693)"/><path class="f" d="M572.287,323.625c0,.33-.5.6-1.108.6s-1.108-.268-1.108-.6.5-.6,1.108-.6S572.287,323.295,572.287,323.625Z" transform="translate(-567.048 -312.334)"/></g><path class="aq" d="M360.894,362.512l2.951,22.517.982-11.115-1.019-1.237v-6.6Z" transform="translate(-106.549 -58.438)"/><path class="ar" d="M327.41,359.793l3.51,5.245-1.691,3.216-5.2-6.243,2.13-1.656Z" transform="translate(-81.03 -56.557)"/><path class="as" d="M357.573,362.512l-1.477,4.132L357.573,369l.711-3.981Z" transform="translate(-103.228 -58.438)"/><path class="aq" d="M324.563,385.259l-4.819-23.639-4.982,3.872,4.359,8.094-.325,2.535Z" transform="translate(-74.619 -57.82)"/><path class="at" d="M347.217,375.932l-1.181.96-1.8-.684-.971,1.847s3.952.213,4.851-.686Z" transform="translate(-94.349 -67.727)"/><path class="au" d="M346.936,376.384l2.723-.195-.083,2.386-2.171.1Z" transform="translate(-96.888 -67.905)"/><path class="av" d="M348.458,384.041l2.171-.1,4.189,39.843-1.824,2.839-3.4-2.291Z" transform="translate(-97.942 -73.269)"/><path class="w" d="M418.764,466.886l3.063-.6.374,4.514-3.436,2.027Z" transform="translate(-146.604 -130.268)"/><path class="aw" d="M420.525,467.113l-1.761.342V473.4l2.571-1.517Z" transform="translate(-146.604 -130.837)"/><path class="ax" d="M303.794,376.431s-4.6,3.339-4.041,12.821c.389,6.6,16.409,26.67,16.409,26.67l22.288-4.01-.6-7.659-16.2.746Z" transform="translate(-64.198 -68.072)"/><path class="ae" d="M330.985,404.73c-6.147-9.9-11.528-18.55-18-28.3,6.084,10.351,11.46,18.881,17.719,28.834,7.63-.436,10.033-.546,16.34-1.013C344.34,404.3,333.56,404.615,330.985,404.73Z" transform="translate(-73.39 -68.072)"/><g transform="translate(279.635 340.239)"><path class="ay" d="M443.341,488.311a.3.3,0,0,1-.025-.6c12.3-1.038,14.062-7.44,14.079-7.5a.3.3,0,0,1,.58.144c-.069.28-1.842,6.879-14.609,7.956Z" transform="translate(-443.043 -479.984)"/></g><g transform="translate(289.703 339.324)"><path class="ay" d="M476.045,486.257a.3.3,0,0,1-.115-.575c7.683-3.191,7.974-8.328,7.976-8.379a.307.307,0,0,1,.31-.287.3.3,0,0,1,.287.309c-.008.225-.283,5.562-8.344,8.91A.3.3,0,0,1,476.045,486.257Z" transform="translate(-475.746 -477.015)"/></g><g transform="translate(337.723 278.738)"><path class="ay" d="M635.4,295.009a.3.3,0,0,1-.3-.3,28.927,28.927,0,0,0-3.324-14.038.3.3,0,0,1,.508-.314A29.585,29.585,0,0,1,635.7,294.71.3.3,0,0,1,635.4,295.009Z" transform="translate(-631.729 -280.216)"/></g><g transform="translate(234.781 278.081)"><path class="ay" d="M299.359,296.019a.3.3,0,0,1-.259-.149c-4.224-7.3.479-17.2.681-17.62a.3.3,0,0,1,.538.261c-.048.1-4.765,10.032-.7,17.06a.3.3,0,0,1-.259.449Z" transform="translate(-297.345 -278.081)"/></g></g></g></svg>