<svg xmlns="http://www.w3.org/2000/svg" xmlns:xlink="http://www.w3.org/1999/xlink" width="269.533" height="231.928" viewBox="0 0 269.533 231.928"><defs><style>.a{fill:#bef5fc;}.b{fill:none;}.c{fill:url(#a);}.d{fill:url(#b);}.e{fill:#c7b299;}.f{fill:#560036;}.g{fill:#3d1618;}.h{fill:#542360;}.i{fill:#dd9da1;}.j{fill:#90585c;}.k{fill:#a67679;}.l{fill:#3a1942;}.m{fill:#56393b;}.n{fill:#7a4548;}.o{fill:#642e31;}.p{fill:#aeb3d2;}.q{fill:#616685;}.r{fill:#fd5e5a;}.s{fill:#fc7575;}.t{fill:#d7d9e8;}.u{fill:#dfe1ed;}.v{fill:#121841;}.w{fill:#0f1d5b;}.x{fill:#8b2d5f;}.y{fill:#ebc4c7;}.z{fill:#452140;}.aa{fill:#5c2c55;}.ab{fill:#2e162b;}.ac{fill:#5b6499;}.ad{fill:#363a68;}.ae{fill:#455bb5;}.af{fill:#381a3f;}.ag{fill:#653870;}.ah{fill:#172866;}.ai{fill:#f7931e;}.aj{fill:#dfe4e0;}.ak{fill:#284758;}.al{fill:url(#c);}.am{fill:url(#d);}.an{fill:url(#e);}.ao{fill:url(#f);}.ap{fill:#765893;}.aq{fill:#12113f;}.ar{fill:url(#g);}.as{fill:#000f2e;}.at{fill:#f4dee0;}.au{fill:#58307d;}</style><linearGradient id="a" x1="0.836" y1="-0.284" x2="0.066" y2="1.127" gradientUnits="objectBoundingBox"><stop offset="0" stop-color="#ebb5d0"/><stop offset="1" stop-color="#7947b5"/></linearGradient><linearGradient id="b" x1="0.415" y1="2.037" x2="0.512" y2="0.271" xlink:href="#a"/><linearGradient id="c" x1="0.298" y1="0.091" x2="0.904" y2="1.082" gradientUnits="objectBoundingBox"><stop offset="0" stop-color="#290051"/><stop offset="1" stop-color="#330065"/></linearGradient><linearGradient id="d" x1="0.714" y1="0.056" x2="0.423" y2="1.124" xlink:href="#c"/><linearGradient id="e" x1="0" y1="0.5" x2="1" y2="0.5" xlink:href="#c"/><linearGradient id="f" x1="0.701" y1="0.048" x2="0.093" y2="1.109" xlink:href="#c"/><linearGradient id="g" x1="0.92" y1="0.879" x2="0.273" y2="0.225" gradientUnits="objectBoundingBox"><stop offset="0" stop-color="#7f898f"/><stop offset="1" stop-color="#4a5466"/></linearGradient></defs><g transform="translate(5447.533 7815)"><g transform="translate(-5447.533 -7807.725)"><circle class="a" cx="12.667" cy="12.667" r="12.667" transform="translate(9.669 65.019) rotate(-45)"/><circle class="a" cx="4.789" cy="4.789" r="4.789" transform="translate(22.331 24.238)"/><circle class="a" cx="13.439" cy="13.439" r="13.439" transform="translate(240.76 33.815)"/><circle class="a" cx="3.09" cy="3.09" r="3.09" transform="translate(230.638 12.574) rotate(-58.283)"/><circle class="a" cx="6.179" cy="6.179" r="6.179" transform="translate(253.387 125.719) rotate(-22.5)"/><circle class="a" cx="3.398" cy="3.398" r="3.398" transform="translate(0 149.416) rotate(-68.367)"/><circle class="a" cx="4.943" cy="4.943" r="4.943" transform="translate(5.03 91.898)"/><circle class="a" cx="5.252" cy="5.252" r="5.252" transform="matrix(0.23, -0.973, 0.973, 0.23, 190.262, 10.223)"/></g><path class="a" d="M455.353,339.426c-8.412-3.379-19.242.561-26.539-4.679-5.915-4.247-6.5-12.426-6.134-19.5s.9-14.953-3.863-20.371c-3.842-4.372-10.211-5.89-16.175-6.048s-11.948.783-17.886.211c-12.778-1.231-23.557-9.167-34.838-15.044-14.618-7.614-31.334-12.056-47.922-10.779s-32.948,8.664-43.054,21.327-13.125,30.7-5.968,45.087c3.695,7.428,10.045,14.916,7.807,22.859-1.544,5.484-6.913,9.225-12.43,11.309s-11.48,2.968-16.918,5.236a33.882,33.882,0,0,0-19.117,20.514,31.519,31.519,0,0,0-1.3,12.726,34.155,34.155,0,0,0-.134,3.756A49.719,49.719,0,0,0,218.6,431.36c5.055,8.143,5.2,19.931,6.883,29.206,1.394,7.691,2.923,15.7,7.695,21.939,5.74,7.509,15.415,11.267,24.914,12.163s19.031-.7,28.482-2a454.436,454.436,0,0,1,98.8-2.708c14.354,1.175,29.076,3,42.952-.8s26.871-14.993,27.485-29.168a26.913,26.913,0,0,0-.681-7.191c-2.135-9.345-8.754-17.745-14.711-25.663-7.447-9.9-14.6-22.063-11.073-33.881l.016-.053a11.236,11.236,0,0,1,6.094-6.955c7.045-3.224,21.364-10.42,26.16-17.577C468.013,359.122,466.274,343.812,455.353,339.426Z" transform="translate(-5645.839 -8078)"/><rect class="b" width="204" height="204" transform="translate(-5407.033 -7800)"/><g transform="translate(-7009.834 -8921.889)"><g transform="translate(1585.847 1208.355)"><path class="c" d="M1662.737,1347c.831.288,1.328.511,1.328.511a30.965,30.965,0,0,0-4.185-4.579c-2.578-2.312-2.223-2.728-5.373-2.241s-4.778-.779-5.43-.779c-.329,0-5.057,5.1-5.949,5.569-.732-.678,3-4.973,1.8-4.973-1.13,0-4.042,3.618-4.679,5.216a25.983,25.983,0,0,0-2.4,1.341c-.011-1.455,1.878-5.01,1.878-5.01S1633,1344,1633,1345.073s4.453,2.923,2.5,2.923-4.127-2.826-4.127-2.826-3.5,1.656-2.838,3.508-1.5,2.519-2.211,3.157l0,0a15.334,15.334,0,0,0-4.651,2.392c-1.521,1.364,2.788,9.385,1.665,10.392s-3.4-7.794-3.4-8.638c0-.487-.486-.527-1.115-.139,1.824-9.051,4.651-16.873,9.055-20.837a24.1,24.1,0,0,1,5.4-3.433l.061-.033a4.952,4.952,0,0,0-.608,2.813c0,3.556,10.2,4.731,8.688,3.373s-3.2-5.565-2.389-5.565,2.172,4.432,4.344,5.358,4.725-1.559,4.725-1.559-6.815-4.6-6.137-5.212,6.571,5.553,8.2,6.138,4.616-2.241,4.616-2.241-11.24-5.407-10.924-6.333,10.436,5.748,12.011,5.31,2.933-3.264,2.933-3.264-11.4-3.459-10.969-4.287,9.557,3.653,10.861,3.41.651-3.6.651-4.189-7.032-1.437-7.711-2.046,6.9,1.12,7.44,1.12,1.141-.584.6-1.7a26.457,26.457,0,0,1-1.032-4.823c-.652,0-3.53-2.046-4.018-2.485s-2.335,3.459-3.041,3.459,2.064-3.507,2.064-4.336-1.738-1.558-3.15-1.558-3.584,8.458-4.236,8.458,2.281-8.654,1.846-9.043-1.683-.974-4.291-.633-1.14,10.23-2.063,11.058,0-10.473,0-10.766-3.258.487-4.4,1.51.815,10.571,0,11.3-1.466-9.11-1.466-10.133-1.032-1.12-3.964,2.192a3.17,3.17,0,0,0-.749,2.895c-4.618,1.828-3.7,8.461-1.695,10.258a4.711,4.711,0,0,0,3.2,1.138c-4.421,2.338-7.126,3.929-10.136,10.114,0-2.093-.26-6.629-1.521-7.76s1.521-.52,1.521-1.689-.145-5.651-.724-6.17-2.1,3.572-3.041,2.728,2.679-3.377,2.679-3.7-2.1-6.43-2.606-6.43-.145,2.663-1.593,3.313.8-3.767.8-5.131-1.484-1.656-3.186-3.182a31.434,31.434,0,0,1-3.62-4.222,49.737,49.737,0,0,0,3.692,8.444c2.116,3.674,2.688,17.332,2.746,18.882a.212.212,0,0,0-.068.148c-.124,8-.244,14.978-.355,21.059a7.269,7.269,0,0,0-.027,1.455c-.16.965-.314,1.957-.46,2.97-.49-1.318-.814-2.3-.814-2.3s-.28.267-.677.707a2.838,2.838,0,0,0-1.5-2.363s-.393.358-.971.85a158.071,158.071,0,0,0-1.4-18.649,11.886,11.886,0,0,0-.689-2.479,5.868,5.868,0,0,0,2.141-.535c3.054-1.283-.56-10.561-1.041-8.757s-3.328,4.79-3.7,4.083,2.823-3.486,2.634-5.7-3.48-3.537-3.48-3.537-.865,7.575-1.7,7.206,1.792-7.706,1.556-9.331-4.017-3.2-4.017-3.2.45,11.706-.488,11.766.208-11.131-.882-12.339-4.132-1.366-4.132-1.366,2.2,11.144,1.289,11.066-1.193-9.612-1.993-10.655-3.392.736-3.894.947,1.953,6.621,1.737,7.43-2.163-6.389-2.409-6.86-1.019-.779-1.735.1a22.527,22.527,0,0,1-3.675,2.636c.3.565-.158,3.8-.313,4.383s4.029.778,4.349,1.39-3.948-.524-4.659-.226-.551,2.071.088,3.3,8.889.057,9.185.623-8.466,1.144-8.6,1.662-.074,1.813,1.4,3.951,9.3-2.7,10.433-2.2-9,3.781-9.247,3.886,1.9,2.651,3.29,3.272,8.711-4.523,9.708-4.08-7.16,4.561-8.039,4.93-.495,1.3,3.679,2.648a3.021,3.021,0,0,0,2.824-.394c3.512,3.21,8.508.407,9.475-1.933.484,3.563.806,8.556,1.015,14.161-.9-1.374-2.726-2.924-3.609-2.132-1.195,1.072-2.444,5.7-3.8,4.482s3.367-4.384,2.824-6.235-2.379-3.446-3.07-2.826-.514,6.917-1.383,6.138,1.29-7.052.652-7.625-3.874-3.287-5.069-2.216,1.412,6.852.724,6.236-2.389-7.08-3.331-7.924-2.43.215-3.33-.593c0,0-.181,1.794-.652,2.216s4.561,4.222,3.91,4.222-4.778-3.442-4.778-3.442.326,3.67,1.231,4.481,5.72,1.494,5.72,2.208-6.227-.909-6.227-.909,1.231,4.222,3.4,4.741,5.575.13,5.575.845-4.272.26-4.272.26,1.014,5.2,3.838,5.2,3.145-.455,3.145.455-2.2-.65-2.2.974,2.048,4.88,3.113,3.925a5.05,5.05,0,0,0,1.191-1.84,145.434,145.434,0,0,1,4.532,20.967h.876a145.84,145.84,0,0,0-4.705-21.619,25.159,25.159,0,0,0,5.416,2.308,12.029,12.029,0,0,0,.621,4.912c.033,5.124.019,10.1-.012,14.4h1.286c.016-3.678.016-7.848-.016-12.19a3.976,3.976,0,0,0,1.383,1.024,6.639,6.639,0,0,0,.672.244c-.3,3.758-.528,7.464-.7,10.921h1.168c.111-3.346.276-6.96.534-10.7a6.64,6.64,0,0,0,.689.065c-.1,4.364-.18,7.845-.247,10.635h.854c.043-3.145.091-6.785.141-10.654a7.509,7.509,0,0,0,2.6-.691,47.591,47.591,0,0,0-1.914,11.345h.794a54.638,54.638,0,0,1,1.2-9.287,8.288,8.288,0,0,0,.79,2.409c1.665,3.442,8.761,1.949,8.761,1.949-4.344,0-5.575-6.561-4.272-7.08s.579,5.456,4.851,6.365,5.575-2.144,5.575-2.144c-3.331-.585-9.3-5.488-8.18-6.5s6.66,5.846,8.9,5.846,4.707-5.326,4.707-5.326c-2.752,1.429-11.73-2.338-12.566-3.637s8.873,3.442,12.421,2.858,3.331-6.17,3.331-6.17c-1.123,1.007-10.861.065-11.874-.844s9.63.455,11.657-.454,1.376-5.56,1.376-5.56-7.385,1.4-9.268.948,7.748-1.3,8.616-3.247-1.277-6.469-1.277-6.469c-1,.893-4.127.154-5.429.021,3.546-1.524,7.687-3.28,9.465-3.945C1650.869,1346.3,1658.929,1345.976,1662.737,1347Zm-60.138-4.318a2.707,2.707,0,0,0-.563.179c1.237-1.588,1.789-3.8,2.119-3.648C1604.719,1339.461,1603.893,1342.423,1602.6,1342.68Zm9.046,17.156c-1.485,1.169-3.292,2.389-3.839,1.9-.8-.719,2.549-2.352,3.788-3.615Q1611.621,1358.97,1611.645,1359.836Zm4.137,10.262q-.071.686-.138,1.375c-.769-.089-1.753-1.238-2.593-2.237q-.006-.371-.011-.743a1.9,1.9,0,0,0,.2-.037,1.457,1.457,0,0,0,.62-.435C1614.536,1368.857,1615.281,1369.549,1615.781,1370.1Zm15.864-48.26a3.015,3.015,0,0,0,.055-.626c1.009,1.972,2.876,3.6,2.606,3.842C1633.844,1325.466,1631.373,1323.2,1631.645,1321.837Zm-13.781,33.73c.091-9.466.133-17.218.05-18.933.836.813.311,4.958,1.585,6.1a1.878,1.878,0,0,0,2.16.462c-.272.625-.547,1.286-.827,1.994-.225.632-1.444,3.928-1.912,5.831C1618.541,1352.4,1618.191,1353.934,1617.864,1355.567Zm2.866,13.343c-.761.293-1.957-2.022-2.961-4.405q.017-1.431.032-2.847.064-.42.13-.836C1619.255,1364.133,1621.77,1368.511,1620.73,1368.911Zm8.544-7.924c-1.884,0-.9-5.452-.694-8.015.423.124.865.243,1.295.354C1629.864,1356.082,1630.977,1360.987,1629.273,1360.987Zm8.385-9.3c-.75,1.138-1.313,4.741-2.592,5.014-1.149.245.306-2.841,1.086-4.364Z" transform="translate(-1585.847 -1309.025)"/><path class="d" d="M1660.249,1643.066h-19.535c-4.764-1.257-7.905-3.406-7.905-5.848,0-2.3,2.776-4.333,7.069-5.614h21.208c4.292,1.28,7.069,3.318,7.069,5.614C1668.154,1639.66,1665.013,1641.809,1660.249,1643.066Z" transform="translate(-1621.359 -1552.955)"/></g><ellipse class="e" cx="120.337" cy="4.913" rx="120.337" ry="4.913" transform="translate(1588.648 1294.735)"/><g transform="translate(1625.693 1183.864)"><g transform="translate(70.446 47.001)"><path class="f" d="M2038.2,1401.346l8.793.741-1.551,20.392h-2.282l.5-18.343-5.457-1.352Z" transform="translate(-2038.204 -1401.346)"/><path class="g" d="M2062.526,1424.779l1.551-20.392h-2.443l-.844,20.392Z" transform="translate(-2055.283 -1403.645)"/></g><g transform="translate(42.304 47.001)"><path class="f" d="M1931.576,1401.346l-8.794.741,1.551,20.392h2.282l-.5-18.343,5.457-1.352Z" transform="translate(-1922.782 -1401.346)"/><path class="g" d="M1924.333,1424.779l-1.551-20.392h2.444l.843,20.392Z" transform="translate(-1922.782 -1403.645)"/></g><rect class="h" width="1.836" height="65.243" transform="translate(85.58 51.698)"/><g transform="translate(5.877 51.658)"><rect class="i" width="28.476" height="63.574" transform="translate(0 0)"/><rect class="j" width="5.502" height="63.574" transform="translate(33.978 63.574) rotate(180)"/><path class="j" d="M1789.8,1448.136h23.141v-15.878l-.621,15.157Z" transform="translate(-1785.798 -1429.379)"/><path class="j" d="M1787.841,1530.563h23.141v-15.879l-.621,15.157Z" transform="translate(-1784.314 -1491.708)"/><path class="j" d="M1829.473,1444.824c0,.781-.853,1.414-1.905,1.414s-1.906-.633-1.906-1.414.853-1.414,1.906-1.414S1829.473,1444.043,1829.473,1444.824Z" transform="translate(-1812.914 -1437.812)"/><path class="j" d="M1830.55,1539.933c0,.835-.957,1.512-2.139,1.512s-2.139-.677-2.139-1.512.957-1.512,2.139-1.512S1830.55,1539.1,1830.55,1539.933Z" transform="translate(-1813.376 -1509.658)"/><path class="j" d="M1787.59,1612.33h23.14v-15.879l-.621,15.157Z" transform="translate(-1784.124 -1553.539)"/><path class="j" d="M1830.3,1621.7c0,.835-.958,1.512-2.139,1.512s-2.139-.677-2.139-1.512.958-1.512,2.139-1.512S1830.3,1620.864,1830.3,1621.7Z" transform="translate(-1813.184 -1571.487)"/><rect class="k" width="28.476" height="3.414" transform="translate(0 0)"/><rect class="l" width="5.484" height="3.414" transform="translate(28.494 0)"/></g><rect class="h" width="2.111" height="37.434" transform="matrix(1, 0.006, -0.006, 1, 58.754, 66.936)"/><path class="m" d="M1960.451,1292.3s5.519-10.725,2.955-13.068c-5.389-4.924-22.076-5.829-30.262,0-2.714,1.933,2.21,9.3,2.946,12.4a52.484,52.484,0,0,1,.774,20.423l-1.372,8.607h25.632l-1.352-8.744A52.478,52.478,0,0,1,1960.451,1292.3Z" transform="translate(-1887.701 -1258.953)"/><path class="i" d="M1965.915,1277.862c-5.725-4.338-21.589-5.237-30.263,0C1943.551,1271.424,1960.547,1272.365,1965.915,1277.862Z" transform="translate(-1890.21 -1257.579)"/><path class="n" d="M1919.782,1468.1l2.1-4.068,4.121-2.356h25.632l3.87,2.753,1.1,3.671Z" transform="translate(-1878.209 -1399.966)"/><path class="o" d="M1921.878,1471.2c12.489,0,23.651-.248,33.623.4.956.062,1.1,3.671,1.1,3.671h-36.815S1920.734,1471.2,1921.878,1471.2Z" transform="translate(-1878.209 -1407.129)"/><path class="h" d="M1922.506,1644.274l15.646-9.184-.051,9.271,1.117.006.051-9.159,16.117,9.249,1.718.01-17.572-10.083-.365.279-1.012-.005v.077l-.476-.355-16.844,9.887Z" transform="translate(-1879.005 -1530.56)"/><path class="h" d="M1990.4,1626.461l-3.559-.02.012-2.257a1.78,1.78,0,0,1,1.789-1.77h0a1.78,1.78,0,0,1,1.77,1.79Z" transform="translate(-1928.919 -1521.513)"/><path class="p" d="M1971.187,1285.641s-4.433.456-5.943.869c-.241.066.129,8.744.184,10.375.17,5.091,4.492,15.578,1.554,24.036-1.065,3.065,14.145,2.284,13.3-.063a22.131,22.131,0,0,1-2.015-8.042c-.108-4.474,1.258-10.019,1.6-12.688a57.333,57.333,0,0,0-.152-13.761A76.574,76.574,0,0,0,1971.187,1285.641Z" transform="translate(-1912.526 -1266.851)"/><path class="q" d="M2020,1354.628a21.31,21.31,0,0,1-2.051-5.864c-.992-5.488,1.165-11.384,1.925-18.464.2,8.242-3.434,13.922-.377,22.863C2019.669,1353.649,2019.852,1354.133,2020,1354.628Z" transform="translate(-1952.251 -1300.621)"/><path class="r" d="M2100.4,1269.113a4.726,4.726,0,0,1,1.784,0,19.543,19.543,0,0,1,2.763,1.1l-1.712.321a2.5,2.5,0,0,0-1.393-.625C2100.84,1269.724,2099.972,1269.541,2100.4,1269.113Z" transform="translate(-2014.705 -1254.287)"/><path class="s" d="M2075.68,1273.766c-.342-.342-5.035-.489-5.035.391s3.568-.244,3.568.636-.929,2.982-1.906,2.982a2.11,2.11,0,0,1-1.906-1.466c0-.489.66-1.344.294-1.711s-1.858,1.809-1.222,3.324,2.3,2.591,1.76,4.009-7.787,7.515-8.86,7.515a1.3,1.3,0,0,1-.825-.434,29.131,29.131,0,0,0-.542,4.355,3.983,3.983,0,0,0,1.23.221c3.471,0,9.975-8.236,11.49-11.218S2076.022,1274.108,2075.68,1273.766Z" transform="translate(-1984.999 -1257.669)"/><path class="t" d="M2023.876,1288.617s-.951,5.588.485,8.59c.709,1.482,4.96,6.486,8.334,7.592a34.021,34.021,0,0,1,.725-4.677C2030.992,1297.622,2023.876,1288.617,2023.876,1288.617Z" transform="translate(-1956.689 -1269.101)"/><path class="u" d="M2034.377,1300.121a68.2,68.2,0,0,1-9.543-11.5C2028.632,1292.542,2034.019,1299.683,2034.377,1300.121Z" transform="translate(-1957.648 -1269.101)"/><path class="r" d="M1885.411,1254.2a4.868,4.868,0,0,0-1.806-.318,20.139,20.139,0,0,0-2.993.617l1.675.63a2.57,2.57,0,0,1,1.523-.384C1884.856,1254.74,1885.768,1254.71,1885.411,1254.2Z" transform="translate(-1848.589 -1242.833)"/><path class="s" d="M1888.326,1274.724c-.71.844-7.3-7.512-7.589-9.044s1.583-2.323,2.5-3.744-.207-3.889-.643-3.583.079,1.289-.009,1.784a2.168,2.168,0,0,1-2.192,1.144c-.99-.175-1.555-2.468-1.4-3.359s3.569.885,3.726-.006-4.62-1.58-5.027-1.295-.558,5.769.443,9.059,6.65,12.9,10.163,13.521a4.826,4.826,0,0,0,2.494-.378,49.945,49.945,0,0,0-1.986-4.6C1888.567,1274.463,1888.4,1274.638,1888.326,1274.724Z" transform="translate(-1846.144 -1244.857)"/><path class="t" d="M1934.311,1289.338s-7.943,7.536-10.066,9.674a49.972,49.972,0,0,1,1.986,4.6c3.433-1.317,7.545-5.357,8.114-6.751C1935.063,1295.1,1934.311,1289.338,1934.311,1289.338Z" transform="translate(-1881.584 -1269.647)"/><path class="v" d="M1951.825,1426.9s-6.858,5.783-6.858,8.48-.866,6.924,2.45,6.924,15.969,2.114,18.083,0,3.98-5.126,3.98-7.951-4.759-7.453-4.759-7.453Z" transform="translate(-1897.177 -1373.666)"/><path class="w" d="M1974.156,1426.9h-12.9a50.044,50.044,0,0,0-3.918,3.748,27.334,27.334,0,0,1,11.6-1.12,47.261,47.261,0,0,1,8.632,1.478A28.4,28.4,0,0,0,1974.156,1426.9Z" transform="translate(-1906.61 -1373.666)"/><path class="r" d="M1961.113,1451.7a4.774,4.774,0,0,1,3.294,1.653c1.038,1.261.694,3.062.372,4.536-1.532,7.016-3.668,9.985-9.691,25.947q-1.365,3.619-2.725,7.246s-2.543,11.021-2.194,11.843,1.319,2.289-.7,1.63-1.789-7.485-3.75-8.835.139-1.635,1.952-3.253,5.065-20.457,6.044-26.329C1954.526,1461.292,1956.211,1451.436,1961.113,1451.7Z" transform="translate(-1897.228 -1392.422)"/><path class="x" d="M1945.722,1623.684c-1.747-1.2-.272-1.56,1.352-2.767a16.583,16.583,0,0,1,.932,3.056s1.348,5.507,2.163,6.916c.447.773,1.319,2.289-.7,1.63S1947.684,1625.034,1945.722,1623.684Z" transform="translate(-1897.229 -1520.381)"/><path class="s" d="M1954.422,1454.583a5.044,5.044,0,0,0-5.844,3.165c-1.705,4.188-2.284,41.683-2.37,43.747a18.094,18.094,0,0,1-.92,4.435c-.068.168.961,2.511,1.691,2.467,1-.061,2.392-2.548,2.392-2.548s-.746-3.475.537-9.362,6.2-30.523,6.365-34.651S1956.179,1454.655,1954.422,1454.583Z" transform="translate(-1897.494 -1394.519)"/><path class="x" d="M1949.209,1665.189s-.147,3.175-2.4,3.264c-1.586.062-1.883-2.408-1.682-3.183C1945.126,1665.271,1946.993,1668.1,1949.209,1665.189Z" transform="translate(-1897.332 -1553.859)"/><rect class="y" width="91.886" height="2.576" transform="translate(0 49.123)"/><path class="r" d="M1967.844,1468.577s3.8-.471,3.8,0-1.29,2.481-2.679,1.985A1.783,1.783,0,0,1,1967.844,1468.577Z" transform="translate(-1914.537 -1405.026)"/><g transform="translate(51.738)"><path class="z" d="M1968.4,1209.637a6.709,6.709,0,0,0-5.279,2.5c-2.009,2.656-2.779,9.893,1.229,11.579a4.214,4.214,0,0,1,0-1.87,4.812,4.812,0,0,0,.811,2.255c.63.635,6.024,1.976,8.552-1.366a3.576,3.576,0,0,0,.4-1.567,2.7,2.7,0,0,1,0,1.505,4.516,4.516,0,0,0,2.283-2.852C1977.09,1217.617,1976.567,1208.771,1968.4,1209.637Z" transform="translate(-1961.473 -1209.333)"/><g transform="translate(3.44 0.225)"><path class="s" d="M1984.824,1253.454c-.009.711-.378,9.393-.378,9.393.281.8,1.905,7.425,2.99,7.366s1.892-6.787,2-7.144c.223-.746-.02-9.542-.02-9.542Z" transform="translate(-1982.285 -1242.736)"/><path class="r" d="M1990.151,1253.528l-4.592-.074c0,.29-.067,1.906-.141,3.718a2.493,2.493,0,0,0,1.164.653,3.7,3.7,0,0,0,3.645-.834C1990.194,1255.111,1990.151,1253.528,1990.151,1253.528Z" transform="translate(-1983.02 -1242.736)"/><path class="s" d="M1979.422,1210.3a3.312,3.312,0,0,0-2.044,2.879c-.026,2.092.551,2.422.266,4.028s1,6.554,4.266,6.554c1.818,0,3.523-3.275,3.543-4.852a17.638,17.638,0,0,1,.432-4.916C1986.387,1212.01,1984.317,1207.722,1979.422,1210.3Z" transform="translate(-1976.94 -1209.496)"/><path class="s" d="M1976.829,1238.463s-.881-1.153-1.189-.4.682,3.128,1.189,2.618S1976.829,1238.463,1976.829,1238.463Z" transform="translate(-1975.582 -1230.905)"/><path class="s" d="M2008.86,1238.465s.885-1.151,1.191-.4-.693,3.125-1.2,2.614S2008.86,1238.465,2008.86,1238.465Z" transform="translate(-2000.572 -1230.909)"/><path class="z" d="M1995.32,1241.781a3.237,3.237,0,0,1-.392-2.092,6.611,6.611,0,0,0,.6,2.027l.062.078a1.394,1.394,0,0,1-.948.417A2.1,2.1,0,0,0,1995.32,1241.781Z" transform="translate(-1989.995 -1232.328)"/><path class="aa" d="M1982.9,1231.972a1.572,1.572,0,0,0-.788-.4,3.691,3.691,0,0,0-1.668.5,9.632,9.632,0,0,1,1.449-.285,2.29,2.29,0,0,1,.81.324Z" transform="translate(-1979.257 -1226.175)"/><path class="aa" d="M2000.516,1232.218a1.443,1.443,0,0,1,.672-.381,3.208,3.208,0,0,1,1.454.317,8.438,8.438,0,0,0-1.26-.153,2.1,2.1,0,0,0-.692.316Z" transform="translate(-1994.437 -1226.372)"/><path class="ab" d="M2000.171,1238.4a1.451,1.451,0,0,0,1.164.423c.505-.063.815-.453,1.129-.494-.458-.149-.654.367-1.724.235A1.947,1.947,0,0,1,2000.171,1238.4Z" transform="translate(-1994.176 -1231.278)"/><path class="ab" d="M1985.632,1238.451a1.451,1.451,0,0,1-1.155.449c-.506-.052-.825-.434-1.141-.468.455-.159.662.352,1.729.2A1.943,1.943,0,0,0,1985.632,1238.451Z" transform="translate(-1981.446 -1231.354)"/><path class="ab" d="M1989.983,1256.36a4.815,4.815,0,0,0,2.891-.135A2.988,2.988,0,0,1,1989.983,1256.36Z" transform="translate(-1986.472 -1244.832)"/><path class="r" d="M1983.9,1243.4c0,.3-.592.534-1.323.534s-1.323-.239-1.323-.534.592-.535,1.323-.535S1983.9,1243.1,1983.9,1243.4Z" transform="translate(-1979.87 -1234.728)"/><path class="r" d="M2002.3,1243.4c0,.3-.478.534-1.067.534s-1.066-.239-1.066-.534.477-.535,1.066-.535S2002.3,1243.1,2002.3,1243.4Z" transform="translate(-1994.176 -1234.728)"/></g><path class="ac" d="M1983.175,1212.783c.139-4.132-3.81-4.693-5.866-3.9a4.292,4.292,0,0,0-3.471,1.78,3.993,3.993,0,0,0-.329,3.459l2.4.072s.19-2.57.711-3.115v3.115h1.7a9.179,9.179,0,0,0,.611-2.579,6.177,6.177,0,0,1-.115,2.579l3.643-.014A2.56,2.56,0,0,0,1983.175,1212.783Z" transform="translate(-1970.384 -1208.575)"/><path class="ad" d="M1983.175,1212.783c.139-4.132-3.81-4.693-5.866-3.9a4.292,4.292,0,0,0-3.471,1.78,3.993,3.993,0,0,0-.329,3.459l2.4.072s.19-2.57.711-3.115v3.115h1.7a9.179,9.179,0,0,0,.611-2.579,6.177,6.177,0,0,1-.115,2.579l3.643-.014A2.56,2.56,0,0,0,1983.175,1212.783Z" transform="translate(-1970.384 -1208.575)"/><g transform="translate(3.431 0.367)"><path class="ae" d="M1978.369,1210.078a4.739,4.739,0,0,0-1.629.6,5.32,5.32,0,0,0-1.04,4.59l.373.011c-.014-.108-.026-.216-.033-.324C1976.04,1210.44,1978.369,1210.078,1978.369,1210.078Z" transform="translate(-1975.547 -1210.078)"/><path class="ae" d="M1991.606,1213.147a7.906,7.906,0,0,1,.234,4.5h.277A8.09,8.09,0,0,0,1991.606,1213.147Z" transform="translate(-1987.69 -1212.399)"/><path class="ae" d="M1994.977,1211.565c2.47.2,3.392,2.56,3.455,4.873h.181a11.172,11.172,0,0,0-.207-1.509A3.818,3.818,0,0,0,1994.977,1211.565Z" transform="translate(-1990.24 -1211.202)"/></g><path class="r" d="M1977.512,1240.006s-.125-1.084-.446-.76.212,2.141.446,1.905A4.118,4.118,0,0,0,1977.512,1240.006Z" transform="translate(-1973.188 -1231.722)"/><path class="r" d="M2010.653,1239.793a10.928,10.928,0,0,0-.182,1.855C2010.577,1241.649,2011.521,1239.257,2010.653,1239.793Z" transform="translate(-1998.506 -1232.122)"/></g></g><g transform="translate(1716.682 1177.319)"><g transform="translate(70.446 53.546)"><path class="f" d="M2411.391,1401.346l8.793.741-1.551,20.392h-2.282l.5-18.343-5.457-1.352Z" transform="translate(-2411.391 -1401.346)"/><path class="g" d="M2435.713,1424.779l1.551-20.392h-2.444l-.843,20.392Z" transform="translate(-2428.47 -1403.645)"/></g><g transform="translate(42.304 53.546)"><path class="f" d="M2304.762,1401.346l-8.794.741,1.551,20.392h2.282l-.5-18.343,5.457-1.352Z" transform="translate(-2295.968 -1401.346)"/><path class="g" d="M2297.519,1424.779l-1.551-20.392h2.444l.843,20.392Z" transform="translate(-2295.968 -1403.645)"/></g><path class="m" d="M2333.638,1292.3s5.519-10.725,2.955-13.068c-5.389-4.924-22.076-5.829-30.262,0-2.714,1.933,2.21,9.3,2.947,12.4a52.488,52.488,0,0,1,.774,20.423l-1.372,8.607h25.632l-1.352-8.744A52.471,52.471,0,0,1,2333.638,1292.3Z" transform="translate(-2260.888 -1252.408)"/><path class="i" d="M2339.1,1277.862c-5.725-4.338-21.588-5.237-30.262,0C2316.738,1271.424,2333.734,1272.365,2339.1,1277.862Z" transform="translate(-2263.398 -1251.034)"/><g transform="translate(53.699 0)"><path class="af" d="M2358.877,1212.426c.186-.118,2.49-5.851,2.49-5.851s1.537-4.3.544-5.033-3.353-3.256-5.421-3.3a7.845,7.845,0,0,0-3.641.691c-.186.118-1.526,2.381-1.526,2.381s.624-.762.945,2.066S2358.877,1212.426,2358.877,1212.426Z" transform="translate(-2349.222 -1194.213)"/><path class="s" d="M2360.905,1241.651c.246.733.14,5.96.334,7.276.192,1.3,6.124,3.314,6.24-1.413s-.351-10.286-.351-10.286Z" transform="translate(-2356.467 -1223.697)"/><path class="r" d="M2360.905,1241.651h0l2.065-1.468,4.158-2.955v.015c0,.02,0,.057.009.11.014.172.04.516.073.99v0q.01.144.021.3c0,.007,0,.014,0,.021.023.343.048.738.073,1.173,0,.025,0,.049,0,.073q.009.155.017.316v0c0,.056.006.112.009.169v.018l0,.064c0,.008,0,.016,0,.024,0,.037,0,.075.006.112-.772,2.534-3.693,5.285-6.219,5.612-.005-.175-.015-.352-.027-.529A29.707,29.707,0,0,0,2360.905,1241.651Z" transform="translate(-2356.467 -1223.697)"/><path class="s" d="M2359.958,1211.784a9.115,9.115,0,0,1-1.011,7.961c-1.811,2.614-4.311,3.962-6.1,2.644s-2.3-9.591-1.009-11.72S2358.8,1208.9,2359.958,1211.784Z" transform="translate(-2349.063 -1202.583)"/><path class="ag" d="M2353.6,1198.871s.4-2.706,1.441-3.365,1.507-1.061,1.694-2.017,3.651-1.595,3.086-3.166-3.278-2.306-4.656-5.038-2.867-4.244-6.081-3.249-3.662,2.956-3.662,2.956a2.267,2.267,0,0,0-2.285,1.451,2.9,2.9,0,0,0,.313,3.458s-.12-2.24.649-2.085-.006,2.62-.006,2.62a20.285,20.285,0,0,0,2.384-2.4c1.23-1.461.927.248.563,2.1s2.364.107,3.577-1.231,2.947-.088,3.58,1.81S2352.1,1195.589,2353.6,1198.871Z" transform="translate(-2342.704 -1181.73)"/><path class="s" d="M2384.376,1227.587s1.133-1.936,1.723-1.094.1,3.354-1.146,3.379S2384.376,1227.587,2384.376,1227.587Z" transform="translate(-2374.078 -1215.418)"/><path class="r" d="M2386.789,1229.656s-.043-1.121.566-.749,0,2.172-.566,2.136S2386.789,1229.656,2386.789,1229.656Z" transform="translate(-2375.852 -1217.347)"/><path class="ah" d="M2359.56,1230.088a6.987,6.987,0,0,0-.455,1.6,4.176,4.176,0,0,0,.017,1.77c.138-.026.505-.08.991-.207-.313-.009-.623,0-.933.016l.1.077A21.456,21.456,0,0,1,2359.56,1230.088Z" transform="translate(-2355.048 -1218.297)"/><path class="ah" d="M2369.22,1224.3a2.413,2.413,0,0,0-1.39-1.091c-.869-.176-.606.555-.4.6S2369.253,1224.132,2369.22,1224.3Z" transform="translate(-2361.245 -1213.078)"/><path class="ah" d="M2351.749,1224.728a2.414,2.414,0,0,1,1.39-1.091c.869-.176.606.555.4.6S2351.716,1224.557,2351.749,1224.728Z" transform="translate(-2349.543 -1213.399)"/><path class="ah" d="M2365.294,1230.639c.621.655,1.186.445,1.963.13C2366.546,1231.547,2365.538,1231.372,2365.294,1230.639Z" transform="translate(-2359.786 -1218.714)"/><path class="ah" d="M2352.472,1230.187c.512.552.9.389,1.54.109C2353.458,1230.947,2352.652,1230.786,2352.472,1230.187Z" transform="translate(-2350.091 -1218.372)"/><path class="ah" d="M2361.458,1250.231l.006,0a.118.118,0,0,1,.092.218,8.5,8.5,0,0,1-3.009.189.074.074,0,0,1,0-.148A11.844,11.844,0,0,0,2361.458,1250.231Z" transform="translate(-2354.631 -1233.519)"/></g><rect class="h" width="1.836" height="65.243" transform="translate(85.58 58.244)"/><g transform="translate(5.877 58.204)"><rect class="i" width="28.476" height="63.574" transform="translate(0 0)"/><rect class="j" width="5.502" height="63.574" transform="translate(33.978 63.574) rotate(180)"/><path class="j" d="M2162.99,1448.136h23.141v-15.878l-.621,15.157Z" transform="translate(-2158.985 -1429.379)"/><path class="j" d="M2161.027,1530.563h23.14v-15.879l-.621,15.157Z" transform="translate(-2157.5 -1491.708)"/><path class="j" d="M2202.661,1444.824c0,.781-.854,1.414-1.906,1.414s-1.906-.633-1.906-1.414.854-1.414,1.906-1.414S2202.661,1444.043,2202.661,1444.824Z" transform="translate(-2186.101 -1437.812)"/><path class="j" d="M2203.736,1539.933c0,.835-.957,1.512-2.139,1.512s-2.139-.677-2.139-1.512.958-1.512,2.139-1.512S2203.736,1539.1,2203.736,1539.933Z" transform="translate(-2186.561 -1509.658)"/><path class="j" d="M2160.776,1612.33h23.14v-15.879l-.621,15.157Z" transform="translate(-2157.311 -1553.539)"/><path class="j" d="M2203.485,1621.7c0,.835-.958,1.512-2.139,1.512s-2.139-.677-2.139-1.512.958-1.512,2.139-1.512S2203.485,1620.864,2203.485,1621.7Z" transform="translate(-2186.371 -1571.487)"/><rect class="k" width="28.476" height="3.414" transform="translate(0 0)"/><rect class="l" width="5.484" height="3.414" transform="translate(28.494 0)"/></g><rect class="h" width="2.111" height="36.76" transform="translate(58.753 73.482) rotate(0.316)"/><path class="n" d="M2292.97,1468.1l2.1-4.068,4.121-2.356h25.632l3.869,2.753,1.1,3.671Z" transform="translate(-2251.396 -1393.42)"/><path class="o" d="M2295.066,1471.2c12.489,0,23.651-.248,33.623.4.955.062,1.1,3.671,1.1,3.671H2292.97S2293.922,1471.2,2295.066,1471.2Z" transform="translate(-2251.397 -1400.584)"/><path class="h" d="M2295.712,1641.375l15.645-9.017-.051,9.1,1.117.006.05-8.994,16.117,9.084,1.718.01-17.573-9.9-.365.274-1.012-.006v.076l-.476-.349-16.843,9.708Z" transform="translate(-2252.206 -1521.958)"/><path class="h" d="M2363.6,1623.885l-3.56-.02.012-2.184a1.78,1.78,0,0,1,1.79-1.77h0a1.779,1.779,0,0,1,1.769,1.79Z" transform="translate(-2302.117 -1513.075)"/><path class="t" d="M2321.627,1283.135c-.241.066,4.537,26.512,5.888,35.752.47,3.21,14.145,2.284,13.3-.063-.4-1.1,2.35-16.949,2.693-19.618.676-5.266,1.7-14.53,1.357-16.07C2344.864,1283.135,2323.136,1282.721,2321.627,1283.135Z" transform="translate(-2273.06 -1258.272)"/><path class="r" d="M2473.587,1269.113a4.726,4.726,0,0,1,1.784,0,19.55,19.55,0,0,1,2.763,1.1l-1.712.321a2.5,2.5,0,0,0-1.393-.625C2474.027,1269.724,2473.159,1269.541,2473.587,1269.113Z" transform="translate(-2387.892 -1247.742)"/><path class="s" d="M2474.647,1273.766c-.342-.342-5.035-.489-5.035.391s3.568-.244,3.568.636-.928,2.982-1.906,2.982a2.109,2.109,0,0,1-1.906-1.466c0-.489.659-1.344.293-1.711s-1.858,1.809-1.222,3.324,2.3,2.591,1.759,4.009a4.561,4.561,0,0,1-.841,1.127c.88.675,1.8,1.307,2.629,2a15.131,15.131,0,0,0,1.512-2.243C2475.014,1279.832,2474.99,1274.108,2474.647,1273.766Z" transform="translate(-2383.965 -1251.123)"/><path class="r" d="M2258.6,1254.2a4.869,4.869,0,0,0-1.807-.318,20.116,20.116,0,0,0-2.992.617l1.675.63a2.568,2.568,0,0,1,1.522-.384C2258.043,1254.74,2258.955,1254.71,2258.6,1254.2Z" transform="translate(-2221.776 -1236.288)"/><path class="s" d="M2255.16,1265.679c-.291-1.531.347-2.323,1.261-3.744s-.207-3.889-.644-3.583.079,1.29-.009,1.784a2.169,2.169,0,0,1-2.192,1.144c-.99-.175-1.555-2.469-1.4-3.359s3.568.885,3.726-.006-4.62-1.58-5.027-1.3-.559,5.77.443,9.059a18.8,18.8,0,0,0,1.136,2.672,14.98,14.98,0,0,1,3.14-1.583A5.165,5.165,0,0,1,2255.16,1265.679Z" transform="translate(-2219.332 -1238.312)"/><path class="v" d="M2317.55,1426.9s-9.366,4.741-9.366,7.438,1.642,7.967,4.958,7.967c1.467,0,5.574-4.893,8.974-4.615,4.288.351,7.93,5.793,9.109,4.615,2.114-2.114,4.865-5.126,4.865-7.951s-5.643-7.453-5.643-7.453Z" transform="translate(-2262.901 -1367.12)"/><path class="v" d="M2318.971,1277.962s1.545,34.9,0,36.448-9.809,5.046-9.809,5.046-1.482.732-1.56-1.155,5.956-5.175,5.956-8.134-.585-14.718-.585-14.718l-1.946-16.087Z" transform="translate(-2262.461 -1254.499)"/><path class="v" d="M2395.1,1277.889s-2.819,31.52-2.819,33.38,4.205,5.637,4.205,5.637-4.895,1.613-6.508,0-1.925-40.893-1.925-40.893Z" transform="translate(-2323.298 -1253.025)"/><path class="ai" d="M2367.732,1282.635l2.486-.073-.089,2.969h-1.882Z" transform="translate(-2307.931 -1257.977)"/><path class="aj" d="M2356.385,1277.316l2.2,1.4-.53,1.3-3.442-.334.268-1.177Z" transform="translate(-2298.008 -1254.011)"/><path class="aj" d="M2378.42,1276.013l-3.106,1.6.576,1.422,2.56-.211Z" transform="translate(-2313.665 -1253.025)"/><path class="ai" d="M2367.732,1318.927l.515-24.185h1.882l1.422,24.186-1.909,3.334Z" transform="translate(-2307.931 -1267.187)"/><rect class="y" width="101.954" height="2.576" transform="translate(0 55.668)"/><path class="v" d="M2424.217,1288.963l4.663,2.3s-10.217,15.078-12.646,15.078-7.894-12.688-7.894-12.688l2.1-9.945s5.458,12.208,6.584,12.208S2424.217,1288.963,2424.217,1288.963Z" transform="translate(-2338.637 -1258.842)"/><path class="v" d="M2270.343,1283.7s-3.984,13-5.906,13-6.408-11.035-6.408-11.035l-4.23,2.76s4.9,19,10.747,19.605,9.325-12.165,9.325-12.165Z" transform="translate(-2221.776 -1258.842)"/><path class="ak" d="M2344.534,1276.6l-1.173,28.991-4.042-19.229,1.6-.947-1.953-2.721,1.5-5.562Z" transform="translate(-2286.177 -1253.472)"/><path class="ak" d="M2388.054,1276.013l.772,30.855,2.82-21.009-.947-1.065,1.571-3.372-1-4.552Z" transform="translate(-2323.297 -1253.025)"/></g><path class="al" d="M2308.927,1445.787c-2.264,0-4.46,4.03-3.762,8.241s6.452,40.943,6.452,40.943l5.412-1.091S2315.118,1445.787,2308.927,1445.787Z" transform="translate(-543.837 -204.087)"/><path class="am" d="M2364.688,1636.252l-1.539,5.727,1.414,2.514,4.227-.28a10.6,10.6,0,0,1-1.3-3.228c0-.986-.277-5.325-.277-5.325Z" transform="translate(-587.784 -347.666)"/><path class="an" d="M2324.551,1638.465s-.118,3.55.315,3.984a7.279,7.279,0,0,1,.789,2.333s-5.562.507-6.587.507h-3.156a28.434,28.434,0,0,1,4.26-2.524l1.657-.671-.513-4.654Z" transform="translate(-552.063 -349.012)"/><path class="ao" d="M2372.323,1452.827s4.793-3.281,6.835-.765c1.475,1.819-9.941,45-9.941,45h-3.891S2368.155,1456.373,2372.323,1452.827Z" transform="translate(-589.43 -208.114)"/><path class="ap" d="M2368.062,1665.14c.566-1.293,2.554-1.458,3.678,0C2370.864,1664.85,2369.675,1664.023,2368.062,1665.14Z" transform="translate(-591.498 -369.177)"/><g transform="translate(1632.911 1199.091)"><path class="aq" d="M0,0H10.367a0,0,0,0,1,0,0V0A1.381,1.381,0,0,1,8.986,1.381H1.381A1.381,1.381,0,0,1,0,0V0A0,0,0,0,1,0,0Z" transform="translate(20.347 34.011) rotate(180)"/><path class="ar" d="M1806.75,1271.029v25.833l-27.022-1.558-.85-23.263Z" transform="translate(-1778.878 -1271.029)"/><path class="as" d="M1894.2,1271.353l-1.01-.324v25.833l.739-.185Z" transform="translate(-1865.321 -1271.029)"/><path class="aq" d="M1816.558,1341.713a3.34,3.34,0,1,1,3.286,2.742c-.068,0-.137,0-.2-.006-.778,2.454-1.682,6.747-1.137,8.723a5.135,5.135,0,0,0,2.029,2.912l-.148.242a5.606,5.606,0,0,1-2.547-2.98c-.779-2.053-.388-6.528.212-9.338A2.662,2.662,0,0,1,1816.558,1341.713Z" transform="translate(-1807.371 -1322.406)"/></g><g transform="translate(1716.682 1199.091)"><path class="aq" d="M0,0H10.367a0,0,0,0,1,0,0V0A1.381,1.381,0,0,1,8.986,1.381H1.381A1.381,1.381,0,0,1,0,0V0A0,0,0,0,1,0,0Z" transform="translate(20.347 34.011) rotate(180)"/><path class="ar" d="M2150.331,1271.029v25.833l-27.022-1.558-.85-23.263Z" transform="translate(-2122.459 -1271.029)"/><path class="as" d="M2237.785,1271.353l-1.01-.324v25.833l.739-.185Z" transform="translate(-2208.903 -1271.029)"/><path class="aq" d="M2160.139,1341.713a3.34,3.34,0,1,1,3.286,2.742c-.069,0-.136,0-.2-.006-.778,2.454-1.682,6.747-1.138,8.723a5.134,5.134,0,0,0,2.03,2.912l-.148.242a5.607,5.607,0,0,1-2.547-2.98c-.779-2.053-.387-6.528.212-9.338A2.662,2.662,0,0,1,2160.139,1341.713Z" transform="translate(-2150.951 -1322.406)"/></g><rect class="at" width="192.943" height="0.669" transform="translate(1625.693 1232.986)"/><g transform="translate(1671.57 1182.838)"><path class="au" d="M1939.426,1214.524a.238.238,0,0,1-.187-.092,7.056,7.056,0,0,1-1.719-5.555,7.322,7.322,0,0,1,3.045-4.473.237.237,0,0,1,.256.4,6.963,6.963,0,0,0-2.834,4.16,6.605,6.605,0,0,0,1.628,5.18.237.237,0,0,1-.187.381Z" transform="translate(-1937.437 -1204.367)"/></g><g transform="translate(1790.552 1175.896)"><path class="au" d="M2425.67,1189.48a.236.236,0,0,1-.191-.376c4.124-5.637.748-12.8.714-12.868a.237.237,0,0,1,.427-.206c.036.074,3.536,7.484-.759,13.353A.234.234,0,0,1,2425.67,1189.48Z" transform="translate(-2425.434 -1175.896)"/></g></g></g></svg>