<svg xmlns="http://www.w3.org/2000/svg" xmlns:xlink="http://www.w3.org/1999/xlink" width="269.533" height="231.928" viewBox="0 0 269.533 231.928"><defs><style>.a{fill:#bef5fc;}.b{fill:none;}.c{fill:#c7b299;}.d{fill:#2c1919;}.e{fill:#fd5e5a;}.f{fill:#040037;}.g{fill:#571c1c;}.h{fill:#794949;}.i{fill:#717794;}.j{fill:#fc7575;}.k{fill:#341102;}.l{fill:#432c47;}.m{fill:#26253a;}.n{fill:#4c5063;}.o{fill:#464f7c;}.p{fill:url(#a);}.q{fill:#e2b2c4;}.r{fill:#7d87b7;}.s{fill:#5e6589;opacity:0.75;}.t{fill:#979fc5;}.u{fill:#d1fedf;}.v{fill:url(#b);}.w{fill:#375866;}.x{fill:url(#c);}.y{fill:url(#d);}.z{fill:#3b1b36;}.aa{fill:#a07fc0;}.ab{fill:#70497a;}.ac{fill:url(#e);}.ad{fill:#262943;opacity:0.57;}.ae{fill:#381a3f;}.af{fill:#653870;}.ag{fill:#172866;}.ah{fill:#2f499f;}.ai{fill:#fff;}.aj{fill:#284758;}.ak{fill:#e3feec;}.al{fill:#f4fff7;}.am{fill:#a4c1ad;}.an{fill:#6ca3c2;}.ao{fill:#517a92;}.ap{fill:#3d5c6e;}.aq,.ar{fill:url(#f);}.ar{opacity:0.15;mix-blend-mode:screen;isolation:isolate;}.as{fill:#210075;}.at{fill:#58307d;}</style><linearGradient id="a" x1="0.235" y1="-0.491" x2="1.064" y2="2.086" gradientUnits="objectBoundingBox"><stop offset="0" stop-color="#535a7d"/><stop offset="1" stop-color="#8791c1"/></linearGradient><linearGradient id="b" x1="14.383" y1="0.01" x2="13.536" y2="1.167" gradientUnits="objectBoundingBox"><stop offset="0" stop-color="#29002c"/><stop offset="1" stop-color="#330065"/></linearGradient><linearGradient id="c" x1="23.015" y1="0.5" x2="24.015" y2="0.5" gradientUnits="objectBoundingBox"><stop offset="0" stop-color="#290051"/><stop offset="1" stop-color="#330065"/></linearGradient><linearGradient id="d" x1="7.568" y1="0.017" x2="7.054" y2="0.85" xlink:href="#c"/><linearGradient id="e" x1="9.853" y1="0.5" x2="10.853" y2="0.5" xlink:href="#c"/><linearGradient id="f" x1="1.234" y1="0.732" x2="0.539" y2="0.509" xlink:href="#c"/></defs><g transform="translate(5550 8004.964)"><g transform="translate(-5550 -7997.688)"><circle class="a" cx="12.667" cy="12.667" r="12.667" transform="translate(9.669 65.019) rotate(-45)"/><circle class="a" cx="4.789" cy="4.789" r="4.789" transform="translate(22.331 24.238)"/><circle class="a" cx="13.439" cy="13.439" r="13.439" transform="translate(240.76 33.815)"/><circle class="a" cx="3.09" cy="3.09" r="3.09" transform="translate(230.638 12.574) rotate(-58.283)"/><circle class="a" cx="6.179" cy="6.179" r="6.179" transform="translate(253.387 125.719) rotate(-22.5)"/><circle class="a" cx="3.398" cy="3.398" r="3.398" transform="translate(0 149.416) rotate(-68.367)"/><circle class="a" cx="4.943" cy="4.943" r="4.943" transform="translate(5.03 91.898)"/><circle class="a" cx="5.252" cy="5.252" r="5.252" transform="matrix(0.23, -0.973, 0.973, 0.23, 190.262, 10.223)"/></g><path class="a" d="M455.353,339.426c-8.412-3.379-19.242.561-26.539-4.679-5.915-4.247-6.5-12.426-6.134-19.5s.9-14.953-3.863-20.371c-3.842-4.372-10.211-5.89-16.175-6.048s-11.948.783-17.886.211c-12.778-1.231-23.557-9.167-34.838-15.044-14.618-7.614-31.334-12.056-47.922-10.779s-32.948,8.664-43.054,21.327-13.125,30.7-5.968,45.087c3.695,7.428,10.045,14.916,7.807,22.859-1.544,5.484-6.913,9.225-12.43,11.309s-11.48,2.968-16.918,5.236a33.882,33.882,0,0,0-19.117,20.514,31.519,31.519,0,0,0-1.3,12.726,34.155,34.155,0,0,0-.134,3.756A49.719,49.719,0,0,0,218.6,431.36c5.055,8.143,5.2,19.931,6.883,29.206,1.394,7.691,2.923,15.7,7.695,21.939,5.74,7.509,15.415,11.267,24.914,12.163s19.031-.7,28.482-2a454.436,454.436,0,0,1,98.8-2.708c14.354,1.175,29.076,3,42.952-.8s26.871-14.993,27.485-29.168a26.913,26.913,0,0,0-.681-7.191c-2.135-9.345-8.754-17.745-14.711-25.663-7.447-9.9-14.6-22.063-11.073-33.881l.016-.053a11.236,11.236,0,0,1,6.094-6.955c7.045-3.224,21.364-10.42,26.16-17.577C468.013,359.122,466.274,343.812,455.353,339.426Z" transform="translate(-5748.306 -8267.964)"/><rect class="b" width="204" height="204" transform="translate(-5509.5 -7989.964)"/><g transform="translate(-5728.573 -9096.456)"><path class="c" d="M409.457,1664.721c0,2.736-57.208,6.766-98.885,2.171-42.184-4.652-65.666-.789-65.666-3.525s38.75-4.925,81.189-4.925S409.457,1661.985,409.457,1664.721Z" transform="translate(0 -366.574)"/><g transform="translate(281.394 1129.343)"><path class="d" d="M447.3,1470.275h1.691l-1.127-14.639Z" transform="translate(-412.258 -1364.788)"/><path class="e" d="M380.5,1403.693a43,43,0,0,1-1.344-5.261,10.4,10.4,0,0,0-5.164.985c.184.561,1.731,5.251,1.731,5.793,0,11.387,1.471,8.025,3.477,8.868a2.348,2.348,0,0,0,2.134-.326c.344-.362,2.444-.072,2.444-.289s.861-1.737,0-3,2.375,1.3,2.375.326C386.152,1409.708,381.242,1405.615,380.5,1403.693Z" transform="translate(-364.857 -1327.802)"/><g transform="translate(9.041 81.908)"><path class="f" d="M387.4,1436.81V1432.8a.142.142,0,0,0-.137-.145h-11.2a.142.142,0,0,0-.138.145v4.006h-2.2V1432.8a2.406,2.406,0,0,1,2.34-2.461h11.2a2.406,2.406,0,0,1,2.34,2.461v4.006Z" transform="translate(-373.728 -1430.343)"/></g><path class="g" d="M0,0H35.682a0,0,0,0,1,0,0V13.926A13.583,13.583,0,0,1,22.1,27.509H11.752A11.752,11.752,0,0,1,0,15.757V0A0,0,0,0,1,0,0Z" transform="translate(35.682 114.967) rotate(180)"/><path class="h" d="M436.571,1447.03a4.8,4.8,0,0,0-3,4.453v22.709h5.492v-23.356A4.154,4.154,0,0,0,436.571,1447.03Z" transform="translate(-403.377 -1359.224)"/><path class="i" d="M354.02,1198.588l4.262,4.2,5.078,50.691s3.749,11.168,5.108,17.573a25.034,25.034,0,0,0-7.919,2.172c-2.075-6.325-4.75-18.551-4.75-18.551Z" transform="translate(-351.944 -1198.588)"/><path class="e" d="M404.744,1433.9s-.763-1.706-1.569-1.637-.229,1.637-.229,1.637S404.009,1434.634,404.744,1433.9Z" transform="translate(-383.449 -1349.674)"/><path class="e" d="M382.752,1430.921s-1.525,2.81-1.074,3.261,1.891.287,1.891.287,1.8.592,2.362.029c0,0,2.762-.088,2.762-.5s-1.325-3.752-1.939-3.752-.87,2.249-.87,2.249a6.071,6.071,0,0,0-.739-2.249c-.47-.47-1.405,2.249-1.405,2.249S383.953,1430.4,382.752,1430.921Z" transform="translate(-369.773 -1348.335)"/></g><g transform="translate(307.296 1176.034)"><path class="e" d="M462.447,1341.692l-11.808,6.393.6-2.762,2.511-7.51h5.735Z" transform="translate(-440.318 -1335.298)"/><path class="j" d="M421.436,1339.946c2.241-.6,11.652.672,11.652.672s6.285-3.793,6.173-4.857-.508-.835-1.078-1.8a8.778,8.778,0,0,0-2.082-2.024,3.261,3.261,0,0,0-2.606-1.222c-1.526.161-5.575,3.438-7.239,3.613-.342.036-1.823.182-3.972.4Z" transform="translate(-421.436 -1330.699)"/><path class="e" d="M444.094,1358.11s-4.031-4.08-3.535-4.692,4.754,1.808,4.754,1.808Z" transform="translate(-433.773 -1345.324)"/><path class="e" d="M434.965,1334.753s4.139,2.618,4.691,1.937-1.617-2.26-1.617-2.26,2.351,1.458,2.814,1.2-1.51-2.132-1.51-2.132,2.253,1.646,2.923,1.347-1.205-2.912-1.205-2.912S434.986,1332.507,434.965,1334.753Z" transform="translate(-430.183 -1331.496)"/></g><path class="k" d="M502.488,1200.323s-5.361,7.88-6.109,17.293c-.311,3.92-2.431,10.782-5.984,18.29-1.833,3.874-19.015,10.638-19.015,10.638l4.082,9.124,20.226-9.452,8.786-14.592Z" transform="translate(-146.432 -70.367)"/><path class="l" d="M632.273,1663.5l-13.942.531,8.635-4.634-.311-3.824c1.444,0,2.952,1.6,4.41,1.6C631.477,1659.566,632.273,1663.5,632.273,1663.5Z" transform="translate(-241.447 -364.722)"/><path class="l" d="M578,1662.934l-15.567,1.1,10.5-5,.818-3.457c1.443,0,1.792,1.027,3.25,1.027C577.413,1659,578,1662.934,578,1662.934Z" transform="translate(-205.305 -364.722)"/><path class="j" d="M609.894,1264.228c.006-.005.012-.013.017-.018C609.759,1264.2,609.77,1264.207,609.894,1264.228Z" transform="translate(-235.93 -111.672)"/><path class="m" d="M316.346,1258.605c.533-.532,23.381,4.286,23.381,4.286L334.6,1226.56l-4.6-21.847-6.5-15.73s-9.74-2.378-10.434-1.936l-1.751,28.191Z" transform="translate(-42.944 -61.748)"/><path class="n" d="M302.333,1642.963l-.683,3.757a38.681,38.681,0,0,0,5.272,7.594c2.675,2.675,6.227,2.311,6.227.034s-4.631-7.97-4.631-10.7S302.333,1642.963,302.333,1642.963Z" transform="translate(-36.689 -356.09)"/><path class="n" d="M353.251,1639.372l-1.025,6.945h17.647s-.569-1.708-5.693-2.732-5.408-2.8-5.408-2.8l.4-4.482-4.668-.683Z" transform="translate(-69.39 -351.816)"/><path class="o" d="M334.186,1385.846l10.417,36.617-3.814,44.14h6.717l9.222-46.679-9.222-53.453Z" transform="translate(-57.726 -177.794)"/><path class="p" d="M318.437,1362.443l-6.205,20.824s-9.506,31.092-11.044,49.081a159.892,159.892,0,0,0,0,30.285L292.706,1464s-4.9-37.343-3.074-49.867-.406-43.036-.406-43.036l3.48-8.653Z" transform="translate(-28.656 -175.19)"/><path class="q" d="M299.791,1195.786s10.935-5.849,18.046,1.262,7.685,27.2,7.685,27.2v23.226l1.021,10.339-26.638-3.166,3.587-35.453Z" transform="translate(-35.487 -65.971)"/><path class="r" d="M304.925,1229.6l-17.455-37.045-11.235,3.867,3.928,33.178-7.343,37.23s28.605-2.477,32.106,1.025Z" transform="translate(-18.048 -65.344)"/><path class="s" d="M291.189,1277.035l-1.316-11.117c4.785,6.58,14.68,14,17.717,17.176,1.165,1.217,4.426,2.728,8.362,4.231v11.665c-7.753-2.43-15.4-4.91-17.1-5.76-1.577-.785-5.217-5.02-8.732-10.752Z" transform="translate(-29.074 -112.779)"/><path class="r" d="M350.132,1203.5s6.49,20.579,6.49,26.879,5.123,43.187,5.123,43.187h3.074l-4.27-43.187-5.274-19.758Z" transform="translate(-68.036 -72.419)"/><path class="t" d="M345.8,1192.625l8.548,37.576-1.874-26.613-1.719-1.8,1.358.305-3.408-7.361Z" transform="translate(-65.236 -65.39)"/><path class="q" d="M411.138,1338.083l3.522,1.125-.692,6.442-5.317-1.64Z" transform="translate(-105.873 -159.439)"/><path class="t" d="M276.183,1203.5s-2.836,0-3.416,10.984c-.723,13.7,12.713,32.953,16.3,34.661s34.229,10.531,34.229,10.531l2.277-9.881s-24.453-6.41-28.063-10.02-13.34-17.937-15.462-24.673A52.076,52.076,0,0,0,276.183,1203.5Z" transform="translate(-17.996 -72.419)"/><path class="j" d="M469.868,1289.394s2.505.888,3.334,2.023c1.057,1.448,5.332,4.074,6.544,4.221s4.665,1.115,4.665,1.115l.178,5.785s-16.778-5.092-19.512-7.826c-.947-.946,4.429,1.268,4.481.836s-6.42-1.711-5.952-2.76,5.849,2.2,6.42,1.72-6.694-2.275-6.554-3.428,7.138,2.557,7.138,2.557.206-.57-1.667-1.748-3.707-2.166-3.21-2.584,5.213,3.185,5.97,2.55C471.7,1291.854,469.413,1290.011,469.868,1289.394Z" transform="translate(-141.318 -127.878)"/><path class="u" d="M517.658,1308.054l-5.9-.767-1.3,5.809,6.346,1.4Z" transform="translate(-171.698 -139.528)"/><path class="v" d="M556.747,1414.227l11.052,75.862h-6.3l-8.115-40.312s-6.229-40.045-6.229-54.5Z" transform="translate(-195.428 -196.417)"/><path class="w" d="M569.987,1186.506l.409,6.4-15.157-1.722,4.2-4.339Z" transform="translate(-200.653 -61.433)"/><path class="u" d="M540.811,1240.265c.039-21.7,3.363-43.28,8.1-46.026,0,0,5.511-.379,8.345-.474,4.229-.142,7.521,1.994,11.033,13.962,2.214,7.545,2.523,24.377,2.286,40.246-.1,7.036-.757,14.086-.908,19.068-11.946,0-17.1.509-28.693.509C540.245,1246.083,540.8,1246.716,540.811,1240.265Z" transform="translate(-191.188 -66.123)"/><path class="x" d="M540.269,1195.119s-6.413,2.869-8.375,22.147-4.665,58.637-4.665,58.637h8.932s.967-56.228.967-60.083S540.269,1195.119,540.269,1195.119Z" transform="translate(-182.542 -67.003)"/><path class="j" d="M608.823,1272.373l.018-.02C608.679,1272.342,608.69,1272.35,608.823,1272.373Z" transform="translate(-235.234 -116.937)"/><path class="y" d="M551.549,1362.371l22.645.555,1.873,11.976.732,50.954s9.3,29.9,11.5,41.823c0,0-7.42.564-7.061.564l-15.613-37.527L557.31,1391.8l-6.814-15.13Z" transform="translate(-197.586 -175.143)"/><path class="z" d="M575.554,1362.926l.569,3.638H552.6l.309-4.193Z" transform="translate(-198.947 -175.143)"/><rect class="aa" width="5.993" height="3.33" transform="translate(360.263 1191.052) rotate(180)"/><path class="ab" d="M569.776,1445.625l9.965,38.366,12.876,34.133L578.1,1484.546Z" transform="translate(-210.053 -228.973)"/><path class="ac" d="M575.9,1221.1c-.034.26,7.047-25.526,7.047-25.526a29.747,29.747,0,0,1,5.53,2.336c3.155,1.687,4.563,14.468,4.563,14.468s1.884,26.4,1.884,28.5c0,1.127,2.269,17.993,4.367,33.343l-25.846,1.979C573.834,1254.789,575.9,1221.1,575.9,1221.1Z" transform="translate(-212.425 -67.298)"/><path class="ad" d="M576.485,1261.406s16-18.641,17.688-16.28c.152,2.145.57,8.056.968,13.877-4.039,10.2-17.11,26.855-20.038,30.522C575.534,1279,576.092,1268.444,576.485,1261.406Z" transform="translate(-213.497 -99.202)"/><path class="ab" d="M575.9,1267.8l-2.456,55.1S575.479,1269.408,575.9,1267.8Z" transform="translate(-212.425 -113.997)"/><g transform="translate(352.237 1094.177)"><path class="ae" d="M567.659,1135.209c.262-.167,3.516-8.263,3.516-8.263s2.171-6.079.769-7.108-4.736-4.6-7.656-4.662a11.094,11.094,0,0,0-5.142.977c-.262.166-2.155,3.362-2.155,3.362s.881-1.077,1.335,2.917S567.659,1135.209,567.659,1135.209Z" transform="translate(-554.022 -1109.488)"/><path class="j" d="M566.325,1159.4c.347,1.035.2,8.417.471,10.276.271,1.835,8.648,4.679,8.813-2s-.495-14.526-.495-14.526Z" transform="translate(-560.058 -1134.049)"/><path class="e" d="M566.325,1159.4h0l2.917-2.073,5.872-4.172v.022l.012.154c.019.243.057.728.1,1.4v0q.014.2.029.429c0,.01,0,.019,0,.029.032.485.067,1.043.1,1.657,0,.035,0,.069.006.1.008.146.017.294.025.446v.005c0,.078.009.158.013.238v.025c0,.03,0,.061,0,.091,0,.011,0,.023,0,.035,0,.052.005.105.008.158-1.091,3.578-5.215,7.464-8.782,7.925-.008-.246-.021-.5-.039-.746A41.967,41.967,0,0,0,566.325,1159.4Z" transform="translate(-560.058 -1134.049)"/><path class="j" d="M569.276,1129.454a12.875,12.875,0,0,1-1.428,11.243c-2.558,3.692-6.089,5.6-8.618,3.733s-3.253-13.545-1.425-16.552S567.64,1125.387,569.276,1129.454Z" transform="translate(-553.89 -1116.461)"/><path class="af" d="M563.975,1123.3s.569-3.821,2.035-4.752,2.128-1.5,2.393-2.848,5.156-2.252,4.358-4.471-4.628-3.257-6.576-7.115-4.049-5.993-8.588-4.588-5.171,4.174-5.171,4.174a3.2,3.2,0,0,0-3.227,2.049,4.1,4.1,0,0,0,.442,4.883s-.169-3.164.916-2.944-.008,3.7-.008,3.7a28.663,28.663,0,0,0,3.367-3.4c1.736-2.062,1.309.351.8,2.965s3.34.151,5.051-1.74,4.162-.123,5.056,2.557S561.858,1118.662,563.975,1123.3Z" transform="translate(-548.593 -1099.089)"/><path class="j" d="M589.271,1144.337s1.6-2.733,2.433-1.545.146,4.737-1.619,4.772S589.271,1144.337,589.271,1144.337Z" transform="translate(-574.728 -1127.153)"/><path class="e" d="M591.652,1146.142s-.061-1.583.8-1.058-.006,3.068-.8,3.017S591.652,1146.142,591.652,1146.142Z" transform="translate(-576.207 -1128.76)"/><path class="ag" d="M565.247,1146.2a9.915,9.915,0,0,0-.641,2.256,5.9,5.9,0,0,0,.024,2.5c.2-.036.714-.112,1.4-.293-.442-.012-.88,0-1.317.023l.147.108A30.4,30.4,0,0,1,565.247,1146.2Z" transform="translate(-558.875 -1129.551)"/><path class="ah" d="M572.7,1145.993a.792.792,0,0,0,.462.987c.348.07.706-.257.8-.732a.792.792,0,0,0-.462-.986C573.154,1145.191,572.8,1145.518,572.7,1145.993Z" transform="translate(-564.167 -1128.937)"/><path class="ah" d="M559.14,1144.067a.792.792,0,0,0,.462.987c.348.07.706-.257.8-.732a.793.793,0,0,0-.462-.987C559.591,1143.265,559.233,1143.592,559.14,1144.067Z" transform="translate(-555.398 -1127.691)"/><path class="ag" d="M575.3,1141.056a3.409,3.409,0,0,0-1.963-1.541c-1.227-.248-.856.784-.57.842S575.347,1140.814,575.3,1141.056Z" transform="translate(-564.038 -1125.203)"/><path class="ag" d="M560.744,1137.9s-1.453.43-1.728,1.1c0,0,1.538-.128,1.815-.488A.409.409,0,0,0,560.744,1137.9Z" transform="translate(-555.332 -1124.182)"/><path class="ai" d="M566.987,1164.6s-3.751,1.41-5.784.055c0,0,.57,1.888,1.088,2.229C563.382,1167.6,566.065,1167.059,566.987,1164.6Z" transform="translate(-556.746 -1141.449)"/></g><path class="aj" d="M557.173,1187.451l-4.254,28.019-1.184-14.161,1.239-1.5v-8.016Z" transform="translate(-198.388 -62.045)"/><path class="ak" d="M584.846,1184.573l-4.266,6.374,2.055,3.909,6.326-7.588-2.589-2.012Z" transform="translate(-217.038 -60.184)"/><path class="al" d="M564.336,1187.451l1.136,5.021-1.8,2.86-.864-4.839Z" transform="translate(-205.55 -62.045)"/><path class="aj" d="M580.394,1215.237l5.858-28.732,6.055,4.706-5.3,9.838.395,3.081Z" transform="translate(-216.918 -61.433)"/><path class="am" d="M568.332,1201.659l1.436,1.167,2.184-.831,1.181,2.246s-4.8.258-5.9-.835Z" transform="translate(-208.41 -71.231)"/><path class="an" d="M573.983,1202.168l-3.309-.237.1,2.9,2.638.122Z" transform="translate(-210.633 -71.407)"/><path class="ao" d="M564.283,1210.259l-2.638-.122-5.091,48.426,2.216,3.45,4.137-2.784Z" transform="translate(-201.503 -76.713)"/><path class="ap" d="M568.337,1210.482l-1.132,49.192-4.382,2.563,3.754-2.9Z" transform="translate(-205.557 -76.936)"/><path class="ap" d="M579.186,1202.608l-.762,2.783.379-2.783Z" transform="translate(-215.644 -71.845)"/><path class="aq" d="M553.856,1202.164c2.475.742,7.054,9.784,5.872,15.719s-9.971,27.573-12.6,30.2-27.23-1.788-27.23-1.788l.913-7.468s15.965,0,16.342-.907C538.936,1233.641,551.381,1201.422,553.856,1202.164Z" transform="translate(-177.803 -71.549)"/><path class="ar" d="M553.856,1202.164c2.475.742,7.054,9.784,5.872,15.719s-9.971,27.573-12.6,30.2-27.23-1.788-27.23-1.788l.913-7.468s15.965,0,16.342-.907C538.936,1233.641,551.381,1201.422,553.856,1202.164Z" transform="translate(-177.803 -71.549)"/><g transform="translate(266.978 1095.515)"><path class="j" d="M329.225,1118.152s3.825,5.026,4.4,8.437c.591,3.509,1.305,9.119,1.305,9.119h-1.557a17.55,17.55,0,0,0-1.3,5.188c0,2.075-3.286.778-5.188.777-1.631,0-4.8-1.484-6.759-5.586a10.854,10.854,0,0,1-1.022-2.026C317.462,1128.1,314.438,1117.458,329.225,1118.152Z" transform="translate(-314.035 -1112.732)"/><path class="j" d="M315.138,1167.193a4.813,4.813,0,0,0,3.338,4.024c1.891.6,3.685,1.05,4.674,1.288a.526.526,0,0,0,.65-.531,57.028,57.028,0,0,1,.477-6.292c.153-1.371.3-2.617.382-3.371-.4-1-3.441-8.646-3.245-8.158v-.006l-.626-1.565S315.041,1166.379,315.138,1167.193Z" transform="translate(-312.387 -1135.015)"/><path class="as" d="M327.736,1104.665c.177.3,3.179,6.4-2,8.736s-6.465-1.027-7.849,1.048,1.2,5.434.074,7.337l-1.724.33s-.351-1.022-1.043-1.022-.888,5.239-2,5.239-3.274-4.461-4.311-6.537-3.2-9.08.78-10.9,5.707-.432,5.707-2.161,1.73.087,1.73.087a3.044,3.044,0,0,0,.346-2.767c-.605-1.471,4.238-1.988,5.361.952S325.834,1101.465,327.736,1104.665Z" transform="translate(-307.357 -1102.876)"/><path class="j" d="M328.066,1145.459s.084,3.414-.739,3.414-2.625-1.934-2.32-3.99S327.694,1143.074,328.066,1145.459Z" transform="translate(-318.747 -1129.137)"/><path class="e" d="M329.271,1146.7s.411,1.357-.206,1.974-1.806-.865-1.15-1.975S329.141,1145.922,329.271,1146.7Z" transform="translate(-320.525 -1130.752)"/><path class="as" d="M351.973,1145.336l.132.825a3.061,3.061,0,0,0-2.239.619c-.793.792-.9.883-.9.883A3.465,3.465,0,0,1,351.973,1145.336Z" transform="translate(-334.258 -1130.33)"/><path class="as" d="M353.074,1151.15a.646.646,0,1,0,.636-.756A.7.7,0,0,0,353.074,1151.15Z" transform="translate(-336.916 -1133.6)"/><path class="as" d="M363.637,1125.557a1.939,1.939,0,0,1-.423,1.011c-.909,1.18-2.674,1.347-3.856,1.5a7.95,7.95,0,0,0,3.056-.063,3.345,3.345,0,0,0,2.527-2.269Z" transform="translate(-340.979 -1117.541)"/><path class="e" d="M330.687,1166a31.609,31.609,0,0,0,3.473,2.444c.2-1.866.4-3.37.4-3.37s-.955.823-3.233-8.219a.389.389,0,0,0-.012.056v.006C331.186,1157.688,329.939,1165.256,330.687,1166Z" transform="translate(-322.288 -1137.776)"/><path class="as" d="M342.084,1164.218a14.108,14.108,0,0,1,.274,2.106c0,.768-1.92,1.618-3.647,1.124a15.64,15.64,0,0,1-4.715-2.223c-.589-.589-1.06-8.547-1.06-8.547l1.563-.3s.773,5.187,1.417,5.832S342.084,1164.218,342.084,1164.218Z" transform="translate(-323.896 -1137.47)"/><path class="e" d="M349.106,1156.426c.123.563-.521,1.182-1.44,1.384s-1.763-.092-1.887-.655.521-1.183,1.44-1.384S348.983,1155.862,349.106,1156.426Z" transform="translate(-332.191 -1137.036)"/><path class="as" d="M349.945,1168.311a6.312,6.312,0,0,0,1.874,1.391c.638.125.957.085.7.6s-1.476.241-1.476-.249S349.945,1168.311,349.945,1168.311Z" transform="translate(-334.893 -1145.185)"/></g><path class="s" d="M300.227,1197.489l-.87.07,3.336,9.235h2.241l-1.347,2.344,18.5,23.652-13.673-28.683Z" transform="translate(-35.207 -68.535)"/><path class="t" d="M321.9,1226.1l-16.053-24.364,1.708-3.643-3.586.228-4.9-7.608,6.08-3.569Z" transform="translate(-35.023 -61.849)"/><path class="i" d="M410.963,1352.974a.629.629,0,1,1-.629-.629A.629.629,0,0,1,410.963,1352.974Z" transform="translate(-106.555 -168.661)"/><path class="i" d="M403.38,1350.911a.629.629,0,1,1-.629-.629A.629.629,0,0,1,403.38,1350.911Z" transform="translate(-101.652 -167.327)"/><path class="i" d="M395.667,1348.787a.629.629,0,1,1-.629-.629A.629.629,0,0,1,395.667,1348.787Z" transform="translate(-96.665 -165.954)"/><g transform="translate(316.095 1189.98)"><path class="at" d="M446.674,1374.328a.343.343,0,0,1-.034-.684c.1-.01,10.327-1.061,17.693-3.469a.343.343,0,0,1,.214.652c-7.437,2.432-17.734,3.489-17.837,3.5Z" transform="translate(-446.332 -1370.158)"/></g><g transform="translate(302.345 1166.985)"><path class="at" d="M407.771,1307.042a.343.343,0,0,1-.122-.664c.311-.117,7.668-2.839,13.387.015a.343.343,0,0,1-.306.614c-5.453-2.72-12.765-.014-12.838.014A.342.342,0,0,1,407.771,1307.042Z" transform="translate(-407.427 -1305.094)"/></g><g transform="translate(256.538 1091.492)"><path class="at" d="M278.923,1110.738a.343.343,0,0,1-.327-.24,14.417,14.417,0,0,1,2.081-13.359c2.731-3.726,6.552-5.647,7.581-5.647a.343.343,0,0,1,0,.686c-.721,0-4.321,1.673-7.028,5.366a13.754,13.754,0,0,0-1.98,12.747.343.343,0,0,1-.224.43A.337.337,0,0,1,278.923,1110.738Z" transform="translate(-277.818 -1091.492)"/></g></g></g></svg>