<svg xmlns="http://www.w3.org/2000/svg" xmlns:xlink="http://www.w3.org/1999/xlink" width="340.642" height="311.046" viewBox="0 0 340.642 311.046"><defs><style>.a{fill:none;}.b{fill:#e2dafc;}.c{fill:#ddd3fd;}.d,.q{fill:#f2f2f2;}.d{opacity:0.1;}.e{fill:#8c6df2;}.f,.n{opacity:0.2;}.g{clip-path:url(#a);}.h{opacity:0.05;}.i{fill:#0b2e4e;}.j{fill:#061f33;}.k{fill:#ff917b;}.l{fill:#fea587;}.m{fill:#89c0ff;}.o{fill:#36353d;}.p{fill:#303243;}.q{opacity:0.35;}.r{fill:#19384f;}.s{opacity:0.8;}.t{fill:#fff;}</style><clipPath id="a"><path class="a" d="M741.034,693.819a81.7,81.7,0,1,1,3.274-115.5A81.8,81.8,0,0,1,741.034,693.819Z" transform="translate(-603.256 -552.767)"/></clipPath></defs><g transform="translate(-58.646 -263)"><g transform="translate(71.541 271.847)"><circle class="b" cx="15.403" cy="15.403" r="15.403" transform="translate(11.758 79.062) rotate(-45)"/><circle class="b" cx="5.823" cy="5.823" r="5.823" transform="translate(27.154 29.472)"/><circle class="b" cx="16.342" cy="16.342" r="16.342" transform="translate(292.759 41.118)"/><circle class="b" cx="3.757" cy="3.757" r="3.757" transform="translate(280.451 15.29) rotate(-58.283)"/><circle class="b" cx="7.514" cy="7.514" r="7.514" transform="translate(308.113 152.871) rotate(-22.5)"/><circle class="b" cx="4.132" cy="4.132" r="4.132" transform="translate(0 181.686) rotate(-68.367)"/><circle class="b" cx="6.011" cy="6.011" r="6.011" transform="translate(6.116 111.746)"/><circle class="b" cx="6.387" cy="6.387" r="6.387" transform="matrix(0.23, -0.973, 0.973, 0.23, 231.354, 12.431)"/></g><path class="c" d="M508.16,355.932c-10.229-4.109-23.4.682-32.271-5.69-7.192-5.164-7.906-15.11-7.459-23.709s1.089-18.183-4.7-24.771c-4.672-5.316-12.417-7.162-19.669-7.355s-14.529.953-21.749.257c-15.538-1.5-28.645-11.147-42.363-18.293-17.776-9.259-38.1-14.66-58.272-13.108S281.616,273.8,269.327,289.2s-15.96,37.329-7.258,54.825c4.492,9.032,12.214,18.137,9.494,27.8-1.877,6.668-8.406,11.217-15.114,13.751s-13.959,3.609-20.571,6.367a41.2,41.2,0,0,0-23.246,24.945,38.327,38.327,0,0,0-1.583,15.474,41.526,41.526,0,0,0-.162,4.567,60.457,60.457,0,0,0,9.391,30.8c6.147,9.9,6.326,24.236,8.37,35.514,1.7,9.353,3.555,19.088,9.357,26.677,6.98,9.13,18.744,13.7,30.294,14.79s23.142-.857,34.634-2.435a552.585,552.585,0,0,1,120.133-3.292c17.454,1.429,35.356,3.651,52.229-.977s32.674-18.231,33.421-35.467a32.727,32.727,0,0,0-.828-8.744c-2.6-11.364-10.644-21.578-17.889-31.206-9.055-12.034-17.759-26.828-13.465-41.2l.019-.065a13.662,13.662,0,0,1,7.41-8.457c8.567-3.92,25.978-12.671,31.811-21.373C523.555,379.883,521.441,361.266,508.16,355.932Z" transform="translate(-124.055 0)"/><ellipse class="d" cx="87.915" cy="89.715" rx="87.915" ry="89.715" transform="translate(120.912 430.933) rotate(-60.839)"/><path class="e" d="M313.088,489.617A99.126,99.126,0,0,0,160.642,615.683L63.23,708.212a14.633,14.633,0,1,0,20.1,21.273l97.753-92.85A99.126,99.126,0,0,0,313.088,489.617ZM297.151,617.081a81.7,81.7,0,1,1,3.274-115.5A81.8,81.8,0,0,1,297.151,617.081Z" transform="translate(0 -159.436)"/><path class="f" d="M727.577,555.158a86.252,86.252,0,1,0-3.456,121.93A86.349,86.349,0,0,0,727.577,555.158ZM721,673.782a81.7,81.7,0,1,1,3.274-115.5A81.8,81.8,0,0,1,721,673.782Z" transform="translate(-423.846 -216.137)"/><g transform="translate(159.373 316.593)"><g class="g" transform="translate(0 0)"><ellipse class="h" cx="104.39" cy="5.013" rx="104.39" ry="5.013" transform="translate(-44.34 382.307)"/><g transform="translate(-12.199 12.712)"><g transform="translate(0 244.686)"><path class="i" d="M840.314,2030.906c1.68-15.3,3.341-30.665,3.094-46.081a146.446,146.446,0,0,0-2.03-22.8c-.543-3.116-1.5-6.14-2.018-9.236-.48-2.9-1.182-5.477-3.962-7.038-2.427-1.364-5.365-1.331-8.147-1.262l-54.2,1.337c-3.5.087-7.316.291-9.94,2.609-2.224,1.966-3.077,5.016-3.824,7.889-1.637,6.3-3.641,12.419-3.889,18.946q-2.784,73.308-5.569,146.617l-.736,19.393q-.368,9.7-.737,19.393t-.736,19.393q-.184,4.848-.368,9.7c-.127,3.337-.548,6.657-.865,9.99a5.752,5.752,0,0,0-.007,1.546c.28,1.574,1.431,1.331,2.743,1.329l4.2-.008a3.657,3.657,0,0,0,1.82-.319,3.544,3.544,0,0,0,1.323-1.949c2.224-5.789,4.138-11.67,5.968-17.591s3.549-11.862,5.172-17.834,3.151-11.97,4.6-17.988c1.742-7.249,3.053-14.288,2.285-21.64-.844-8.081-1.236-16.327.567-24.316,1.576-6.979,4.757-13.489,7.557-20.089a196.46,196.46,0,0,0,15.569-76.346c.007-7.908,2.411-16.052,3.7-23.931q.856,19.381,1.713,38.761t1.713,38.761q.857,19.381,1.713,38.761t1.713,38.761q.857,19.381,1.713,38.761c.214,4.848.4,9.7.6,14.547.2,4.939.941,9.915,1.409,14.838l7.042.458a3.032,3.032,0,0,0,1.285-.1c1.416-.544,1.51-2.968,1.612-4.2,1.268-15.209,5.338-30,6.589-45.21,1.332-16.2,2.515-32.418,3.7-48.632,1.42-19.453,3.6-38.5,5.729-57.857Z" transform="translate(-707.666 -1944.464)"/><g transform="translate(50.54 4.597)"><path class="j" d="M890.158,1977.948a259.827,259.827,0,0,1-76.561,3.563,3.377,3.377,0,0,1-3.011-3.788l.254-1.976a3.367,3.367,0,0,1,3.675-2.924,250.934,250.934,0,0,0,73.914-3.442,3.367,3.367,0,0,1,3.928,2.558l.444,1.948A3.376,3.376,0,0,1,890.158,1977.948Z" transform="translate(-810.559 -1969.317)"/></g><path class="j" d="M537.87,3341.513a219.135,219.135,0,0,0,25.979.368,106.825,106.825,0,0,0,12.869-.98,18.762,18.762,0,0,1,3.942-.6c1.758.058,3.529.063,4.865-1.258a3.242,3.242,0,0,0,.906-1.534,5.811,5.811,0,0,0,.1-1.4c-.011-1.884.008-3.77-.034-5.653a4.966,4.966,0,0,0-.708-3.133c-1.574-1.884-6.246-.912-8.4-.9a3.614,3.614,0,0,0-1.847.335,5.94,5.94,0,0,0-1.358,1.534c-1.152,1.4-2.758,1.718-4.475,1.906-5.256.574-10.409,1.564-15.643,2.342-2.68.4-5.3,1.081-8,1.53a15.969,15.969,0,0,0-6.047,1.86c-1.785,1.136-3.106,3.249-2.628,5.284Z" transform="translate(-537.298 -3070.619)"/><path class="j" d="M1098.737,3348.827l-1.613-4.258q-.4-1.064-.807-2.129a3.172,3.172,0,0,0-1.018-1.467,5.093,5.093,0,0,0-3.679-.78l-4.916.253a4.464,4.464,0,0,0-2.113.461,4.335,4.335,0,0,0-1.524,2.225l-2.273,5.58a4.248,4.248,0,0,0-.4,3.231c.685,1.561,2.828,1.743,4.558,1.684l11.24-.382a3.611,3.611,0,0,0,2.463-.7C1099.606,3351.615,1099.2,3350.058,1098.737,3348.827Z" transform="translate(-979.793 -3082.027)"/></g><path class="k" d="M1028.877,973.444c4.75-1.589,9.672-2.942,14.325-4.79,8.469-3.364,9.771,1.552,10.792,8.8q1.853,13.142,3.707,26.284c1.141,8.093-7.832,10.831-14.644,11.769a25.346,25.346,0,0,1-11.231-.563,12.787,12.787,0,0,1-8.2-7.268c-.992-2.658-.819-5.589-.633-8.42q.636-9.665,1.273-19.329c.113-1.718.291-3.589,1.482-4.831A7.442,7.442,0,0,1,1028.877,973.444Z" transform="translate(-933.043 -903.565)"/><path class="l" d="M955.455,703.369c-3.107,1.633-5.012,4.09-6.835,6.992a14.187,14.187,0,0,0-.888,1.523,4.787,4.787,0,0,0-.29.788,4.033,4.033,0,0,1-.157.765c-.124.238-.4.443-.554.677a3.89,3.89,0,0,0-.388.791c-.2.554.138,1.12.213,1.7a10.3,10.3,0,0,0,.141,1.876,19.835,19.835,0,0,1,.279,8.767,56.277,56.277,0,0,1-2.615,9.409,31.821,31.821,0,0,0-1.974,9.537,13.742,13.742,0,0,0,1.553,6.71,25.586,25.586,0,0,1,1.472,2.537,21.676,21.676,0,0,0,1.255,2.818,19.2,19.2,0,0,0,9.877,8.294,20.5,20.5,0,0,0,16.526-1.262c3.849-2.068,7.3-5.173,10.88-7.69a5.915,5.915,0,0,0,2.437-2.6c.464-1.318-.054-2.751-.216-4.138-.209-1.79-.04-4.585,1.945-4.947,2.3-.42,4.272-.623,6.285-1.992a11.732,11.732,0,0,0,4.841-7.279,7.893,7.893,0,0,0-1.016-6.126,5.181,5.181,0,0,0-3.574-2.13c-.552-.057-1.67.376-2.1.165-.536-.261-1.07-1.718-1.377-2.231-1.993-3.339-4.009-6.666-6.135-9.922-3.67-5.619-7.991-11.286-14.213-13.8A18.563,18.563,0,0,0,955.455,703.369Z" transform="translate(-867.464 -686.536)"/><path class="i" d="M967.235,648.566c-4.026-3.235-9.187-5.315-14.323-4.78s-10.082,4.058-11.427,9.044c-.192.714-4.962-6.491-5.213-7.744-.657-3.28.594-7.021,1.993-9.966a23.876,23.876,0,0,1,16.569-13.243c10.571-2.038,22.145,4.381,26.014,14.427.231.6,5.745,2.839,6.7,3.693a19.1,19.1,0,0,1,4.78,6.725c2.206,5.181,2.508,11.124-1.865,14.864A29.484,29.484,0,0,0,980.3,682.071c-.221,4.051.365,8.346-1.443,11.978-1.986,3.989-6.331,6.127-10.38,7.988l-20.631,9.479a40.376,40.376,0,0,1-10.457-34.03c1.073,3.891,4.832,6.593,8.772,7.468s8.05.225,11.989-.653c5.311-1.185,10.659-2.847,14.977-6.158,3.821-2.93,8.9-9.363,6.053-14.22C975.978,658.454,972.232,652.581,967.235,648.566Z" transform="translate(-862.334 -621.5)"/><path class="m" d="M803.492,1151.454a20.213,20.213,0,0,0-8.108-13.43,17.223,17.223,0,0,0-11.763-2.989c-2.982.358-7.779-.1-10.221,1.819a20.155,20.155,0,0,0-2.587,2.743q-.109.126-.22.249a19.6,19.6,0,0,1-25.174,3.422,13.482,13.482,0,0,1-6.082-7.825c-.286-1.177-6.131-.725-6.988-.682a34.3,34.3,0,0,0-7.875,1.333q-1.394.406-2.729.906a45.077,45.077,0,0,0-4.884,1.691,42.828,42.828,0,0,0-8.669,4.326,41.31,41.31,0,0,0-13.161,13.656c-3.622,6.187-5.568,13.186-7.477,20.1l-10.984,39.766a41.127,41.127,0,0,0-1.544,7.277c-.209,2.368.087,4.981,1.745,6.684,3,3.085,6.383,1.211,9.617.033a30.06,30.06,0,0,0,10.708-7.084,55.883,55.883,0,0,0,5.045-5.837c1.986-2.6,3.255-6.053,4.4-9.1q.958-2.552,1.694-5.182.377-1.35.7-2.717a5.4,5.4,0,0,1,.427-1.613c4.943,5.972,2.473,17.892,1.377,24.818l-10.07,63.641c-.355,2.243-.552,4.935,1.2,6.379,1.141.941,2.746,1.005,4.224,1.021q33.222.366,66.41-1.752c2.933-.187,6.169-.528,8.156-2.693,2.311-2.516,1.979-6.392,1.609-9.788a163.6,163.6,0,0,1,1.409-45.331c1.238-7.209,3.48-14.117,4.753-21.29,1.341-7.561,2.042-15.217,3.247-22.8,1.209-7.608,6.743-14.72,8.953-22.233C802.34,1163.14,804.451,1157.664,803.492,1151.454Z" transform="translate(-649.505 -1039.733)"/><g transform="translate(70.357 33.575)"><g class="n" transform="translate(14.719 9.48)"><path class="o" d="M1002.645,854.66a3.1,3.1,0,0,1,.7.27,2.8,2.8,0,0,1,1.218,1.9,8.741,8.741,0,0,1,.051,2.365,18.543,18.543,0,0,0-7.316-3.147,4.817,4.817,0,0,1,.164-1.161c.266-.414.972-.379,1.4-.469A8.024,8.024,0,0,1,1002.645,854.66Z" transform="translate(-997.287 -854.289)"/></g><path class="p" d="M947.8,803.032c-4.629.057-9,3.753-9.241,8.519a10.462,10.462,0,0,0-4.508-.175c-.347-4.233-4.305-7.263-8.216-7.381-4.144-.125-8.11,4.138-8.137,8.3-.026,4.065,3.57,8.5,7.751,8.789,4.645.326,8.553-3.788,8.672-8.282V812.8a10.831,10.831,0,0,1,4.421.221,9.359,9.359,0,0,0,8.689,8.67,9.338,9.338,0,1,0,.569-18.66Zm-22.313,16.6c-3.653-.007-6.315-4.118-6.294-7.29.021-3.236,2.885-7.12,6.6-6.885a7.09,7.09,0,0,1-.308,14.175Zm21.793.459a8.1,8.1,0,0,1-7.3-7.929c-.044-4.171,3.824-7.418,7.772-7.521a7.828,7.828,0,0,1,7.787,7.96A7.973,7.973,0,0,1,947.284,820.09Z" transform="translate(-917.702 -803.031)"/><path class="q" d="M939.4,825.748c-.371.582-.757,1.143-1.154,1.683q.779-1.672,1.613-3.357a.818.818,0,0,0-1.241-1.037,12.665,12.665,0,0,0-1.551,1.529c.4-.865.824-1.72,1.293-2.563.437-.785-.6-1.759-1.187-1.027-1.809,2.245-3.592,4.564-5.4,6.8-.637.786.435,2,1.067,1.2.565-.709,1.12-1.422,1.675-2.136-.476,1.311-.9,2.646-1.269,3.992-.243.88.913,1.493,1.328.686.372-.722.746-1.449,1.14-2.164q-.413.947-.822,1.888c-.366.838.464,1.639,1.12,1.044.144-.13.283-.265.424-.4a.691.691,0,0,0,1.126-.134c1.018-1.693,2.093-3.4,3.257-5.125C941.423,825.727,939.967,824.851,939.4,825.748Z" transform="translate(-929.006 -817.446)"/><path class="q" d="M1055.9,823.053c-.443.651-.917,1.276-1.415,1.875q.981-1.857,1.958-3.745a.948.948,0,0,0-1.482-1.148,18.327,18.327,0,0,0-1.952,1.718q.768-1.445,1.637-2.868c.541-.882-.729-1.954-1.484-1.125-2.266,2.488-4.525,4.985-6.718,7.524-.73.845.434,2.171,1.187,1.314q1.01-1.15,2.078-2.322-.929,2.153-1.63,4.352a.921.921,0,0,0,1.637.78c.482-.788.975-1.581,1.495-2.364q-.547,1.038-1.085,2.067a.951.951,0,0,0,1.446,1.181c.189-.141.372-.288.557-.434a.981.981,0,0,0,1.464-.126c1.314-1.867,2.645-3.766,3.935-5.694C1058.21,823.028,1056.586,822.05,1055.9,823.053Z" transform="translate(-1022.448 -814.792)"/></g><path class="r" d="M1006.507,964.481c6.337-5.251,15.407-4.913,21.855-9.979a19.623,19.623,0,0,0,6.954-19.022c-.089-.448-.774-.258-.685.189a18.813,18.813,0,0,1-8.6,19.567c-6.331,3.756-14.237,3.941-20.03,8.742-.352.292.152.792.5.5Z" transform="translate(-919.218 -877.2)"/><path class="r" d="M1172.82,705.273a10.757,10.757,0,0,1,10.464,17.984c-.283.294.165.744.449.449a11.392,11.392,0,0,0-11.081-19.045.318.318,0,0,0,.169.612Z" transform="translate(-1054.958 -688.993)"/><path class="i" d="M958.144,643.514a21.163,21.163,0,0,0-10.4-6.335,49.5,49.5,0,0,0-14.034-1.978c-4.511.017-9.165,1.033-12.724,3.949a12.72,12.72,0,0,0,2.975,21.556c.493.221.924-.509.427-.731a11.877,11.877,0,0,1-2.8-20.227c3.456-2.82,8.034-3.719,12.391-3.7a50.462,50.462,0,0,1,12.512,1.658c4.216,1.114,8.207,3.022,11.06,6.405.352.417.948-.184.6-.6Z" transform="translate(-846.191 -632.667)"/><g transform="translate(86.666 95.18)"><path class="l" d="M1098.369,1587.96l-7.59-7.021a19.808,19.808,0,0,0-7.014-4.334c-2.6-.932-6.284.112-8.931.712-6.694,1.516-13.005,4.218-19.627,5.967-7.9,2.086-16.92,3.165-25.033,1.94-.32-.048-.652-.1-.988-.142l-.2-.226c-1.973-2.245-4.122-4.336-6.171-6.528-1.871-2-3.877-4.382-3.572-7.106.1-.861.425-1.681.548-2.538a2.659,2.659,0,0,0-.662-2.4,2.186,2.186,0,0,0-2.482-.1,4.069,4.069,0,0,0-1.6,2.059,9.024,9.024,0,0,0-.539,2.119,11.819,11.819,0,0,0,.337,4.794c.294,1.045,1.56,2.5.647,3.39-1.839,1.784-4.983,2.3-7.2,3.44a4.393,4.393,0,0,0-2.287,2.218,2,2,0,0,0,1.186,2.626c.517.111,1.269.1,1.322.628.032.317-.262.556-.483.785a2.378,2.378,0,0,0-.058,3.13,5.18,5.18,0,0,1,.767.837c.448.8-.1,1.769-.134,2.683-.052,1.3.949,1.71,1.546,2.659s.67,2.061,1.529,2.889c1.145,1.105,2.91,1.2,4.5,1.109,2.264-.136,4.44-.794,6.722-.762,2.826.039,5.678.364,8.5.543.311.02.626.038.941.048.845.089,1.7.158,2.547.214a174.816,174.816,0,0,0,61.339-6.961c1.469-.444,3.039-.975,3.822-1.935C1101.346,1591.1,1099.837,1589.317,1098.369,1587.96Z" transform="translate(-1005.884 -1486.365)"/><path class="m" d="M1255.722,1234.21c-.078-.491-.163-.981-.248-1.47a325.651,325.651,0,0,0-19.583-67.686c-2.36-5.739-4.936-11.5-8.914-16.258-1.844-2.208-4-3.415-6.131-5.224a33.126,33.126,0,0,0-8.2-5.465,16.964,16.964,0,0,0-4.067-1.175c-.205-.1-.41-.2-.619-.3-3.018-1.415-7.343.34-9.637,2.452-2.407,2.216-4.91,3.5-5.486,6.722-.45,1.317-1.785,4.159-2.2,5.44-2.033,6.3-1.3,12.361-.811,19.066.7,9.505,4.25,18.624,9.021,26.874s10.748,15.728,16.7,23.171q1.491,1.864,2.993,3.726c.2.457.4.915.587,1.377a5.014,5.014,0,0,0-3.165.416,18.28,18.28,0,0,1-2.451,1.209c-1.6.523-3.729.721-4.565,2.424a3.66,3.66,0,0,0,.188,3.169,15.028,15.028,0,0,0,1.92,2.662,25.8,25.8,0,0,1,5.615,15.09l26.372,1.464a22.361,22.361,0,0,0,6.308-.247C1257.323,1249.795,1257.166,1240.875,1255.722,1234.21Z" transform="translate(-1155.366 -1136.12)"/></g></g></g></g><g class="s" transform="translate(167.377 347.932)"><path class="t" d="M664.674,808.982h0c-5.428,3.583-11.193-2.748-13.16-7.691-9.024-24.466-5.7-52.155,9.21-72.819,3.141-4.13,10.866-9.347,15.35-3.964h0c3.492,4.269,1.037,11.288-1.738,15.088-11.295,15.718-13.808,36.615-6.984,55.211C669.044,799.319,668.967,806.148,664.674,808.982Z" transform="translate(-646.531 -722.209)"/><path class="t" d="M778.126,1226.584c3.821,3.136,8.16,9.615,5.778,14.857-3.061,6.737-12.551,3.492-16.721.067-4.236-3.478-9-11.921-3.708-16.716C767.617,1221.038,774.253,1223.4,778.126,1226.584Z" transform="translate(-739.94 -1130.271)"/></g></g></svg>