<svg xmlns="http://www.w3.org/2000/svg" xmlns:xlink="http://www.w3.org/1999/xlink" width="269.533" height="231.928" viewBox="0 0 269.533 231.928"><defs><style>.a{fill:#bef5fc;}.b{fill:none;}.c{fill:#fc7575;}.d{fill:#fd5e5a;}.e{fill:url(#a);}.f{fill:#c7b299;}.g{fill:#230044;}.h{fill:#131537;}.i{fill:#e85553;}.j{fill:#0f1d5b;}.k{fill:#1a0033;opacity:0.53;}.l{fill:#fff7cf;}.m{fill:#2e005b;}.n{fill:#4f3369;}.o{fill:#53587d;}.p{fill:#1d1c22;}.q{fill:#3a3745;}.r{fill:#2e162b;}.s{fill:#452140;}.t{fill:#341930;}.u{fill:#4c2a54;}.v{fill:#653870;}.w{fill:#363a68;}.x{fill:#fff;}.y{fill:#5c2c55;}.z{fill:#decfed;}.aa{fill:#81669b;}.ab{fill:#bea0db;}.ac{fill:#614d74;opacity:0.36;}.ad{fill:#432c47;}.ae{fill:url(#b);}.af{fill:#381a3f;}.ag{fill:#172866;}.ah{fill:#2f499f;}.ai{fill:#2d2828;}.aj{fill:#6b7296;}.ak{fill:#9095b0;}.al{fill:#c13665;}.am{fill:#cf3a6c;}.an{fill:#a62e56;}.ao{fill:#ea5757;}.ap{fill:#fc8b8b;}.aq{fill:#58307d;}</style><linearGradient id="a" x1="-1.144" y1="1.045" x2="-0.605" y2="-0.033" gradientUnits="objectBoundingBox"><stop offset="0" stop-color="#f59bf3"/><stop offset="1" stop-color="#ffaf90"/></linearGradient><linearGradient id="b" x1="0.488" y1="0.041" x2="0.512" y2="0.964" gradientUnits="objectBoundingBox"><stop offset="0" stop-color="#290051"/><stop offset="1" stop-color="#330065"/></linearGradient></defs><g transform="translate(6050.533 8213.964)"><g transform="translate(-6050.533 -8206.688)"><circle class="a" cx="12.667" cy="12.667" r="12.667" transform="translate(9.669 65.019) rotate(-45)"/><circle class="a" cx="4.789" cy="4.789" r="4.789" transform="translate(22.331 24.238)"/><circle class="a" cx="13.439" cy="13.439" r="13.439" transform="translate(240.76 33.815)"/><circle class="a" cx="3.09" cy="3.09" r="3.09" transform="translate(230.638 12.574) rotate(-58.283)"/><circle class="a" cx="6.179" cy="6.179" r="6.179" transform="translate(253.387 125.719) rotate(-22.5)"/><circle class="a" cx="3.398" cy="3.398" r="3.398" transform="translate(0 149.416) rotate(-68.367)"/><circle class="a" cx="4.943" cy="4.943" r="4.943" transform="translate(5.03 91.898)"/><circle class="a" cx="5.252" cy="5.252" r="5.252" transform="matrix(0.23, -0.973, 0.973, 0.23, 190.262, 10.223)"/></g><path class="a" d="M455.353,339.426c-8.412-3.379-19.242.561-26.539-4.679-5.915-4.247-6.5-12.426-6.134-19.5s.9-14.953-3.863-20.371c-3.842-4.372-10.211-5.89-16.175-6.048s-11.948.783-17.886.211c-12.778-1.231-23.557-9.167-34.838-15.044-14.618-7.614-31.334-12.056-47.922-10.779s-32.948,8.664-43.054,21.327-13.125,30.7-5.968,45.087c3.695,7.428,10.045,14.916,7.807,22.859-1.544,5.484-6.913,9.225-12.43,11.309s-11.48,2.968-16.918,5.236a33.882,33.882,0,0,0-19.117,20.514,31.519,31.519,0,0,0-1.3,12.726,34.155,34.155,0,0,0-.134,3.756A49.719,49.719,0,0,0,218.6,431.36c5.055,8.143,5.2,19.931,6.883,29.206,1.394,7.691,2.923,15.7,7.695,21.939,5.74,7.509,15.415,11.267,24.914,12.163s19.031-.7,28.482-2a454.436,454.436,0,0,1,98.8-2.708c14.354,1.175,29.076,3,42.952-.8s26.871-14.993,27.485-29.168a26.913,26.913,0,0,0-.681-7.191c-2.135-9.345-8.754-17.745-14.711-25.663-7.447-9.9-14.6-22.063-11.073-33.881l.016-.053a11.236,11.236,0,0,1,6.094-6.955c7.045-3.224,21.364-10.42,26.16-17.577C468.013,359.122,466.274,343.812,455.353,339.426Z" transform="translate(-6248.839 -8476.964)"/><rect class="b" width="204" height="204" transform="translate(-6010.033 -8198.964)"/><g transform="translate(-8044.441 -8432.641)"><path class="c" d="M2140.993,283.262s.869-4.64,0-7.557l4.634.814.825,1.574-1.822,6.7Z" transform="translate(-53.741 -34.686)"/><g transform="translate(2151.394 241.766)"><path class="d" d="M2372.137,280.107s.281.012.281.539a52.515,52.515,0,0,1-2.544,5.389v-1.164S2371.317,280.438,2372.137,280.107Z" transform="translate(-2364.702 -279.521)"/><path class="c" d="M2359.359,284.214c0-.441.854-.716.854-1.3s-.4-1.359-.787-.514c-.319.708-.6.508-.876.906.263-1.385,1.255-4.98.989-5.119-.584-.306-2.652,6.161-2.877,6.712a15.934,15.934,0,0,0-.464,3.883c0,1.323-3.4,6.214-3.4,6.214l4.944,1.037s1.079-3.455,1.567-5.881C2361.357,288.146,2359.359,284.655,2359.359,284.214Z" transform="translate(-2352.797 -278.171)"/></g><g transform="translate(2158.954 243.286)"><path class="d" d="M2379.931,289.326s-.229.012-.229.539,2.08,5.389,2.08,5.389V294.09S2380.6,289.656,2379.931,289.326Z" transform="translate(-2379.114 -287.468)"/><path class="c" d="M2378.2,289.233c0-.441-.437-.962-.437-1.549s.445-1.374.757-.528c.261.708.624,2.568.848,2.967-.215-1.386-1.026-6.781-.808-6.921.478-.306,2.168,6.161,2.351,6.712a19.291,19.291,0,0,1,.38,3.882c0,1.323,2.78,6.214,2.78,6.214l-4.042,1.037s-.882-3.455-1.281-5.881C2377.071,293.165,2378.2,289.673,2378.2,289.233Z" transform="translate(-2377.761 -283.19)"/></g><path class="e" d="M2074.677,453c17.68-14.437-12.937-37.735-6.158-60.778s29.15.647,41.188,12,26.144-8.958,35.5-9.5,4.089,8.332,8.306,19.83,35.307,1.949,47.771,13.056-7.393,34.742-9.064,48.836,19.8,30.042,6.042,50.959l-68.329-.414c-6.875-2.164-11.361-3.88-11.361-3.88C2054.6,494.814,2057,467.437,2074.677,453Z" transform="translate(0 -109.144)"/><path class="f" d="M2240.8,859.874c0,2.344-49.018,5.8-84.73,1.859-36.146-3.986-56.266-.676-56.266-3.02s33.2-4.22,69.567-4.22S2240.8,857.529,2240.8,859.874Z" transform="translate(-25.022 -438.197)"/><path class="g" d="M2462.913,505.022l-5.792.851,3.256-15.025,3.147,1.618Z" transform="translate(-274.135 -184.677)"/><path class="h" d="M2394.551,348.476a81.809,81.809,0,0,1-6.734-12.354c-1.8.731-2.839.7-4.679,1.47l6.408,14.812,18.672,17.071L2413.68,358S2396.231,351.037,2394.551,348.476Z" transform="translate(-222.556 -76.807)"/><path class="d" d="M2464.118,643.138s-3.218,13.238-1.959,16.606,3.254,5.843,3.323,10.853-3.659,27.245-3.086,30.434c.242,1.345.332,3.4-.024,3.985-.457.756-2.586,6.125-3.164,6.268a16.372,16.372,0,0,1-3.133-.311,7.175,7.175,0,0,1,.743-1.665,54.7,54.7,0,0,0,1.647-12.493c-.054-4.952-1.688-27.42-2.9-32.333s-1.666-4.824-1.712-8.246a69.39,69.39,0,0,1,1.292-10.187Z" transform="translate(-271.856 -290.848)"/><path class="i" d="M2462.159,659.745c-1.258-3.368,1.959-16.606,1.959-16.606l-8.972,2.91a69.388,69.388,0,0,0-1.292,10.187,14.737,14.737,0,0,0,.9,5.223c1.839-.061,4.691-.191,7.917-.465C2462.491,660.588,2462.319,660.174,2462.159,659.745Z" transform="translate(-271.856 -290.849)"/><path class="c" d="M2502.829,644.394s-4.109,12.989-3.083,16.435,2.85,6.051,2.579,11.053-5.967,30.22-5.967,30.22c.395,2.316.491,2.644.1,3.208-.508.723-2.445,6.434-3.032,6.537s-3.012.517-3.012.517a2.25,2.25,0,0,1,.37-1.986,6.432,6.432,0,0,0,1-2.453,89.3,89.3,0,0,0,.9-10.423c.281-4.944,1.045-27.412.172-32.4s-1.335-4.926-1.148-8.343a69.408,69.408,0,0,1,1.98-10.076Z" transform="translate(-297.279 -291.724)"/><path class="i" d="M2502.829,660.829c-1.026-3.446,3.083-16.435,3.083-16.435l-9.149,2.295a69.443,69.443,0,0,0-1.98,10.076,14.735,14.735,0,0,0,.542,5.272c1.839.064,4.693.128,7.93.074C2503.1,661.693,2502.96,661.268,2502.829,660.829Z" transform="translate(-300.362 -291.724)"/><path class="j" d="M2452.6,517.974s-1.1,16.992-1.936,21.04-5.595,32.736-5.595,32.736,21.213,1.786,26.333,0c0,0,.571-36.813-.634-41.546s-6.475-13.343-6.475-13.343Z" transform="translate(-265.731 -202.813)"/><path class="k" d="M2469.582,517.974s-.057.871-.154,2.266a18.738,18.738,0,0,1,4.686,6.912c1,3.151,8.737,2.686,13.36,2.11-1.577-4.846-6.2-12.4-6.2-12.4Z" transform="translate(-282.715 -202.813)"/><path class="g" d="M2486.09,400.906l-6.435-.466-2.279,4.461,9.156.953Z" transform="translate(-288.255 -121.647)"/><path class="l" d="M2466.73,404.4s2.932-2.256,12.862-.014c.27.061.517,10.836.517,10.836s-4.606,18.034-3.73,22.535c0,0-5.267,4.444-13.123.576,0,0,1.021-14.163.307-17.317s-2.14-6.015-.116-9.289A37.115,37.115,0,0,0,2466.73,404.4Z" transform="translate(-277.818 -123.703)"/><path class="m" d="M2493.22,401.979l-5.617,16.083v26.694l12.412.6-4.327-5.66-1.466-7.1,3.454-18.362-.319-10.818Z" transform="translate(-295.386 -122.72)"/><path class="m" d="M2465.534,400.44l-4.624,15.35-1.2,27.054h-2.59l2.782-14.294-1.631-16.117,4.653-10.409Z" transform="translate(-274.135 -121.647)"/><path class="n" d="M2493.22,401.979l-5.617,16.083,7.177-9.354,1.2-6.3Z" transform="translate(-295.386 -122.72)"/><path class="n" d="M2474.258,400.44l-4.624,15.35.417-10.981,1.927-3.9Z" transform="translate(-282.858 -121.647)"/><path class="d" d="M2520.508,526.855c.161-.161,1.569-2.235,1.87-1.934s-1.246,2.213-1.246,2.213,1.794-1.816,2.149-1.461-2.4,2.806-2.688,2.806S2520.508,526.855,2520.508,526.855Z" transform="translate(-318.276 -208.411)"/><path class="c" d="M2511.709,517.453s-.758,1.158-.2,1.717.26,1.138.639,1.517,2.076.439,2.076.439a11.667,11.667,0,0,1,.958-3.514,13.083,13.083,0,0,1,1.356-1.927,22.962,22.962,0,0,0-2.343-1.341C2512.793,516.167,2511.735,517.408,2511.709,517.453Z" transform="translate(-311.909 -201.058)"/><path class="n" d="M2518.139,406.716s-.985,7.827,0,9.983c.958,2.1,6.562,4.52,7.523,8.772.718,3.176-3.959,9.879-7.006,13.837a24.413,24.413,0,0,0,2.749,2.518c3.1-3.948,9.863-13.243,10.059-15.423C2531.7,423.725,2522.3,406.437,2518.139,406.716Z" transform="translate(-316.369 -126.02)"/><path class="o" d="M2517.828,406.724c-.148,1.825-.266,3.573-.3,5.435-.031,3.288.167,4.325.893,5.149,1.685,1.953,6.193,4.338,6.93,8.17-1.049-3.8-5.41-5.914-7.171-7.966a4.1,4.1,0,0,1-.875-2.622A40.78,40.78,0,0,1,2517.828,406.724Z" transform="translate(-316.058 -126.028)"/><g transform="translate(2192.082 410.379)"><path class="p" d="M2508.666,847.84l-.091,5.686.633.018.815-6.481Z" transform="translate(-2502.088 -843.397)"/><path class="q" d="M2494.153,834.956c-.534,3.179-2.379,8.346-3.548,9.172l-2.032-.9c-1.009,1.725-2.152,2.608-.8,2.612,1.738.006,4.448.12,4.786-.591.583-1.228.915-5.882,2.1-5.878l-.388,5.729.631.018s.961-7.887.759-8.675A2.28,2.28,0,0,0,2494.153,834.956Z" transform="translate(-2487.156 -834.956)"/></g><g transform="translate(2183.543 410.183)"><path class="p" d="M2480.468,847.193l-.091,5.685.633.018.815-6.482Z" transform="translate(-2473.891 -842.75)"/><path class="q" d="M2465.956,834.309c-.534,3.179-2.378,8.346-3.547,9.172l-2.032-.9c-1.009,1.725-2.152,2.608-.8,2.612,1.738.006,4.448.12,4.786-.591.583-1.228.914-5.882,2.1-5.878l-.388,5.729.631.019s.962-7.887.759-8.675A2.279,2.279,0,0,0,2465.956,834.309Z" transform="translate(-2458.959 -834.309)"/></g><g transform="translate(2187.812 255.9)"><path class="r" d="M2486.4,326.222c.4.37,4.219-.188,7.454,3.293,4.279,4.6,3.773,15.36,3.773,15.36a55.215,55.215,0,0,1-6.34,1.105,53.975,53.975,0,0,1-7.4-.738c-1.99-.294-3.064-11.489-1.724-14.455A11.029,11.029,0,0,1,2486.4,326.222Z" transform="translate(-2478.994 -325.805)"/><path class="s" d="M2480.464,326.209s-4.265-.245-5.321,2.509-.61,11.562-2.088,12.477a4.413,4.413,0,0,0,2.053.662s.618,1.086-.865,2.69a12.141,12.141,0,0,0,3.711.683c.13,0,1.513.388,1.64-.782.15-1.385-.956-4.451-.812-5.791C2479.387,332.983,2480.464,326.209,2480.464,326.209Z" transform="translate(-2473.055 -325.792)"/><path class="t" d="M2485.508,327.9a4.081,4.081,0,0,0-1.12.13s-3.656,1.531-3.822,4.222.207,3.736-.087,5.477c-.462,2.737,1.269,7.828,4.25,7.761.069-1.442-.962-4.354-.823-5.651C2484.412,335.091,2485.248,329.575,2485.508,327.9Z" transform="translate(-2478.178 -326.974)"/><path class="c" d="M2485.28,377.02s-.684,5.194-1.4,6.564-1.85,7.35-.851,7.35,5.646-4.653,5.945-6.536,1.756-9.66,1.756-9.66Z" transform="translate(-2479.736 -359.628)"/><path class="d" d="M2490.881,376.438c-.038.018-.153,1.094-.159,1.137-.165,1.157-.213,1.086-.164,1.24.387,1.211,1.949,1.97,4.253-.09a11.47,11.47,0,0,0,.844-.84c.324-1.752.585-3.148.585-3.148S2490.927,376.419,2490.881,376.438Z" transform="translate(-2485.245 -359.628)"/><path class="c" d="M2486.144,327.982s-3.456,1.464-3.611,4.04.2,3.576-.08,5.244.44,6.123,3.055,7.248,6.094-3.188,6.7-5.125a15.525,15.525,0,0,0,.16-7.739C2491.71,328.62,2488.065,327.45,2486.144,327.982Z" transform="translate(-2479.568 -326.946)"/><path class="d" d="M2490.5,342.421a9.427,9.427,0,0,0,1.93-3.031,15.525,15.525,0,0,0,.161-7.739c-.662-3.03-4.306-4.2-6.227-3.668,0,0-3.456,1.464-3.611,4.04-.052.863-.048,1.549-.028,2.143h0l3.253-.111s-.2-2.762.446-3.462l.107,3.319,2.229.017a6.248,6.248,0,0,0,.766-2.727,7.431,7.431,0,0,1-.38,2.733s1.817-.093,1.854.849c.03.769-.238,5.592-.375,6.869A7.082,7.082,0,0,1,2490.5,342.421Z" transform="translate(-2479.784 -326.946)"/><path class="u" d="M2495.816,330.35c-2.61-5.375-7.341-6.166-9.966-5.087a5.5,5.5,0,0,0-4.415,2.2,4.737,4.737,0,0,0-.259,4.291l3.1-.033s.121-3.186.769-3.886l.151,3.85,2.2-.087a10.928,10.928,0,0,0,.667-3.218,7.307,7.307,0,0,1-.024,3.193s1.57.174,1.607,1.115c.03.769-.238,5.592-.375,6.869a6.557,6.557,0,0,1-1.608,3.747s5.177.911,6.245-.245l-.541,1.614a18.562,18.562,0,0,0,3.7-.753C2497.874,343.5,2497.319,333.444,2495.816,330.35Z" transform="translate(-2478.44 -324.846)"/><path class="v" d="M2481.435,328.416a4.737,4.737,0,0,0-.259,4.291l3.1-.033s.121-3.186.769-3.886l.151,3.85,2.2-.087a10.928,10.928,0,0,0,.667-3.218,7.307,7.307,0,0,1-.024,3.193s1.57.174,1.607,1.115c.03.769-.238,5.592-.375,6.869q-.022.207-.055.4h0c2.9-2.9,2.4-9.843,1.624-12.3s-5-2.4-5-2.4A5.5,5.5,0,0,0,2481.435,328.416Z" transform="translate(-2478.44 -325.804)"/><path class="v" d="M2497.547,326.866c3.915-.211,6.681.67,8.061,4.36,1.341,3.546,2.666,9.053,1.423,12.637l-1.279-.489c1.188-2.856.474-7.619-.329-10.625C2504.419,328.984,2503.118,326.907,2497.547,326.866Z" transform="translate(-2490.13 -326.234)"/><g transform="translate(3.009 0.812)"><path class="w" d="M2486.721,327.61a5.247,5.247,0,0,0-3.4,2.324,5.961,5.961,0,0,0-.048,3.736l.331,0C2482.972,331.044,2482.652,328.984,2486.721,327.61Z" transform="translate(-2482.99 -327.585)"/><path class="w" d="M2490.311,327.936c-2.756,1.176-2.649,3.309-1.976,5.944l.328,0C2487.8,331.29,2487.587,329.19,2490.311,327.936Z" transform="translate(-2486.438 -327.812)"/><path class="w" d="M2497.428,327.527a8.778,8.778,0,0,1,.161,5.991l.316-.012A9.083,9.083,0,0,0,2497.428,327.527Z" transform="translate(-2493.055 -327.527)"/></g><path class="s" d="M2490.184,360.353a3.572,3.572,0,0,0,.447-2.32,7.321,7.321,0,0,1-.678,2.247l-.07.087a1.56,1.56,0,0,0,1.058.467A2.363,2.363,0,0,1,2490.184,360.353Z" transform="translate(-2484.786 -347.983)"/><path class="x" d="M2493.812,379.629h0Z" transform="translate(-2487.526 -363.039)"/><g transform="translate(4.812 13.53)"><path class="x" d="M2492.2,369.524a10.062,10.062,0,0,1-3.251.706,3.465,3.465,0,0,0,.4.543,9.984,9.984,0,0,0,2.592-.555A4.288,4.288,0,0,0,2492.2,369.524Z" transform="translate(-2488.945 -369.524)"/><path class="r" d="M2492.85,371.815a9.988,9.988,0,0,1-2.592.555C2491.231,373.45,2492.21,373.145,2492.85,371.815Z" transform="translate(-2489.861 -371.121)"/></g><path class="y" d="M2495.522,350.035a1.761,1.761,0,0,1,.883-.446,4.153,4.153,0,0,1,1.864.559,10.772,10.772,0,0,0-1.62-.322,2.571,2.571,0,0,0-.906.357Z" transform="translate(-2488.718 -342.084)"/><path class="y" d="M2484.646,350.507a1.613,1.613,0,0,0-.749-.425,3.6,3.6,0,0,0-1.627.346,9.511,9.511,0,0,1,1.409-.165,2.363,2.363,0,0,1,.772.352Z" transform="translate(-2479.479 -342.421)"/><path class="r" d="M2495.331,355.553a1.628,1.628,0,0,1,1.332-.376c.558.11.873.566,1.221.636-.523.128-.7-.458-1.9-.4A2.186,2.186,0,0,0,2495.331,355.553Z" transform="translate(-2488.585 -345.977)"/><path class="r" d="M2483.86,355.955a1.631,1.631,0,0,0-1.3-.483c-.565.064-.917.493-1.269.534.511.171.735-.4,1.93-.24A2.212,2.212,0,0,1,2483.86,355.955Z" transform="translate(-2478.799 -346.193)"/></g><path class="z" d="M2120.432,304.338c-1.1,5.955-1.783,18.937-1.783,18.937l9.947,7.5,2.359,17.045s-22.569-17.05-24.118-25.6c-.16-.882,3.566-16.572,9.044-20.781A10.026,10.026,0,0,0,2120.432,304.338Z" transform="translate(-29.926 -52.624)"/><path class="z" d="M2137.47,291.876a18.936,18.936,0,0,0-1.934,3.44,5.845,5.845,0,0,0,4.894,2.382c.816-1.451,1.123-2.289,1.793-3.5C2140.775,293.58,2138.639,293.2,2137.47,291.876Z" transform="translate(-49.937 -45.96)"/><path class="aa" d="M2352.5,322.849l-1.813,3.449c1.812,1.276,3.592,1.687,5.479,2.933l.794-3.329Z" transform="translate(-199.932 -67.553)"/><path class="aa" d="M2279.446,346.817l-17.319,5.737L2261.107,369l24.594-14.191s8.905-15.975,8.013-18.732c-.7-2.151-3.936-4.036-5.991-3.207C2284.868,334.025,2279.446,346.817,2279.446,346.817Z" transform="translate(-137.48 -74.404)"/><path class="ab" d="M2205.075,392.093l-6.463-2.526-12.64.762-7.272,1.888s3.107,21.572,3.832,29.189.724,13.711.724,13.711l1.444,4.948c8.148.7,14.34.11,22.559,1.1.09-4.368.117-4.22.117-4.22Z" transform="translate(-80.029 -114.067)"/><path class="ac" d="M2183.256,441.217l1.444,4.948c5.6.478,10.279.351,15.326.547-6.6-1.423-8.827-5.771-9.468-9.521a52.705,52.705,0,0,0-3.532-12.037c-4.142-9.6-8.326-26.837-8.326-26.837s3.107,21.572,3.832,29.189S2183.256,441.217,2183.256,441.217Z" transform="translate(-80.029 -120.167)"/><path class="aa" d="M2219.078,382.2l-.013,4.589-9.077-.066-.078-5.225Z" transform="translate(-101.787 -108.438)"/><path class="ad" d="M2174.594,851.494l11.725.258-7.708-3.278-.35-2.94c-1.188,0-1.475.8-2.674.8C2175.249,848.215,2174.594,851.494,2174.594,851.494Z" transform="translate(-77.166 -431.951)"/><path class="ad" d="M2229.694,847.418l11.726.258-7.708-3.278-.35-2.94c-1.188,0-1.474.8-2.674.8C2230.349,844.138,2229.694,847.418,2229.694,847.418Z" transform="translate(-115.58 -429.11)"/><path class="ae" d="M2176.4,601.261s-1.5,12.391-2.269,21.328-.693,22.462-.693,22.462l6.1.374s2.439-29.235,5.482-37.613l8.04-35.267-2.179,71.716,6.407-.2s6.065-75.024,6.3-86.642c-8.219-.991-14.412-.405-22.56-1.1Z" transform="translate(-76.356 -230.32)"/><g transform="translate(2104.024 248.575)"><g transform="translate(0)"><path class="af" d="M2210.14,332.517c-.215-.137-2.886-6.784-2.886-6.784s-1.783-4.991-.632-5.836,3.888-3.774,6.285-3.827a9.107,9.107,0,0,1,4.221.8c.215.136,1.769,2.76,1.769,2.76s-.724-.884-1.1,2.4S2210.14,332.517,2210.14,332.517Z" transform="translate(-2203.249 -311.401)"/><path class="c" d="M2221.51,357.589c-.285.85-.162,6.91-.387,8.436-.222,1.507-7.1,3.841-7.235-1.639s.406-11.925.406-11.925Z" transform="translate(-2208.57 -336.774)"/><path class="d" d="M2221.909,357.589h0l-2.4-1.7-4.82-3.425a.078.078,0,0,1,0,.009v.009c0,.023-.005.066-.01.127-.016.2-.047.6-.085,1.148v0c-.008.111-.016.229-.024.352v.024c-.027.4-.055.856-.084,1.36,0,.028,0,.056-.005.085q-.01.179-.02.366v0c0,.064-.007.13-.011.2,0,.007,0,.014,0,.021l0,.074v.029c0,.043,0,.086-.007.13.9,2.938,4.281,6.128,7.21,6.507q.01-.3.032-.613A34.507,34.507,0,0,1,2221.909,357.589Z" transform="translate(-2208.968 -336.774)"/><path class="c" d="M2213.069,329.271a10.569,10.569,0,0,0,1.172,9.23c2.1,3.031,5,4.594,7.075,3.065s2.67-11.12,1.169-13.588S2214.411,325.932,2213.069,329.271Z" transform="translate(-2207.615 -318.604)"/><path class="v" d="M2201.833,320.531s-.467-3.137-1.671-3.9-1.747-1.23-1.964-2.338-2.353-2.636-1.7-4.458,1.92-1.886,3.518-5.053,3.324-4.92,7.051-3.766,4.245,3.427,4.245,3.427a2.951,2.951,0,0,1,2.649,1.682c2.322,3.687-5.618,5.9-8.672,2.847-1.48-1.481-3.416-.1-4.151,2.1S2203.572,316.726,2201.833,320.531Z" transform="translate(-2196.376 -300.658)"/><path class="c" d="M2211.412,343.757s-1.314-2.243-2-1.268-.12,3.888,1.329,3.917S2211.412,343.757,2211.412,343.757Z" transform="translate(-2205.264 -329.65)"/><path class="d" d="M2212.042,345.58s.05-1.3-.656-.869,0,2.519.655,2.477S2212.042,345.58,2212.042,345.58Z" transform="translate(-2206.637 -331.309)"/><path class="ag" d="M2237.346,345.8a8.143,8.143,0,0,1,.527,1.852,4.836,4.836,0,0,1-.02,2.052c-.16-.03-.586-.093-1.149-.24.363-.01.723,0,1.081.019l-.121.089A24.9,24.9,0,0,0,2237.346,345.8Z" transform="translate(-2224.492 -332.127)"/><path class="ah" d="M2230.532,345.494a.651.651,0,0,1-.379.81c-.286.058-.58-.211-.656-.6a.65.65,0,0,1,.379-.81C2230.162,344.836,2230.455,345.105,2230.532,345.494Z" transform="translate(-2219.454 -331.492)"/><path class="ah" d="M2243.526,343.649a.65.65,0,0,1-.38.81c-.286.058-.58-.211-.656-.6a.65.65,0,0,1,.379-.81C2243.156,342.991,2243.449,343.26,2243.526,343.649Z" transform="translate(-2228.513 -330.206)"/><path class="ag" d="M2225.568,340.65a2.8,2.8,0,0,1,1.612-1.265c1.007-.2.7.644.468.691S2225.529,340.451,2225.568,340.65Z" transform="translate(-2216.727 -327.635)"/><path class="ag" d="M2241.065,337.841s1.193.353,1.419.9c0,0-1.263-.1-1.49-.4A.336.336,0,0,1,2241.065,337.841Z" transform="translate(-2227.422 -326.581)"/></g><path class="x" d="M2227.477,363.74a6.187,6.187,0,0,0,4.067,1.22C2230.506,365.93,2228.357,364.819,2227.477,363.74Z" transform="translate(-2218.059 -344.637)"/></g><path class="ai" d="M2197.742,556.318l22.56.4-.11,3.576-22.785-.728Z" transform="translate(-93.071 -230.32)"/><path class="aj" d="M2238.822,560.554l-5.324-.083.126-3.356,5.324.112Z" transform="translate(-118.232 -230.876)"/><path class="ak" d="M2239.421,558.394c.106,0,3.335.132,3.335.132l-.316,2.684-.026-2.385Z" transform="translate(-122.362 -231.767)"/><path class="aa" d="M2218.177,398.717l3.284,1.543h2.618l1.974-1.543-1.767-3.1h-3.892l-.986-.487Z" transform="translate(-107.551 -117.943)"/><path class="al" d="M2225.5,396.736h3.892l-.207,4.646h-2.618Z" transform="translate(-112.656 -119.065)"/><path class="z" d="M2207.55,390.755l3.063-4.646-5.721-4.616-2.179,3.207Z" transform="translate(-96.77 -108.438)"/><path class="z" d="M2239.414,392.036l-2.307-4.31.933-3.914,3.356,2.441Z" transform="translate(-120.748 -110.055)"/><path class="am" d="M2229.024,412.079c0,1.836.137,39.392.137,39.392l4.454,5.39,2.548-5.675-4.522-39.106Z" transform="translate(-115.113 -129.762)"/><path class="an" d="M2229.023,412.079l.137,39.392,4.455,5.389-3.382-5.666Z" transform="translate(-115.113 -129.761)"/><path class="c" d="M2149.09,242.3c-.331-.377-1.47-.277-2.02.566s-.212,1.105-.2,2.22c.024,2.368-2.063,1.407-2.063,1.407l-2.032.1-.789.839-.993,4.84c.35.561,1.078,2.175,1.81,2.472,1.042.424,3.679.524,4.089-.587.316-.855.977-.906,1.337-1.3,1.28-1.414,1.472-4.436,1.195-5.962s-.734-1.923-.61-2.641S2149.452,242.708,2149.09,242.3Z" transform="translate(-53.741 -11.249)"/><path class="ao" d="M2160.1,262.316s.167.766.967.1c.243-.2.851-2.826.491-2.887s-1.506.933-1.506.933Z" transform="translate(-67.031 -23.405)"/><path class="ao" d="M2158.129,265.255s-.1,1.494.12,1.76.654.312.937-.35a4.668,4.668,0,0,0-.071-2.479A1.269,1.269,0,0,0,2158.129,265.255Z" transform="translate(-65.671 -26.654)"/><path class="ao" d="M2155.677,270.044s-.93,1.1-.715,1.355,1.426.422,1.753-.055C2157.093,270.8,2156.566,270.367,2155.677,270.044Z" transform="translate(-63.457 -30.74)"/><path class="ao" d="M2153.427,274.388a.2.2,0,0,1,.193.146c.045.229.038.686-.643.915a5.252,5.252,0,0,1-1.442.15l.729-1.429A4.843,4.843,0,0,0,2153.427,274.388Z" transform="translate(-61.09 -33.616)"/><path class="ap" d="M2143.671,257.692c-.225.132-1.02.439-1.078.775a2.277,2.277,0,0,0,.3,1s4.038,1.417,4.4,1.479,1.577-.841.916-1.368A36.526,36.526,0,0,0,2143.671,257.692Z" transform="translate(-54.852 -22.128)"/><path class="ap" d="M2140.325,262.977c-.382.123-.718.843-.78,1.2a3.01,3.01,0,0,0,.369,1.185s3.289,1.259,4.085,1.143,1.164-1.141.948-1.4S2140.9,262.79,2140.325,262.977Z" transform="translate(-52.727 -25.804)"/><path class="ap" d="M2139.264,270.776c-.474.126-.767.259-.618.768a1.436,1.436,0,0,0,.932,1.066c.426.074,2.557.564,2.944.59s1.707-1.023.84-1.41S2140.247,270.515,2139.264,270.776Z" transform="translate(-52.078 -31.217)"/><path class="ap" d="M2146.167,255.216s.878-.986,1.533-1.072a12.719,12.719,0,0,1,4.2,1.633c.294.349-.913.879-1.489.894S2147.061,254.915,2146.167,255.216Z" transform="translate(-57.348 -19.652)"/><g transform="translate(2082.92 230.544)"><path class="aq" d="M2127.505,250.171a.294.294,0,0,1-.278-.2,6.888,6.888,0,0,1,.109-5.622,7.1,7.1,0,0,1,4.089-3.225.294.294,0,0,1,.155.567,6.624,6.624,0,0,0-3.727,2.936,6.332,6.332,0,0,0-.071,5.15.295.295,0,0,1-.277.391Z" transform="translate(-2126.688 -241.117)"/></g><g transform="translate(2154.817 230.544)"><path class="aq" d="M2367.122,248.566a.294.294,0,0,1-.273-.185l-2.726-6.862a.294.294,0,1,1,.547-.217l2.726,6.862a.294.294,0,0,1-.274.4Z" transform="translate(-2364.102 -241.116)"/></g><g transform="translate(2161.813 225.952)"><path class="aq" d="M2387.5,237.994a.294.294,0,0,1-.284-.372l3.154-11.455a.294.294,0,1,1,.567.156l-3.154,11.454A.294.294,0,0,1,2387.5,237.994Z" transform="translate(-2387.205 -225.952)"/></g><g transform="translate(2163.39 236.725)"><path class="aq" d="M2392.707,266.861a.294.294,0,0,1-.121-.562l10.588-4.747a.294.294,0,0,1,.241.537l-10.588,4.747A.289.289,0,0,1,2392.707,266.861Z" transform="translate(-2392.412 -261.526)"/></g><g transform="translate(2164.967 247.686)"><path class="aq" d="M2406.924,301.7a.3.3,0,0,1-.1-.019l-9.011-3.394a.294.294,0,0,1,.207-.55l9.011,3.394a.294.294,0,0,1-.1.569Z" transform="translate(-2397.619 -297.721)"/></g><g transform="translate(2145.563 244.849)"><path class="aq" d="M2333.839,289.715a.294.294,0,0,1-.033-.586l6.663-.773a.294.294,0,1,1,.068.584l-6.663.773Z" transform="translate(-2333.545 -288.354)"/></g><g transform="translate(2148.111 235.824)"><path class="aq" d="M2347.353,262.3a.292.292,0,0,1-.155-.044l-5.1-3.164a.294.294,0,1,1,.31-.5l5.1,3.164a.294.294,0,0,1-.156.544Z" transform="translate(-2341.958 -258.552)"/></g><g transform="translate(2209 280.547)"><path class="aq" d="M2554.638,425.153a.294.294,0,0,1-.294-.294c0-6.729-11.127-18.011-11.239-18.125a.294.294,0,0,1,.417-.414c.466.469,11.41,11.57,11.41,18.539A.294.294,0,0,1,2554.638,425.153Z" transform="translate(-2543.02 -406.233)"/></g></g></g></svg>