<svg xmlns="http://www.w3.org/2000/svg" width="414.809" height="313.153" viewBox="0 0 414.809 313.153"><defs><style>.a{fill:#f5a784;}.b{fill:#05004a;}.c{fill:#87f9ff;}.d{fill:#3eb7be;}.e{fill:#e0855c;}.f{fill:#fff;}.g{fill:#252ca1;}.h{fill:#f5a42a;}.i{fill:#fed32c;}.j{fill:#ffe47a;}</style></defs><g transform="translate(5886 9180.153)"><path class="a" d="M219.328,295.049l-39-1.66a27.08,27.08,0,0,1,.636-4.042c.947-4.173,2.652-7.969,3.808-12.227,1.513-5.585-1.868-16.637-3.49-21.935s-.465-13.242-.465-13.242c1.288-1.528,9.4-3.522,12.282-4.615a2.952,2.952,0,0,0,.983-.505c.465-.574.5-3.211.457-4.894-.007-.83-.039-1.428-.039-1.428l.512-.426,8.525,1.311a7.443,7.443,0,0,0,.055,2.978,2.333,2.333,0,0,0,1.2,1.583,6.427,6.427,0,0,0,1.519.45.51.51,0,0,0,.118.031,27.17,27.17,0,0,0,3.987.372c.9.031,1.528.023,1.528.023a44.486,44.486,0,0,1,4.4,9.674c.465,1.427.909,2.99,1.275,4.649,1.438,6.533,1.68,28.482,1.711,38.651C219.336,293.016,219.328,295.049,219.328,295.049Z" transform="translate(-6043.767 -9275.854)"/><path class="a" d="M200.306,408.486c-1.247.862-12.718.047-12.831-.759-.112-.853-.272-1.622-.365-2.306a1.276,1.276,0,0,1-.028-.178c0-5.614-1.445-18.827-1.445-18.827s6.006-3.929,8.311-.733c0,0-2.921,18.342-.175,19.672.113.057.235.113.385.179a22.1,22.1,0,0,0,5.96,1.687S201.552,407.624,200.306,408.486Z" transform="translate(-6043.767 -9275.854)"/><path class="b" d="M200.306,408.486c-1.247.862-12.718.047-12.831-.759-.112-.853-.272-1.622-.365-2.306-.01-.066-.019-.122-.028-.178a22.85,22.85,0,0,0,7.076.291,22.1,22.1,0,0,0,5.96,1.687S201.552,407.624,200.306,408.486Z" transform="translate(-6043.767 -9275.854)"/><path class="a" d="M217,401.678c-1.516.023-10.594-7.038-10.239-7.771.382-.771.677-1.5.98-2.119a1.385,1.385,0,0,1,.076-.163c3.123-4.665,6.829-20.375,6.829-20.375s7.715.566,7.852,4.5c0,0-10.725,17.054-9.184,19.688.062.109.132.224.22.362a22.109,22.109,0,0,0,4.014,4.719S218.513,401.656,217,401.678Z" transform="translate(-6043.767 -9275.854)"/><path class="b" d="M217,401.678c-1.516.023-10.594-7.038-10.239-7.771.382-.771.677-1.5.98-2.119.029-.059.052-.111.076-.163a22.844,22.844,0,0,0,5.717,4.179,22.109,22.109,0,0,0,4.014,4.719S218.513,401.656,217,401.678Z" transform="translate(-6043.767 -9275.854)"/><path class="c" d="M215.518,390.338c-.89,1.29-6.86-1.54-6.21-4.01,8.31-31.77,13.49-36.13,13.49-36.13a3.376,3.376,0,0,0-.17-3.48c-9.93-14.74-19.73-33.55-19.73-33.55.2,7.5-2.65,34.76-3.29,42.26s-5.13,42.52-5.95,42.95c-5.03,2.61-8.02-.01-8.02-.01s-4.421-19.03-2.85-29.5-1.24-25.3-2.46-39.44a219.186,219.186,0,0,1-.93-29.33c.569-10.94,2.35-13.68,2.35-13.68,11.28,2.59,26.44,2.35,33.57,2.05,2.5-.1,4.01-.21,4.01-.21l1.46,3.93c4.49,12.07,17.77,48.2,18.55,54.76C240.268,354.848,215.518,390.338,215.518,390.338Z" transform="translate(-6043.767 -9275.854)"/><path class="d" d="M220.168,290.518l-4.85-2.05c-7.13.3-22.29.54-33.57-2.05,0,0-1.78,2.74-2.35,13.68,8.42.46,28.83.55,41.39-7.91Z" transform="translate(-6043.767 -9275.854)"/><path class="a" d="M248.921,198.4s-.094-3.235.832-4.97c1.231-2.308,11.187-1.982,11.187-1.982a2.049,2.049,0,0,1-1.482,3.329c-5.124,1.139-4.714,5.624-4.714,5.624S248.687,200.1,248.921,198.4Z" transform="translate(-6043.767 -9275.854)"/><path class="e" d="M203.589,234.364c-6.2,1.674-8.073-.259-9.053-2.435-.007-.83-.039-1.428-.039-1.428l.512-.426,8.525,1.311A7.443,7.443,0,0,0,203.589,234.364Z" transform="translate(-6043.767 -9275.854)"/><path class="b" d="M203.965,225.243c3.941-1.807,2.066-6.669,1.575-9.881a7.642,7.642,0,0,0-1.054-3.332,5.25,5.25,0,0,0-3.661-1.961,6.334,6.334,0,0,0-4.647,1.191c-1.131.932-1.575,2.457-2.559,3.519-1.632,1.763-4.572,2.208-5.6,4.377a5.269,5.269,0,0,0-.362,2.648c.255,3.5,2.319,7,6.255,6.81a29.2,29.2,0,0,0,7.24-1.6,6.09,6.09,0,0,0,1.556-.649C203.389,225.914,203.22,225.585,203.965,225.243Z" transform="translate(-6043.767 -9275.854)"/><path class="e" d="M205.347,221.394a1.736,1.736,0,0,1,2.76-.5c1.679,1.407-.1,5-1.863,5.464A39.944,39.944,0,0,1,205.347,221.394Z" transform="translate(-6043.767 -9275.854)"/><path class="a" d="M203.992,216.584c1.089.788,1.9,3.973,2.407,6.325,1.525,7.119-.217,9.744-3.8,10.8s-7.667.338-9.654-6.16c-.993-3.25-1.967-6.242-1.018-7.894C193.337,217.189,200.65,214.166,203.992,216.584Z" transform="translate(-6043.767 -9275.854)"/><path class="a" d="M193.277,226.5s-1.655-2.764-3.138-.873,1.715,5.7,4.358,4.878C194.5,230.5,194.321,227.356,193.277,226.5Z" transform="translate(-6043.767 -9275.854)"/><path class="e" d="M191.208,226.823a2.536,2.536,0,0,1,1.2.508,3.046,3.046,0,0,1,.969.86c.068.112-.086.216-.181.155-.267-.172-.5-.394-.752-.585a1.437,1.437,0,0,1-.444.5c-.152.089-.309-.091-.262-.238a1.294,1.294,0,0,1,.354-.487,6.58,6.58,0,0,1-.968-.485A.128.128,0,0,1,191.208,226.823Z" transform="translate(-6043.767 -9275.854)"/><path class="b" d="M202.972,222.842s.661.119.369-.961c-.262-.97-.679-.758-.679-.758s-.431.075-.21.926S202.972,222.842,202.972,222.842Z" transform="translate(-6043.767 -9275.854)"/><path class="b" d="M196.95,224.439s.66.118.369-.961c-.263-.97-.679-.758-.679-.758s-.431.075-.21.925S196.95,224.439,196.95,224.439Z" transform="translate(-6043.767 -9275.854)"/><path class="e" d="M200.939,226.734c.305-.1,1.059-.046,1.145-.412a9.283,9.283,0,0,0-.856-2.15,28.34,28.34,0,0,1-1.256-2.831c-.018-.052.07-.1.1-.049a35.107,35.107,0,0,1,2.413,5.15.159.159,0,0,1-.114.222c-.461.076-.89.254-1.348.339C200.873,227.032,200.783,226.787,200.939,226.734Z" transform="translate(-6043.767 -9275.854)"/><path class="b" d="M201.692,219.635c.4-.306,1.221-.515,1.627-.112a.14.14,0,0,1-.081.227c-.222.029-.436-.043-.66-.022a1.821,1.821,0,0,0-.674.232C201.71,220.062,201.515,219.77,201.692,219.635Z" transform="translate(-6043.767 -9275.854)"/><path class="b" d="M195.519,221.818c.139-.675,1.227-.933,1.766-.627a.181.181,0,0,1-.024.308,4.135,4.135,0,0,1-.846.16,2.824,2.824,0,0,0-.641.337A.18.18,0,0,1,195.519,221.818Z" transform="translate(-6043.767 -9275.854)"/><path class="f" d="M204.112,227.756a4.439,4.439,0,0,1-4.4,1.281s.615,1.391,2.787.956C203.918,229.707,204.112,227.756,204.112,227.756Z" transform="translate(-6043.767 -9275.854)"/><path class="a" d="M182.441,250.762a20.659,20.659,0,0,1-2.963-2.426c-10.994-10.691-17.821-36.691-17.709-39.95.155-4.644,1.448-11.011,2.729-16.32.179-.738.357-1.456.532-2.146.492-1.917.954-3.621,1.325-4.946.509-1.834.85-2.949.85-2.949s4.47-3.113,5.849.213c0,0-.561,3.288-.69,4.728-.083.947-.42,4.723-.477,5.384-.543,6.3-1.173,14.5-1.009,16.7.213,2.8,10.421,20.589,21.037,27.786.061.046.124.084.184.13C193.926,238.179,197.989,261.059,182.441,250.762Z" transform="translate(-6043.767 -9275.854)"/><path class="a" d="M167.8,184.328s-.6-1.636-1.56-3.588-3.112-6.216-3.025-7.811a3.93,3.93,0,0,1,.316-.7,1.455,1.455,0,0,1,.113-.177,3.957,3.957,0,0,1,1.041-1.087c.035-.025.074-.054.115-.081a3.874,3.874,0,0,1,1.285-.565l.129-.028a5.666,5.666,0,0,1,1.325-.14s2.084,4.4,3.268,5.529c0,0-.556-2.949.17-3.546l.637-.091s.961,3.1,1.516,4.449a9.021,9.021,0,0,1-.247,6.632S169.9,185.774,167.8,184.328Z" transform="translate(-6043.767 -9275.854)"/><path class="e" d="M166.084,170.323l.129-.028a48.738,48.738,0,0,0,2.91,5.836.041.041,0,0,1-.064.048A15.692,15.692,0,0,1,166.084,170.323Z" transform="translate(-6043.767 -9275.854)"/><path class="e" d="M164.684,170.969l.115-.081a49.635,49.635,0,0,0,2.9,5.838c.02.038-.033.08-.058.045A15.538,15.538,0,0,1,164.684,170.969Z" transform="translate(-6043.767 -9275.854)"/><path class="e" d="M163.53,172.233a1.248,1.248,0,0,1,.113-.177,52.011,52.011,0,0,0,2.772,5.511c.025.035-.029.078-.059.045A14.14,14.14,0,0,1,163.53,172.233Z" transform="translate(-6043.767 -9275.854)"/><path class="g" d="M255.938,199.418c-.42,4.31-6.24,22.78-10.48,31.76-1.2,2.53-13.38,10.08-21.28,14.86-2.82,1.71-6.48,3.94-6.66,4.05a4.363,4.363,0,0,1,.15.87c0,.1-.022.168-.051.188,1.349,6.12,2.571,25.822,2.741,36.632.01.72.02,1.4.02,2.03a48.638,48.638,0,0,1-40.05-.76c.94-4.18,3.291-7.668,4.441-11.928,1.51-5.58-2.6-20.6-6.291-29.082a8.048,8.048,0,0,1-.41-1.19c-10.16-11.43-16.4-35.352-16.3-38.462.161-4.65,1.449-11.01,2.729-16.32,2.24.12,5.049.294,7.389.284-.54,6.3-1.169,14.51-1.009,16.7.21,2.81,10.417,20.586,21.037,27.786a2.071,2.071,0,0,1,.184.13,1.607,1.607,0,0,1,.419.572c.21-.07.4-.14.578-.21,1.969,3.06,7.022,10,11.072,8.5,3.04-1.14,3.04-4.85,2.53-7.67-.05-.21-.1-.411-.13-.58a3.446,3.446,0,0,0-.08-.35c-.021-.13-.04-.24-.05-.33-.04-.17-.088-.351-.128-.5.029.01.078.021.118.031a7.555,7.555,0,0,0,.85-.19c.58-.14,1.39-.37,2.39-.68l.049.09c2.821-.87,7.141-2.33,12.081-4.25.46-.19.93-.37,1.41-.56a115.054,115.054,0,0,0,12.4-5.47,294.285,294.285,0,0,0,12.83-27.11C252.578,199.558,253.838,199.068,255.938,199.418Z" transform="translate(-6043.767 -9275.854)"/><path class="g" d="M217.617,251.146c1.349,6.12,2.571,25.822,2.741,36.632-3.95-1.7-11.577-4.362-11.577-18.609,0-19.241-.743-28.961-1.5-32.931.58-.14,1.39-.37,2.39-.68l.049.09c2.821-.87,7.141-2.33,12.081-4.25l2.38,14.64c-2.82,1.71-6.48,3.94-6.66,4.05a4.363,4.363,0,0,1,.15.87C217.668,251.058,217.646,251.126,217.617,251.146Z" transform="translate(-6043.767 -9275.854)"/><path class="h" d="M233.1,285.52a14.722,14.722,0,0,1-15.812-14.66q-.014-3.31.1-6.391a92.717,92.717,0,0,1,2.392-18.361,68.243,68.243,0,0,1,5.988-15.958A91.722,91.722,0,0,1,235.8,215.179q4.537-5.88,8.363-11.43a79.206,79.206,0,0,0,6.449-11.1,54.633,54.633,0,0,0,3.937-11.373,41.9,41.9,0,0,0,.813-12.426Q253.038,138.2,233.218,139.7a16.685,16.685,0,0,0-7.024,2.286,19.028,19.028,0,0,0-6.276,6.1,31.629,31.629,0,0,0-4.217,10.1l-.029.121a20.366,20.366,0,0,1-18.245,15.475l-12.526.949a19.792,19.792,0,0,1-21.057-23.094,72.141,72.141,0,0,1,2.224-9.069,64.257,64.257,0,0,1,13.741-24.482,63.349,63.349,0,0,1,21.9-15.41,87.761,87.761,0,0,1,28.2-6.658,89.352,89.352,0,0,1,30.55,2.484,59.151,59.151,0,0,1,39.562,33.731q5.97,13.023,7.29,30.456a67.3,67.3,0,0,1-1.661,21.9,87.908,87.908,0,0,1-7.243,18.912,128.942,128.942,0,0,1-11.043,17.448c-4.248,5.675-8.681,11.395-13.084,17.325a56.666,56.666,0,0,0-5.974,10.05,49.539,49.539,0,0,0-3.464,10.322,68.324,68.324,0,0,0-1.446,11.369l0,.12a14.752,14.752,0,0,1-13.577,14.106Zm-15.657,57.663a30.374,30.374,0,0,1,1.17-11.346,26.467,26.467,0,0,1,5.015-9.331,26.86,26.86,0,0,1,8.448-6.64,29.805,29.805,0,0,1,11.486-3.085,30.336,30.336,0,0,1,12,1.3,26.923,26.923,0,0,1,9.352,5.291,26.561,26.561,0,0,1,6.362,8.469,32.128,32.128,0,0,1,1.7,22.389,27.56,27.56,0,0,1-5.007,9.423,25.159,25.159,0,0,1-8.448,6.638,31.539,31.539,0,0,1-11.679,3.008,31.01,31.01,0,0,1-11.812-1.228,25.108,25.108,0,0,1-9.352-5.29,27.457,27.457,0,0,1-6.371-8.56A30.406,30.406,0,0,1,217.444,343.183Z" transform="translate(-6043.767 -9275.854)"/><path class="i" d="M227.337,285.52a14.723,14.723,0,0,1-15.812-14.66q-.013-3.31.1-6.391a92.643,92.643,0,0,1,2.392-18.361A68.154,68.154,0,0,1,220,230.15a91.65,91.65,0,0,1,10.031-14.971q4.539-5.88,8.363-11.43a79.312,79.312,0,0,0,6.45-11.1,54.749,54.749,0,0,0,3.937-11.373,41.863,41.863,0,0,0,.812-12.426Q247.274,138.2,227.454,139.7a16.689,16.689,0,0,0-7.024,2.286,19.029,19.029,0,0,0-6.276,6.1,31.629,31.629,0,0,0-4.217,10.1l-.029.121a20.365,20.365,0,0,1-18.245,15.475l-12.526.949a19.792,19.792,0,0,1-21.057-23.094,72.139,72.139,0,0,1,2.225-9.069,64.23,64.23,0,0,1,13.741-24.482,63.336,63.336,0,0,1,21.9-15.41,87.76,87.76,0,0,1,28.2-6.658,89.349,89.349,0,0,1,30.549,2.484,59.145,59.145,0,0,1,39.562,33.731q5.97,13.023,7.29,30.456a67.246,67.246,0,0,1-1.661,21.9,87.907,87.907,0,0,1-7.242,18.912A129.046,129.046,0,0,1,281.6,220.962c-4.248,5.675-8.681,11.395-13.083,17.325a56.675,56.675,0,0,0-5.975,10.05,49.543,49.543,0,0,0-3.464,10.322,68.22,68.22,0,0,0-1.445,11.369l-.006.12a14.751,14.751,0,0,1-13.577,14.106ZM211.68,343.183a30.415,30.415,0,0,1,1.17-11.346,26.453,26.453,0,0,1,5.016-9.331,26.838,26.838,0,0,1,8.448-6.64,29.8,29.8,0,0,1,11.485-3.085,30.336,30.336,0,0,1,12.005,1.3,26.913,26.913,0,0,1,9.352,5.291,26.532,26.532,0,0,1,6.362,8.469,32.128,32.128,0,0,1,1.7,22.389,27.56,27.56,0,0,1-5.007,9.423,25.16,25.16,0,0,1-8.448,6.638,31.534,31.534,0,0,1-11.678,3.008,31.005,31.005,0,0,1-11.812-1.228,25.1,25.1,0,0,1-9.352-5.29,27.457,27.457,0,0,1-6.371-8.56A30.387,30.387,0,0,1,211.68,343.183Z" transform="translate(-6043.767 -9275.854)"/><path class="j" d="M192.765,114.673c.752-1.013-.722-2.43-1.732-1.731-5.548,3.84-10.336,9.381-14.694,14.5-3.891,4.572-7.369,9.616-8.869,15.508-1.252,4.912-1.235,10.535,1.524,14.951,1.79,2.866,5.211,5.845,8.683,4.28a.448.448,0,0,0,.091-.7c-4.017-3.154-6.97-5.185-7.485-10.82-.471-5.153,1.393-10.186,4.048-14.512C179.327,128.011,187.133,122.258,192.765,114.673Z" transform="translate(-6043.767 -9275.854)"/><path class="j" d="M232.926,355.236c-6.266-3.808-10.447-8.256-10.572-16.056-.122-7.626,3.672-13.555,9.5-18.045a.683.683,0,0,0-.524-1.242c-16.491,3.831-16.662,35.512.968,37.644C233.586,357.692,233.887,355.821,232.926,355.236Z" transform="translate(-6043.767 -9275.854)"/><path class="g" d="M11.625,17.113H4.23V23.16h8.59V25H1.98V7.938H12.7V9.789H4.23v5.484h7.395Zm5.7-4.793.059,1.406a4.683,4.683,0,0,1,3.762-1.641,3.625,3.625,0,0,1,3.621,2.039,4.8,4.8,0,0,1,1.646-1.477,4.863,4.863,0,0,1,2.4-.562q4.172,0,4.242,4.418V25H30.879V16.633a2.911,2.911,0,0,0-.621-2.033,2.735,2.735,0,0,0-2.086-.674,2.875,2.875,0,0,0-2,.721,2.924,2.924,0,0,0-.926,1.939V25h-2.18V16.691q0-2.766-2.707-2.766a2.9,2.9,0,0,0-2.918,1.816V25H15.27V12.32ZM47.027,18.8A7.592,7.592,0,0,1,45.7,23.465a4.244,4.244,0,0,1-3.586,1.77,4.65,4.65,0,0,1-3.633-1.465v6.105H36.316V12.32H38.3l.105,1.406a4.466,4.466,0,0,1,3.68-1.641A4.324,4.324,0,0,1,45.7,13.809a7.675,7.675,0,0,1,1.33,4.793Zm-2.168-.246a5.6,5.6,0,0,0-.914-3.387,2.945,2.945,0,0,0-2.508-1.242,3.187,3.187,0,0,0-2.953,1.746V21.73a3.193,3.193,0,0,0,2.977,1.734,2.931,2.931,0,0,0,2.479-1.236A6.115,6.115,0,0,0,44.859,18.555Zm10.184,6.68a5.54,5.54,0,0,1-4.2-1.693,6.285,6.285,0,0,1-1.617-4.529v-.4a7.609,7.609,0,0,1,.721-3.369,5.622,5.622,0,0,1,2.016-2.32,5.068,5.068,0,0,1,2.807-.838,4.749,4.749,0,0,1,3.844,1.629,7.053,7.053,0,0,1,1.371,4.664v.9H51.4a4.507,4.507,0,0,0,1.1,3.029,3.444,3.444,0,0,0,2.666,1.154A3.776,3.776,0,0,0,57.105,23,4.888,4.888,0,0,0,58.5,21.754l1.324,1.031A5.325,5.325,0,0,1,55.043,25.234Zm-.27-11.367a2.892,2.892,0,0,0-2.2.955,4.642,4.642,0,0,0-1.1,2.678H57.82v-.164a4.129,4.129,0,0,0-.891-2.561A2.723,2.723,0,0,0,54.773,13.867Zm9.762,9.363h7.418V25H61.887V23.406l7-9.293H61.992V12.32H71.6v1.535ZM82.219,25a4.554,4.554,0,0,1-.3-1.336,4.837,4.837,0,0,1-3.609,1.57,4.476,4.476,0,0,1-3.076-1.061,3.431,3.431,0,0,1-1.2-2.689,3.584,3.584,0,0,1,1.506-3.076,7.1,7.1,0,0,1,4.236-1.1h2.109v-1a2.435,2.435,0,0,0-.68-1.811,2.732,2.732,0,0,0-2-.674,3.161,3.161,0,0,0-1.945.586,1.727,1.727,0,0,0-.785,1.418h-2.18A2.992,2.992,0,0,1,74.959,14a4.6,4.6,0,0,1,1.828-1.4,6.15,6.15,0,0,1,2.537-.516,5.013,5.013,0,0,1,3.434,1.1A3.953,3.953,0,0,1,84.047,16.2v5.836a7.135,7.135,0,0,0,.445,2.777V25Zm-3.6-1.652a3.81,3.81,0,0,0,1.934-.527,3.19,3.19,0,0,0,1.324-1.371v-2.6h-1.7q-3.984,0-3.984,2.332a1.974,1.974,0,0,0,.68,1.594A2.612,2.612,0,0,0,78.621,23.348Zm14.953-9.082a6.5,6.5,0,0,0-1.066-.082A2.857,2.857,0,0,0,89.613,16v9H87.445V12.32h2.109l.035,1.465a3.376,3.376,0,0,1,3.023-1.7,2.215,2.215,0,0,1,.961.164Zm13.02,9.2a3.123,3.123,0,0,0,2.027-.7A2.474,2.474,0,0,0,109.582,21h2.051a3.931,3.931,0,0,1-.75,2.074,4.94,4.94,0,0,1-1.846,1.57,5.326,5.326,0,0,1-2.443.586,5.223,5.223,0,0,1-4.119-1.729,6.884,6.884,0,0,1-1.529-4.729v-.363a7.634,7.634,0,0,1,.68-3.293,5.177,5.177,0,0,1,1.951-2.238,5.543,5.543,0,0,1,3.006-.8,5.085,5.085,0,0,1,3.545,1.277,4.565,4.565,0,0,1,1.506,3.316h-2.051a2.988,2.988,0,0,0-.932-2.021,2.9,2.9,0,0,0-2.068-.791,3.034,3.034,0,0,0-2.561,1.189,5.586,5.586,0,0,0-.908,3.439v.41a5.475,5.475,0,0,0,.9,3.375A3.049,3.049,0,0,0,106.594,23.465Zm6.9-4.922a7.489,7.489,0,0,1,.732-3.352,5.464,5.464,0,0,1,2.039-2.3,5.551,5.551,0,0,1,2.982-.809,5.347,5.347,0,0,1,4.189,1.793,6.9,6.9,0,0,1,1.6,4.77V18.8a7.555,7.555,0,0,1-.709,3.322,5.383,5.383,0,0,1-2.027,2.291,5.614,5.614,0,0,1-3.029.82,5.334,5.334,0,0,1-4.178-1.793,6.863,6.863,0,0,1-1.6-4.746Zm2.18.258a5.424,5.424,0,0,0,.979,3.387,3.316,3.316,0,0,0,5.244-.018,5.932,5.932,0,0,0,.973-3.627,5.415,5.415,0,0,0-.99-3.381,3.148,3.148,0,0,0-2.631-1.295,3.113,3.113,0,0,0-2.59,1.277A5.888,5.888,0,0,0,115.676,18.8Zm14.133-6.48.07,1.594a4.621,4.621,0,0,1,3.8-1.828q4.02,0,4.055,4.535V25h-2.168V16.609a2.919,2.919,0,0,0-.627-2.027,2.512,2.512,0,0,0-1.916-.656,3.129,3.129,0,0,0-1.852.563,3.82,3.82,0,0,0-1.242,1.477V25h-2.168V12.32Zm27.844,6.48a7.592,7.592,0,0,1-1.324,4.664,4.244,4.244,0,0,1-3.586,1.77,4.65,4.65,0,0,1-3.633-1.465v6.105h-2.168V12.32h1.98l.105,1.406a4.466,4.466,0,0,1,3.68-1.641,4.324,4.324,0,0,1,3.615,1.723,7.675,7.675,0,0,1,1.33,4.793Zm-2.168-.246a5.6,5.6,0,0,0-.914-3.387,2.945,2.945,0,0,0-2.508-1.242,3.187,3.187,0,0,0-2.953,1.746V21.73a3.193,3.193,0,0,0,2.977,1.734,2.931,2.931,0,0,0,2.479-1.236A6.115,6.115,0,0,0,155.484,18.555Zm11.051-4.289a6.5,6.5,0,0,0-1.066-.082A2.857,2.857,0,0,0,162.574,16v9h-2.168V12.32h2.109l.035,1.465a3.376,3.376,0,0,1,3.023-1.7,2.215,2.215,0,0,1,.961.164Zm7.254,10.969a5.54,5.54,0,0,1-4.2-1.693,6.285,6.285,0,0,1-1.617-4.529v-.4a7.609,7.609,0,0,1,.721-3.369,5.622,5.622,0,0,1,2.016-2.32,5.068,5.068,0,0,1,2.807-.838,4.749,4.749,0,0,1,3.844,1.629,7.053,7.053,0,0,1,1.371,4.664v.9h-8.59a4.507,4.507,0,0,0,1.1,3.029,3.444,3.444,0,0,0,2.666,1.154A3.776,3.776,0,0,0,175.852,23a4.888,4.888,0,0,0,1.395-1.242l1.324,1.031A5.325,5.325,0,0,1,173.789,25.234Zm-.27-11.367a2.892,2.892,0,0,0-2.2.955,4.642,4.642,0,0,0-1.1,2.678h6.352v-.164a4.129,4.129,0,0,0-.891-2.561A2.723,2.723,0,0,0,173.52,13.867Zm7.207,4.688a7.452,7.452,0,0,1,1.371-4.717,4.727,4.727,0,0,1,7.254-.111l.105-1.406h1.98V24.7a5.158,5.158,0,0,1-1.459,3.879,5.384,5.384,0,0,1-3.92,1.418,6.521,6.521,0,0,1-2.684-.586,4.62,4.62,0,0,1-2-1.605l1.125-1.3a4.239,4.239,0,0,0,3.41,1.723,3.322,3.322,0,0,0,2.467-.891,3.4,3.4,0,0,0,.885-2.508v-1.09a4.456,4.456,0,0,1-3.551,1.5,4.331,4.331,0,0,1-3.6-1.793A7.835,7.835,0,0,1,180.727,18.555Zm2.18.246a5.685,5.685,0,0,0,.879,3.369,2.856,2.856,0,0,0,2.461,1.225,3.176,3.176,0,0,0,3.012-1.863V15.742a3.213,3.213,0,0,0-2.988-1.816,2.882,2.882,0,0,0-2.473,1.23A6.192,6.192,0,0,0,182.906,18.8Zm19.629,4.945a4.6,4.6,0,0,1-3.715,1.488,3.942,3.942,0,0,1-3.088-1.178,5.1,5.1,0,0,1-1.072-3.486V12.32h2.168v8.191q0,2.883,2.344,2.883a3.245,3.245,0,0,0,3.3-1.852V12.32h2.168V25h-2.062Zm7.453-11.426.07,1.594a4.621,4.621,0,0,1,3.8-1.828q4.02,0,4.055,4.535V25h-2.168V16.609a2.919,2.919,0,0,0-.627-2.027,2.512,2.512,0,0,0-1.916-.656,3.129,3.129,0,0,0-1.852.563,3.82,3.82,0,0,0-1.242,1.477V25h-2.168V12.32Zm14.133-3.07v3.07h2.367V14h-2.367v7.863A1.756,1.756,0,0,0,224.438,23a1.333,1.333,0,0,0,1.078.381,5.249,5.249,0,0,0,1.031-.141V25a6.285,6.285,0,0,1-1.664.234,2.7,2.7,0,0,1-2.191-.879,3.776,3.776,0,0,1-.738-2.5V14h-2.309V12.32h2.309V9.25ZM236.848,25a4.554,4.554,0,0,1-.3-1.336,4.837,4.837,0,0,1-3.609,1.57,4.476,4.476,0,0,1-3.076-1.061,3.431,3.431,0,0,1-1.2-2.689,3.584,3.584,0,0,1,1.506-3.076,7.1,7.1,0,0,1,4.236-1.1h2.109v-1a2.435,2.435,0,0,0-.68-1.811,2.732,2.732,0,0,0-2-.674,3.161,3.161,0,0,0-1.945.586,1.727,1.727,0,0,0-.785,1.418h-2.18A2.992,2.992,0,0,1,229.588,14a4.6,4.6,0,0,1,1.828-1.4,6.15,6.15,0,0,1,2.537-.516,5.013,5.013,0,0,1,3.434,1.1,3.953,3.953,0,0,1,1.289,3.018v5.836a7.135,7.135,0,0,0,.445,2.777V25Zm-3.6-1.652a3.81,3.81,0,0,0,1.934-.527,3.19,3.19,0,0,0,1.324-1.371v-2.6h-1.7q-3.984,0-3.984,2.332a1.974,1.974,0,0,0,.68,1.594A2.612,2.612,0,0,0,233.25,23.348ZM248.2,14.266a6.5,6.5,0,0,0-1.066-.082A2.857,2.857,0,0,0,244.242,16v9h-2.168V12.32h2.109l.035,1.465a3.376,3.376,0,0,1,3.023-1.7,2.215,2.215,0,0,1,.961.164Zm1.922,9.6a1.358,1.358,0,0,1,.334-.937,1.273,1.273,0,0,1,1-.375,1.311,1.311,0,0,1,1.014.375,1.33,1.33,0,0,1,.346.938,1.258,1.258,0,0,1-.346.9,1.334,1.334,0,0,1-1.014.363,1.205,1.205,0,0,1-1.336-1.266Zm.012-10.348a1.358,1.358,0,0,1,.334-.937,1.273,1.273,0,0,1,1-.375,1.311,1.311,0,0,1,1.014.375,1.33,1.33,0,0,1,.346.938,1.258,1.258,0,0,1-.346.9,1.334,1.334,0,0,1-1.014.363,1.205,1.205,0,0,1-1.336-1.266Z" transform="translate(-5754 -9040.153)"/><path class="g" d="M8.238-7.383a7.952,7.952,0,0,1-.357,2.7,4.035,4.035,0,0,1-1.2,1.658l-.773.715a3.056,3.056,0,0,0-1.09,2.18,1.628,1.628,0,0,0,.393,1.213,1.4,1.4,0,0,0,1.014.381,1.548,1.548,0,0,0,1.225-.5A2.153,2.153,0,0,0,7.91-.445h3.973a4.8,4.8,0,0,1-1.494,3.656,5.881,5.881,0,0,1-4.072,1.3A6.047,6.047,0,0,1,2.279,3.3,4.257,4.257,0,0,1,.855-.129,3.937,3.937,0,0,1,1.3-1.963,7.273,7.273,0,0,1,2.824-3.832l1-.914A2.692,2.692,0,0,0,4.828-6.539l.059-.844ZM6.668-8.965A2.27,2.27,0,0,1,5.1-9.521a1.819,1.819,0,0,1-.627-1.424A1.819,1.819,0,0,1,5.1-12.369a2.27,2.27,0,0,1,1.564-.557,2.231,2.231,0,0,1,1.576.568,1.844,1.844,0,0,1,.615,1.412,1.844,1.844,0,0,1-.615,1.412A2.231,2.231,0,0,1,6.668-8.965ZM23.6-5.789V0H19.488V-17.062H26.3a7.93,7.93,0,0,1,3.463.721,5.431,5.431,0,0,1,2.332,2.051,5.6,5.6,0,0,1,.826,3.018,4.937,4.937,0,0,1-1.787,3.99,7.415,7.415,0,0,1-4.9,1.494Zm0-3.176h2.7a2.542,2.542,0,0,0,1.822-.6,2.221,2.221,0,0,0,.627-1.687,2.745,2.745,0,0,0-.645-1.91,2.282,2.282,0,0,0-1.758-.727H23.6ZM34.277-6.457a7.484,7.484,0,0,1,.738-3.381,5.28,5.28,0,0,1,2.121-2.279,6.388,6.388,0,0,1,3.246-.8,5.83,5.83,0,0,1,4.488,1.764,6.768,6.768,0,0,1,1.641,4.8v.141a6.566,6.566,0,0,1-1.646,4.705A5.846,5.846,0,0,1,40.406.234a5.912,5.912,0,0,1-4.348-1.623,6.348,6.348,0,0,1-1.77-4.4Zm3.949.246a4.718,4.718,0,0,0,.551,2.578,1.835,1.835,0,0,0,1.629.82q2.109,0,2.156-3.246v-.4q0-3.41-2.18-3.41-1.98,0-2.145,2.941Zm17.7-2.895-1.3-.094A2.336,2.336,0,0,0,52.23-8.027V0H48.281V-12.68h3.7l.129,1.629a3.058,3.058,0,0,1,2.777-1.863,3.851,3.851,0,0,1,1.1.141Zm6.9,2.637A7.611,7.611,0,0,1,64.137-11.2a4.311,4.311,0,0,1,3.621-1.711,3.682,3.682,0,0,1,3.117,1.594l.281-1.359h3.422V4.875H70.617v-5.93A3.676,3.676,0,0,1,67.734.234a4.273,4.273,0,0,1-3.58-1.74A8.036,8.036,0,0,1,62.824-6.469Zm3.949.246q0,3.41,1.969,3.41a1.907,1.907,0,0,0,1.875-1.031V-8.859a1.866,1.866,0,0,0-1.852-1.008q-1.84,0-1.98,2.941Zm17.59,4.852A4.072,4.072,0,0,1,80.977.234,3.993,3.993,0,0,1,77.818-.979a5.1,5.1,0,0,1-1.072-3.486V-12.68H80.7v8.238a1.419,1.419,0,0,0,1.582,1.629,2.064,2.064,0,0,0,1.934-.973V-12.68h3.973V0h-3.7ZM96.48.234a6.518,6.518,0,0,1-4.723-1.74,6.009,6.009,0,0,1-1.8-4.529v-.328A7.787,7.787,0,0,1,90.674-9.8a5.274,5.274,0,0,1,2.1-2.3,6.35,6.35,0,0,1,3.281-.814,5.489,5.489,0,0,1,4.219,1.658,6.516,6.516,0,0,1,1.547,4.623V-5.1H93.973A2.846,2.846,0,0,0,94.9-3.422a2.755,2.755,0,0,0,1.852.609,3.549,3.549,0,0,0,2.93-1.312l1.8,2.133A5.045,5.045,0,0,1,99.393-.369,7.069,7.069,0,0,1,96.48.234Zm-.445-10.1q-1.734,0-2.062,2.3h3.984v-.3a1.956,1.956,0,0,0-.48-1.471A1.912,1.912,0,0,0,96.035-9.867Zm-.047-8.145h4.172L96.9-14.332H93.68Zm18.762,15.2a1.756,1.756,0,0,0,1.289-.451,1.654,1.654,0,0,0,.445-1.26h3.7A4.384,4.384,0,0,1,118.693-1.1a5.558,5.558,0,0,1-3.85,1.336A5.627,5.627,0,0,1,110.484-1.5a6.834,6.834,0,0,1-1.594-4.8v-.164a7.723,7.723,0,0,1,.709-3.393,5.162,5.162,0,0,1,2.045-2.262,6.1,6.1,0,0,1,3.164-.791,5.488,5.488,0,0,1,3.926,1.371,4.863,4.863,0,0,1,1.453,3.715h-3.7A2.168,2.168,0,0,0,116-9.34a1.658,1.658,0,0,0-1.289-.527q-1.535,0-1.793,1.957A13.809,13.809,0,0,0,112.84-6.2a5.424,5.424,0,0,0,.457,2.648A1.582,1.582,0,0,0,114.75-2.812Zm6.609-3.645a7.484,7.484,0,0,1,.738-3.381,5.28,5.28,0,0,1,2.121-2.279,6.388,6.388,0,0,1,3.246-.8,5.83,5.83,0,0,1,4.488,1.764,6.768,6.768,0,0,1,1.641,4.8v.141a6.566,6.566,0,0,1-1.646,4.705,5.846,5.846,0,0,1-4.459,1.74,5.912,5.912,0,0,1-4.348-1.623,6.348,6.348,0,0,1-1.77-4.4Zm3.949.246a4.718,4.718,0,0,0,.551,2.578,1.835,1.835,0,0,0,1.629.82q2.109,0,2.156-3.246v-.4q0-3.41-2.18-3.41-1.98,0-2.145,2.941Zm13.652-6.469.129,1.488a4.3,4.3,0,0,1,3.621-1.723,3.618,3.618,0,0,1,2.959,1.184,5.635,5.635,0,0,1,1.014,3.563V0h-3.961V-8a2.14,2.14,0,0,0-.387-1.412,1.789,1.789,0,0,0-1.406-.451,1.883,1.883,0,0,0-1.723.914V0h-3.949V-12.68Zm9.41,6.223a7.484,7.484,0,0,1,.738-3.381,5.28,5.28,0,0,1,2.121-2.279,6.388,6.388,0,0,1,3.246-.8,5.83,5.83,0,0,1,4.488,1.764,6.768,6.768,0,0,1,1.641,4.8v.141a6.566,6.566,0,0,1-1.646,4.705A5.846,5.846,0,0,1,154.5.234a5.912,5.912,0,0,1-4.348-1.623,6.348,6.348,0,0,1-1.77-4.4Zm3.949.246a4.718,4.718,0,0,0,.551,2.578,1.835,1.835,0,0,0,1.629.82q2.109,0,2.156-3.246v-.4q0-3.41-2.18-3.41-1.98,0-2.145,2.941Zm15.387,3.4A1.756,1.756,0,0,0,169-3.264a1.654,1.654,0,0,0,.445-1.26h3.7A4.384,4.384,0,0,1,171.65-1.1,5.558,5.558,0,0,1,167.8.234,5.627,5.627,0,0,1,163.441-1.5a6.834,6.834,0,0,1-1.594-4.8v-.164a7.723,7.723,0,0,1,.709-3.393,5.162,5.162,0,0,1,2.045-2.262,6.1,6.1,0,0,1,3.164-.791,5.488,5.488,0,0,1,3.926,1.371,4.863,4.863,0,0,1,1.453,3.715h-3.7a2.168,2.168,0,0,0-.48-1.512,1.658,1.658,0,0,0-1.289-.527q-1.535,0-1.793,1.957A13.809,13.809,0,0,0,165.8-6.2a5.424,5.424,0,0,0,.457,2.648A1.582,1.582,0,0,0,167.707-2.812ZM180.949.234a6.518,6.518,0,0,1-4.723-1.74,6.009,6.009,0,0,1-1.8-4.529v-.328a7.787,7.787,0,0,1,.721-3.434,5.274,5.274,0,0,1,2.1-2.3,6.35,6.35,0,0,1,3.281-.814,5.489,5.489,0,0,1,4.219,1.658,6.516,6.516,0,0,1,1.547,4.623V-5.1h-7.852a2.846,2.846,0,0,0,.926,1.676,2.755,2.755,0,0,0,1.852.609,3.549,3.549,0,0,0,2.93-1.312l1.8,2.133a5.045,5.045,0,0,1-2.092,1.623A7.069,7.069,0,0,1,180.949.234Zm-.445-10.1q-1.734,0-2.062,2.3h3.984v-.3a1.956,1.956,0,0,0-.48-1.471A1.912,1.912,0,0,0,180.5-9.867Zm15.047.762-1.3-.094a2.336,2.336,0,0,0-2.391,1.172V0H187.91V-12.68h3.7l.129,1.629a3.058,3.058,0,0,1,2.777-1.863,3.851,3.851,0,0,1,1.1.141Zm11.133-3.574.129,1.488a4.36,4.36,0,0,1,3.621-1.723A3.21,3.21,0,0,1,213.68-11a4.22,4.22,0,0,1,3.727-1.91q3.855,0,3.961,4.664V0h-3.961V-8a2.417,2.417,0,0,0-.328-1.418,1.4,1.4,0,0,0-1.2-.445,1.871,1.871,0,0,0-1.746,1.043l.012.164V0h-3.961V-7.98a2.541,2.541,0,0,0-.316-1.441,1.393,1.393,0,0,0-1.207-.445,1.894,1.894,0,0,0-1.734,1.043V0H202.98V-12.68ZM229.758.234a6.518,6.518,0,0,1-4.723-1.74,6.009,6.009,0,0,1-1.8-4.529v-.328a7.787,7.787,0,0,1,.721-3.434,5.274,5.274,0,0,1,2.1-2.3,6.35,6.35,0,0,1,3.281-.814,5.489,5.489,0,0,1,4.219,1.658A6.516,6.516,0,0,1,235.1-6.633V-5.1H227.25a2.846,2.846,0,0,0,.926,1.676,2.755,2.755,0,0,0,1.852.609,3.549,3.549,0,0,0,2.93-1.312l1.8,2.133A5.045,5.045,0,0,1,232.67-.369,7.069,7.069,0,0,1,229.758.234Zm-.445-10.1q-1.734,0-2.062,2.3h3.984v-.3a1.956,1.956,0,0,0-.48-1.471A1.912,1.912,0,0,0,229.313-9.867Zm11.625-2.812V.434A4.6,4.6,0,0,1,239.648,3.9a4.952,4.952,0,0,1-3.562,1.219,8.411,8.411,0,0,1-1.863-.2V1.934a7.556,7.556,0,0,0,1.113.105A1.445,1.445,0,0,0,236.977.41V-12.68Zm-4.254-3.27a1.763,1.763,0,0,1,.609-1.383,2.3,2.3,0,0,1,1.582-.539,2.3,2.3,0,0,1,1.582.539,1.763,1.763,0,0,1,.609,1.383,1.763,1.763,0,0,1-.609,1.383,2.3,2.3,0,0,1-1.582.539,2.3,2.3,0,0,1-1.582-.539A1.763,1.763,0,0,1,236.684-15.949Zm5.988,9.492a7.484,7.484,0,0,1,.738-3.381,5.28,5.28,0,0,1,2.121-2.279,6.388,6.388,0,0,1,3.246-.8,5.83,5.83,0,0,1,4.488,1.764,6.768,6.768,0,0,1,1.641,4.8v.141a6.566,6.566,0,0,1-1.646,4.705A5.846,5.846,0,0,1,248.8.234a5.912,5.912,0,0,1-4.348-1.623,6.348,6.348,0,0,1-1.77-4.4Zm3.949.246a4.718,4.718,0,0,0,.551,2.578,1.835,1.835,0,0,0,1.629.82q2.109,0,2.156-3.246v-.4q0-3.41-2.18-3.41-1.98,0-2.145,2.941Zm17.7-2.895-1.3-.094a2.336,2.336,0,0,0-2.391,1.172V0h-3.949V-12.68h3.7l.129,1.629a3.058,3.058,0,0,1,2.777-1.863,3.851,3.851,0,0,1,1.1.141ZM278.859,0a4.459,4.459,0,0,1-.375-1.137A3.672,3.672,0,0,1,275.438.234,4.5,4.5,0,0,1,272.391-.85a3.45,3.45,0,0,1-1.254-2.725,3.546,3.546,0,0,1,1.523-3.117,7.761,7.761,0,0,1,4.43-1.055h1.219v-.668q0-1.746-1.512-1.746a1.233,1.233,0,0,0-1.406,1.383h-3.949a3.546,3.546,0,0,1,1.564-2.988A6.569,6.569,0,0,1,277-12.914a5.764,5.764,0,0,1,3.832,1.184,4.115,4.115,0,0,1,1.441,3.246v5.613A5.748,5.748,0,0,0,282.809-.2V0Zm-2.473-2.578a2.2,2.2,0,0,0,1.225-.316,1.983,1.983,0,0,0,.7-.715V-5.637H277.16q-2.062,0-2.062,1.852a1.131,1.131,0,0,0,.363.873A1.315,1.315,0,0,0,276.387-2.578ZM5.273,30H1.313V12H5.273Zm1.934-6.457a7.484,7.484,0,0,1,.738-3.381,5.28,5.28,0,0,1,2.121-2.279,6.388,6.388,0,0,1,3.246-.8A5.83,5.83,0,0,1,17.8,18.85a6.768,6.768,0,0,1,1.641,4.8v.141a6.566,6.566,0,0,1-1.646,4.705,5.846,5.846,0,0,1-4.459,1.74,5.912,5.912,0,0,1-4.348-1.623,6.348,6.348,0,0,1-1.77-4.4Zm3.949.246a4.718,4.718,0,0,0,.551,2.578,1.835,1.835,0,0,0,1.629.82q2.109,0,2.156-3.246v-.4q0-3.41-2.18-3.41-1.98,0-2.145,2.941ZM27.82,26.438a.912.912,0,0,0-.527-.809,8.021,8.021,0,0,0-2-.633,9.138,9.138,0,0,1-2.437-.861,4.083,4.083,0,0,1-1.465-1.295,3.092,3.092,0,0,1-.5-1.746,3.5,3.5,0,0,1,1.441-2.877A5.938,5.938,0,0,1,26.1,17.086a6.579,6.579,0,0,1,4.031,1.137,3.555,3.555,0,0,1,1.523,2.988H27.691q0-1.523-1.605-1.523a1.591,1.591,0,0,0-1.043.346,1.07,1.07,0,0,0-.422.861.982.982,0,0,0,.516.855,4.872,4.872,0,0,0,1.646.539,14.228,14.228,0,0,1,1.986.5q2.859.984,2.859,3.527a3.321,3.321,0,0,1-1.541,2.824,6.758,6.758,0,0,1-3.99,1.09,6.9,6.9,0,0,1-2.906-.586A4.86,4.86,0,0,1,21.2,28.055a3.609,3.609,0,0,1-.715-2.121h3.691a1.526,1.526,0,0,0,.586,1.283,2.41,2.41,0,0,0,1.441.4,1.9,1.9,0,0,0,1.213-.328A1.05,1.05,0,0,0,27.82,26.438Zm16.992.75a1.756,1.756,0,0,0,1.289-.451,1.654,1.654,0,0,0,.445-1.26h3.7A4.384,4.384,0,0,1,48.756,28.9a5.558,5.558,0,0,1-3.85,1.336A5.627,5.627,0,0,1,40.547,28.5a6.834,6.834,0,0,1-1.594-4.8v-.164a7.723,7.723,0,0,1,.709-3.393,5.162,5.162,0,0,1,2.045-2.262,6.1,6.1,0,0,1,3.164-.791A5.488,5.488,0,0,1,48.8,18.457a4.863,4.863,0,0,1,1.453,3.715h-3.7a2.168,2.168,0,0,0-.48-1.512,1.658,1.658,0,0,0-1.289-.527q-1.535,0-1.793,1.957A13.809,13.809,0,0,0,42.9,23.8a5.424,5.424,0,0,0,.457,2.648A1.582,1.582,0,0,0,44.813,27.188ZM56.086,30H52.125V12h3.961Zm6.6,0H58.723V17.32h3.961Zm-4.2-15.949a1.763,1.763,0,0,1,.609-1.383,2.591,2.591,0,0,1,3.164,0,1.874,1.874,0,0,1,0,2.766,2.591,2.591,0,0,1-3.164,0A1.763,1.763,0,0,1,58.488,14.051ZM71.25,30.234a6.518,6.518,0,0,1-4.723-1.74,6.009,6.009,0,0,1-1.8-4.529v-.328a7.787,7.787,0,0,1,.721-3.434,5.274,5.274,0,0,1,2.1-2.3,6.35,6.35,0,0,1,3.281-.814,5.489,5.489,0,0,1,4.219,1.658,6.516,6.516,0,0,1,1.547,4.623V24.9H68.742a2.846,2.846,0,0,0,.926,1.676,2.755,2.755,0,0,0,1.852.609,3.549,3.549,0,0,0,2.93-1.312l1.8,2.133a5.045,5.045,0,0,1-2.092,1.623A7.069,7.069,0,0,1,71.25,30.234Zm-.445-10.1q-1.734,0-2.062,2.3h3.984v-.3a1.956,1.956,0,0,0-.48-1.471A1.912,1.912,0,0,0,70.8,20.133Zm11-2.812.129,1.488a4.3,4.3,0,0,1,3.621-1.723,3.618,3.618,0,0,1,2.959,1.184,5.635,5.635,0,0,1,1.014,3.563V30H85.57V22a2.14,2.14,0,0,0-.387-1.412,1.789,1.789,0,0,0-1.406-.451,1.883,1.883,0,0,0-1.723.914V30H78.105V17.32Zm14.508-3.152V17.32H98.4v2.742H96.316v5.8a1.481,1.481,0,0,0,.258,1,1.383,1.383,0,0,0,1.02.281,5.793,5.793,0,0,0,.984-.07v2.824a7.288,7.288,0,0,1-2.227.34,4.137,4.137,0,0,1-3.012-.961,3.939,3.939,0,0,1-.973-2.918V20.063H90.75V17.32h1.617V14.168Zm9.773,16.066a6.518,6.518,0,0,1-4.723-1.74,6.009,6.009,0,0,1-1.8-4.529v-.328a7.787,7.787,0,0,1,.721-3.434,5.274,5.274,0,0,1,2.1-2.3,6.35,6.35,0,0,1,3.281-.814,5.489,5.489,0,0,1,4.219,1.658,6.516,6.516,0,0,1,1.547,4.623V24.9h-7.852a2.846,2.846,0,0,0,.926,1.676,2.755,2.755,0,0,0,1.852.609,3.549,3.549,0,0,0,2.93-1.312l1.8,2.133A5.045,5.045,0,0,1,109,29.631,7.069,7.069,0,0,1,106.09,30.234Zm-.445-10.1q-1.734,0-2.062,2.3h3.984v-.3a1.956,1.956,0,0,0-.48-1.471A1.912,1.912,0,0,0,105.645,20.133Zm14.016,6.3a.912.912,0,0,0-.527-.809,8.021,8.021,0,0,0-2-.633,9.138,9.138,0,0,1-2.437-.861,4.083,4.083,0,0,1-1.465-1.295,3.092,3.092,0,0,1-.5-1.746,3.5,3.5,0,0,1,1.441-2.877,5.938,5.938,0,0,1,3.773-1.131,6.579,6.579,0,0,1,4.031,1.137,3.555,3.555,0,0,1,1.523,2.988h-3.961q0-1.523-1.605-1.523a1.591,1.591,0,0,0-1.043.346,1.07,1.07,0,0,0-.422.861.982.982,0,0,0,.516.855,4.872,4.872,0,0,0,1.646.539,14.228,14.228,0,0,1,1.986.5q2.859.984,2.859,3.527a3.321,3.321,0,0,1-1.541,2.824,6.758,6.758,0,0,1-3.99,1.09,6.9,6.9,0,0,1-2.906-.586,4.86,4.86,0,0,1-1.992-1.594,3.609,3.609,0,0,1-.715-2.121h3.691a1.526,1.526,0,0,0,.586,1.283,2.41,2.41,0,0,0,1.441.4,1.9,1.9,0,0,0,1.213-.328A1.05,1.05,0,0,0,119.66,26.438Zm14.555-1.84a7.627,7.627,0,0,1,.387-2.7,4.225,4.225,0,0,1,1.254-1.717,8.337,8.337,0,0,0,1.318-1.33,2.171,2.171,0,0,0,.451-1.33q0-1.77-1.523-1.77a1.413,1.413,0,0,0-1.137.516,2.193,2.193,0,0,0-.457,1.395h-3.961a4.725,4.725,0,0,1,1.477-3.65A5.887,5.887,0,0,1,136.1,12.7a6.115,6.115,0,0,1,4.049,1.207,4.237,4.237,0,0,1,1.436,3.434,4,4,0,0,1-.387,1.77,5.98,5.98,0,0,1-1.242,1.629L138.609,22a3.17,3.17,0,0,0-.8,1.131,4.481,4.481,0,0,0-.246,1.471Zm-.48,3.563a1.819,1.819,0,0,1,.627-1.424,2.477,2.477,0,0,1,3.129,0,1.93,1.93,0,0,1,0,2.848,2.477,2.477,0,0,1-3.129,0A1.819,1.819,0,0,1,133.734,28.16Z" transform="translate(-5754 -8984.153)"/></g></svg>