<svg xmlns="http://www.w3.org/2000/svg" xmlns:xlink="http://www.w3.org/1999/xlink" width="269.533" height="231.928" viewBox="0 0 269.533 231.928"><defs><style>.a{fill:#bef5fc;}.b{fill:#f66d75;}.c{fill:#ac4492;}.d{fill:#f794ac;}.e{fill:url(#a);}.f{fill:#f8e000;}.g{fill:#0072c5;}.h{fill:#646aa2;}.i{fill:url(#b);}.j{mix-blend-mode:multiply;isolation:isolate;fill:url(#c);}.k{fill:url(#d);}.l{fill:#b9bcfc;}.m{fill:#bf2604;}.n{fill:#542360;}.o{fill:#432c47;}.p{fill:#30323e;}.q{fill:#fd5e5a;}.r{fill:#fc7575;}.s{fill:url(#e);}.t{fill:url(#f);}.u{fill:url(#g);}.v{fill:#262943;opacity:0.57;}.w{fill:#38202e;}.x{fill:#8c9fbf;}.y{fill:#75b3bc;}.z{fill:#58868d;}.aa{fill:url(#h);}.ab{fill:url(#i);}.ac{fill:#284758;}.ad{fill:#3b5a5e;}.ae{fill:url(#j);}.af{fill:#e9e9b6;}.ag{fill:#381a3f;}.ah{fill:#653870;}.ai{fill:#172866;}.aj{fill:#2f499f;}.ak{fill:#fff;}.al{fill:url(#k);}.am{fill:#acd1d7;}.an{fill:#f7931e;}.ao{fill:#c77618;}.ap{fill:#58307d;}.aq{fill:none;}</style><linearGradient id="a" x1="0.611" y1="1.668" x2="0.437" y2="-0.18" gradientUnits="objectBoundingBox"><stop offset="0" stop-color="#f20000"/><stop offset="1" stop-color="#ff9100"/></linearGradient><linearGradient id="b" x1="0.463" y1="-0.005" x2="0.526" y2="0.856" gradientUnits="objectBoundingBox"><stop offset="0" stop-color="#f59bf3"/><stop offset="1" stop-color="#ffaf90"/></linearGradient><linearGradient id="c" x1="0.495" y1="0.947" x2="0.506" y2="-0.034" gradientUnits="objectBoundingBox"><stop offset="0" stop-color="#8648d6"/><stop offset="1" stop-color="#9a5cea"/></linearGradient><linearGradient id="d" x1="0.482" y1="0.944" x2="0.521" y2="-0.019" gradientUnits="objectBoundingBox"><stop offset="0" stop-color="#ffaa8d"/><stop offset="1" stop-color="#ffffd9"/></linearGradient><linearGradient id="e" x1="0.86" y1="0.56" x2="1.534" y2="0.853" gradientUnits="objectBoundingBox"><stop offset="0" stop-color="#29002c"/><stop offset="1" stop-color="#330065"/></linearGradient><linearGradient id="f" x1="1.264" y1="0.499" x2="3.388" y2="0.493" xlink:href="#e"/><linearGradient id="g" x1="1.506" y1="0.562" x2="0.339" y2="0.457" gradientUnits="objectBoundingBox"><stop offset="0" stop-color="#290051"/><stop offset="1" stop-color="#330065"/></linearGradient><linearGradient id="h" x1="0.241" y1="0.487" x2="0.97" y2="0.579" xlink:href="#g"/><linearGradient id="i" x1="0.032" y1="0.662" x2="0.561" y2="0.484" xlink:href="#g"/><linearGradient id="j" x1="0" y1="0.5" x2="1" y2="0.5" xlink:href="#e"/><linearGradient id="k" x1="0.785" y1="-0.169" x2="0.144" y2="1.157" xlink:href="#g"/></defs><g transform="translate(5760.533 9036.928)"><g transform="translate(-5760.533 -9029.652)"><circle class="a" cx="12.667" cy="12.667" r="12.667" transform="translate(9.669 65.019) rotate(-45)"/><circle class="a" cx="4.789" cy="4.789" r="4.789" transform="translate(22.331 24.238)"/><circle class="a" cx="13.439" cy="13.439" r="13.439" transform="translate(240.76 33.815)"/><circle class="a" cx="3.09" cy="3.09" r="3.09" transform="translate(230.638 12.574) rotate(-58.283)"/><circle class="a" cx="6.179" cy="6.179" r="6.179" transform="translate(253.387 125.719) rotate(-22.5)"/><circle class="a" cx="3.398" cy="3.398" r="3.398" transform="translate(0 149.416) rotate(-68.367)"/><circle class="a" cx="4.943" cy="4.943" r="4.943" transform="translate(5.03 91.898)"/><circle class="a" cx="5.252" cy="5.252" r="5.252" transform="matrix(0.23, -0.973, 0.973, 0.23, 190.262, 10.223)"/></g><path class="a" d="M455.353,339.426c-8.412-3.379-19.242.561-26.539-4.679-5.915-4.247-6.5-12.426-6.134-19.5s.9-14.953-3.863-20.371c-3.842-4.372-10.211-5.89-16.175-6.048s-11.948.783-17.886.211c-12.778-1.231-23.557-9.167-34.838-15.044-14.618-7.614-31.334-12.056-47.922-10.779s-32.948,8.664-43.054,21.327-13.125,30.7-5.968,45.087c3.695,7.428,10.045,14.916,7.807,22.859-1.544,5.484-6.913,9.225-12.43,11.309s-11.48,2.968-16.918,5.236a33.882,33.882,0,0,0-19.117,20.514,31.519,31.519,0,0,0-1.3,12.726,34.155,34.155,0,0,0-.134,3.756A49.719,49.719,0,0,0,218.6,431.36c5.055,8.143,5.2,19.931,6.883,29.206,1.394,7.691,2.923,15.7,7.695,21.939,5.74,7.509,15.415,11.267,24.914,12.163s19.031-.7,28.482-2a454.436,454.436,0,0,1,98.8-2.708c14.354,1.175,29.076,3,42.952-.8s26.871-14.993,27.485-29.168a26.913,26.913,0,0,0-.681-7.191c-2.135-9.345-8.754-17.745-14.711-25.663-7.447-9.9-14.6-22.063-11.073-33.881l.016-.053a11.236,11.236,0,0,1,6.094-6.955c7.045-3.224,21.364-10.42,26.16-17.577C468.013,359.122,466.274,343.812,455.353,339.426Z" transform="translate(-5958.839 -9299.928)"/><g transform="translate(-5705.167 -9006.663)"><g transform="translate(0 68.393)"><path class="b" d="M1587.849,712.5a4.749,4.749,0,1,0,3.084-1.288A4.237,4.237,0,0,0,1587.849,712.5Z" transform="translate(-1533.557 -655.994)"/><path class="c" d="M1511.388,630.5a113.751,113.751,0,0,0,1.2-18.366c-.025-3.068-.193-6.131-.437-9.186s-.606-6.1-1.031-9.132a168.57,168.57,0,0,0-3.62-18q-1.146-4.445-2.533-8.821c-.927-2.917-1.918-5.809-3.063-8.655l-.36.148c1.1,2.837,2.054,5.74,2.942,8.656s1.69,5.861,2.414,8.823a167.794,167.794,0,0,1,3.38,17.962c.385,3.021.719,6.05.912,9.089s.333,6.079.32,9.121A112.625,112.625,0,0,1,1510.1,630.3Z" transform="translate(-1471.541 -546.155)"/><path class="c" d="M1491.87,515.029a9.106,9.106,0,1,1-1.7,6.7A8.279,8.279,0,0,1,1491.87,515.029Z" transform="translate(-1463.296 -515.029)"/><path class="c" d="M1515.208,548.149a7.114,7.114,0,0,1-6.834,7.293,7.113,7.113,0,0,1,6.834-7.293Z" transform="translate(-1476.424 -538.82)"/><path class="c" d="M1482.885,564.333a7.114,7.114,0,0,1-9.509-3.079,7.114,7.114,0,0,1,9.509,3.079Z" transform="translate(-1451.304 -547.669)"/><path class="c" d="M1490.2,587.77a7.113,7.113,0,0,1-9.509-3.079,7.113,7.113,0,0,1,9.509,3.079Z" transform="translate(-1456.564 -564.51)"/><path class="c" d="M1497.578,612.219a7.114,7.114,0,0,1-9.509-3.079,7.113,7.113,0,0,1,9.509,3.079Z" transform="translate(-1461.861 -582.078)"/><path class="c" d="M1502.523,634.988a7.113,7.113,0,0,1-9.509-3.079,7.114,7.114,0,0,1,9.509,3.079Z" transform="translate(-1465.415 -598.438)"/><path class="c" d="M1524.741,630.378a7.114,7.114,0,0,0,9.509-3.079,7.114,7.114,0,0,0-9.509,3.079Z" transform="translate(-1488.212 -595.126)"/><path class="c" d="M1521.827,569.811a7.114,7.114,0,0,1-6.834,7.294,7.113,7.113,0,0,1,6.834-7.294Z" transform="translate(-1481.18 -554.385)"/><path class="c" d="M1529.409,594.423a7.114,7.114,0,0,1-6.834,7.294,7.114,7.114,0,0,1,6.834-7.294Z" transform="translate(-1486.627 -572.069)"/><g transform="translate(0 35.825)"><path class="c" d="M1419.531,663.885a45.3,45.3,0,0,1,5.37,3.56,60.36,60.36,0,0,1,4.913,4.174,60.842,60.842,0,0,1,8.4,9.773,60.218,60.218,0,0,1,6.159,11.349,62.773,62.773,0,0,1,3.565,12.433l-.913.153a61.935,61.935,0,0,0-3.327-12.317,59.593,59.593,0,0,0-5.921-11.321,62.886,62.886,0,0,0-3.835-5.132,63.543,63.543,0,0,0-4.361-4.7,60.057,60.057,0,0,0-4.825-4.23A45.218,45.218,0,0,0,1419.47,664Z" transform="translate(-1412.571 -657.812)"/><path class="c" d="M1394.957,646.238a6.464,6.464,0,0,0,7.427,5.226,6.464,6.464,0,0,0-7.427-5.226Z" transform="translate(-1394.957 -645.024)"/><path class="c" d="M1428.813,642.31a6.464,6.464,0,1,0,2.12,4.427A5.876,5.876,0,0,0,1428.813,642.31Z" transform="translate(-1418.125 -642.31)"/><path class="c" d="M1447.833,653.563a6.464,6.464,0,1,0,.866,4.831A5.875,5.875,0,0,0,1447.833,653.563Z" transform="translate(-1430.836 -650.396)"/><path class="c" d="M1462.954,667.474a6.464,6.464,0,1,0,.866,4.832A5.876,5.876,0,0,0,1462.954,667.474Z" transform="translate(-1441.701 -660.391)"/><path class="c" d="M1476.424,681.772a6.464,6.464,0,1,0-.4,4.892A5.877,5.877,0,0,0,1476.424,681.772Z" transform="translate(-1450.272 -670.665)"/><path class="c" d="M1486.271,699.665a5.773,5.773,0,1,0-1.447,4.138A5.247,5.247,0,0,0,1486.271,699.665Z" transform="translate(-1456.669 -683.52)"/><path class="c" d="M1495.166,710.92a5.772,5.772,0,1,0-1.447,4.138A5.248,5.248,0,0,0,1495.166,710.92Z" transform="translate(-1463.06 -691.607)"/><path class="c" d="M1502.226,727.521a4.948,4.948,0,1,0-1.24,3.547A4.5,4.5,0,0,0,1502.226,727.521Z" transform="translate(-1468.69 -703.536)"/><path class="c" d="M1505.117,743.9a4.19,4.19,0,1,0-2.3,2.158A3.8,3.8,0,0,0,1505.117,743.9Z" transform="translate(-1470.194 -715.042)"/><path class="c" d="M1509.084,756.93a3.357,3.357,0,1,0-2.3,1.051A3.044,3.044,0,0,0,1509.084,756.93Z" transform="translate(-1473.601 -724.056)"/><path class="c" d="M1404.331,675.236a6.463,6.463,0,0,0,8.583-2.969,6.463,6.463,0,0,0-8.583,2.969Z" transform="translate(-1401.693 -663.352)"/><path class="c" d="M1418.094,686.563a6.463,6.463,0,0,0,8.583-2.969,6.464,6.464,0,0,0-8.583,2.969Z" transform="translate(-1411.582 -671.491)"/><path class="c" d="M1432.766,700.528a6.463,6.463,0,0,0,8.583-2.969,6.464,6.464,0,0,0-8.583,2.969Z" transform="translate(-1422.124 -681.525)"/><path class="c" d="M1449.325,711.554a5.257,5.257,0,1,0,2.995-2.64A4.779,4.779,0,0,0,1449.325,711.554Z" transform="translate(-1434.022 -689.936)"/><path class="c" d="M1461.726,721.783a4.13,4.13,0,1,0,2.4-2.179A3.79,3.79,0,0,0,1461.726,721.783Z" transform="translate(-1442.933 -697.668)"/><path class="c" d="M1469.134,733.192a4.13,4.13,0,1,0,2.4-2.179A3.79,3.79,0,0,0,1469.134,733.192Z" transform="translate(-1448.256 -705.866)"/><path class="c" d="M1477.253,745.645a4.118,4.118,0,1,0,2.592-1.536A3.708,3.708,0,0,0,1477.253,745.645Z" transform="translate(-1454.09 -715.412)"/><path class="c" d="M1485.1,755.4a3.573,3.573,0,1,0,1.481-2.211A3.232,3.232,0,0,0,1485.1,755.4Z" transform="translate(-1459.729 -721.51)"/><path class="c" d="M1493.825,763.649a2.734,2.734,0,1,0,.8-1.872A2.473,2.473,0,0,0,1493.825,763.649Z" transform="translate(-1465.992 -727.571)"/><path class="c" d="M1499.607,768.319a1.53,1.53,0,1,0,.444-1.189A1.426,1.426,0,0,0,1499.607,768.319Z" transform="translate(-1470.143 -731.669)"/><path class="c" d="M1501.475,772.158a1.531,1.531,0,1,0,.444-1.189A1.428,1.428,0,0,0,1501.475,772.158Z" transform="translate(-1471.485 -734.427)"/></g><g transform="translate(34.263 14.205)"><path class="b" d="M1559.613,597.244a59.147,59.147,0,0,0-5.15,6.661,78.83,78.83,0,0,0-4.326,7.228,79.508,79.508,0,0,0-6.3,15.624,78.695,78.695,0,0,0-2.855,16.63,82.045,82.045,0,0,0,.811,16.883l1.194-.2a80.917,80.917,0,0,1-1.057-16.638,77.869,77.869,0,0,1,2.572-16.5,82.091,82.091,0,0,1,2.59-7.961,82.959,82.959,0,0,1,3.422-7.649,78.447,78.447,0,0,1,4.195-7.261,58.975,58.975,0,0,1,5.024-6.711Z" transform="translate(-1534.057 -588.309)"/><path class="b" d="M1612.534,565.5a8.447,8.447,0,0,1-7,9.587,8.447,8.447,0,0,1,7-9.587Z" transform="translate(-1580.406 -565.498)"/><path class="b" d="M1579.2,576.108a8.447,8.447,0,1,1-.765,6.369A7.68,7.68,0,0,1,1579.2,576.108Z" transform="translate(-1560.809 -573.122)"/><path class="b" d="M1558.19,599.449a8.447,8.447,0,1,1,.958,6.342A7.679,7.679,0,0,1,1558.19,599.449Z" transform="translate(-1546.275 -589.893)"/><path class="b" d="M1545.322,623.014a8.447,8.447,0,1,1,.958,6.342A7.679,7.679,0,0,1,1545.322,623.014Z" transform="translate(-1537.029 -606.825)"/><path class="b" d="M1530.568,647.934a8.447,8.447,0,0,1,8.5,8.285,8.447,8.447,0,0,1-8.5-8.285Z" transform="translate(-1526.647 -624.708)"/><path class="b" d="M1522.969,674.476a7.543,7.543,0,0,1,9.21,5.246,7.544,7.544,0,0,1-9.21-5.246Z" transform="translate(-1521.201 -643.565)"/><path class="b" d="M1516.688,692.139a7.544,7.544,0,0,1,9.21,5.246,7.545,7.545,0,0,1-9.21-5.246Z" transform="translate(-1516.688 -656.257)"/><path class="b" d="M1517.376,714.934a6.466,6.466,0,1,1,3.025,3.868A5.879,5.879,0,0,1,1517.376,714.934Z" transform="translate(-1517.182 -672.669)"/><path class="b" d="M1518.546,735.577a5.475,5.475,0,1,1,3.751,1.705A4.967,4.967,0,0,1,1518.546,735.577Z" transform="translate(-1518.023 -686.701)"/><path class="b" d="M1522.076,751.9a4.387,4.387,0,1,1,3.284.336A3.979,3.979,0,0,1,1522.076,751.9Z" transform="translate(-1520.56 -697.822)"/><path class="b" d="M1604.86,610.038a8.446,8.446,0,0,1-11.867-.069,8.446,8.446,0,0,1,11.867.069Z" transform="translate(-1571.516 -595.727)"/><path class="b" d="M1592.586,629.835a8.446,8.446,0,0,1-11.867-.069,8.447,8.447,0,0,1,11.867.069Z" transform="translate(-1562.697 -609.952)"/><path class="b" d="M1580.3,653.279a8.447,8.447,0,0,1-11.868-.069,8.446,8.446,0,0,1,11.868.069Z" transform="translate(-1553.866 -626.797)"/><path class="b" d="M1569.364,672.908a6.87,6.87,0,0,1-9.652-.056,6.87,6.87,0,0,1,9.652.056Z" transform="translate(-1547.602 -641.232)"/><path class="b" d="M1562.482,689.915a5.4,5.4,0,1,1-3.889-1.688A4.952,4.952,0,0,1,1562.482,689.915Z" transform="translate(-1543.99 -653.684)"/><path class="b" d="M1558.107,707.145a5.4,5.4,0,1,1-3.889-1.688A4.953,4.953,0,0,1,1558.107,707.145Z" transform="translate(-1540.847 -666.064)"/><path class="b" d="M1553.855,725.35a5.381,5.381,0,1,1-3.852-.812A4.846,4.846,0,0,1,1553.855,725.35Z" transform="translate(-1538.202 -679.711)"/><path class="b" d="M1552.178,741.139a4.671,4.671,0,1,1-2.762-2.114A4.226,4.226,0,0,1,1552.178,741.139Z" transform="translate(-1537.721 -690.044)"/><path class="b" d="M1549.2,754.223a3.572,3.572,0,1,1-1.775-1.981A3.232,3.232,0,0,1,1549.2,754.223Z" transform="translate(-1536.865 -699.39)"/><path class="b" d="M1547.267,761.413a2,2,0,1,1-1.049-1.285A1.865,1.865,0,0,1,1547.267,761.413Z" transform="translate(-1536.715 -705.187)"/><path class="b" d="M1546.566,766.949a2,2,0,1,1-1.049-1.285A1.866,1.866,0,0,1,1546.566,766.949Z" transform="translate(-1536.211 -709.165)"/></g><g transform="translate(10.935 6.999)"><path class="d" d="M1464.254,575.3a63.758,63.758,0,0,1,5.2,7.443,84.967,84.967,0,0,1,4.28,8.01,85.655,85.655,0,0,1,5.96,17.154,84.828,84.828,0,0,1,2.2,18.057,88.406,88.406,0,0,1-1.758,18.137l-1.275-.272a87.273,87.273,0,0,0,2.01-17.861,83.981,83.981,0,0,0-1.9-17.9,85.11,85.11,0,0,0-5.655-17.124,84.613,84.613,0,0,0-4.136-8.039,63.559,63.559,0,0,0-5.058-7.49Z" transform="translate(-1455.586 -565.338)"/><path class="d" d="M1440.446,539.9a9.106,9.106,0,0,0,7.03,10.69,9.107,9.107,0,0,0-7.03-10.69Z" transform="translate(-1438.386 -539.896)"/><path class="d" d="M1480.336,553.88a9.107,9.107,0,1,0,.49,6.9A8.277,8.277,0,0,0,1480.336,553.88Z" transform="translate(-1463.642 -549.944)"/><path class="d" d="M1497.905,580.219a9.107,9.107,0,1,0-1.364,6.779A8.28,8.28,0,0,0,1497.905,580.219Z" transform="translate(-1474.581 -568.87)"/><path class="d" d="M1510.525,606.269a9.106,9.106,0,1,0-1.364,6.779A8.278,8.278,0,0,0,1510.525,606.269Z" transform="translate(-1483.649 -587.587)"/><path class="d" d="M1520.235,633.822a9.107,9.107,0,0,0-9.585,8.475,9.107,9.107,0,0,0,9.585-8.475Z" transform="translate(-1489.019 -607.333)"/><path class="d" d="M1525.5,662.625a8.132,8.132,0,0,0-10.192,5.165,8.133,8.133,0,0,0,10.192-5.165Z" transform="translate(-1492.369 -627.749)"/><path class="d" d="M1531.337,681.974a8.132,8.132,0,0,0-10.192,5.166,8.133,8.133,0,0,0,10.192-5.166Z" transform="translate(-1496.562 -641.651)"/><path class="d" d="M1533.125,706.523a6.972,6.972,0,0,0-8.737,4.428,6.972,6.972,0,0,0,8.737-4.428Z" transform="translate(-1498.893 -659.339)"/><path class="d" d="M1531.922,728.419a5.9,5.9,0,0,0-8.231-.064,5.9,5.9,0,0,0,8.231.064Z" transform="translate(-1498.392 -674.132)"/><path class="d" d="M1532.251,745.778a4.729,4.729,0,1,0-3.555.189A4.29,4.29,0,0,0,1532.251,745.778Z" transform="translate(-1500.064 -685.938)"/><path class="d" d="M1433.809,588.4a9.106,9.106,0,0,0,12.783.548,9.106,9.106,0,0,0-12.783-.548Z" transform="translate(-1433.809 -573.052)"/><path class="d" d="M1445.987,610.359a9.106,9.106,0,0,0,12.782.548,9.106,9.106,0,0,0-12.782-.548Z" transform="translate(-1442.559 -588.831)"/><path class="d" d="M1457.991,636.248a9.106,9.106,0,0,0,12.782.548,9.106,9.106,0,0,0-12.782-.548Z" transform="translate(-1451.185 -607.434)"/><path class="d" d="M1474.887,658.11a7.406,7.406,0,0,0,10.4.446,7.406,7.406,0,0,0-10.4-.446Z" transform="translate(-1463.325 -623.459)"/><path class="d" d="M1486.548,676.915a5.818,5.818,0,0,0,8.4.36,5.818,5.818,0,0,0-8.4-.36Z" transform="translate(-1471.704 -637.185)"/><path class="d" d="M1490.356,695.7a5.818,5.818,0,0,0,8.4.36,5.819,5.819,0,0,0-8.4-.36Z" transform="translate(-1474.44 -650.681)"/><path class="d" d="M1495.657,715.454a5.8,5.8,0,0,0,7.717,1.687,5.8,5.8,0,0,0-7.717-1.687Z" transform="translate(-1478.249 -665.447)"/><path class="d" d="M1499.216,732.858a5.035,5.035,0,1,0,3.084-2.131A4.553,4.553,0,0,0,1499.216,732.858Z" transform="translate(-1480.806 -676.913)"/><path class="d" d="M1506.655,747.249a3.851,3.851,0,1,0,2.015-2.04A3.483,3.483,0,0,0,1506.655,747.249Z" transform="translate(-1486.151 -687.168)"/><path class="d" d="M1513.2,755.134a2.156,2.156,0,1,0,1.2-1.329A2.011,2.011,0,0,0,1513.2,755.134Z" transform="translate(-1490.854 -693.459)"/><path class="d" d="M1513.663,761.132a2.156,2.156,0,1,0,1.2-1.329A2.012,2.012,0,0,0,1513.663,761.132Z" transform="translate(-1491.187 -697.768)"/></g><g transform="translate(37.437 48.161)"><path class="b" d="M1538.24,717.194c2.857-4.186,5.867-8.275,9.078-12.2l-.052-.045c-3.293,3.864-6.388,7.894-9.336,12.031a145.333,145.333,0,0,0-8.209,12.846q-.9,1.614-1.754,3.26c.222.124.443.248.663.376q.817-1.668,1.693-3.306A144.672,144.672,0,0,1,1538.24,717.194Z" transform="translate(-1527.966 -699.654)"/><path class="b" d="M1599.16,686.139a4.139,4.139,0,1,0-.387,3.418A3.866,3.866,0,0,0,1599.16,686.139Z" transform="translate(-1576.633 -686.139)"/><path class="b" d="M1579.253,694.825a4.749,4.749,0,1,0,2.225,2.494A4.237,4.237,0,0,0,1579.253,694.825Z" transform="translate(-1564.583 -692.38)"/><path class="b" d="M1579.146,723.348a4.749,4.749,0,1,0,2.939-1.592A4.239,4.239,0,0,0,1579.146,723.348Z" transform="translate(-1564.741 -711.694)"/><path class="b" d="M1567.915,737.847a4.748,4.748,0,1,0,2.938-1.592A4.238,4.238,0,0,0,1567.915,737.847Z" transform="translate(-1556.671 -722.112)"/><path class="b" d="M1560.286,749.4a4.749,4.749,0,1,0,2.939-1.592A4.237,4.237,0,0,0,1560.286,749.4Z" transform="translate(-1551.189 -730.41)"/><path class="b" d="M1551.827,762.144a4.749,4.749,0,1,0,2.939-1.592A4.238,4.238,0,0,0,1551.827,762.144Z" transform="translate(-1545.111 -739.57)"/><path class="b" d="M1569.476,707.265a4.748,4.748,0,1,0,2.225,2.494A4.236,4.236,0,0,0,1569.476,707.265Z" transform="translate(-1557.557 -701.319)"/><path class="b" d="M1560.131,720.068a4.749,4.749,0,1,0,2.225,2.494A4.237,4.237,0,0,0,1560.131,720.068Z" transform="translate(-1550.843 -710.518)"/><path class="b" d="M1551.238,732.975a4.748,4.748,0,1,0,2.225,2.494A4.239,4.239,0,0,0,1551.238,732.975Z" transform="translate(-1544.453 -719.792)"/><path class="b" d="M1542.621,745.621a4.75,4.75,0,1,0,2.224,2.494A4.238,4.238,0,0,0,1542.621,745.621Z" transform="translate(-1538.261 -728.879)"/></g><path class="e" d="M1491.364,803.433H1507a10.973,10.973,0,0,1-.539,17.732H1491.9a10.973,10.973,0,0,1-.539-17.732Z" transform="translate(-1461.178 -722.257)"/><path class="f" d="M1496.663,810.266c-1.542-.283-3.607,1.545-4.14,5.219-.727,7.252,3.89,9.382,6.41,7.54-2.2-.867-4.6-2.451-4.668-6.021a10.038,10.038,0,0,1,.6-3.724,11.112,11.112,0,0,1,.662-1.395A9.087,9.087,0,0,1,1496.663,810.266Z" transform="translate(-1465.007 -727.147)"/><rect class="g" width="17.274" height="1.706" transform="translate(46.73 81.818) rotate(180)"/></g><path class="h" d="M1569.455,863.529c0,2.929-33,5.3-73.709,5.3s-73.709-2.375-73.709-5.3,33.02-3.271,73.728-3.271S1569.455,860.6,1569.455,863.529Z" transform="translate(-1414.415 -694.695)"/><g transform="translate(19.185 0)"><rect class="i" width="112.074" height="92.784" rx="7" transform="translate(0 0)"/><rect class="j" width="105.964" height="87.727" rx="10" transform="translate(4.159 5.058)"/><rect class="k" width="95.417" height="78.995" rx="5" transform="translate(9.432 9.424)"/><rect class="l" width="2.091" height="56.821" transform="translate(19.801 22.944)"/><rect class="l" width="80.139" height="1.603" transform="translate(20.847 78.162)"/><rect class="l" width="4.68" height="44.225" transform="translate(96.903 79.597) rotate(180)"/><rect class="l" width="4.679" height="37.092" transform="translate(89.058 79.597) rotate(180)"/><rect class="l" width="4.68" height="29.385" transform="translate(81.694 79.597) rotate(180)"/><rect class="l" width="4.679" height="29.385" transform="translate(74.331 79.597) rotate(180)"/><rect class="l" width="4.68" height="27.673" transform="translate(66.968 79.597) rotate(180)"/><rect class="l" width="4.679" height="20.163" transform="translate(59.604 79.597) rotate(180)"/><rect class="l" width="4.68" height="13.837" transform="translate(52.241 79.597) rotate(180)"/><rect class="l" width="4.68" height="11.63" transform="translate(44.877 79.597) rotate(180)"/><rect class="l" width="4.68" height="11.63" transform="translate(37.514 79.597) rotate(180)"/><rect class="l" width="4.68" height="5.382" transform="translate(30.151 79.597) rotate(180)"/><path class="m" d="M1609.3,341.381l-1.014-3.977-5.055,8.52-13.183.772-16.294,14.682h-11.605L1544.3,379.723l-1.74-1.693,18.563-19.081h11.7l16.233-14.628,12.746-.746,4.4-7.411-3.977,1.016,1.783-3.005,5.639-1.439,1.439,5.639Z" transform="translate(-1520.198 -315.652)"/><rect class="l" width="50.337" height="2.24" transform="translate(18.944 12.991)"/></g><rect class="n" width="2.612" height="60.449" transform="translate(76.198 92.687) rotate(0.317)"/><path class="n" d="M1592.983,828.949l19.383-14.863-.083,14.97,1.382.008.082-14.79,19.928,14.9,2.126.012-21.727-16.246-.452.451-1.252-.007v.125l-.588-.572-20.867,16Z" transform="translate(-1535.759 -660.693)"/><path class="n" d="M1666.151,802.726l-4.405-.025.024-4.316a2.2,2.2,0,0,1,2.215-2.191h0a2.2,2.2,0,0,1,2.191,2.215Z" transform="translate(-1586.654 -648.663)"/><path class="o" d="M1889.235,860.68l-12.195.268,8.106-4.158.275-2.309c1.235,0,2.045-.612,3.292-.612C1889.065,855.821,1889.235,860.68,1889.235,860.68Z" transform="translate(-1741.351 -690.105)"/><path class="o" d="M1819.5,857.68l-12.2.268,8.016-3.409.364-3.058c1.235,0,1.533.837,2.781.837C1818.822,854.269,1819.5,857.68,1819.5,857.68Z" transform="translate(-1691.246 -688.388)"/><path class="p" d="M1797.213,433.076s33.234-3.868,39.062.245l-10.527-34.912-2.873-23.93-6.784.156-5.052,1.409Z" transform="translate(-1683.992 -345.645)"/><path class="q" d="M1738.276,422.123a13.258,13.258,0,0,1-1.467-6.109c-.079-2.53-2.5-5.168-2.5-5.168-.255-.3-1.793-.75-2.025-.283s.912.467,1.178,1.49-.373,1.033-.771.949-3.373-6.029-4.143-5.789,1.694,4.627,1.96,5.473-.775,1.012-1.019,1.5.053.582-.208,1.106-.007,1.287.7,2.227,3.385,1.795,3.767,2.585c.1.215.762,1.88,1.761,4.144q1.427-.942,2.934-1.809C1738.385,422.329,1738.322,422.22,1738.276,422.123Z" transform="translate(-1634.547 -369.159)"/><path class="r" d="M1732.168,426.567s3.82,2.887,3.087,3.455-3.8-2.5-3.8-2.5,3.4,2.684,2.8,3.15-3.543-1.8-3.543-1.8,3.1,2.065,2.545,2.3-2.545-1.411-2.545-1.411a1.88,1.88,0,0,1-.179-.988c.105-.371-.068-.527.019-.757a2.371,2.371,0,0,1,.633-.706C1731.355,427.179,1731.422,426.352,1732.168,426.567Z" transform="translate(-1636.065 -383.047)"/><path class="s" d="M1749.272,405.728l-4.332,2.922s7.857,18.435,9.57,18.435,11.253-13.046,11.253-13.046l-.184-23s-9.77,24.356-10.722,24.356S1749.272,405.728,1749.272,405.728Z" transform="translate(-1646.432 -357.547)"/><path class="t" d="M1828.643,624.645h5.9s4.18-32.337,1.762-46.088c-.932-5.3.737-22.615.753-30.39.025-12.379-1.159-14.942-1.159-14.942l-9.238,3.15s-.735,42.031.021,45.657S1828.643,624.645,1828.643,624.645Z" transform="translate(-1704.919 -459.709)"/><path class="u" d="M1848.663,542.351s1.478,38.9,3.1,44.5c1.921,6.625,1.79,44.15,1.79,44.15l-5.991-.3s-5.371-35.516-6.579-40.8-6.525-30.009-6.525-30.009l-7.6-4.34.173-12.607Z" transform="translate(-1705.295 -466.267)"/><path class="v" d="M1877.145,562.477c.825,0,2.065.053,4.012.112-.548-10.284-.947-20.239-.947-20.239l-9.445.254C1872.082,554.328,1874.659,562.477,1877.145,562.477Z" transform="translate(-1736.842 -466.267)"/><path class="w" d="M1826.979,531l21.629-.582s.079-1.941.3-4.672a107.83,107.83,0,0,1-22.126,2.014Z" transform="translate(-1705.241 -454.34)"/><rect class="x" width="5.191" height="2.778" transform="translate(124.9 73.632) rotate(-2.561)"/><path class="y" d="M1849.549,380.824l-11.543-3.267-9.115.3-10.62,3.5,2.4,39.93a107.832,107.832,0,0,0,22.126-2.014,77.69,77.69,0,0,1,1.965-13.008C1846.57,399.763,1849.549,380.824,1849.549,380.824Z" transform="translate(-1699.122 -347.857)"/><path class="z" d="M1818.27,383.779l2.4,39.93,1.084-.007c-1.425-14.575,4.353-41.161,4.353-42.768Z" transform="translate(-1699.122 -350.283)"/><path class="z" d="M1876.419,377.557c-1.13,3.227-8.75,26.424-7.827,40.367q.1,1.446.217,2.843a84.933,84.933,0,0,0,10.086-1.5,77.69,77.69,0,0,1,1.965-13.008c1.813-6.5,4.792-25.437,4.792-25.437Z" transform="translate(-1735.225 -347.857)"/><path class="aa" d="M1878.83,375.889s-5.856,22.757-5.148,35.975,2.873,23.058,4.948,23.058,11.249.712,12.548-.587-5.016-26.883-4.99-31.869,3.133-22.839,3.133-22.839Z" transform="translate(-1738.895 -346.659)"/><path class="v" d="M1901.952,508.183c-.445-2.263-.906-4.572-1.329-6.752-1.43-1.287-3.162-2.56-4.418-2.56a27.305,27.305,0,0,0-4.791.453Z" transform="translate(-1751.68 -435.026)"/><path class="ab" d="M1810.973,380.933s-7.488,38.8-7.488,46.075,2.057,10.9-.345,11.731-5.927-1.027-5.927-1.027l5.927-53.935Z" transform="translate(-1683.992 -350.283)"/><path class="ac" d="M1884.877,376.74l-6.031-2.261s-2.752,16.006-3.738,27.472l5.125-13.057v-2.423Z" transform="translate(-1739.963 -345.645)"/><path class="ac" d="M1832.785,380.038l-4.9,26.862-.407-14.677,1.909-2.346-1.37-8.278Z" transform="translate(-1705.737 -349.64)"/><path class="ad" d="M1852.945,375.8l-1.057-4.1s8.1-.976,8.1-1.13l1.558,2.04Z" transform="translate(-1723.278 -342.832)"/><path class="ae" d="M1921.4,389.164s-4.094,15.453-2.922,18.91,5.806,21.287,9.633,23.4l3.123-8.26Z" transform="translate(-1770.974 -356.197)"/><path class="af" d="M1901.917,404.937l18.435,7.928-14.866,27.424s-10.6-9.065-14.071-8.46Z" transform="translate(-1751.68 -367.531)"/><path class="r" d="M1959.741,463.67s1.133-8.765,1.133-9.482-2.115-4.307-3.589-4.307-3.249.151-3.249.491,1.964.491,2.645.491,1.586,1.851,1.586,2.3-2.569-1.36-3.815-1.36-2.825.215-2.229.811,1.926.058,2.607.4a9.843,9.843,0,0,1,1.813,1.549s-1.677-.268-3.816-.453c-2.071-.179-1.427.795-.151.889a29.861,29.861,0,0,1,3.728.891s-3.331-.4-3.766.033c-.325.325,2.25.764,3.563,1.124.51.14.013,2.039.2,2.432.756,1.56-.139,4-.139,4Z" transform="translate(-1794.846 -399.824)"/><g transform="translate(123.674 2.797)"><g transform="translate(0 0)"><path class="ag" d="M1851.628,315.279c.217-.138,2.911-6.84,2.911-6.84s1.8-5.032.636-5.884-3.92-3.806-6.338-3.859a9.176,9.176,0,0,0-4.256.808c-.217.137-1.784,2.783-1.784,2.783s.73-.891,1.105,2.415S1851.628,315.279,1851.628,315.279Z" transform="translate(-1840.42 -293.987)"/><path class="r" d="M1852.5,343.346c.287.857.163,6.968.39,8.506.224,1.519,7.142,2.651,7.295-1.652a111.008,111.008,0,0,0-.41-12.024Z" transform="translate(-1847.392 -322.357)"/><path class="q" d="M1852.5,343.346h0l2.414-1.716,4.861-3.454v.018c0,.023.005.066.01.128.016.2.047.6.085,1.157v0q.012.168.024.355l0,.024c.026.4.055.863.085,1.372l.005.085c.006.121.013.243.02.369v0c0,.065.007.131.011.2,0,.007,0,.014,0,.021l0,.075,0,.029c0,.043,0,.087.007.131-.9,2.962-4.317,6.178-7.27,6.56-.007-.2-.017-.411-.032-.618A34.84,34.84,0,0,0,1852.5,343.346Z" transform="translate(-1847.392 -322.357)"/><path class="r" d="M1852.923,312.8a10.654,10.654,0,0,1-1.182,9.307c-2.118,3.056-5.04,4.632-7.134,3.09s-2.693-11.213-1.18-13.7S1851.57,309.43,1852.923,312.8Z" transform="translate(-1840.267 -302.041)"/><path class="ah" d="M1847.005,302.014s.471-3.163,1.685-3.934,1.761-1.24,1.98-2.358,2.373-2.658,1.712-4.495-1.936-1.9-3.548-5.1-3.352-4.961-7.109-3.8-4.28,3.456-4.28,3.456a2.975,2.975,0,0,0-2.671,1.7c-2.341,3.718,5.665,5.949,8.744,2.87,1.493-1.493,3.444-.1,4.185,2.116S1845.252,298.177,1847.005,302.014Z" transform="translate(-1834.351 -281.975)"/><path class="r" d="M1876.3,328.616s1.325-2.262,2.014-1.279.122,3.921-1.34,3.95S1876.3,328.616,1876.3,328.616Z" transform="translate(-1864.338 -314.392)"/><path class="q" d="M1878.751,330.636s-.05-1.311.661-.877-.005,2.54-.661,2.5S1878.751,330.636,1878.751,330.636Z" transform="translate(-1866.044 -316.247)"/><path class="ai" d="M1851.221,330.945a8.192,8.192,0,0,0-.531,1.867,4.885,4.885,0,0,0,.02,2.069c.161-.03.591-.093,1.159-.242-.366-.01-.729,0-1.09.019l.122.09A25.13,25.13,0,0,1,1851.221,330.945Z" transform="translate(-1846.026 -317.162)"/><path class="aj" d="M1859.124,330.571a.657.657,0,0,0,.383.817c.289.058.585-.213.662-.606a.656.656,0,0,0-.382-.817C1859.5,329.907,1859.2,330.178,1859.124,330.571Z" transform="translate(-1852.138 -316.452)"/><path class="aj" d="M1845.027,328.569a.656.656,0,0,0,.383.817c.289.058.584-.213.662-.606a.656.656,0,0,0-.382-.817C1845.4,327.9,1845.1,328.176,1845.027,328.569Z" transform="translate(-1842.009 -315.013)"/><path class="ai" d="M1861.231,325.262a2.824,2.824,0,0,0-1.625-1.276c-1.015-.205-.709.649-.472.7S1861.271,325.062,1861.231,325.262Z" transform="translate(-1851.989 -312.139)"/><path class="ai" d="M1846.333,322.314s-1.2.356-1.43.908c0,0,1.273-.105,1.5-.4A.339.339,0,0,0,1846.333,322.314Z" transform="translate(-1841.933 -310.96)"/></g><path class="ak" d="M1854.648,350.412a6.24,6.24,0,0,1-4.1,1.231C1851.593,352.62,1853.76,351.5,1854.648,350.412Z" transform="translate(-1845.988 -331.149)"/></g><path class="al" d="M1951.189,494.2s-5.027,7.585-5.367,9.134,2.065,3.614,2.065,3.614a5.429,5.429,0,0,0,3.488,0c1.7-.667,5.213-11.509,5.213-11.509Z" transform="translate(-1790.75 -431.671)"/><path class="ad" d="M1851.447,380.983l1.713,3.112,2.165-3.162,1.287,3.2-3.3,2.1-3.162-2.319Z" transform="translate(-1722.031 -350.283)"/><path class="am" d="M1868.53,373.483v5.138l5.442-6.083-2.024-1.973A4.6,4.6,0,0,1,1868.53,373.483Z" transform="translate(-1735.236 -342.832)"/><path class="an" d="M1854.751,381.112l3.9.149-.8,5.1-3.091-.342Z" transform="translate(-1725.335 -350.411)"/><path class="an" d="M1841.93,398.556l3.091.342-1.223,28.118-3.162,7.341-3.728-7.566Z" transform="translate(-1712.515 -362.946)"/><path class="ao" d="M1845.809,382.037l-.787,4.991-1.223,28.118-3.162,7.341-3.728-7.566,3.728,5.375,2.539-5.375,1.536-27.928Z" transform="translate(-1712.515 -351.076)"/><g transform="translate(142.285 6.335)"><path class="ap" d="M1901.782,308.914a.273.273,0,0,1-.22-.435c4.02-5.5-.993-13.433-1.044-13.513a.273.273,0,0,1,.459-.3c.053.083,5.265,8.334,1.026,14.131A.271.271,0,0,1,1901.782,308.914Z" transform="translate(-1900.474 -294.545)"/></g><path class="am" d="M1847.88,381.089l1.1-4.722-.909-1.788-1.493,2.007Z" transform="translate(-1719.466 -345.718)"/></g><rect class="aq" width="204" height="204" transform="translate(-5720.033 -9021.928)"/></g></svg>