<svg xmlns="http://www.w3.org/2000/svg" width="153" height="153" viewBox="0 0 153 153"><defs><style>.a{fill:#8c6df2;}.b{fill:#ffeaa7;}.c{fill:#ffb74d;}.d{fill:#e6e9ed;}.e{fill:#ff826e;}.f{fill:#c7b6fc;}.g{fill:#f0d0b4;}</style></defs><g transform="translate(-242 -5054)"><path class="a" d="M76.5,0A76.5,76.5,0,1,1,0,76.5,76.5,76.5,0,0,1,76.5,0Z" transform="translate(242 5054)"/><g transform="translate(269.723 5081.723)"><g transform="translate(2.525 2.525)"><g transform="translate(15.251 12.201)"><path class="b" d="M12,10V67.953H82.153a6.1,6.1,0,0,0,6.1-6.1V10Z" transform="translate(-12 -10)"/></g><g transform="translate(21.351 18.301)"><path class="c" d="M16,14H46.5V29.251H16Z" transform="translate(-16 -14)"/></g><g transform="translate(57.953 18.301)"><path class="d" d="M49.15,33.826l12.2-6.1-12.2-6.1Zm18.3-6.1A13.727,13.727,0,0,1,53.726,41.451c-.5,0-.991-.031-1.479-.076H52.2V35.351H46.1c-.839.564-1.678,1.083-2.547,1.586l-.015-.015a13.725,13.725,0,1,1,23.913-9.2Z" transform="translate(-40 -14)"/></g><g transform="translate(36.602 39.652)"><path class="d" d="M53.451,28V64.6c-1.952-1.083-3.95-2.44-5.994-3.675a27.648,27.648,0,0,0-6.268-2.989A3.061,3.061,0,0,0,38.2,55.451H26V37.074a54.32,54.32,0,0,0,24.9-7.488C51.774,29.083,52.613,28.564,53.451,28Z" transform="translate(-26 -28)"/></g><g transform="translate(67.103 25.926)"><path class="e" d="M58.2,25.1,46,31.2V19Z" transform="translate(-46 -19)"/></g><g transform="translate(24.401 48.726)"><path class="f" d="M30.2,33.95V52.327H27.15a9.121,9.121,0,0,1-8.617-6.1A8.85,8.85,0,0,1,18,43.177a9.164,9.164,0,0,1,9.15-9.15h.275c.93,0,1.861-.031,2.776-.076Z" transform="translate(-18 -33.95)"/></g><g transform="translate(64.053 39.652)"><path class="a" d="M50.1,58.5v6.1H44V28h6.1V58.5Z" transform="translate(-44 -28)"/></g><g transform="translate(0 61.003)"><path class="c" d="M11.15,67.926V72.5H2V42h9.15V67.926Z" transform="translate(-2 -42)"/></g><g transform="translate(9.15 61.003)"><path class="g" d="M46.127,54.2a3.059,3.059,0,0,1,3.05,3.05,3.072,3.072,0,0,1-3.05,3.05H44.6a3.059,3.059,0,0,1,3.05,3.05A3.072,3.072,0,0,1,44.6,66.4H43.077a3.059,3.059,0,0,1,3.05,3.05,3.072,3.072,0,0,1-3.05,3.05H20.948a9.139,9.139,0,0,1-6.482-2.684l-1.891-1.891H8V46.575h4.575L14.1,45.431l2.135-1.6A9.139,9.139,0,0,1,21.726,42h2.059A9.121,9.121,0,0,0,32.4,48.1H47.652a3.061,3.061,0,0,1,2.989,2.486,2.287,2.287,0,0,1,.061.564,3.059,3.059,0,0,1-3.05,3.05Z" transform="translate(-8 -42)"/></g><g transform="translate(15.251)"><path class="a" d="M88.254,14.2H12V8.1A6.1,6.1,0,0,1,18.1,2H32.345A6.106,6.106,0,0,1,36.66,3.784L40.976,8.1H82.153A6.1,6.1,0,0,1,88.254,14.2Z" transform="translate(-12 -2)"/></g></g><g transform="translate(1 1)"><path d="M38.626,34.657l1.141,2.829q1.578-.636,3.126-1.362L41.6,33.362q-1.469.691-2.974,1.295Z" transform="translate(18.756 15.992)"/><path d="M28.88,37.651l.366,3.029a61.978,61.978,0,0,0,12.509-2.858l-.984-2.887A58.745,58.745,0,0,1,28.88,37.651Z" transform="translate(13.639 16.818)"/><path d="M87.929,7.1H47.384L43.518,3.234A7.578,7.578,0,0,0,38.125,1H23.876a7.634,7.634,0,0,0-7.625,7.625V66.2l-.508.381H13.2V62H1V95.555H13.2V90.979h2.419l1.447,1.447a10.607,10.607,0,0,0,7.549,3.128H46.752a4.581,4.581,0,0,0,4.575-4.575,4.525,4.525,0,0,0-.612-2.243,4.507,4.507,0,0,0,1.525-6.1,4.565,4.565,0,0,0,2.137-3.857,4.516,4.516,0,0,0-.613-2.245,4.585,4.585,0,0,0,1.874-2.323,47.093,47.093,0,0,1,6.4,3.6c1.246.787,2.536,1.6,3.794,2.3l.346.192H74.2V74.2H87.929a7.634,7.634,0,0,0,7.625-7.625V14.726A7.634,7.634,0,0,0,87.929,7.1ZM23.876,4.05H38.125a4.549,4.549,0,0,1,3.236,1.341l4.76,4.76H87.929a4.569,4.569,0,0,1,4.295,3.05H19.3V8.625A4.581,4.581,0,0,1,23.876,4.05ZM10.15,92.5H4.05V65.053h6.1Zm36.6,0H24.616a7.578,7.578,0,0,1-5.393-2.234l-2.341-2.341H13.2v-18.3h3.558l4.069-3.05A7.66,7.66,0,0,1,25.4,65.053h1.045a10.678,10.678,0,0,0,9.631,6.1H51.327a1.525,1.525,0,1,1,0,3.05h-12.2v3.05H49.8a1.525,1.525,0,1,1,0,3.05H39.127v3.05h9.15a1.525,1.525,0,1,1,0,3.05h-9.15v3.05h7.625a1.525,1.525,0,1,1,0,3.05ZM36.077,68.1a7.625,7.625,0,1,1,0-15.251h.281c.416,0,.83-.035,1.244-.046V68.1Zm19.469,2.8a4.584,4.584,0,0,0-4.218-2.8H40.652V52.682a55.752,55.752,0,0,0,24.4-7.781V76.1c-.454-.282-.91-.567-1.38-.865A41.118,41.118,0,0,0,55.546,70.9ZM62,34.552a12.2,12.2,0,1,1,12.2,12.2v-6.1H73.038l12.2-6.1L68.1,25.984V40.652H66.116l-.384.256c-.448.3-.917.56-1.373.845A12.177,12.177,0,0,1,62,34.552Zm9.15,3.633V30.919l7.265,3.633Zm0,39.069H68.1V43.7h3.05Zm16.776-6.1H74.2V49.8a15.281,15.281,0,1,0-12.474-6.5,52.756,52.756,0,0,1-25.373,6.5h-.281A10.6,10.6,0,0,0,25.523,62H25.4a10.707,10.707,0,0,0-6.1,1.944v-47.7H92.5V66.578A4.581,4.581,0,0,1,87.929,71.153Z" transform="translate(-1 -1)"/><path d="M15,5h3.05V8.05H15Z" transform="translate(6.351 1.1)"/><path d="M19,5h3.05V8.05H19Z" transform="translate(8.451 1.1)"/><path d="M23,5h3.05V8.05H23Z" transform="translate(10.552 1.1)"/><path d="M51,43H63.2v3.05H51Z" transform="translate(25.254 21.053)"/><path d="M51,39H63.2v3.05H51Z" transform="translate(25.254 18.953)"/><path d="M51,35H63.2v3.05H51Z" transform="translate(25.254 16.853)"/><path d="M15,31.3H48.552V13H15ZM18.05,16.05H45.5v12.2H18.05Z" transform="translate(6.351 5.301)"/><path d="M15,27h3.05v3.05H15Z" transform="translate(6.351 12.652)"/><path d="M19,27H46.451v3.05H19Z" transform="translate(8.451 12.652)"/></g></g></g></svg>