<svg xmlns="http://www.w3.org/2000/svg" width="122" height="122" viewBox="0 0 122 122"><defs><style>.a{fill:#fff;stroke:#5038a1;stroke-width:3px;}.b{fill:#a95a18;}.c{fill:#f69038;}.d{fill:#90e3f5;}.e{fill:#fe9e4a;}.f{fill:#232626;opacity:0.2;}.g{stroke:none;}.h{fill:none;}</style></defs><g transform="translate(-325 -5406)"><g transform="translate(325 5406)"><g class="a"><circle class="g" cx="61" cy="61" r="61"/><circle class="h" cx="61" cy="61" r="59.5"/></g></g><g transform="translate(354.91 5432.367)"><path class="b" d="M11.889,371.889H8V368H61.645a6.633,6.633,0,0,1,6.633,6.633v3.262a6.633,6.633,0,0,1-6.633,6.633H8v-3.889h3.889" transform="translate(-7.028 -324.569)"/><path class="c" d="M64.389,244.639h3.889v3.889H14.633A6.633,6.633,0,0,1,8,241.895v-3.262A6.633,6.633,0,0,1,14.633,232H68.278v3.889H64.389" transform="translate(-7.028 -205.097)"/><g transform="translate(4.861 4.542)"><path class="d" d="M40,400H88.855a3.646,3.646,0,0,1,3.646,3.646v1.389a3.646,3.646,0,0,1-3.646,3.646H40Z" transform="translate(-40 -357.222)"/><path class="d" d="M43.646,264H92.5v8.75H43.646A3.646,3.646,0,0,1,40,269.1v-1.389A3.706,3.706,0,0,1,43.646,264Z" transform="translate(-40 -237.75)"/><circle class="d" cx="9.236" cy="9.236" r="9.236" transform="translate(3.889 3.889)"/><circle class="d" cx="9.236" cy="9.236" r="9.236" transform="translate(27.222 3.889)"/><circle class="d" cx="2.917" cy="2.917" r="2.917" transform="translate(48.612 0)"/></g><path class="e" d="M11.039,21.666,12.7,18.627l1.662,3.039L17.4,23.329l-3.039,1.662L12.7,28.03l-1.662-3.039L8,23.329Z" transform="translate(-7.028 -17.655)"/><path class="f" d="M44.282,264a3.69,3.69,0,0,0-3.558,2.917H93.136V264Z" transform="translate(-35.775 -233.208)"/><path class="f" d="M89.579,400a3.69,3.69,0,0,1,3.558,2.917H40.724V400Z" transform="translate(-35.775 -352.68)"/><path d="M61.25,96.269a.972.972,0,0,0,.972-.972V91.408a.972.972,0,0,0-.972-.972H47.3a10.215,10.215,0,0,0,4.12-6.806h2.05V81.686H51.516a10.208,10.208,0,0,0-20.393,0H28.183a10.208,10.208,0,0,0-20.393,0H5.833V83.63h2.05A10.215,10.215,0,0,0,12,90.436h-4.4A7.614,7.614,0,0,0,0,98.041V101.3a7.587,7.587,0,0,0,2.533,5.661H.972a.972.972,0,0,0-.972.972v3.889a.972.972,0,0,0,.972.972H3.889V119.6H.972a.972.972,0,0,0-.972.972v3.889a.972.972,0,0,0,.972.972H54.617a7.614,7.614,0,0,0,7.605-7.605v-3.262a7.587,7.587,0,0,0-2.533-5.661H61.25a.972.972,0,0,0,.972-.972v-3.889a.972.972,0,0,0-.972-.972H58.334V96.269ZM41.32,73.908a8.264,8.264,0,1,1-8.264,8.264A8.264,8.264,0,0,1,41.32,73.908ZM35.337,90.436H23.969a10.215,10.215,0,0,0,4.12-6.806h3.128A10.215,10.215,0,0,0,35.337,90.436ZM9.722,82.172a8.264,8.264,0,1,1,8.264,8.264,8.264,8.264,0,0,1-8.264-8.264ZM5.833,116.686H30.139v-1.944H5.833V112.8H53.716a2.677,2.677,0,0,1,2.674,2.674v1.389a2.677,2.677,0,0,1-2.674,2.674H5.833Zm54.445-2.117v3.262a5.667,5.667,0,0,1-5.661,5.661H1.944v-1.944H4.861v-.069H53.716a4.623,4.623,0,0,0,4.618-4.618v-1.389a4.623,4.623,0,0,0-4.618-4.618H1.944v-1.944H54.617A5.667,5.667,0,0,1,60.278,114.569Zm0-7.605H7.605A5.667,5.667,0,0,1,1.944,101.3V98.041A5.667,5.667,0,0,1,7.605,92.38H60.278v1.944H8.507a4.658,4.658,0,0,0-4.618,4.687V100.4a4.623,4.623,0,0,0,4.618,4.618H60.278ZM56.389,96.269v6.806H8.507A2.677,2.677,0,0,1,5.833,100.4V99.012a2.745,2.745,0,0,1,2.674-2.743Z" transform="translate(0 -64.505)"/><path d="M184,296h25.278v1.944H184Z" transform="translate(-161.639 -261.319)"/><path d="M96,110.32h1.944a4.38,4.38,0,0,1,4.375-4.375V104A6.327,6.327,0,0,0,96,110.32Z" transform="translate(-84.333 -92.653)"/><path d="M294.32,105.944V104a6.327,6.327,0,0,0-6.32,6.32h1.945A4.38,4.38,0,0,1,294.32,105.944Z" transform="translate(-253 -92.653)"/><path d="M435.889,47.778A3.889,3.889,0,1,0,432,43.889,3.889,3.889,0,0,0,435.889,47.778Zm0-5.833a1.944,1.944,0,1,1-1.944,1.944A1.944,1.944,0,0,1,435.889,41.944Z" transform="translate(-379.5 -36.431)"/><path d="M.505,17.155l2.789,1.526L4.82,21.47a.972.972,0,0,0,1.706,0l1.526-2.789,2.789-1.526a.972.972,0,0,0,0-1.706L8.052,13.923,6.526,11.134a.972.972,0,0,0-1.706,0L3.295,13.923.505,15.449a.972.972,0,0,0,0,1.706Zm3.972-1.662a.972.972,0,0,0,.386-.386l.809-1.48.809,1.48a.972.972,0,0,0,.386.386l1.479.809-1.48.809a.972.972,0,0,0-.386.386l-.809,1.48L4.864,17.5a.972.972,0,0,0-.386-.386L3,16.3Z" transform="translate(0.001 -10.628)"/><path d="M224,64h1.944v1.944H224Z" transform="translate(-196.777 -57.514)"/><path d="M296,32h1.944v1.944H296Z" transform="translate(-260.027 -29.403)"/></g></g></svg>