<svg xmlns="http://www.w3.org/2000/svg" width="122" height="122" viewBox="0 0 122 122"><defs><style>.a{fill:#e2feff;}.b{fill:#d3a06c;}.c{fill:#ccd1d9;}.d{fill:#e6e9ed;}.e{fill:#69d6f4;}.f{fill:#f0d0b4;}.g{fill:#fcd770;}.h{fill:#b4dd7f;}</style></defs><g transform="translate(-333 -1136)"><rect class="a" width="122" height="122" rx="14" transform="translate(333 1136)"/><g transform="translate(349 1156)"><g transform="translate(2.333 2.333)"><g transform="translate(15.997 61.321)"><path class="b" d="M22,48a2.674,2.674,0,0,1,2.666,2.666V61.331a5.332,5.332,0,1,1-10.665,0V50.666A2.674,2.674,0,0,1,16.666,48H22Z" transform="translate(-14 -48)"/></g><g transform="translate(17.33 52.95)"><path class="c" d="M23,41.72v5.706a2.674,2.674,0,0,1-2.666,2.666H17.666A2.674,2.674,0,0,1,15,47.426V41.72a21.611,21.611,0,0,0,8,0Z" transform="translate(-15 -41.72)"/></g><g transform="translate(0 10.665)"><circle class="d" cx="21.5" cy="21.5" r="21.5" transform="translate(-0.333 -0.348)"/></g><g transform="translate(5.332 15.997)"><circle class="e" cx="16" cy="16" r="16" transform="translate(0.334 0.32)"/></g><g transform="translate(23.995 0)"><path class="f" d="M75.989,4.666V33.994a2.674,2.674,0,0,1-2.666,2.666H22.666A2.674,2.674,0,0,1,20,33.994V4.666A2.674,2.674,0,0,1,22.666,2H73.323a2.674,2.674,0,0,1,2.666,2.666Z" transform="translate(-20 -2)"/></g><g transform="translate(37.326 34.66)"><path class="g" d="M72.658,49.329v4l-3.386,1.08a19.368,19.368,0,0,1-1.653,4.026l1.626,3.146L63.58,67.246l-3.146-1.626a19.368,19.368,0,0,1-4.026,1.653l-1.08,3.386h-8l-1.08-3.386a19.368,19.368,0,0,1-4.026-1.653l-3.146,1.626L33.413,61.58l1.626-3.146a19.368,19.368,0,0,1-1.653-4.026L30,53.328v-8l3.386-1.08a19.368,19.368,0,0,1,1.653-4.026l-1.626-3.146,5.666-5.652,3.146,1.613a19.368,19.368,0,0,1,4.026-1.653L47.33,28h8l1.08,3.386a19.368,19.368,0,0,1,4.026,1.653l3.146-1.626,5.652,5.666-1.613,3.146a19.368,19.368,0,0,1,1.653,4.026l3.386,1.08Zm-8,0A13.331,13.331,0,1,0,51.329,62.66,13.336,13.336,0,0,0,64.66,49.329Z" transform="translate(-30 -28)"/></g><g transform="translate(63.987 5.332)"><path class="h" d="M55.332,6A5.328,5.328,0,1,1,50,11.332,5.331,5.331,0,0,1,55.332,6Z" transform="translate(-50 -6)"/></g><g transform="translate(49.324 15.997)"><path class="h" d="M46.452,15.986A4,4,0,1,1,39,18a3.871,3.871,0,0,1,.773-2.346A3.945,3.945,0,0,1,43,14,3.988,3.988,0,0,1,46.452,15.986Z" transform="translate(-39 -14)"/></g><g transform="translate(34.66 5.332)"><path class="h" d="M35.225,12.345A3.945,3.945,0,0,1,32,14a4,4,0,1,1,4-4A3.871,3.871,0,0,1,35.225,12.345Z" transform="translate(-28 -6)"/></g><g transform="translate(29.328 23.995)"><path class="h" d="M27.626,20.187a2.649,2.649,0,1,1-.96-.187A2.564,2.564,0,0,1,27.626,20.187Z" transform="translate(-24 -20)"/></g></g><g transform="translate(1 1)"><path d="M83.65,34.327V5a4,4,0,0,0-4-4H28.994a4,4,0,0,0-4,4v6.712c-.463-.031-.9-.047-1.333-.047A22.649,22.649,0,0,0,18.33,56.329v4.659a3.955,3.955,0,0,0,.535,1.961A3.991,3.991,0,0,0,17,66.32V76.985a6.665,6.665,0,0,0,13.331,0V66.32a3.991,3.991,0,0,0-1.868-3.371,3.955,3.955,0,0,0,.535-1.961V56.329a22.708,22.708,0,0,0,13.215-9.037l.988,1.92a20.017,20.017,0,0,0-1.225,2.971l-3.646,1.168v9.943l3.645,1.168A19.9,19.9,0,0,0,43.2,67.434l-1.749,3.4,7.031,7.031,3.4-1.749a20.019,20.019,0,0,0,2.971,1.225l1.17,3.646h9.943l1.168-3.645A19.958,19.958,0,0,0,70.1,76.115l3.4,1.749,7.029-7.031-1.748-3.4A19.958,19.958,0,0,0,80,64.464l3.646-1.17V53.35l-3.645-1.168a20.017,20.017,0,0,0-1.225-2.971l1.748-3.4L73.5,38.782l-3.4,1.749a19.993,19.993,0,0,0-2.971-1.225l-.316-.98H79.651a4,4,0,0,0,4-4Zm-54.656,4h8.753A14.654,14.654,0,1,1,23.662,19.663,13.324,13.324,0,0,1,25,19.739V34.327A4,4,0,0,0,28.994,38.326ZM27.661,76.985a4,4,0,1,1-8,0V66.32A1.334,1.334,0,0,1,21,64.987h5.332a1.334,1.334,0,0,1,1.333,1.333Zm-1.333-16A1.334,1.334,0,0,1,25,62.321H22.329A1.334,1.334,0,0,1,21,60.988v-4.17a22.846,22.846,0,0,0,2.666.171,22.593,22.593,0,0,0,2.666-.176Zm-2.666-6.665a20,20,0,0,1,0-39.992c.423,0,.866.021,1.333.057v2.669c-.456-.037-.9-.06-1.333-.06A17.33,17.33,0,1,0,40.5,38.326h2.729A20,20,0,0,1,23.662,54.323Zm22.265-16h9.234l-.313.978a19.934,19.934,0,0,0-2.971,1.225l-3.4-1.749-3.714,3.714A22.354,22.354,0,0,0,45.927,38.326Zm19.092,3.141.689.195A17.211,17.211,0,0,1,69.437,43.2l.624.349,2.926-1.505,4.28,4.28-1.505,2.925.349.625A17.183,17.183,0,0,1,77.649,53.6l.195.689,3.141,1v6.053l-3.141,1.005-.195.689a17.3,17.3,0,0,1-1.536,3.729l-.351.624,1.505,2.926L72.987,74.6,70.062,73.1l-.625.349a17.293,17.293,0,0,1-3.729,1.538l-.689.195-1,3.139H57.962l-1.005-3.141-.689-.195a17.3,17.3,0,0,1-3.729-1.536l-.624-.351L48.989,74.6l-4.282-4.282,1.506-2.926-.351-.624a17.312,17.312,0,0,1-1.537-3.729l-.195-.689-3.139-1V55.3l3.141-1.005.195-.689a17.3,17.3,0,0,1,1.536-3.729l.351-.624-1.506-2.926,4.282-4.28,2.926,1.505.624-.349a17.144,17.144,0,0,1,3.729-1.537l.689-.195,1-3.141h6.053Zm-9-5.807H28.994a1.334,1.334,0,0,1-1.333-1.333V5a1.334,1.334,0,0,1,1.333-1.333H79.651A1.334,1.334,0,0,1,80.984,5V34.327a1.334,1.334,0,0,1-1.333,1.333H56.017Z" transform="translate(-1 -1)"/><path d="M64.325,5a6.673,6.673,0,0,0-6.665,6.665,6.6,6.6,0,0,0,.379,2.124l-5.927,3.458a5.269,5.269,0,0,0-7.153-.348l-6.344-4.614a5.329,5.329,0,1,0-8.042,2.374L27.1,23.674c-.036,0-.069-.011-.105-.011a4.047,4.047,0,1,0,2.59.977L33.066,15.6a4.92,4.92,0,0,0,.6.061,5.278,5.278,0,0,0,3.37-1.234l6.344,4.614a5.343,5.343,0,1,0,10.061.515l5.941-3.466A6.653,6.653,0,1,0,64.325,5ZM27,29a1.333,1.333,0,1,1,1.333-1.333A1.334,1.334,0,0,1,27,29Zm6.665-16a2.666,2.666,0,1,1,2.666-2.666A2.669,2.669,0,0,1,33.665,13ZM48.328,23.663A2.666,2.666,0,1,1,50.994,21,2.669,2.669,0,0,1,48.328,23.663Zm16-8a4,4,0,1,1,4-4A4,4,0,0,1,64.325,15.665Z" transform="translate(6.328 0.332)"/><path d="M57,23h2.666v2.666H57Z" transform="translate(17.652 6.328)"/><path d="M49,23h2.666v2.666H49Z" transform="translate(14.987 6.328)"/><path d="M53,23h2.666v2.666H53Z" transform="translate(16.32 6.328)"/><path d="M49,19H62.331v2.666H49Z" transform="translate(14.987 4.995)"/><path d="M11.666,26H9A12.011,12.011,0,0,0,21,38V35.331A9.343,9.343,0,0,1,11.666,26Z" transform="translate(1.665 7.327)"/><path d="M55.331,44H52.665A6.673,6.673,0,0,1,46,50.665v2.666A9.343,9.343,0,0,0,55.331,44Z" transform="translate(13.988 13.322)"/><path d="M35,47.664A14.664,14.664,0,1,0,49.664,33,14.681,14.681,0,0,0,35,47.664Zm14.664-12a12,12,0,1,1-12,12A12.011,12.011,0,0,1,49.664,35.666Z" transform="translate(10.324 9.658)"/></g></g></g></svg>