<svg xmlns="http://www.w3.org/2000/svg" width="122" height="122" viewBox="0 0 122 122"><defs><style>.a{fill:#e2feff;}.b{fill:#eae8ca;}.c{fill:#6a9fd3;}.d{fill:#ffb74d;}.e{fill:#222426;}</style></defs><g transform="translate(-333 -800)"><rect class="a" width="122" height="122" rx="14" transform="translate(333 800)"/><g transform="translate(333.856 816.768)"><g transform="translate(41.906 12.492)"><path class="b" d="M173.471,188.99l9.327-2.021V182.15a16.28,16.28,0,0,0-4.663-.777v-6.684h0a11.452,11.452,0,0,1-2.176.622H175.8c-.311,0-.777.155-1.088.155h-2.487c-.311,0-.777-.155-1.088-.155h-.155c-.777-.155-1.4-.466-2.176-.622h0v6.529a16.28,16.28,0,0,0-4.663.777v4.819Z" transform="translate(-157.926 -153.238)"/><path class="b" d="M145.357,86.362c.311,0,.777.155,1.088.155h2.487c.311,0,.777-.155,1.088-.155h.155c.777-.155,1.4-.466,2.176-.622a12.848,12.848,0,0,0,2.021-1.088c5.6-3.886,8.86-7.15,8.86-13.99v-.777l-10.881-5.6-20.208,3.575v2.643a11.765,11.765,0,0,0,.155,2.332c0,.311.155.622.155.933a2.882,2.882,0,0,0,.311,1.088,2.247,2.247,0,0,1,.311,1.088c.155.311.155.466.311.777a3.9,3.9,0,0,0,.622,1.088c.155.155.155.466.311.622.311.311.466.777.777,1.088.155.155.311.311.311.466a7.182,7.182,0,0,0,1.088,1.088l.311.311c.466.311.777.777,1.244,1.088.155,0,.155.155.311.155a16.283,16.283,0,0,0,1.71,1.244,3.39,3.39,0,0,1,.777.622,8.375,8.375,0,0,0,2.021,1.088,11.45,11.45,0,0,0,2.176.622A.481.481,0,0,0,145.357,86.362Z" transform="translate(-132.144 -64.289)"/></g><path class="c" d="M163.233,213.354a19.373,19.373,0,0,0-6.218-1.865v5.13l-9.327,2.021-9.327-2.021v-5.13a24.269,24.269,0,0,0-6.218,1.865v14.3c0,1.865,2.021,3.42,4.663,3.42H158.57c2.643,0,4.663-1.554,4.663-3.42v-14.3Z" transform="translate(-90.238 -170.395)"/><g transform="translate(32.58 23.373)"><path class="b" d="M93.471,238.279v-13.99c-5.751,5.6-9.327,15.389-9.327,23.317,0,3.731.155,11.658,2.643,13.99h5.13l-.466-2.487C90.828,254.6,91.45,242.321,93.471,238.279Z" transform="translate(-84.144 -204.081)"/><path class="b" d="M309.088,123.4h0l-.933,14.456a4.6,4.6,0,0,1-4.663,4.2H292.144v10.881l18.032-3.886a4.644,4.644,0,0,0,3.731-4.508V120.289h-4.663Z" transform="translate(-251.728 -120.289)"/></g><g transform="translate(77.659 21.819)"><path class="c" d="M316.144,112.289v9.327h6.218v-9.327Z" transform="translate(-316.144 -112.289)"/><rect class="c" width="6.218" height="9.327" transform="translate(20.208)"/></g><path class="d" d="M137.9,11.556a16.488,16.488,0,0,0-2.332,2.332c0,.155-.155.155-.155.311-.311.311-.466.622-.777.933-.155.155-.155.311-.311.466l-.466.933c-.155.155-.155.311-.311.622s-.155.466-.311.777c0,.155-.155.311-.155.466v.155c-.155.311-.155.622-.311.777,0,.155-.155.311-.155.466a2.3,2.3,0,0,0-.155,1.088.571.571,0,0,1-.155.466c0,.311-.155.777-.155,1.088v.155l20.208-3.575,10.881,5.441V23.68A15.57,15.57,0,0,0,146.6,8.136c-.466,0-.933.155-1.554.155a.571.571,0,0,0-.466.155c-.311,0-.622.155-.933.155-.155,0-.466.155-.622.155-.311,0-.466.155-.777.311-.155.155-.466.155-.622.311s-.466.155-.622.311-.466.155-.622.311-.311.155-.622.311a2.146,2.146,0,0,0-.622.466c-.155.155-.311.155-.466.311-.311,0-.466.311-.777.466Z" transform="translate(-90.238 -6.525)"/><path class="c" d="M28.144,392.289v9.327h6.218v-9.327Z" transform="translate(-6.446 -316.064)"/><path class="b" d="M148.144,312.289a20.687,20.687,0,0,1,0,15.545h3.109v1.554h21.762l-.622-2.021a21.042,21.042,0,0,1,.466-14.456l.155-.622H148.144Z" transform="translate(-103.129 -251.609)"/><path class="d" d="M105.979,50.093A8.886,8.886,0,0,1,104.735,49l-.311-.311a7.181,7.181,0,0,1-1.088-1.088c-.155-.155-.311-.311-.311-.466a2.788,2.788,0,0,1-.777-1.088,1.178,1.178,0,0,1-.311-.622,6.758,6.758,0,0,1-.622-1.088c-.155-.311-.155-.466-.311-.777a2.247,2.247,0,0,1-.311-1.088c-.155-.311-.155-.777-.311-1.088,0-.311-.155-.622-.155-.933a4.3,4.3,0,0,1-.311-2.176V35.637h0v-1.4h0c0-.311.155-.466.155-.777,0-.155.155-.311.155-.466h0v-.155a9.906,9.906,0,0,0,.311-1.088c0-.155.155-.311.155-.466a7.579,7.579,0,0,0,.466-1.088.152.152,0,0,1,.155-.155h0a.152.152,0,0,1,.155-.155c.155-.311.311-.466.466-.777l.155-.155a3.252,3.252,0,0,1,.622-.933c0-.155.155-.155.155-.311a3.252,3.252,0,0,1,.622-.933l.311-.311c.155-.311.466-.466.622-.777l.155-.155.622-.622.311-.311a12.081,12.081,0,0,0-2.487-.311A10.814,10.814,0,0,0,92.144,35.17V58.487A21.957,21.957,0,0,0,108,51.647h0c-.622-.466-1.088-.777-1.71-1.244Z" transform="translate(-58.01 -19.569)"/><path class="c" d="M108.144,415.834h0c0-4.974,1.71-11.658,4.819-15.545h27.825l1.4,1.71a22.337,22.337,0,0,1,4.819,13.835H108.144Z" transform="translate(-70.901 -322.51)"/><path class="e" d="M104.085,20.264H97.867a1.469,1.469,0,0,0-1.554,1.554v1.554a1.469,1.469,0,0,0-1.554-1.554H90.094a1.534,1.534,0,0,0-1.554,1.4l-.155,1.71H85.431V21.819a1.469,1.469,0,0,0-1.554-1.554H77.659A1.469,1.469,0,0,0,76.1,21.819v9.327A1.469,1.469,0,0,0,77.659,32.7h6.218a1.469,1.469,0,0,0,1.554-1.554V28.037h2.8l-.777,12.747a3.181,3.181,0,0,1-3.109,2.8H74.55v-.622a1.494,1.494,0,0,0-.933-1.4,22.38,22.38,0,0,0-6.684-2.021h-.777a16.262,16.262,0,0,0-2.643-.622v-4.2c.466-.311.933-.466,1.4-.777,5.285-3.731,9.482-7.306,9.482-15.234V17.156A17.055,17.055,0,0,0,68.954,4.72,6.086,6.086,0,0,0,67.4,3.476a15.39,15.39,0,0,0-6.062-2.8A10.486,10.486,0,0,0,56.363.057c-.622,0-1.088.155-1.554.155-.155,0-.466.155-.622.155-.311,0-.622.155-.933.155a1.187,1.187,0,0,0-.777.311c-.155,0-.466.155-.622.155-.311.155-.622.155-.933.311-.155,0-.311.155-.622.155l-.933.466c-.155.155-.311.155-.466.311a3.252,3.252,0,0,0-.933.622c-.155.155-.311.155-.311.311-.155.155-.311.155-.311.311a12.434,12.434,0,0,0-14.612,12.28V39.073a1.469,1.469,0,0,0,1.554,1.554A23.384,23.384,0,0,0,50.3,34.255a3.9,3.9,0,0,0,1.088.622v4.2a16.262,16.262,0,0,0-2.643.622.706.706,0,0,0-.777,0,30.4,30.4,0,0,0-6.684,2.021,1.787,1.787,0,0,0-.933,1.4h0c-5.441,5.751-9.327,15.389-9.327,23.939,0,4.2.155,9.171,1.4,12.436H29.471V76.38a1.469,1.469,0,0,0-1.554-1.554H21.7a1.469,1.469,0,0,0-1.554,1.554v9.327A1.469,1.469,0,0,0,21.7,87.261h6.218a1.469,1.469,0,0,0,1.554-1.554V82.6h8.86a24.414,24.414,0,0,0-2.643,10.881H38.8a22.336,22.336,0,0,1,1.554-7.772h0a1.469,1.469,0,0,0,1.554,1.554h6.218a1.469,1.469,0,0,0,1.554-1.554V79.489H69.109l.933,1.088A19.95,19.95,0,0,1,74.55,93.324h3.109a23.985,23.985,0,0,0-5.13-14.767L71.286,77l-.622-1.865a19.778,19.778,0,0,1,.466-13.368l.155-.155a4.93,4.93,0,0,0,3.42-4.352h0l16.788-3.575a6.311,6.311,0,0,0,4.974-6.062V31.146A1.469,1.469,0,0,0,98.022,32.7h6.218a1.469,1.469,0,0,0,1.554-1.554V21.819A1.7,1.7,0,0,0,104.085,20.264ZM82.322,29.591H79.213V23.373h3.109ZM26.362,84H23.253V77.779h3.109ZM63.2,31.456c-.622.311-1.088.622-1.71.933h0a8.764,8.764,0,0,1-1.865.622h-.155c-.311,0-.622.155-.933.155H56.518c-.311,0-.622-.155-.933-.155H55.43a8.764,8.764,0,0,1-1.865-.622h0a16.956,16.956,0,0,1-1.71-.933c-.311-.155-.622-.466-.933-.622-.466-.311-1.088-.777-1.554-1.088L48.9,29.28a4.121,4.121,0,0,0-.933-.777c-.311-.155-.466-.466-.777-.622l-.622-.622c-.311-.311-.466-.622-.777-.933l-.466-.466c-.155-.311-.466-.622-.622-.933-.155-.155-.155-.311-.311-.466-.155-.311-.311-.777-.466-1.088,0-.155-.155-.311-.155-.466-.155-.466-.155-.777-.311-1.244,0-.155-.155-.311-.155-.466a15.133,15.133,0,0,0,.155-2.487v-1.4L61.8,14.047l9.482,4.819C71.441,24.617,68.8,27.57,63.2,31.456ZM49.99,5.186c.155-.155.466-.155.622-.311s.311-.155.466-.311.311-.155.622-.311c.155-.155.311-.155.622-.311.155,0,.311-.155.622-.155.155,0,.466-.155.622-.155s.311-.155.466-.155c.311,0,.466-.155.777-.155a.571.571,0,0,0,.466-.155c.466,0,.777-.155,1.244-.155a14.11,14.11,0,0,1,10.57,3.731l.933.933.311.311a2.729,2.729,0,0,0,.622.777c.155.155.155.311.311.466.155.311.311.466.466.777.155.155.155.311.311.466.155.311.311.466.311.777,0,.155.155.311.155.466a2.209,2.209,0,0,1,.311.933c0,.155,0,.155.155.311a3.658,3.658,0,0,1,.311,1.244v.311c0,.311.155.466.155.777l-8.55-4.2a1.4,1.4,0,0,0-.777-.155H61.8L43.772,14.2c0-.155.155-.466.155-.622,0-.311.155-.466.155-.777,0-.155.155-.311.155-.622a2.209,2.209,0,0,0,.311-.933c0-.155.155-.155.155-.311.155-.466.466-.777.622-1.244V9.539A6.581,6.581,0,0,1,46.1,8.451h0A14.4,14.4,0,0,1,48.28,6.274h0A3.385,3.385,0,0,1,49.523,5.5C49.834,5.342,49.99,5.342,49.99,5.186ZM35.689,15.6a9.424,9.424,0,0,1,8.394-9.327,3.391,3.391,0,0,1-.622.777l-.155.155A3.9,3.9,0,0,0,42.684,8.3a.152.152,0,0,1-.155.155,3.841,3.841,0,0,1-.622,1.4v.155h0c-.155.466-.311.777-.466,1.244h0V11.4a2.882,2.882,0,0,0-.311,1.088.571.571,0,0,1-.155.466c0,.311-.155.622-.155.933a1.4,1.4,0,0,1-.155.777,1.4,1.4,0,0,1-.155.777v3.109a7.568,7.568,0,0,0,.155,1.865v.622a5.523,5.523,0,0,0,.311,1.554c0,.155.155.466.155.622.155.311.155.622.311.933a1.178,1.178,0,0,0,.311.622,9.23,9.23,0,0,0,.622,1.244c0,.155.155.311.311.466a21.791,21.791,0,0,0,5.13,5.6A20.877,20.877,0,0,1,36,37.208C35.689,37.363,35.689,15.6,35.689,15.6Zm17.1,26.426a1.469,1.469,0,0,0,1.554-1.554V35.964h.311a3.423,3.423,0,0,0,1.244.155h.311c.466,0,.777.155,1.244.155a3.423,3.423,0,0,0,1.244-.155h.311c.466,0,.777-.155,1.244-.155h.311v4.508a1.469,1.469,0,0,0,1.554,1.554,10.771,10.771,0,0,1,3.109.466V44.98l-7.772,1.71-7.772-1.71V42.493A10.771,10.771,0,0,1,52.788,42.027ZM43.772,61.613a19.788,19.788,0,0,1,.155,13.057H41.906c-.311,0-.466,0-.622.155a57.332,57.332,0,0,1,1.244-13.835A3.124,3.124,0,0,0,43.772,61.613ZM34.134,66.9a35,35,0,0,1,6.218-19.12V57.26c-2.021,4.663-2.8,16.788-2.021,21.451l.155.622H35.844C35.067,78.09,34.134,74.826,34.134,66.9ZM46.57,84H43.461V77.779H46.57Zm3.109-7.772a1.469,1.469,0,0,0-1.554-1.554h-.933a21.192,21.192,0,0,0,0-12.436H67.71a22.647,22.647,0,0,0,.155,13.99H49.679ZM71.441,57.26c0,.777-1.4,1.865-3.109,1.865H46.57c-1.71,0-3.109-.933-3.109-1.865V43.892A18.287,18.287,0,0,1,46.57,42.8v3.264a1.514,1.514,0,0,0,1.244,1.554l9.327,2.021h.622l9.327-2.021a1.514,1.514,0,0,0,1.244-1.554V42.8a18.287,18.287,0,0,1,3.109,1.088V57.26ZM93.2,47.623a3.314,3.314,0,0,1-2.487,3.109L74.55,54.152V46.69h9.793a6.258,6.258,0,0,0,6.218-5.751l.933-16.011H93.2Zm9.327-18.032H99.421V23.373h3.109Z" transform="translate(0 0)"/></g></g></svg>