<svg xmlns="http://www.w3.org/2000/svg" width="122" height="122" viewBox="0 0 122 122"><defs><style>.a{fill:#e2feff;}.b{fill:#aae1f9;}.c{fill:#e59730;}.d{fill:#f9e109;}.e{fill:#fcbc04;}.f{fill:#57b7eb;}.g{fill:#d0d8da;}.h{fill:#93999a;}.i{fill:#656b76;}.j{fill:#323232;}</style></defs><g transform="translate(-333 -971)"><rect class="a" width="122" height="122" rx="14" transform="translate(333 971)"/><g transform="translate(348 987.396)"><g transform="translate(10.383 3.477)"><path class="b" d="M51.162,59.733h3.466V53.826H51.162a8.86,8.86,0,0,0-1.617-2.8l1.734-3-5.115-2.953-1.734,3a8.8,8.8,0,0,0-3.231,0l-1.734-3-5.115,2.953,1.732,2.993a8.586,8.586,0,0,0-1.616,2.806H31v5.907h3.466a8.861,8.861,0,0,0,1.617,2.8l-1.734,3,5.115,2.953,1.734-3a8.8,8.8,0,0,0,3.231,0l1.734,3,5.115-2.953-1.732-2.993a8.586,8.586,0,0,0,1.616-2.806Zm-5.79-1.477a2.953,2.953,0,1,1-1.081-4.034A2.953,2.953,0,0,1,45.372,58.256Z" transform="translate(2.966 17.057)"/><g transform="translate(16.206)"><path class="c" d="M46,31v7.384a4.43,4.43,0,0,0,4.43,4.43,1.892,1.892,0,0,1,1.836,1.432l.647,2.59a2.488,2.488,0,0,0,4.9-.6V31Z" transform="translate(-6.089 10.348)"/><path class="d" d="M79.558,29.581a8.86,8.86,0,0,0-5.932-8.355c.007-.168.025-.334.025-.505A10.337,10.337,0,0,0,63.314,10.384c-.275,0-.545.021-.814.041a15.478,15.478,0,0,0-27.263,1.551,10.247,10.247,0,0,0-11.75,9.345A7.373,7.373,0,1,0,30.94,33.884a8.837,8.837,0,0,0,13.4,6.182,7.292,7.292,0,0,0,7.245.662,7.359,7.359,0,0,0,7.3,6.574c.09,0,.174-.024.263-.027a4.4,4.4,0,0,0,8.335,0c.089,0,.173.027.263.027a7.384,7.384,0,0,0,7.384-7.384,7.305,7.305,0,0,0-.443-2.432,8.86,8.86,0,0,0,4.873-7.9Z" transform="translate(-18.974 -3)"/><g transform="translate(0.006 5.222)"><path class="e" d="M72.173,36.944c-.09,0-.174-.024-.263-.027a4.4,4.4,0,0,1-8.335,0c-.089,0-.173.027-.263.027a7.359,7.359,0,0,1-7.3-6.574,7.208,7.208,0,0,1-6.645-.309A14.745,14.745,0,0,1,31.151,9.239a10.337,10.337,0,0,0-7.66,9.111,7.373,7.373,0,1,0,7.453,12.564,8.837,8.837,0,0,0,13.391,6.177,7.292,7.292,0,0,0,7.245.662,7.359,7.359,0,0,0,7.3,6.574c.09,0,.174-.024.263-.027a4.4,4.4,0,0,0,8.335,0c.089,0,.173.027.263.027a7.384,7.384,0,0,0,7.384-7.384c0-.2-.038-.394-.058-.591a7.36,7.36,0,0,1-2.9.591Z" transform="translate(-18.978 -5.247)"/><path class="e" d="M56.765,24.715A17.626,17.626,0,0,1,48.2,22.5a8.849,8.849,0,0,0,17.139,0A17.626,17.626,0,0,1,56.765,24.715Z" transform="translate(-5.047 1.075)"/><path class="e" d="M36.115,18.477a4.43,4.43,0,0,1,4.43,4.43,5.848,5.848,0,0,1,5.8,6.951,5.882,5.882,0,0,0-3.077-9.767,4.393,4.393,0,0,0-7.512-1.579c.121-.009.235-.035.357-.035Z" transform="translate(-10.978 -1.547)"/><path class="e" d="M36.316,9.3a10.386,10.386,0,0,0-3.86-2.761,15.571,15.571,0,0,0-2.469,3.754,10.319,10.319,0,0,1,6.335,3.439,5.869,5.869,0,0,1,2.544-.6H38.9a7.359,7.359,0,0,1,4.122-2.723,5.835,5.835,0,0,0-6.7-1.111Z" transform="translate(-13.729 -6.536)"/><path class="e" d="M40.337,9.474a7.384,7.384,0,0,1,7.384,7.384,7.383,7.383,0,0,1-.1,1.044,5.889,5.889,0,0,0-8.323-8.323A7.384,7.384,0,0,1,40.337,9.474Z" transform="translate(-9.293 -5.835)"/></g></g><path class="f" d="M49.9,61.568a17.591,17.591,0,0,1-5.625-2.7,2.945,2.945,0,0,1-4.021-4.027,17.573,17.573,0,0,1-3.271-8.8l-2.636,1.523,1.732,3a8.586,8.586,0,0,0-1.616,2.806H31v5.907h3.466a8.861,8.861,0,0,0,1.617,2.8l-1.734,3,5.115,2.953,1.734-3a8.8,8.8,0,0,0,3.231,0l1.734,3,5.115-2.953-1.732-2.993C49.678,61.916,49.781,61.732,49.9,61.568Z" transform="translate(2.966 17.518)"/><g transform="translate(0 41.34)"><path class="d" d="M31.628,42.817a11.814,11.814,0,1,0-19.2,9.215v2.6H27.2v-2.6A11.79,11.79,0,0,0,31.628,42.817Z" transform="translate(-7.999 -30.994)"/><rect class="g" width="21" height="6" rx="2" transform="translate(1.617 23.788)"/><path class="h" d="M11,51H25.767v1.477a7.384,7.384,0,1,1-14.767,0Z" transform="translate(-6.569 -21.457)"/><path class="e" d="M15.382,38.309a13.214,13.214,0,0,1,2.1-7.152,11.814,11.814,0,0,0-5.053,20.8v2.6H27.2v-2.6c.158-.127.3-.272.452-.406A13.283,13.283,0,0,1,15.382,38.309Z" transform="translate(-7.997 -30.917)"/><path class="h" d="M11.953,47a2.953,2.953,0,1,0,0,5.907H26.721a2.953,2.953,0,0,0,2.953-2.953H14.907A2.953,2.953,0,0,1,11.953,47Z" transform="translate(-7.523 -23.364)"/><path class="i" d="M22.814,53.953H25.62a7.365,7.365,0,0,0,.148-1.477V51H11v1.477a7.369,7.369,0,0,0,4.734,6.873A7.363,7.363,0,0,1,22.814,53.953Z" transform="translate(-6.569 -21.457)"/></g></g><g transform="translate(3 2)"><path class="j" d="M26.861,37.442a8.63,8.63,0,0,0,3.618-.792,10.319,10.319,0,0,0,13.463,5.973,1.477,1.477,0,0,0-1.09-2.745,7.294,7.294,0,0,1-2.7.517,7.425,7.425,0,0,1-7.288-6.257,1.477,1.477,0,0,0-2.373-.938,5.82,5.82,0,0,1-3.63,1.288,5.907,5.907,0,0,1-2.326-11.334,1.477,1.477,0,0,0,.886-1.233,8.9,8.9,0,0,1,8.823-8.107,8.62,8.62,0,0,1,1.249.1h.05a8.744,8.744,0,0,1,4.145,1.8A7.336,7.336,0,0,0,37.2,21.2a1.477,1.477,0,0,0,2.953,0,4.43,4.43,0,0,1,4.43-4.43,1.477,1.477,0,0,0,0-2.953,7.3,7.3,0,0,0-2.156.359,11.706,11.706,0,0,0-4.489-2.711A14.073,14.073,0,0,1,49.75,4.953a13.9,13.9,0,0,1,7.772,2.363,1.477,1.477,0,0,0,1.644-2.453A16.835,16.835,0,0,0,49.75,2a17.049,17.049,0,0,0-14.915,8.878c-.2-.018-.394-.018-.591-.018a11.883,11.883,0,0,0-11.666,9.964,8.86,8.86,0,0,0,4.283,16.618Z" transform="translate(4.15 -2)"/><path class="j" d="M86.738,27.673a10.346,10.346,0,0,0-5.917-9.336A11.8,11.8,0,0,0,61.18,9.994a8.073,8.073,0,0,0-4.715-1.518,1.477,1.477,0,0,0,0,2.953A5.169,5.169,0,0,1,61.633,16.6a1.477,1.477,0,1,0,2.953,0,8.066,8.066,0,0,0-1.357-4.485,8.853,8.853,0,0,1,14.648,6.7c0,.08-.007.158-.012.236l-.013.193a1.477,1.477,0,0,0,.986,1.477,7.372,7.372,0,0,1,.886,13.548c-.012,0-.018.016-.03.024A7.367,7.367,0,0,1,71.183,32.9,1.477,1.477,0,1,0,69.1,34.99a10.206,10.206,0,0,0,10.221,2.594c.013.148.041.3.041.433a5.907,5.907,0,0,1-5.838,5.907c-.05,0-.221-.025-.273-.027a1.477,1.477,0,0,0-1.453.989,2.928,2.928,0,0,1-5.547,0,1.453,1.453,0,0,0-1.453-.989.738.738,0,0,0-.207.019,5.852,5.852,0,0,1-5.7-4.634,7.348,7.348,0,0,0-3.19-12.945,5.177,5.177,0,0,0-5.135-4.572,1.477,1.477,0,1,0,0,2.953,2.215,2.215,0,0,1,2.215,2.215v.738A1.477,1.477,0,0,0,54.25,29.15a4.43,4.43,0,1,1,0,8.86,1.477,1.477,0,1,0,0,2.953,7.3,7.3,0,0,0,1.935-.3,8.794,8.794,0,0,0,6.926,6.044v3.111a5.907,5.907,0,0,0,5.907,5.907.412.412,0,0,1,.4.315l.648,2.59a3.9,3.9,0,0,0,4.857,2.855v7.531a4.43,4.43,0,0,1-4.43,4.43H67.54V71.975A1.477,1.477,0,0,0,66.064,70.5H63.583a10.244,10.244,0,0,0-.83-1.437l1.242-2.149a1.477,1.477,0,0,0-.542-2.017l-5.115-2.953a1.477,1.477,0,0,0-2.019.54L55.08,64.631a10.574,10.574,0,0,0-1.661,0l-1.236-2.149a1.477,1.477,0,0,0-2.019-.54L45.048,64.9a1.477,1.477,0,0,0-.542,2.017l1.239,2.144c-.159.23-.309.464-.443.7s-.264.483-.382.738H42.436a1.477,1.477,0,0,0-1.477,1.477v1.477a7.393,7.393,0,0,0-7.384,7.384,4.43,4.43,0,0,1-4.43,4.43H26.192a4.42,4.42,0,0,1-4.21-3.12,8.874,8.874,0,0,0,7.164-8.695V73.18a4.4,4.4,0,0,0,0-8.317v-.715a13.249,13.249,0,0,0,2.58-16.641,1.477,1.477,0,0,0-2.544,1.5,10.3,10.3,0,0,1-2.437,13.3,1.477,1.477,0,0,0-.552,1.152v1.127h-1.3l1.3-11.651a1.477,1.477,0,0,0-1.935-1.564L20.285,52.7l-3.964-1.322a1.477,1.477,0,0,0-1.935,1.564l1.3,11.651h-1.3V63.469a1.477,1.477,0,0,0-.552-1.152,10.327,10.327,0,0,1,11.7-16.96,1.477,1.477,0,1,0,1.5-2.543,13.282,13.282,0,0,0-15.6,21.334v.71a4.4,4.4,0,0,0,0,8.317v.276A8.86,8.86,0,0,0,18.946,82.2a7.384,7.384,0,0,0,7.246,6.019h2.953a7.393,7.393,0,0,0,7.384-7.384,4.43,4.43,0,0,1,4.43-4.43v1.477a1.477,1.477,0,0,0,1.477,1.477h2.481a10.244,10.244,0,0,0,.83,1.437L44.5,82.944a1.477,1.477,0,1,0,2.559,1.477l1.735-3a1.477,1.477,0,0,0-.157-1.7,7.323,7.323,0,0,1-1.347-2.33,1.477,1.477,0,0,0-1.391-.985H43.913V73.452H45.9a1.477,1.477,0,0,0,1.391-.982,7.044,7.044,0,0,1,1.348-2.337,1.477,1.477,0,0,0,.157-1.7l-1-1.722,2.558-1.477.994,1.722a1.477,1.477,0,0,0,1.549.715,7.334,7.334,0,0,1,2.692,0,1.477,1.477,0,0,0,1.549-.713l1-1.725L60.7,66.713l-1,1.725a1.477,1.477,0,0,0,.157,1.7,7.323,7.323,0,0,1,1.347,2.33,1.477,1.477,0,0,0,1.393.985h1.991V76.4H62.6a1.477,1.477,0,0,0-1.391.982,7.617,7.617,0,0,1-.561,1.233,7.422,7.422,0,0,1-.787,1.1,1.477,1.477,0,0,0-.157,1.7l1,1.722-2.558,1.477L57.146,82.9a1.477,1.477,0,0,0-1.549-.715,7.4,7.4,0,0,1-2.692,0,1.477,1.477,0,0,0-1.549.713l-1.734,3a1.477,1.477,0,1,0,2.559,1.477l1.239-2.149a10.211,10.211,0,0,0,1.66,0l1.239,2.147a1.477,1.477,0,0,0,2.019.54l5.115-2.953a1.477,1.477,0,0,0,.542-2.017l-1.239-2.144c.159-.23.309-.464.443-.7s.263-.483.382-.738h2.482a1.477,1.477,0,0,0,1.477-1.477V76.405h2.953a7.393,7.393,0,0,0,7.384-7.384V50.677a1.477,1.477,0,0,0-2.953,0v7a1.012,1.012,0,0,1-1.994.245l-.647-2.589a3.361,3.361,0,0,0-3.267-2.552,2.953,2.953,0,0,1-2.953-2.953v-.8a5.863,5.863,0,0,0,8.064-2.178,8.872,8.872,0,0,0,8.18-8.834,8.2,8.2,0,0,0-.188-1.732,10.282,10.282,0,0,0,4.618-8.6ZM17.577,54.908l2.242.747a1.477,1.477,0,0,0,.933,0l2.242-.747-1.084,9.683H18.661ZM12.9,67.545H27.669a1.477,1.477,0,1,1,0,2.953H12.9a1.477,1.477,0,1,1,0-2.953Zm1.477,5.907H26.192a5.907,5.907,0,1,1-11.814,0Z" transform="translate(-1.087 0.385)"/><path class="j" d="M34.43,27.907a1.477,1.477,0,0,0,0-2.953,1.477,1.477,0,0,1-1.477-1.477,1.477,1.477,0,1,0-2.953,0A4.43,4.43,0,0,0,34.43,27.907Z" transform="translate(9.872 7.535)"/><path class="j" d="M30.907,12A5.907,5.907,0,0,0,25,17.907a1.477,1.477,0,0,0,2.953,0,2.953,2.953,0,0,1,2.953-2.953,1.477,1.477,0,0,0,0-2.953Z" transform="translate(7.488 2.767)"/><path class="j" d="M24.953,20.477a1.477,1.477,0,1,0-2.953,0,2.953,2.953,0,0,0,2.953,2.953,1.477,1.477,0,0,0,0-2.953Z" transform="translate(6.058 6.104)"/><path class="j" d="M36.312,16.8a1.477,1.477,0,0,0,2.088,0,3.023,3.023,0,0,1,4.176,0,1.477,1.477,0,1,0,2.088-2.088,6.044,6.044,0,0,0-8.353,0,1.477,1.477,0,0,0,0,2.088Z" transform="translate(12.675 3.262)"/><path class="j" d="M52.477,20A1.477,1.477,0,0,0,51,21.477a4.43,4.43,0,0,0,4.43,4.43,1.477,1.477,0,0,0,0-2.953,1.477,1.477,0,0,1-1.477-1.477A1.477,1.477,0,0,0,52.477,20Z" transform="translate(19.883 6.581)"/><path class="j" d="M48.43,16.477a2.953,2.953,0,0,1-2.953,2.953,1.477,1.477,0,0,0,0,2.953,5.907,5.907,0,0,0,5.907-5.907,1.477,1.477,0,0,0-2.953,0Z" transform="translate(16.546 4.198)"/><path class="j" d="M49.477,11a1.477,1.477,0,1,0,0,2.953,2.953,2.953,0,0,1,2.953,2.953,1.477,1.477,0,1,0,2.953,0A5.907,5.907,0,0,0,49.477,11Z" transform="translate(18.453 2.291)"/><path class="j" d="M45,28.477a4.43,4.43,0,0,0,4.43,4.43,1.477,1.477,0,0,0,0-2.953,1.477,1.477,0,0,1-1.477-1.477,1.477,1.477,0,1,0-2.953,0Z" transform="translate(17.023 9.918)"/><circle class="j" cx="1.5" cy="1.5" r="1.5" transform="translate(49 5.604)"/><circle class="j" cx="1.5" cy="1.5" r="1.5" transform="translate(52 32.604)"/><circle class="j" cx="1.5" cy="1.5" r="1.5" transform="translate(63 27.604)"/><circle class="j" cx="1.5" cy="1.5" r="1.5" transform="translate(40 23.604)"/><path class="j" d="M40.424,58.86a4.43,4.43,0,1,0-4.277-3.286,4.439,4.439,0,0,0,4.277,3.286Zm-1.271-5.169a1.477,1.477,0,1,1,.54,2.017A1.477,1.477,0,0,1,39.153,53.692Z" transform="translate(12.731 20.883)"/><circle class="j" cx="1.5" cy="1.5" r="1.5" transform="translate(0 53.604)"/><circle class="j" cx="1.5" cy="1.5" r="1.5" transform="translate(35 53.604)"/><circle class="j" cx="1.5" cy="1.5" r="1.5" transform="translate(18 35.604)"/><path class="j" d="M6.823,32.2a1.477,1.477,0,1,0,.54,2.017A1.477,1.477,0,0,0,6.823,32.2Z" transform="translate(-2.234 12.302)"/><path class="j" d="M26.13,46.756a1.477,1.477,0,1,0-.54-2.017,1.477,1.477,0,0,0,.54,2.017Z" transform="translate(7.675 18.023)"/><circle class="j" cx="1.477" cy="1.477" r="1.477" transform="translate(26.258 38.246) rotate(-15.009)"/><path class="j" d="M27.607,34.756a1.477,1.477,0,1,0-2.017-.54A1.477,1.477,0,0,0,27.607,34.756Z" transform="translate(7.675 12.302)"/><path class="j" d="M5.346,44.2a1.477,1.477,0,1,0,2.017.54,1.477,1.477,0,0,0-2.017-.54Z" transform="translate(-2.234 18.023)"/><path class="j" d="M11.215,30.364a1.477,1.477,0,1,0-2.017-.54,1.477,1.477,0,0,0,2.017.54Z" transform="translate(-0.14 10.208)"/></g></g></g></svg>