<svg xmlns="http://www.w3.org/2000/svg" width="122" height="122" viewBox="0 0 122 122"><defs><style>.a{fill:#b7baf4;}.b{fill:#63c8cd;}.c{fill:#ef9f35;}.d{fill:#f7d04f;}.e{fill:#3c3c48;}</style></defs><g transform="translate(-875 -970)"><rect class="a" width="122" height="122" rx="14" transform="translate(875 970)"/><g transform="translate(888.242 981)"><path class="b" d="M20.7,164.55l4.686-6.6-6.336-6.6,6.6-6.6V192.6h9.9V164.55H50.4V176.1h9.9V161.25a6.6,6.6,0,0,0-6.6-6.6H42.154V143.1l23.1-16.5L60.3,120l-21.45,14.85-4.95,9.9-4.95-9.9h-6.6L11.7,146.7a6.6,6.6,0,0,0,.231,9.075Z" transform="translate(-6.269 -95.25)"/><path class="c" d="M111.8,192h-9.9l4.95,9.9Z" transform="translate(-79.212 -152.4)"/><circle class="b" cx="9.9" cy="9.9" r="9.9" transform="translate(16.085 19.8)"/><path class="c" d="M173.9,392v16.5h33V392h-33Z" transform="translate(-136.362 -311.15)"/><path class="d" d="M366.671,23.517a13.2,13.2,0,0,1-9.257,9.257.479.479,0,0,0,0,.924,13.2,13.2,0,0,1,9.257,9.257.478.478,0,0,0,.924,0,13.2,13.2,0,0,1,9.257-9.257.479.479,0,0,0,0-.924,13.2,13.2,0,0,1-9.257-9.257.478.478,0,0,0-.924,0Z" transform="translate(-281.747 -18.386)"/><g transform="translate(2.103)"><path class="e" d="M13.264,140.239a1.66,1.66,0,0,0,2.525-.215l1.947-2.755v29.848a1.65,1.65,0,0,0,1.65,1.65h9.9a1.65,1.65,0,0,0,1.65-1.65v-26.4h11.55v8.25h-4.95a1.65,1.65,0,0,0-1.65,1.65v16.5a1.65,1.65,0,0,0,1.65,1.65h33a1.65,1.65,0,0,0,1.65-1.65v-16.5a1.65,1.65,0,0,0-1.65-1.65H55.685v-13.2a8.25,8.25,0,0,0-8.25-8.25h-9.9v-9.059l22.407-16a1.635,1.635,0,0,0,.363-2.326l-4.95-6.6a1.65,1.65,0,0,0-2.261-.363l-16.912,11.7a11.55,11.55,0,1,0-18.265,2.854H16.086a1.65,1.65,0,0,0-1.221.545L4.206,120.109a8.25,8.25,0,0,0,.33,11.352Zm4.472-11.55-2.64-2.822,2.64-2.64Zm51.15,36.779h-29.7v-13.2h29.7Zm-38.973-54.45-2.277,4.554-2.277-4.554ZM17.735,99.467a8.25,8.25,0,1,1,8.25,8.25A8.25,8.25,0,0,1,17.735,99.467ZM6.647,122.32l10.181-11.3h4.835l4.5,8.993a1.65,1.65,0,0,0,2.937,0l4.769-9.521,19.8-13.712,2.986,3.976-21.73,15.527a1.65,1.65,0,0,0-.693,1.337v11.55a1.65,1.65,0,0,0,1.65,1.65h11.55a4.95,4.95,0,0,1,4.95,4.95v13.2h-6.6v-9.9a1.65,1.65,0,0,0-1.65-1.65H29.285a1.65,1.65,0,0,0-1.65,1.65v26.4h-6.6v-46.2a1.66,1.66,0,0,0-2.821-1.172l-6.6,6.6a1.65,1.65,0,0,0,0,2.31l5.4,5.626-2.789,3.894-7.392-7.359a4.95,4.95,0,0,1-.182-6.848Z" transform="translate(-2.103 -69.767)"/><path class="e" d="M361.947,13.2A11.55,11.55,0,0,1,350.4,1.65a1.65,1.65,0,0,0-3.3,0,11.55,11.55,0,0,1-11.55,11.55,1.65,1.65,0,0,0,0,3.3A11.55,11.55,0,0,1,347.1,28.05a1.65,1.65,0,0,0,3.3,0,11.55,11.55,0,0,1,11.55-11.55,1.65,1.65,0,0,0,0-3.3Zm-13.2,8.052a14.98,14.98,0,0,0-6.4-6.4,14.982,14.982,0,0,0,6.4-6.4,14.983,14.983,0,0,0,6.4,6.4A14.983,14.983,0,0,0,348.747,21.252Z" transform="translate(-265.465 0)"/><path class="e" d="M249.174,204.836l4.5-3.3,1.951,2.661-4.5,3.3Z" transform="translate(-198.216 -159.971)"/><path class="e" d="M289.222,141.651l16.5-12.1,1.952,2.661-16.5,12.1Z" transform="translate(-230.004 -102.828)"/><path class="e" d="M289.441,95.931l9.9-6.6,1.83,2.746-9.9,6.6Z" transform="translate(-230.178 -70.907)"/></g></g></g></svg>