<svg xmlns="http://www.w3.org/2000/svg" width="122" height="122" viewBox="0 0 122 122"><defs><style>.a{fill:#b7baf4;}.b{fill:#eda600;}.c{fill:#f6bb00;}.d{fill:#de9400;}.e{fill:#548aff;}.f{fill:#f5c99d;}</style></defs><g transform="translate(-875 -1302)"><rect class="a" width="122" height="122" rx="14" transform="translate(875 1302)"/><g transform="translate(879.296 1287.456)"><path class="b" d="M222.328,83.162l-4.388,8.775h-7.972l-4.388-8.775Z" transform="translate(-158.095 -35.994)"/><path class="c" d="M40,224H61.259v1.329a10.629,10.629,0,0,1-10.629,10.629h0A10.629,10.629,0,0,1,40,225.329Z" transform="translate(-20.014 -153.441)"/><path class="c" d="M93.753,56.522h0a7.194,7.194,0,0,0,5.087,2.107h23.594V54.643l-20.39-1.2a5.79,5.79,0,0,1-3.754-1.686h0A12.831,12.831,0,0,0,89.217,48h0a12.831,12.831,0,0,0-9.073,3.758h0a5.79,5.79,0,0,1-3.754,1.686L56,54.643v3.986H79.594a7.194,7.194,0,0,0,5.087-2.107h0a6.415,6.415,0,0,1,4.536-1.879h0a6.415,6.415,0,0,1,4.536,1.879Z" transform="translate(-33.357 -6.671)"/><path class="c" d="M344,224h21.259v1.329a10.629,10.629,0,0,1-10.629,10.629h0A10.629,10.629,0,0,1,344,225.329Z" transform="translate(-273.525 -153.441)"/><rect class="d" width="8.045" height="38.031" transform="translate(51.837 56.09)"/><path class="c" d="M218.6,373.315H200A5.315,5.315,0,0,1,205.315,368h7.972A5.315,5.315,0,0,1,218.6,373.315Z" transform="translate(-153.441 -273.525)"/><rect class="e" width="11.702" height="16.09" transform="translate(82.555 87.539)"/><path class="f" d="M269.231,344h-3.663a13.609,13.609,0,0,0-9.624,3.987H250.63a2.657,2.657,0,0,0-2.658,2.658h0a2.657,2.657,0,0,0,2.657,2.657h-7.971A2.657,2.657,0,0,0,240,355.958h0a2.657,2.657,0,0,0,2.657,2.657h11.958a19.93,19.93,0,0,0,11.958-3.986h2.657Z" transform="translate(-186.798 -253.511)"/><path class="f" d="M112,352l4.119,1.765a29.268,29.268,0,0,1,9.168,6.208H130.6a2.657,2.657,0,0,1,2.658,2.658h0a2.657,2.657,0,0,1-2.657,2.657h7.971a2.657,2.657,0,0,1,2.657,2.657h0a2.657,2.657,0,0,1-2.657,2.657H125.137a14.615,14.615,0,0,1-12.161-6.508L112,362.629Z" transform="translate(-80.056 -260.182)"/><rect class="e" width="14.627" height="16.09" transform="translate(17.463 89.002)"/><path d="M94.391,86.5H82.433A1.329,1.329,0,0,0,81.1,87.832v1.329H78.77a14.832,14.832,0,0,0-10.16,3.987H63.832a3.97,3.97,0,0,0-1.734.4,6.639,6.639,0,0,0-.923-.261V56.258l1.69-3.381a8.542,8.542,0,0,0,2.618.41H79.219L73.525,69.231h-3.05a1.329,1.329,0,0,0-1.329,1.329v1.329a11.958,11.958,0,1,0,23.916,0V70.559a1.329,1.329,0,0,0-1.329-1.329h-3.05L82.99,53.287h6.087a1.329,1.329,0,0,0,1.329-1.329V47.972a1.329,1.329,0,0,0-1.251-1.326l-20.39-1.2a4.457,4.457,0,0,1-2.893-1.3,14.159,14.159,0,0,0-20.024,0,4.458,4.458,0,0,1-2.893,1.3l-20.39,1.2a1.329,1.329,0,0,0-1.251,1.326v3.986a1.329,1.329,0,0,0,1.329,1.329H28.73L23.036,69.231h-3.05a1.329,1.329,0,0,0-1.329,1.329v1.329a11.958,11.958,0,1,0,23.916,0V70.559a1.329,1.329,0,0,0-1.329-1.329h-3.05L32.5,53.287H46.237a8.541,8.541,0,0,0,2.618-.41l1.69,3.381V93.28a6.665,6.665,0,0,0-5.108,4.864,30.445,30.445,0,0,0-8.851-5.782l-3.313-1.42V89.161a1.329,1.329,0,0,0-1.329-1.329H17.329A1.329,1.329,0,0,0,16,89.16V105.1a1.329,1.329,0,0,0,1.329,1.329H31.944a1.324,1.324,0,0,0,.927-.378,15.906,15.906,0,0,0,12.21,5.692H58.517a3.984,3.984,0,0,0,3.757-5.315h5.543a21.4,21.4,0,0,0,12.393-3.986H81.1v1.329a1.329,1.329,0,0,0,1.329,1.329H94.391a1.329,1.329,0,0,0,1.329-1.329V87.832A1.329,1.329,0,0,0,94.391,86.5ZM30.615,103.776H18.657V90.489H30.615Zm59.79-31.888a9.3,9.3,0,1,1-18.6,0Zm-4.543-2.657H76.347L81.1,55.909ZM39.916,71.888a9.3,9.3,0,1,1-18.6,0Zm-4.543-2.657H25.857l4.758-13.322ZM50.384,48.911a5.827,5.827,0,0,1-4.147,1.718H23.972v-1.4L43.111,48.1a7.112,7.112,0,0,0,4.616-2.073,11.5,11.5,0,0,1,16.266,0A7.112,7.112,0,0,0,68.609,48.1l19.139,1.126v1.4H65.483a5.827,5.827,0,0,1-4.147-1.718h0A7.744,7.744,0,0,0,50.384,48.911Zm2.311,5.7-1.47-2.941a8.629,8.629,0,0,0,1.038-.884,5.087,5.087,0,0,1,7.194,0s.673.619,1.038.884l-1.47,2.941Zm5.822,2.657V93.146H53.2V57.273ZM51.874,95.8h7.972c.075,0,.149,0,.224.007a3.994,3.994,0,0,0,0,2.65H48.116A3.993,3.993,0,0,1,51.874,95.8Zm6.643,13.287H45.08a13.26,13.26,0,0,1-11.055-5.917l-.753-1.129V93.833l2.266.971a27.814,27.814,0,0,1,8.752,5.926,1.329,1.329,0,0,0,.94.389h5.314a1.329,1.329,0,0,1,0,2.657H43.9v2.657H58.517a1.329,1.329,0,1,1,0,2.657ZM81.1,99.79H79.776a1.328,1.328,0,0,0-.8.266,18.717,18.717,0,0,1-11.161,3.72H55.86a1.329,1.329,0,1,1,0-2.657H70.475V98.461H63.831a1.329,1.329,0,0,1,0-2.657h5.315a1.329,1.329,0,0,0,.94-.389,12.2,12.2,0,0,1,8.684-3.6H81.1Zm11.958,2.657h-9.3V89.161h9.3Z" transform="translate(0 0)"/></g></g></svg>