<svg xmlns="http://www.w3.org/2000/svg" xmlns:xlink="http://www.w3.org/1999/xlink" width="505" height="283" viewBox="0 0 505 283"><defs><style>.a{fill:none;}.b{fill:#d9fdff;}.c{clip-path:url(#a);}.d{fill:#f8b586;}.e{fill:#1d2769;}.f{fill:#252ca1;}.g{clip-path:url(#b);}.h{fill:#c1c9e7;}.i,.l{fill:#fff;}.j{fill:#98a4d1;}.k{fill:#8c6df2;}.l{font-size:8px;font-family:Helvetica;}.m{fill:#ffb74d;}.n{fill:#2b459c;}.o{fill:#fd0044;}.p{fill:#7252dd;}.q{clip-path:url(#i);}.r{fill:#ff9549;}.s{fill:#7af0ff;}.t{clip-path:url(#r);}.u{fill:#80491f;}.v{fill:#87f9ff;}.w{filter:url(#u);}.x{filter:url(#s);}.y{filter:url(#p);}.z{filter:url(#n);}.aa{filter:url(#l);}.ab{filter:url(#j);}.ac{filter:url(#g);}.ad{filter:url(#e);}.ae{filter:url(#c);}</style><clipPath id="a"><rect class="a" width="423" height="282" transform="translate(0 0.102)"/></clipPath><clipPath id="b"><rect class="a" width="45.26" height="90.801" rx="4.487" transform="matrix(-0.994, 0.112, -0.112, -0.994, 55.157, 90.228)"/></clipPath><filter id="c" x="234.41" y="18.735" width="26.669" height="31.353" filterUnits="userSpaceOnUse"><feOffset dy="8.641" input="SourceAlpha"/><feGaussianBlur result="d"/><feFlood flood-color="#000a49" flood-opacity="0.2"/><feComposite operator="in" in2="d"/><feComposite in="SourceGraphic"/></filter><filter id="e" x="201.253" y="58.14" width="47.064" height="33.423" filterUnits="userSpaceOnUse"><feOffset dy="8.641" input="SourceAlpha"/><feGaussianBlur result="f"/><feFlood flood-color="#000a49" flood-opacity="0.2"/><feComposite operator="in" in2="f"/><feComposite in="SourceGraphic"/></filter><filter id="g" x="262.068" y="75.384" width="33.893" height="41.318" filterUnits="userSpaceOnUse"><feOffset dy="8.641" input="SourceAlpha"/><feGaussianBlur result="h"/><feFlood flood-color="#000a49" flood-opacity="0.2"/><feComposite operator="in" in2="h"/><feComposite in="SourceGraphic"/></filter><clipPath id="i"><rect class="a" width="45.26" height="90.801" rx="4.487" transform="matrix(0.938, 0.345, -0.345, 0.938, 31.372, 0)"/></clipPath><filter id="j" x="336.366" y="90.784" width="35.385" height="39.033" filterUnits="userSpaceOnUse"><feOffset dy="8.641" input="SourceAlpha"/><feGaussianBlur result="k"/><feFlood flood-color="#000a49" flood-opacity="0.2"/><feComposite operator="in" in2="k"/><feComposite in="SourceGraphic"/></filter><filter id="l" x="372.603" y="119.925" width="26.005" height="34.646" filterUnits="userSpaceOnUse"><feOffset dy="8.641" input="SourceAlpha"/><feGaussianBlur result="m"/><feFlood flood-color="#000a49" flood-opacity="0.2"/><feComposite operator="in" in2="m"/><feComposite in="SourceGraphic"/></filter><filter id="n" x="399.042" y="131.577" width="68.038" height="45.56" filterUnits="userSpaceOnUse"><feOffset dy="8.641" input="SourceAlpha"/><feGaussianBlur result="o"/><feFlood flood-color="#000a49" flood-opacity="0.2"/><feComposite operator="in" in2="o"/><feComposite in="SourceGraphic"/></filter><filter id="p" x="433.547" y="106.61" width="30.28" height="40.066" filterUnits="userSpaceOnUse"><feOffset dy="8.641" input="SourceAlpha"/><feGaussianBlur result="q"/><feFlood flood-color="#000a49" flood-opacity="0.2"/><feComposite operator="in" in2="q"/><feComposite in="SourceGraphic"/></filter><clipPath id="r"><rect class="a" width="45.26" height="90.801" rx="4.487" transform="translate(0 5.077) rotate(-6.441)"/></clipPath><filter id="s" x="106.703" y="79.515" width="26.681" height="31.368" filterUnits="userSpaceOnUse"><feOffset dy="8.641" input="SourceAlpha"/><feGaussianBlur result="t"/><feFlood flood-color="#000a49" flood-opacity="0.2"/><feComposite operator="in" in2="t"/><feComposite in="SourceGraphic"/></filter><filter id="u" x="111.624" y="116.433" width="84.678" height="35.309" filterUnits="userSpaceOnUse"><feOffset dy="8.641" input="SourceAlpha"/><feGaussianBlur result="v"/><feFlood flood-color="#000a49" flood-opacity="0.2"/><feComposite operator="in" in2="v"/><feComposite in="SourceGraphic"/></filter></defs><g transform="translate(-810 -378)"><rect class="b" width="505" height="218" transform="translate(810 443)"/><g transform="translate(723.553 188.934)"><g class="c" transform="translate(150.447 188.965)"><g transform="translate(110.311 18.837)"><g transform="translate(26.15 27.503)"><g transform="translate(0 32.343)"><g transform="translate(21.643)"><path class="d" d="M443.055,329.382c10.557-9.3,31.564,50.922,31.445,55.465-.474,18.215-3.711,37.081-12.91,42.433a91.377,91.377,0,0,1-27.138-4.415c-.422-7.074-3.408-32.271-3.267-43.068C431.316,369.846,441.011,331.183,443.055,329.382Z" transform="translate(-431.18 -328.406)"/></g><path class="d" d="M392.814,577.9c8.051-30.974,18.984-65.827,25.275-86.536,11.418-3.371,17.834-.967,27.525,3.6-2.673,24.569-8.277,77.84-11.641,110.071A131.219,131.219,0,0,1,392.814,577.9Z" transform="translate(-392.814 -398.748)"/></g><g transform="translate(25.287)"><g transform="translate(0 1.973)"><rect class="e" width="52.092" height="106.979" rx="12.356" transform="translate(63.759 106.304) rotate(173.562)"/></g><g transform="translate(0.431)"><path class="f" d="M456.59,381.7l37.911-4.278a6.97,6.97,0,0,0,6.144-7.708l-10.432-92.452a6.97,6.97,0,0,0-7.708-6.144L444.594,275.4a6.971,6.971,0,0,0-6.145,7.708l10.433,92.451A6.971,6.971,0,0,0,456.59,381.7Z" transform="translate(-438.404 -271.074)"/></g><g transform="translate(19.894 5.279)"><g transform="translate(0 0.466)"><path class="e" d="M473.868,283.719l6.535-.737a.865.865,0,0,0,.763-.957h0a.865.865,0,0,0-.957-.763l-6.535.737a.865.865,0,0,0-.763.957h0A.865.865,0,0,0,473.868,283.719Z" transform="translate(-472.905 -281.257)"/></g><g transform="translate(10.662)"><path class="e" d="M491.812,281.393a.865.865,0,1,0,.763-.957A.865.865,0,0,0,491.812,281.393Z" transform="translate(-491.806 -280.431)"/></g></g><g transform="translate(34.289 100.333)"><path class="e" d="M498.44,451.892a2.663,2.663,0,1,0,2.347-2.945A2.663,2.663,0,0,0,498.44,451.892Z" transform="translate(-498.423 -448.93)"/></g><g transform="translate(3.865 6.525)"><g class="g" transform="translate(0 0)"><g transform="translate(-3.231 -0.798)"><g transform="translate(0 0)"><rect class="h" width="51.786" height="92.16" transform="matrix(0.994, -0.114, 0.114, 0.994, 0, 5.88)"/><g transform="translate(0.01 0.088)"><g transform="translate(0 0)"><rect class="i" width="51.786" height="28.943" transform="translate(0 5.88) rotate(-6.519)"/></g><circle class="j" cx="3.504" cy="3.504" r="3.504" transform="translate(7.59 40.4) rotate(-51.175)"/><g transform="translate(18.698 34.599)"><g transform="translate(0.528 4.616)"><path class="j" d="M473.774,356.117a.914.914,0,0,1-.1-1.822l29.665-3.39a.914.914,0,0,1,.207,1.816l-29.664,3.39A.938.938,0,0,1,473.774,356.117Z" transform="translate(-472.861 -350.9)"/></g><g transform="translate(1.055 9.232)"><path class="j" d="M474.709,364.3a.914.914,0,0,1-.1-1.823l29.664-3.39a.914.914,0,0,1,.208,1.816l-29.664,3.39A.953.953,0,0,1,474.709,364.3Z" transform="translate(-473.796 -359.082)"/></g><path class="j" d="M472.839,347.934a.914.914,0,0,1-.1-1.823l29.664-3.39a.914.914,0,0,1,.207,1.816l-29.664,3.39A.93.93,0,0,1,472.839,347.934Z" transform="translate(-471.926 -342.716)"/></g></g><g transform="translate(14.349 81.302)"><path class="j" d="M465.111,431.673a.914.914,0,0,1-.1-1.822l39.351-4.5a.914.914,0,0,1,.207,1.816l-39.35,4.5A.936.936,0,0,1,465.111,431.673Z" transform="translate(-464.198 -425.349)"/></g><g transform="translate(14.937 86.448)"><path class="j" d="M466.154,440.8a.914.914,0,0,1-.1-1.822l39.351-4.5a.914.914,0,0,1,.207,1.816l-39.35,4.5A.812.812,0,0,1,466.154,440.8Z" transform="translate(-465.241 -434.471)"/></g><rect class="i" width="40.521" height="24.373" transform="translate(10.835 56.018) rotate(-6.519)"/></g></g></g></g></g><g transform="translate(28.698 62.882)"><path class="d" d="M459.033,444.741c3.23.479,12.454-14.738,6.4-32.385,8.249-7.108,12.433-27.108,5.913-29.748-4.518-1.829-27.844,35.318-27.662,39.089C444.018,428.611,459.139,440.26,459.033,444.741Z" transform="translate(-443.685 -382.542)"/><g transform="translate(13.627 29.914)"><path class="d" d="M475.918,435.569a38.192,38.192,0,0,1,2.471,8.765,27.019,27.019,0,0,1-.06,9.243,20.973,20.973,0,0,1-3.718,8.526,23.951,23.951,0,0,1-6.77,6.142,42.388,42.388,0,0,0,5.507-6.988,24.69,24.69,0,0,0,3.069-8.05,35.258,35.258,0,0,0,.465-8.715C476.712,441.541,476.3,438.58,475.918,435.569Z" transform="translate(-467.841 -435.569)"/></g></g><g transform="translate(63.101 55.515)"><g transform="translate(0 50.084)"><path class="d" d="M525.659,473.913c-8.686-8.977-17.59-17.742-20.218-15.2-3.5,3.39,5.219,28.805,20.345,39.182C531.494,501.809,544.245,475.53,525.659,473.913Z" transform="translate(-504.67 -458.267)"/></g><g transform="translate(15.378)"><path class="d" d="M537.5,376.6c-11.608,33.425-1.845,77.579.549,79.289,9.6,6.852,33.379,9.732,35.722,6.383,8.554-12.225,12.587-33.355,5.2-45.266-2.479-4-25.9-8.917-31.09-7.911-2.217-9.3-1.442-23.731-.371-29.74C549.886,366.039,540.734,367.289,537.5,376.6Z" transform="translate(-531.93 -369.484)"/></g></g></g><g transform="translate(60.099)"><g class="ae" transform="matrix(1, 0, 0, 1, -234.41, -18.74)"><path class="k" d="M475.084,222.34l-19.178,2.136a3.276,3.276,0,0,0-2.893,3.619l.938,8.417a3.276,3.276,0,0,0,3.619,2.893l6.254-.7,4.16,6.322,2.609-7.076,6.155-.685a3.277,3.277,0,0,0,2.894-3.619l-.938-8.417A3.277,3.277,0,0,0,475.084,222.34Z" transform="translate(-218.58 -203.58)"/></g><g transform="translate(5.082 3.391)"><g transform="translate(0 1.091)"><path class="i" d="M471.335,232.483a12.859,12.859,0,0,1-7.115-1.718,2.495,2.495,0,0,0-1.338,4.381l0,0,4.43,3.542,3.542-4.43h0A2.485,2.485,0,0,0,471.335,232.483Z" transform="translate(-462.001 -230.265)"/></g><text class="l" transform="matrix(0.994, -0.111, 0.111, 0.994, 12.263, 6.473)"><tspan x="0" y="0">1</tspan></text></g></g><g transform="translate(26.942 39.405)"><g class="ad" transform="matrix(1, 0, 0, 1, -201.25, -58.14)"><rect class="m" width="45.123" height="19.848" rx="7.674" transform="matrix(0.99, -0.11, 0.11, 0.99, 201.25, 63.2)"/></g><g transform="translate(7.166 9.475)"><path class="i" d="M410.229,317.951h0a3.728,3.728,0,0,0-3.287,4.122l7.409-.835A3.728,3.728,0,0,0,410.229,317.951Z" transform="translate(-406.919 -312.873)"/><path class="i" d="M410.795,313.2a2.121,2.121,0,1,0-2.345-1.87A2.121,2.121,0,0,0,410.795,313.2Z" transform="translate(-407.58 -308.968)"/></g><g transform="translate(17.358 6.864)"><path class="i" d="M425.74,308.147a.755.755,0,0,1-.084-1.505l20.361-2.3a.755.755,0,1,1,.169,1.5l-20.361,2.3C425.8,308.145,425.769,308.147,425.74,308.147Z" transform="translate(-424.986 -304.339)"/><g transform="translate(15.8 3.047)"><path class="i" d="M453.749,311.8a.755.755,0,0,1-.083-1.5l4.9-.554a.755.755,0,0,1,.169,1.5l-4.9.553C453.805,311.8,453.777,311.8,453.749,311.8Z" transform="translate(-452.995 -309.741)"/></g><g transform="translate(0.344 3.928)"><path class="i" d="M426.349,314.228a.755.755,0,0,1-.083-1.505l12.558-1.417a.755.755,0,0,1,.169,1.5l-12.559,1.416A.712.712,0,0,1,426.349,314.228Z" transform="translate(-425.595 -311.302)"/></g><g transform="translate(0.687 7.453)"><path class="i" d="M426.958,320a.755.755,0,0,1-.083-1.505l8.322-.939a.755.755,0,1,1,.169,1.5l-8.323.939A.729.729,0,0,1,426.958,320Z" transform="translate(-426.205 -317.551)"/></g></g></g><g transform="translate(87.757 56.648)"><g class="ac" transform="matrix(1, 0, 0, 1, -262.07, -75.38)"><path class="i" d="M529.385,322.768l-23.228,2.621a4.657,4.657,0,0,0-4.106,5.15l1.35,11.96h0l1.457,12.915,7.435-9.232,19.486-2.2a4.657,4.657,0,0,0,4.105-5.15l-1.349-11.961A4.657,4.657,0,0,0,529.385,322.768Z" transform="translate(-239.95 -247.35)"/></g><g transform="translate(8.123 2.897)"><path class="n" d="M525.208,345.462a8.794,8.794,0,1,1,8.745-9.78h0a8.8,8.8,0,0,1-8.745,9.78Zm.022-16.552a7.923,7.923,0,0,0-.885.05,7.757,7.757,0,1,0,8.578,6.838h0a7.76,7.76,0,0,0-7.693-6.888Z" transform="translate(-516.42 -327.873)"/><g transform="translate(3.27 4.067)"><g transform="translate(6.122)"><path class="o" d="M537.291,336.242a1.114,1.114,0,0,0-1.073-1.152,1.06,1.06,0,0,1-2.067-.008,1.115,1.115,0,0,0-1.082,1.144c-.006,1.367,1.624,2.479,2.051,2.6a.116.116,0,0,0,.1,0C535.648,338.709,537.286,337.609,537.291,336.242Z" transform="translate(-533.069 -335.082)"/></g><g transform="translate(0 0.466)"><path class="o" d="M522.248,337.766a1.114,1.114,0,0,1,.789-1.362,1.061,1.061,0,0,0,2.014-.469,1.114,1.114,0,0,1,1.309.874c.31,1.332-1.031,2.779-1.42,2.99a.115.115,0,0,1-.1.023C524.4,339.8,522.558,339.1,522.248,337.766Z" transform="translate(-522.216 -335.909)"/></g></g><g transform="translate(3.214 8.737)"><path class="n" d="M522.118,344.635c0,.047,0,.093.008.139a5.689,5.689,0,0,0,11.306-1.275c-.006-.047-.016-.091-.023-.137Z" transform="translate(-522.118 -343.361)"/></g></g></g><g transform="translate(0 155.725)"><path class="e" d="M463.079,508.726c-10.788-7.042-32.6-13.634-42.207-8.57-.556,1.071-.185,5.325.444,6.307l39.213,10.677C461.685,515.108,463.276,511.529,463.079,508.726Z" transform="translate(-378.775 -498.368)"/><path class="k" d="M414.958,639.6c4.172-41.523,11.684-87.9,13.254-116.2-12-7.282-23.5-10.7-39.213-10.677-10.206,30.512-31.456,94.074-42.541,134.269C370.665,648.6,393.947,646.08,414.958,639.6Z" transform="translate(-346.458 -504.622)"/><path class="p" d="M452.867,529.708q-2.207-1.34-4.4-2.5a419.251,419.251,0,0,1-21.456,74.207,432.658,432.658,0,0,1-23.988,51.579,177.751,177.751,0,0,0,36.591-7.077C443.786,604.388,451.3,558.016,452.867,529.708Z" transform="translate(-371.113 -510.936)"/></g><path class="d" d="M539.078,512.671s8,35.347,8.024,40.719c7.954,1.788,21.562-4.464,24.815-4.206,0,0,5.092-29.127,7.842-37.728Z" transform="translate(-430.417 -348.348)"/><g transform="translate(106.761 179.345)"><path class="e" d="M576.256,543.1c-11.754-3.926-33.316-4.545-40.529,2.813-.194,1.171,1.363,5.146,2.213,5.923l38.435-.014C576.834,549.578,577.239,545.736,576.256,543.1Z" transform="translate(-535.71 -540.239)"/><path class="k" d="M599.041,673.191c-8.172-40.844-14.727-87.2-21.449-114.715-12.913-3.841-24.274-4.107-38.435.014-.434,31.877-1.329,98.28.227,139.656C561.682,693.376,581.955,684.882,599.041,673.191Z" transform="translate(-536.928 -546.889)"/><path class="p" d="M600.44,559.813q-2.376-.707-4.689-1.25a436.738,436.738,0,0,1,1.979,76.648,441.218,441.218,0,0,1-6.808,55.645,157.049,157.049,0,0,0,30.966-16.328C613.716,633.684,607.161,587.325,600.44,559.813Z" transform="translate(-559.776 -548.226)"/></g></g><g transform="translate(269.144 88.984)"><g transform="translate(7.917 38.745)"><g transform="translate(20.914 25.974)"><path class="d" d="M720.571,463.192c-9.405-10.467-41.637,27.954-41.446,32.494.639,15.184,11.245,26.979,18.906,34.367,8.211,2.143,19.312,1.243,27.6.61C729.967,508.783,736.182,480.566,720.571,463.192Z" transform="translate(-679.125 -461.392)"/></g><path class="d" d="M648.961,491.365c6.249,1.721,11.76,3.785,16.448,8.418,3.441,3.4,13.215-9.43,8.064-11.441a216.579,216.579,0,0,0-20.765-6.907c-5.494-1.531-8.873.685-9.53,3.277C642.594,487.016,644.271,490.068,648.961,491.365Z" transform="translate(-642.493 -443.936)"/><path class="d" d="M648.167,521.815c7.278,1.357,13.107,2.749,18.535,10.561,3.042,4.378,15.17-9.78,9.317-12.015-7.6-2.9-15.477-5.515-23.569-7.8-6.228-1.765-10.173.444-10.384,3.273C641.886,518.236,643.3,521.192,648.167,521.815Z" transform="translate(-642.051 -457.446)"/><path class="d" d="M651.247,463c6.214,1.841,11.684,4.011,16.282,8.734,3.375,3.466,11.147-.892,13.33-3.179h0c2.175-2.28.065-5.994-5.046-8.1a216.618,216.618,0,0,0-20.628-7.306c-5.463-1.637-10.422-1.519-11.342,2.378C643.146,458.477,646.583,461.608,651.247,463Z" transform="translate(-642.793 -431.388)"/><path class="d" d="M711.792,435.569c-4.35-4.052-22.587-20.082-28.178-20.218-3.2-.077-5.163,2.158-4.587,5.033.514,2.563,2.6,4.824,4.378,6.92,3.478,4.1,8.51,7.547,11.711,11.295,1.719,2.013,5.579,7.592,7.973,8.915C706.821,449.576,716.352,439.816,711.792,435.569Z" transform="translate(-658.124 -415.35)"/><path class="d" d="M693.656,698.713c5.164-31.584,17.915-95.8,20.537-117.287-9.08-7.7-17-1.19-27.712-.934-7.492,23.55-23.672,71.653-33.631,102.492C652.85,682.984,678.518,704.409,693.656,698.713Z" transform="translate(-646.758 -486.105)"/></g><g transform="translate(15.723)"><g transform="translate(0 2.56)"><path class="e" d="M696.254,465.209l-35.8-13.181a6.971,6.971,0,0,1-4.133-8.95l32.145-87.309a6.97,6.97,0,0,1,8.949-4.133l35.8,13.181a6.97,6.97,0,0,1,4.133,8.949L705.2,461.076A6.97,6.97,0,0,1,696.254,465.209Z" transform="translate(-655.888 -351.206)"/></g><g transform="translate(0.943)"><path class="f" d="M697.925,460.671l-35.8-13.181a6.97,6.97,0,0,1-4.133-8.949l32.144-87.309a6.971,6.971,0,0,1,8.95-4.133l35.8,13.181a6.97,6.97,0,0,1,4.133,8.949l-32.144,87.309A6.971,6.971,0,0,1,697.925,460.671Z" transform="translate(-657.559 -346.668)"/></g><g transform="translate(52.882 8.611)"><g transform="translate(3.898 1.435)"><path class="e" d="M763.278,368.426l-6.171-2.272a.866.866,0,0,1-.513-1.111h0a.866.866,0,0,1,1.111-.513l6.172,2.272a.865.865,0,0,1,.513,1.111h0A.865.865,0,0,1,763.278,368.426Z" transform="translate(-756.539 -364.476)"/></g><path class="e" d="M751.308,363.1a.865.865,0,1,1-.513-1.111A.865.865,0,0,1,751.308,363.1Z" transform="translate(-749.63 -361.932)"/></g><g transform="translate(22.654 99.564)"><circle class="e" cx="2.663" cy="2.663" r="2.663"/></g><g transform="translate(5.368 5.7)"><g class="q" transform="translate(0 0)"><g transform="translate(-3.386 -0.681)"><g transform="translate(0)"><rect class="h" width="51.786" height="92.16" transform="translate(31.365 0) rotate(19.897)"/><g transform="translate(9.457 18.418)"><rect class="i" width="51.786" height="44.786" transform="translate(15.242 0) rotate(19.897)"/></g><g transform="translate(33.036 9.836)"><path class="j" d="M756.12,388.308a.91.91,0,0,1-.311-.055l-37.242-13.479a.914.914,0,1,1,.623-1.719l37.242,13.479a.914.914,0,0,1-.311,1.774Z" transform="translate(-717.964 -373)"/></g><g transform="translate(31.273 14.706)"><path class="j" d="M753,396.941a.91.91,0,0,1-.311-.055l-37.243-13.48a.914.914,0,0,1,.623-1.719l37.242,13.48a.914.914,0,0,1-.311,1.774Z" transform="translate(-714.839 -381.633)"/></g><path class="j" d="M687.28,476.934a3.5,3.5,0,1,1-2.1-4.487A3.5,3.5,0,0,1,687.28,476.934Z" transform="translate(-668.59 -406.419)"/><g transform="translate(18.103 70.701)"><g transform="translate(1.581 4.369)"><path class="j" d="M723.285,500.628a.913.913,0,0,1-.311-.055L694.9,490.411a.914.914,0,0,1,.623-1.719L723.6,498.854a.914.914,0,0,1-.311,1.774Z" transform="translate(-694.296 -488.637)"/></g><g transform="translate(0 8.737)"><path class="j" d="M720.482,508.373a.914.914,0,0,1-.311-.055L692.1,498.156a.914.914,0,0,1,.623-1.719L720.793,506.6a.915.915,0,0,1-.311,1.774Z" transform="translate(-691.493 -496.382)"/></g><g transform="translate(3.162)"><path class="j" d="M726.087,492.884a.91.91,0,0,1-.311-.055L697.7,482.667a.914.914,0,1,1,.622-1.719L726.4,491.11a.914.914,0,0,1-.311,1.774Z" transform="translate(-697.098 -480.893)"/></g></g></g></g></g></g></g><g transform="translate(40.32 81.932)"><path class="d" d="M712.623,537.982c-3.252-.3-8.587-17.28,1.492-32.979-8.043-2.238-17.959-8.333-13.53-12.148,3.041-2.618,19.1.773,23.266,2.95,4.6,4.819,10.519,14.329,11.841,17.865C735.691,513.671,713.586,533.6,712.623,537.982Z" transform="translate(-699.489 -491.906)"/><g transform="translate(7.987 13.206)"><path class="r" d="M720.307,515.316c-1.085,2.833-2.192,5.611-3.061,8.437a35.263,35.263,0,0,0-1.622,8.575,24.667,24.667,0,0,0,1.064,8.549,42.383,42.383,0,0,0,3.684,8.1,23.944,23.944,0,0,1-5.113-7.577,20.967,20.967,0,0,1-1.581-9.166,27.006,27.006,0,0,1,2.142-8.992A38.178,38.178,0,0,1,720.307,515.316Z" transform="translate(-713.647 -515.316)"/></g></g><g transform="translate(0 140.15)"><path class="e" d="M703.376,595.27c8.957-1.1,25.476,3.669,29.358,5.5,2.852,1.106,1.12,13.178-1.4,14.605l-32.412-5.58C698.624,607.475,699.616,599.04,703.376,595.27Z" transform="translate(-658.901 -595.106)"/><path class="s" d="M628.016,733.946c11.946-39.986,30.7-86.2,40.023-112.976,10-.935,21.041,1.056,32.412,5.58-2.151,32.11-6.64,99-11.663,140.4C665.7,759.194,645.05,747.966,628.016,733.946Z" transform="translate(-628.016 -606.281)"/><path class="s" d="M659.581,754.625a179.1,179.1,0,0,1-31.565-20.677c11.946-39.986,30.7-86.2,40.023-112.976a53.32,53.32,0,0,1,5.444-.219C660.8,665,658.454,727.285,659.581,754.625Z" transform="translate(-628.016 -606.284)"/><g transform="translate(11.974 11.293)"><path class="e" d="M725.044,617.092q-6.491,53.519-12.982,107.037-2.687-.087-5.35-.337,10.111-53.3,17.949-106.848Z" transform="translate(-674.292 -615.918)"/><path class="e" d="M682.3,615.672l-28.214,97.552q-2.442-1.118-4.841-2.392,17.156-47.065,32.477-95.146Z" transform="translate(-649.242 -615.363)"/><path class="e" d="M739.677,621q-3.5,52.636-7.007,105.271-2.742.267-5.466.371,7.147-52.927,12.041-105.809Z" transform="translate(-683.224 -617.611)"/><path class="e" d="M696.446,615.394,672.669,718.025q-2.538-.78-5.038-1.719,15.186-50.047,28.338-100.9Z" transform="translate(-657.257 -615.242)"/><path class="e" d="M710.729,615.125q-9.35,53.122-18.7,106.243-2.619-.437-5.207-1.034,12.846-52.325,23.5-105.2Z" transform="translate(-665.622 -615.125)"/></g></g><g transform="translate(3.221 1.902)"><g class="ab" transform="matrix(1, 0, 0, 1, -336.37, -90.78)"><path class="i" d="M666.956,359.68l-25.933-9.443a3.276,3.276,0,0,0-4.2,1.957l-2.9,7.958a3.276,3.276,0,0,0,1.958,4.2l23.443,8.536,3.561,7.542,3.129-8.593.927-2.545,1.971-5.413A3.276,3.276,0,0,0,666.956,359.68Z" transform="translate(-297.36 -259.25)"/></g><g transform="translate(9.229 7.751)"><path class="n" d="M674.233,373.654a1.7,1.7,0,1,0,2.181-1.017A1.7,1.7,0,0,0,674.233,373.654Z" transform="translate(-660.566 -367.595)"/><path class="n" d="M662.211,369.276a1.7,1.7,0,1,0,2.182-1.017A1.7,1.7,0,0,0,662.211,369.276Z" transform="translate(-655.326 -365.687)"/><path class="n" d="M650.189,364.9a1.7,1.7,0,1,0,2.182-1.017A1.7,1.7,0,0,0,650.189,364.9Z" transform="translate(-650.086 -363.779)"/></g></g><g transform="translate(39.459 31.043)"><g transform="translate(0 0)"><g class="aa" transform="matrix(1, 0, 0, 1, -372.6, -119.93)"><circle class="k" cx="9.623" cy="9.623" r="9.623" transform="translate(372.6 136.95) rotate(-62.17)"/></g><g transform="translate(6.685 7.608)"><path class="i" d="M715.837,425.965h0a4.7,4.7,0,0,0-6.023,2.821l8.844,3.2A4.7,4.7,0,0,0,715.837,425.965Z" transform="translate(-709.814 -419.759)"/><path class="i" d="M719.778,420.374a2.675,2.675,0,1,0-1.6-3.426A2.675,2.675,0,0,0,719.778,420.374Z" transform="translate(-713.388 -415.182)"/></g></g><g class="z" transform="matrix(1, 0, 0, 1, -372.6, -119.93)"><path class="i" d="M799.967,458.691,751.18,441.024a9.622,9.622,0,0,1-5.771-12.324h0a9.623,9.623,0,0,1,12.324-5.772L806.521,440.6a9.623,9.623,0,0,1,5.771,12.324h0A9.623,9.623,0,0,1,799.967,458.691Z" transform="translate(-345.79 -290.77)"/></g><g transform="translate(34.613 17.11)"><g transform="translate(2.634)"><path class="n" d="M812.291,450.755a.76.76,0,0,1-.257-.045l-47.545-17.218a.755.755,0,1,1,.513-1.419l47.545,17.218a.755.755,0,0,1-.257,1.465Z" transform="translate(-763.991 -432.027)"/></g><g transform="translate(20.122 10.447)"><path class="n" d="M824.486,462.464a.747.747,0,0,1-.257-.045L795.49,452.01a.755.755,0,1,1,.513-1.419L824.744,461a.755.755,0,0,1-.257,1.464Z" transform="translate(-794.992 -450.546)"/></g><g transform="translate(1.317 3.637)"><path class="n" d="M777.4,445.412a.747.747,0,0,1-.257-.045l-14.991-5.429a.755.755,0,1,1,.513-1.419l14.991,5.429a.754.754,0,0,1-.257,1.464Z" transform="translate(-761.656 -438.474)"/></g><g transform="translate(0 7.274)"><path class="n" d="M794.671,458.958a.76.76,0,0,1-.257-.045L759.82,446.385a.755.755,0,0,1,.513-1.419l34.594,12.528a.755.755,0,0,1-.257,1.464Z" transform="translate(-759.322 -444.92)"/></g></g></g><g transform="translate(100.403 17.727)"><g class="y" transform="matrix(1, 0, 0, 1, -433.55, -106.61)"><path class="m" d="M834.115,384.859l-18.143-6.57a3.277,3.277,0,0,0-4.2,1.965l-5.582,15.414a3.277,3.277,0,0,0,1.965,4.2l5.917,2.143.934,7.511,5.47-5.192,5.823,2.109a3.276,3.276,0,0,0,4.2-1.965l5.582-15.414A3.276,3.276,0,0,0,834.115,384.859Z" transform="translate(-372.45 -271.48)"/></g><g transform="translate(8.187 8.191)"><rect class="i" width="3.624" height="5.797" transform="translate(1.974 2.989) rotate(19.907)"/><path class="i" d="M837.491,399.337a9.906,9.906,0,0,0-3.89-2.025c2.756-3.78.97-5.38.526-4.433a10.468,10.468,0,0,1-4.159,4.675l-1.625,4.488a14.723,14.723,0,0,0,5.936,2.76C835.677,403.92,837.6,399.683,837.491,399.337Z" transform="translate(-823.924 -392.612)"/></g></g></g><g transform="translate(25.877 79.616)"><g transform="translate(0 27.485)"><g transform="translate(0 42.594)"><g transform="translate(20.942 36.714)"><path class="d" d="M286.875,522.856c-8.629-11.115-55.015,7.543-52.9,11.564,10.227,19.411,17.179,25.536,30.476,30.189,8.3-1.768,19.009-5.027,25.4-12.905C289.369,547.149,290.089,527,286.875,522.856Z" transform="translate(-233.907 -519.369)"/></g><path class="d" d="M232.444,468.084c-5.115-3.029-26.356-14.791-31.847-13.729-3.139.608-4.583,3.212-3.406,5.9,1.049,2.394,3.571,4.158,5.756,5.825,4.274,3.262,9.926,5.554,13.853,8.531,2.11,1.6,7.072,6.225,9.694,7.006C230.582,482.83,237.807,471.259,232.444,468.084Z" transform="translate(-196.784 -454.287)"/><path class="d" d="M370.828,667.6c-14.752-28.4-46.719-76.49-57.467-95.277-11.883-.741-23.55,5.818-25.3,15.341,8.082,23.354,37.926,75.132,48.39,105.8C350.221,683.58,362.1,681.222,370.828,667.6Z" transform="translate(-236.568 -505.713)"/></g><g transform="translate(8.603)"><g transform="translate(0.306 2.711)"><path class="e" d="M268.677,489.936l-37.911,4.279a6.97,6.97,0,0,1-7.708-6.144L212.621,395.62a6.97,6.97,0,0,1,6.144-7.708l37.91-4.279a6.97,6.97,0,0,1,7.708,6.144l10.437,92.451A6.971,6.971,0,0,1,268.677,489.936Z" transform="translate(-212.577 -383.588)"/></g><path class="f" d="M268.134,485.131l-37.91,4.279a6.97,6.97,0,0,1-7.708-6.144l-10.437-92.451a6.971,6.971,0,0,1,6.144-7.708l37.911-4.279a6.97,6.97,0,0,1,7.708,6.144l10.436,92.451A6.97,6.97,0,0,1,268.134,485.131Z" transform="translate(-212.034 -378.783)"/><g transform="translate(19.463 5.279)"><g transform="translate(4.127)"><path class="e" d="M261.349,389.867l-6.535.738a.866.866,0,0,1-.957-.763h0a.866.866,0,0,1,.763-.957l6.535-.738a.865.865,0,0,1,.957.763h0A.865.865,0,0,1,261.349,389.867Z" transform="translate(-253.851 -388.141)"/></g><g transform="translate(0 1.204)"><path class="e" d="M248.261,391.043a.865.865,0,1,1-.957-.763A.866.866,0,0,1,248.261,391.043Z" transform="translate(-246.535 -390.275)"/></g></g><g transform="translate(33.862 100.333)"><path class="e" d="M277.368,559a2.663,2.663,0,1,1-2.945-2.347A2.662,2.662,0,0,1,277.368,559Z" transform="translate(-272.06 -556.64)"/></g><g transform="translate(3.434 6.525)"><g class="t" transform="translate(0 0)"><g transform="translate(-2.831 1.514)"><g transform="translate(0 0)"><rect class="h" width="51.786" height="92.16" transform="matrix(0.994, -0.113, 0.113, 0.994, 0, 5.836)"/><g transform="translate(3.718 32.783)"><rect class="i" width="51.786" height="44.786" transform="translate(0 5.836) rotate(-6.47)"/></g><g transform="translate(7.687 22.262)"><path class="j" d="M227.643,438.788a.914.914,0,0,1-.1-1.822l39.354-4.463a.914.914,0,1,1,.206,1.816l-39.354,4.464A.933.933,0,0,1,227.643,438.788Z" transform="translate(-226.73 -432.496)"/></g><g transform="translate(8.271 27.408)"><path class="j" d="M228.678,447.911a.914.914,0,0,1-.1-1.823l39.354-4.463a.914.914,0,0,1,.206,1.817L228.781,447.9A.931.931,0,0,1,228.678,447.911Z" transform="translate(-227.764 -441.619)"/></g><path class="j" d="M245.585,544.951a3.5,3.5,0,1,1-3.876-3.086A3.5,3.5,0,0,1,245.585,544.951Z" transform="translate(-224.216 -457.896)"/><g transform="translate(24.07 82.213)"><path class="j" d="M256.684,543.963a.914.914,0,0,1-.1-1.823l29.667-3.364a.914.914,0,0,1,.206,1.817l-29.667,3.365A.942.942,0,0,1,256.684,543.963Z" transform="translate(-255.771 -538.77)"/></g></g></g></g></g></g><g transform="translate(53.702 55.689)"><path class="d" d="M293.976,535.838c-3.08-1.308-.51-16.338,13.093-31.013-2.118-7.233-2.908-27.021,4.7-27.324,3.653-.146,8.729,27.7,8.729,27.7a244.342,244.342,0,0,1-4.97,28.25S295.978,531.2,293.976,535.838Z" transform="translate(-292.341 -477.5)"/><g transform="translate(0 27.471)"><path class="u" d="M306.866,526.2a72.941,72.941,0,0,0-5.584,6.479,44.482,44.482,0,0,0-4.353,7.15A47.155,47.155,0,0,0,294,547.679c-.75,2.719-1.281,5.513-1.8,8.374a30.665,30.665,0,0,1,.2-8.725,30.205,30.205,0,0,1,2.639-8.418,29.351,29.351,0,0,1,4.991-7.283A28.225,28.225,0,0,1,306.866,526.2Z" transform="translate(-291.98 -526.197)"/></g></g><g transform="translate(49.515 119.109)"><path class="h" d="M396.062,692.088c-26.387-36.1-53.582-78.464-72.588-102.165-14.779,2.777-26.4,8.288-38.916,19.547,13.7,31.639,42.235,97.541,62.158,137.532C367.181,730.969,383.944,712.294,396.062,692.088Z" transform="translate(-284.558 -589.923)"/><path class="j" d="M349.446,589.923q-2.719.511-5.3,1.151a449.219,449.219,0,0,1,35.992,74.54,463.613,463.613,0,0,1,17.78,58.3,190.476,190.476,0,0,0,24.118-31.831C395.647,655.985,368.453,613.624,349.446,589.923Z" transform="translate(-310.53 -589.923)"/></g><g transform="translate(10.864 63.981)"><path class="d" d="M228.2,537.2c-1.994-.329-3.88-.046-4.839,1.091-1.747,2.071-1.041,6.461,1.256,8.113a6.67,6.67,0,0,0,3.189,1.1c2.2.274,4.812.094,6.383-1.831C237.769,541.276,231.042,537.666,228.2,537.2Z" transform="translate(-218.806 -511.757)"/><path class="d" d="M229.871,524.008c4.09-5.011-3.591-9.132-6.837-9.668-2.276-.375-4.429-.053-5.524,1.246-1.994,2.364-1.189,7.376,1.433,9.262a7.621,7.621,0,0,0,3.64,1.251C225.1,526.41,228.077,526.206,229.871,524.008Z" transform="translate(-216.196 -501.786)"/><path class="d" d="M218.536,502.628a7.458,7.458,0,0,0,3.564,1.225c2.46.306,5.378.1,7.133-2.046,4-4.906-3.515-8.94-6.693-9.464-2.228-.367-4.336-.052-5.408,1.219C215.182,495.876,215.969,500.782,218.536,502.628Z" transform="translate(-216.043 -492.199)"/></g></g><g transform="translate(16.826)"><g class="x" transform="matrix(1, 0, 0, 1, -106.7, -79.51)"><path class="v" d="M253.271,341.384l-.954-8.415a3.277,3.277,0,0,0-3.625-2.887l-19.174,2.175a3.276,3.276,0,0,0-2.886,3.625l.954,8.415a3.277,3.277,0,0,0,3.625,2.886l6.253-.709,4.173,6.314,2.594-7.081,6.153-.7A3.277,3.277,0,0,0,253.271,341.384Z" transform="translate(-119.91 -250.55)"/></g><g transform="translate(5.086 3.393)"><g transform="translate(0 1.111)"><path class="i" d="M244.958,340.258a2.5,2.5,0,0,0-4.792-.653,2.495,2.495,0,1,0-3.656,3.334h0l4.437,3.533,3.533-4.437h0A2.486,2.486,0,0,0,244.958,340.258Z" transform="translate(-235.626 -338.044)"/></g><text class="l" transform="translate(12.249 6.481) rotate(-6.47)"><tspan x="0" y="0">1</tspan></text></g></g><g transform="translate(21.747 36.918)"><g class="w" transform="matrix(1, 0, 0, 1, -111.62, -116.43)"><path class="i" d="M311.474,414.691l-65.431,7.42a9.622,9.622,0,0,1-10.646-8.477h0a9.623,9.623,0,0,1,8.477-10.646l65.431-7.42a9.623,9.623,0,0,1,10.646,8.477h0A9.623,9.623,0,0,1,311.474,414.691Z" transform="translate(-123.71 -279.07)"/></g><g transform="translate(22.91 5.058)"><path class="n" d="M276.7,411.679a.755.755,0,0,1-.085-1.505l50.245-5.7a.755.755,0,1,1,.17,1.5l-50.245,5.7A.742.742,0,0,1,276.7,411.679Z" transform="translate(-275.947 -404.472)"/><g transform="translate(20.308 3.842)"><path class="n" d="M312.7,416.237a.755.755,0,0,1-.085-1.5l30.372-3.445a.755.755,0,0,1,.17,1.5l-30.372,3.445A.74.74,0,0,1,312.7,416.237Z" transform="translate(-311.947 -411.283)"/></g><g transform="translate(0.436 7.745)"><path class="n" d="M277.473,421.506a.755.755,0,0,1-.084-1.5l15.842-1.8a.755.755,0,0,1,.17,1.5l-15.842,1.8A.734.734,0,0,1,277.473,421.506Z" transform="translate(-276.719 -418.201)"/></g><g transform="translate(0.872 9.239)"><path class="n" d="M278.246,426.5a.755.755,0,0,1-.084-1.5l36.559-4.146a.755.755,0,0,1,.17,1.5L278.332,426.5A.74.74,0,0,1,278.246,426.5Z" transform="translate(-277.492 -420.849)"/></g></g><path class="k" d="M256.339,419.019l-3.966-.124-2.146-3.338-1.344,3.734-3.838,1.01,3.136,2.432-.226,3.962,3.282-2.231,3.7,1.439-1.107-3.811Z" transform="translate(-239.568 -404.245)"/></g></g></g></g></g></svg>