<svg xmlns="http://www.w3.org/2000/svg" xmlns:xlink="http://www.w3.org/1999/xlink" width="484.299" height="416.646" viewBox="0 0 484.299 416.646"><defs><style>.a{fill:none;}.b{fill:#fff;}.c{fill:#ffb74d;}.d{mix-blend-mode:color-dodge;}.aa,.d,.e{isolation:isolate;}.f{fill:rgba(255,255,255,0.15);}.g{fill:rgba(255,255,255,0.23);}.h{fill:rgba(255,255,255,0.16);}.i{fill:#38aca8;}.j{fill:#3c6381;}.k{clip-path:url(#a);}.l{fill:url(#b);}.m{fill:url(#g);}.n{fill:url(#h);}.o{fill:url(#i);}.p{fill:url(#j);}.q{fill:url(#k);}.r{fill:url(#l);}.s{fill:url(#m);}.t{fill:url(#n);}.u{fill:url(#o);}.v{fill:url(#p);}.w{fill:url(#q);}.x{fill:url(#r);}.y{fill:url(#s);}.z{fill:url(#t);}.aa{mix-blend-mode:screen;fill:url(#u);}</style><clipPath id="a"><rect class="a" width="484.299" height="415.581"/></clipPath><linearGradient id="b" y1="0.5" x2="1" y2="0.5" gradientUnits="objectBoundingBox"><stop offset="0.266" stop-color="#7affff"/><stop offset="0.374" stop-color="#70f6ff"/><stop offset="0.555" stop-color="#56dfff"/><stop offset="0.786" stop-color="#2cbaff"/><stop offset="1" stop-color="#0092ff"/></linearGradient><linearGradient id="g" x1="0.048" y1="0.967" x2="0.923" y2="0.063" gradientUnits="objectBoundingBox"><stop offset="0" stop-color="#00d1ff"/><stop offset="0.292" stop-color="#2ce1ff"/><stop offset="0.606" stop-color="#56f1ff"/><stop offset="0.852" stop-color="#70fbff"/><stop offset="1" stop-color="#7affff"/></linearGradient><linearGradient id="h" x1="0.036" y1="-0.024" x2="1.01" y2="0.989" gradientUnits="objectBoundingBox"><stop offset="0" stop-color="#cae9ff"/><stop offset="0.079" stop-color="#d0ebff"/><stop offset="0.429" stop-color="#eaf6ff"/><stop offset="0.746" stop-color="#f9fcff"/><stop offset="1" stop-color="#fff"/></linearGradient><linearGradient id="i" x1="0.418" y1="0.438" x2="0.589" y2="0.567" xlink:href="#h"/><linearGradient id="j" x1="0.852" y1="0.03" x2="0.636" y2="0.319" xlink:href="#h"/><linearGradient id="k" x1="0" y1="0" x2="1" y2="1" xlink:href="#h"/><linearGradient id="l" x1="0.411" y1="0.434" x2="0.589" y2="0.566" xlink:href="#h"/><linearGradient id="m" x1="0.908" y1="0.043" x2="0.319" y2="0.702" xlink:href="#h"/><linearGradient id="n" x1="-0.002" y1="0.002" x2="1.002" y2="0.998" xlink:href="#h"/><linearGradient id="o" x1="0.4" y1="0.425" x2="0.581" y2="0.561" xlink:href="#h"/><linearGradient id="p" x1="0.046" y1="-0.056" x2="0.954" y2="1.035" xlink:href="#h"/><linearGradient id="q" x1="0.812" y1="0.15" x2="0.564" y2="0.429" xlink:href="#h"/><linearGradient id="r" x1="0.781" y1="0.728" x2="0.104" y2="0.179" xlink:href="#h"/><linearGradient id="s" x1="0.352" y1="0.133" x2="0.648" y2="0.83" xlink:href="#h"/><linearGradient id="t" x1="0.952" y1="0.006" x2="0.017" y2="1.003" gradientUnits="objectBoundingBox"><stop offset="0.266" stop-color="#7af0ff"/><stop offset="0.374" stop-color="#70e8ff"/><stop offset="0.555" stop-color="#56d4ff"/><stop offset="0.786" stop-color="#2cb4ff"/><stop offset="1" stop-color="#0092ff"/></linearGradient><linearGradient id="u" x1="0.99" y1="0.047" x2="0.092" y2="1.066" xlink:href="#t"/></defs><g transform="translate(-943.23 -160.355)"><g transform="translate(1156.74 265.639)"><path class="b" d="M489.909,203.873a13.969,13.969,0,1,1,14.32-13.964A14.161,14.161,0,0,1,489.909,203.873Zm0-25.7a11.744,11.744,0,1,0,12.039,11.74A11.907,11.907,0,0,0,489.909,178.168Z" transform="translate(-475.589 -175.944)"/></g><g transform="translate(1002.759 353.4)"><path class="c" d="M407.9,267.888a22.861,22.861,0,1,1,22.978-22.862A22.947,22.947,0,0,1,407.9,267.888Zm0-43.5a20.637,20.637,0,1,0,20.743,20.635A20.713,20.713,0,0,0,407.9,224.391Z" transform="translate(-384.922 -222.167)"/></g><g class="d" transform="translate(1242.233 233.943)"><g class="e" transform="translate(0 0)"><path class="f" d="M145.753,140.49h1.976a.237.237,0,0,1,.251.25v17.016a.237.237,0,0,1-.251.25h-1.9a.237.237,0,0,1-.251-.25V142.942a.084.084,0,0,0-.125-.075l-2.3.8c-.175.075-.276-.025-.276-.2v-1.376a.3.3,0,0,1,.176-.3l2.377-1.227A.779.779,0,0,1,145.753,140.49Z" transform="translate(-142.874 -140.49)"/><path class="f" d="M163.392,152.576a6.8,6.8,0,0,1-.525,2.828,4.291,4.291,0,0,1-4.28,2.8,4.359,4.359,0,0,1-4.553-3.529,6.223,6.223,0,0,1-.175-1,.206.206,0,0,1,.225-.251h1.927a.256.256,0,0,1,.276.251,3.216,3.216,0,0,0,.1.526,2.161,2.161,0,0,0,2.2,1.9,2.227,2.227,0,0,0,2.228-1.927,7.132,7.132,0,0,0,.149-1.577,7.808,7.808,0,0,0-.175-1.751,2.087,2.087,0,0,0-2.2-1.727,2.21,2.21,0,0,0-2.252,1.5.252.252,0,0,1-.275.2h-1.952a.236.236,0,0,1-.249-.25V140.74a.235.235,0,0,1,.249-.25h8.534a.236.236,0,0,1,.25.25v1.577a.236.236,0,0,1-.25.25h-6.281a.108.108,0,0,0-.1.1L156.236,148c0,.074.05.1.125.05a3.843,3.843,0,0,1,2.727-1.026,3.657,3.657,0,0,1,3.7,2.378A7.579,7.579,0,0,1,163.392,152.576Z" transform="translate(-145.851 -140.49)"/><path class="f" d="M169.857,164.947l.851-5.555c.025-.176.1-.225.249-.225h1.678c.175,0,.249.1.2.275L171.508,165a.272.272,0,0,1-.275.225h-1.151A.227.227,0,0,1,169.857,164.947Z" transform="translate(-150.188 -145.554)"/><path class="f" d="M187.355,152.576a6.8,6.8,0,0,1-.525,2.828,4.29,4.29,0,0,1-4.279,2.8A4.359,4.359,0,0,1,178,154.678a6.22,6.22,0,0,1-.175-1,.207.207,0,0,1,.225-.251h1.926a.256.256,0,0,1,.276.251,3.219,3.219,0,0,0,.1.526,2.161,2.161,0,0,0,2.2,1.9,2.227,2.227,0,0,0,2.227-1.927,7.089,7.089,0,0,0,.149-1.577,7.81,7.81,0,0,0-.175-1.751,2.087,2.087,0,0,0-2.2-1.727,2.21,2.21,0,0,0-2.253,1.5.252.252,0,0,1-.275.2h-1.952a.236.236,0,0,1-.249-.25V140.74a.235.235,0,0,1,.249-.25H186.6a.236.236,0,0,1,.25.25v1.577a.236.236,0,0,1-.25.25h-6.281a.108.108,0,0,0-.1.1L180.2,148c0,.074.05.1.125.05a3.843,3.843,0,0,1,2.727-1.026,3.657,3.657,0,0,1,3.7,2.378A7.579,7.579,0,0,1,187.355,152.576Z" transform="translate(-152.348 -140.49)"/></g></g><g class="e" transform="translate(966.691 424.641)"><g transform="translate(0 0)"><path class="g" d="M246.9,99.439a6.533,6.533,0,0,1-.148,1.4,2.989,2.989,0,0,1-3.137,2.3,3.091,3.091,0,0,1-3.188-2.382,5.176,5.176,0,0,1-.131-1.15.147.147,0,0,1,.164-.165h1.249a.147.147,0,0,1,.164.165c.017.263.05.59.083.821a1.624,1.624,0,0,0,1.66,1.347,1.578,1.578,0,0,0,1.609-1.249,4.9,4.9,0,0,0,.132-1.183,5.564,5.564,0,0,0-.148-1.331,1.58,1.58,0,0,0-1.611-1.2,1.114,1.114,0,0,0-.558.164.178.178,0,0,1-.23-.033l-.624-.689a.158.158,0,0,1,0-.23l2.695-3.072c.033-.05,0-.083-.05-.083H240.6a.155.155,0,0,1-.165-.164V91.668a.155.155,0,0,1,.165-.164h6.045a.155.155,0,0,1,.165.164v1.084a.3.3,0,0,1-.083.2l-2.25,2.711c-.033.049-.017.066.033.082a2.768,2.768,0,0,1,2.217,2.152A6.207,6.207,0,0,1,246.9,99.439Z" transform="translate(-240.301 -91.504)"/><path class="g" d="M249.388,91.5h1.3a.155.155,0,0,1,.165.164V102.84a.155.155,0,0,1-.165.164h-1.248a.155.155,0,0,1-.165-.164V93.113a.055.055,0,0,0-.082-.049l-1.512.526c-.115.049-.181-.017-.181-.132v-.9a.2.2,0,0,1,.115-.2l1.561-.805A.5.5,0,0,1,249.388,91.5Z" transform="translate(-239.842 -91.504)"/><path class="g" d="M252.365,103.7l.56-3.648c.016-.115.065-.148.164-.148h1.1c.115,0,.164.066.131.181l-.87,3.648a.179.179,0,0,1-.181.148h-.756A.149.149,0,0,1,252.365,103.7Z" transform="translate(-239.532 -90.968)"/><path class="g" d="M262.337,99.439a6.535,6.535,0,0,1-.148,1.4,2.991,2.991,0,0,1-3.138,2.3,3.09,3.09,0,0,1-3.187-2.382,5.179,5.179,0,0,1-.132-1.15.148.148,0,0,1,.165-.165h1.248a.148.148,0,0,1,.165.165c.016.263.049.59.082.821a1.624,1.624,0,0,0,1.659,1.347,1.577,1.577,0,0,0,1.609-1.249,4.848,4.848,0,0,0,.132-1.183,5.562,5.562,0,0,0-.148-1.331,1.578,1.578,0,0,0-1.611-1.2,1.115,1.115,0,0,0-.559.164.178.178,0,0,1-.23-.033l-.624-.689a.16.16,0,0,1,0-.23l2.695-3.072c.033-.05,0-.083-.049-.083h-4.239a.155.155,0,0,1-.164-.164V91.668a.155.155,0,0,1,.164-.164h6.046a.155.155,0,0,1,.164.164v1.084a.305.305,0,0,1-.082.2l-2.251,2.711c-.033.049-.016.066.033.082a2.769,2.769,0,0,1,2.218,2.152A6.256,6.256,0,0,1,262.337,99.439Z" transform="translate(-239.317 -91.504)"/><path class="g" d="M264.82,91.5h1.3a.155.155,0,0,1,.164.164V102.84a.155.155,0,0,1-.164.164h-1.249a.154.154,0,0,1-.164-.164V93.113a.056.056,0,0,0-.083-.049l-1.512.526c-.115.049-.18-.017-.18-.132v-.9a.2.2,0,0,1,.115-.2l1.561-.805A.5.5,0,0,1,264.82,91.5Z" transform="translate(-238.858 -91.504)"/><path class="g" d="M274.63,98.666v1.1a.155.155,0,0,1-.164.164h-.624a.071.071,0,0,0-.066.066v2.842a.155.155,0,0,1-.164.164h-1.249a.155.155,0,0,1-.165-.164V100a.07.07,0,0,0-.065-.066h-4.42a.155.155,0,0,1-.164-.164v-.9a.449.449,0,0,1,.033-.2l2.809-7.032a.171.171,0,0,1,.18-.131h1.348c.115,0,.164.082.115.2l-2.646,6.72a.056.056,0,0,0,.05.082h2.695a.07.07,0,0,0,.065-.066V96.1a.156.156,0,0,1,.165-.165h1.249a.156.156,0,0,1,.164.165v2.333a.071.071,0,0,0,.066.066h.624A.155.155,0,0,1,274.63,98.666Z" transform="translate(-238.563 -91.504)"/></g></g><g class="e" transform="translate(1048.717 506.79)"><g transform="translate(-0.001 0)"><path class="h" d="M114.765,373.566v-5.29a3.286,3.286,0,0,1,6.572,0v5.29a3.286,3.286,0,0,1-6.572,0Zm4.994.082V368.21a1.712,1.712,0,1,0-3.417,0v5.438a1.712,1.712,0,1,0,3.417,0Z" transform="translate(-114.765 -365.023)"/><path class="h" d="M122.4,377.359l.558-3.647c.017-.116.066-.148.165-.148h1.1c.116,0,.165.065.132.181l-.871,3.647a.178.178,0,0,1-.18.148h-.756A.148.148,0,0,1,122.4,377.359Z" transform="translate(-114.278 -364.478)"/><path class="h" d="M125.873,376.505v-1.051a.282.282,0,0,1,.066-.2c1.171-1.537,2.3-2.99,3.3-4.387a5.374,5.374,0,0,0,1.265-2.809,1.52,1.52,0,0,0-1.561-1.659,1.479,1.479,0,0,0-1.512,1.643v.574a.156.156,0,0,1-.164.165H126a.156.156,0,0,1-.165-.165v-.706a3.136,3.136,0,0,1,6.259.148,5.883,5.883,0,0,1-1.314,3.319c-.887,1.265-1.889,2.547-2.875,3.844-.033.049-.016.082.033.082h4.288a.155.155,0,0,1,.164.164v1.035a.155.155,0,0,1-.164.165h-6.194A.155.155,0,0,1,125.873,376.505Z" transform="translate(-114.059 -365.022)"/><path class="h" d="M139.67,373.106a4.985,4.985,0,0,1-.2,1.462,2.754,2.754,0,0,1-2.941,2.234,2.835,2.835,0,0,1-2.973-2.267,5.558,5.558,0,0,1-.164-1.38l-.017-5.208a2.84,2.84,0,0,1,3.105-2.907,2.774,2.774,0,0,1,2.974,2.858v.345a.156.156,0,0,1-.165.165h-1.249a.155.155,0,0,1-.164-.165v-.23a1.446,1.446,0,0,0-1.4-1.578,1.491,1.491,0,0,0-1.512,1.627v1.955c0,.049.033.082.083.033a2.092,2.092,0,0,1,1.609-.657,2.693,2.693,0,0,1,2.728,2.037A4.647,4.647,0,0,1,139.67,373.106Zm-1.594-.033a4.361,4.361,0,0,0-.2-1.331,1.43,1.43,0,0,0-2.743.049,4.978,4.978,0,0,0-.165,1.315,4.345,4.345,0,0,0,.132,1.166,1.441,1.441,0,0,0,2.825-.016A4.517,4.517,0,0,0,138.077,373.073Z" transform="translate(-113.578 -365.022)"/><path class="h" d="M146.944,373.1a4.471,4.471,0,0,1-.345,1.856,2.817,2.817,0,0,1-2.809,1.839,2.86,2.86,0,0,1-2.99-2.316,4.1,4.1,0,0,1-.115-.657.135.135,0,0,1,.148-.164H142.1a.168.168,0,0,1,.181.164,2.063,2.063,0,0,0,.066.345,1.417,1.417,0,0,0,1.446,1.249,1.461,1.461,0,0,0,1.462-1.265,4.654,4.654,0,0,0,.1-1.035,5.131,5.131,0,0,0-.115-1.15,1.37,1.37,0,0,0-1.446-1.134,1.45,1.45,0,0,0-1.479.986.167.167,0,0,1-.181.131h-1.282a.154.154,0,0,1-.164-.164v-6.456a.155.155,0,0,1,.164-.165h5.6a.156.156,0,0,1,.164.165v1.035a.155.155,0,0,1-.164.164h-4.124a.071.071,0,0,0-.066.066l-.016,3.5c0,.05.033.066.082.033a2.523,2.523,0,0,1,1.79-.673,2.4,2.4,0,0,1,2.432,1.561A4.975,4.975,0,0,1,146.944,373.1Z" transform="translate(-113.112 -365.014)"/><path class="h" d="M147.854,376.505v-1.051a.282.282,0,0,1,.066-.2c1.17-1.537,2.3-2.99,3.3-4.387a5.374,5.374,0,0,0,1.265-2.809,1.52,1.52,0,0,0-1.561-1.659,1.479,1.479,0,0,0-1.512,1.643v.574a.155.155,0,0,1-.164.165h-1.265a.156.156,0,0,1-.165-.165v-.706a3.136,3.136,0,0,1,6.259.148,5.883,5.883,0,0,1-1.314,3.319c-.887,1.265-1.889,2.547-2.875,3.844-.033.049-.016.082.033.082h4.288a.155.155,0,0,1,.164.164v1.035a.155.155,0,0,1-.164.165h-6.193A.156.156,0,0,1,147.854,376.505Z" transform="translate(-112.657 -365.022)"/><path class="h" d="M155.3,373.566v-5.29a3.286,3.286,0,0,1,6.571,0v5.29a3.286,3.286,0,0,1-6.571,0Zm4.994.082V368.21a1.713,1.713,0,1,0-3.418,0v5.438a1.713,1.713,0,1,0,3.418,0Z" transform="translate(-112.18 -365.023)"/><path class="h" d="M169.282,373.106a5.021,5.021,0,0,1-.2,1.462,2.755,2.755,0,0,1-2.941,2.234,2.835,2.835,0,0,1-2.973-2.267,5.508,5.508,0,0,1-.164-1.38l-.017-5.208a2.84,2.84,0,0,1,3.105-2.907,2.773,2.773,0,0,1,2.973,2.858v.345a.155.155,0,0,1-.164.165h-1.249a.155.155,0,0,1-.164-.165v-.23a1.446,1.446,0,0,0-1.4-1.578,1.491,1.491,0,0,0-1.512,1.627v1.955c0,.049.033.082.082.033a2.1,2.1,0,0,1,1.611-.657A2.693,2.693,0,0,1,169,371.429,4.671,4.671,0,0,1,169.282,373.106Zm-1.594-.033a4.361,4.361,0,0,0-.2-1.331,1.43,1.43,0,0,0-2.743.049,4.934,4.934,0,0,0-.165,1.315,4.345,4.345,0,0,0,.132,1.166,1.441,1.441,0,0,0,2.825-.016A4.517,4.517,0,0,0,167.689,373.073Z" transform="translate(-111.689 -365.022)"/><path class="h" d="M170.19,376.505v-1.051a.282.282,0,0,1,.066-.2c1.171-1.537,2.3-2.99,3.3-4.387a5.377,5.377,0,0,0,1.266-2.809,1.52,1.52,0,0,0-1.562-1.659,1.478,1.478,0,0,0-1.511,1.643v.574a.156.156,0,0,1-.165.165h-1.265a.155.155,0,0,1-.164-.165v-.706a3.136,3.136,0,0,1,6.259.148,5.878,5.878,0,0,1-1.315,3.319c-.887,1.265-1.889,2.547-2.875,3.844-.032.049-.016.082.033.082h4.288a.156.156,0,0,1,.165.164v1.035a.156.156,0,0,1-.165.165h-6.193A.156.156,0,0,1,170.19,376.505Z" transform="translate(-111.232 -365.022)"/></g></g><g transform="translate(1022.518 471.598)"><g class="d" transform="translate(0 0.39)"><path class="i" d="M0,266.518c.262-.262.488-.488.51-.5a60.763,60.763,0,0,1,31.533-17.022c.516-.1,1.033-.19,1.557-.276a58.131,58.131,0,0,1,23.389.927c1.146.283,2.3.606,3.474.948.615.18,1.23.371,1.847.566,2.281.72,11.681,3.9,12.239,4.082,9.753,3.122,19.788,5.469,29.361,1.564,7.853-3.205,14.749-10.4,20.984-21.869.247-.453.491-.919.736-1.387,1.334-2.541,2.6-5.3,3.87-8.242.189-.439,3.757-9.388,5.235-13.294,3.891-10.308,7.945-21.048,13.987-30.069,5.943-8.872,15.35-16.733,25.392-18.4.531-.088,1.068-.164,1.606-.212a21.808,21.808,0,0,1,8.709.955c8.016,2.6,15.381,10.315,20.149,21.2,4.224,9.643,6.176,20.546,8.072,31.115l.149.814c1.415,7.874,3.021,16.8,6.912,24.7a35.427,35.427,0,0,0,8.094,10.832q.895.793,1.818,1.479a20.922,20.922,0,0,0,8.348,3.842c10.613,2.108,20.132-5.48,25.668-14.773.515-.864.972-1.749,1.429-2.632.082-.158.157-.311.233-.467,4.058-8.269,5.78-17.722,7.506-26.863.58-3.056,1.16-6.113,1.818-9.141.686-3.141,1.448-6.073,2.314-8.8.188-.595.383-1.181.58-1.755,3.332-9.725,7.832-16.7,13.718-21.147,14.157-10.683,33.663-5.264,45.9,4.521a74.678,74.678,0,0,1,10.549,10.478q.614.734,1.21,1.486c6.99,8.8,12.72,19,18.331,29.078l1.3,2.335c6.969,12.48,20.147,35.416,30.624,45.582H401.6c-9.615-9.771-24.8-34.744-31.4-46.545l-1.3-2.335c-5.653-10.131-11.417-20.39-18.48-29.29q-.6-.751-1.21-1.486a76.71,76.71,0,0,0-10.931-10.853c-12.77-10.181-33.16-15.749-48.024-4.507-6.162,4.662-10.848,11.885-14.3,21.925-.2.573-.39,1.16-.58,1.754-.9,2.829-1.7,5.865-2.405,9.12-.658,3.043-1.245,6.12-1.825,9.184-1.7,9.013-3.453,18.3-7.33,26.368q-.6,1.252-1.309,2.483c-.533.929-1.124,1.84-1.747,2.731-5.295,7.573-13.64,13.562-22.576,11.779a18.824,18.824,0,0,1-6.254-2.554,23.736,23.736,0,0,1-2.016-1.415,32.346,32.346,0,0,1-8.837-11.249c-3.778-7.641-5.356-16.442-6.75-24.189l-.149-.814c-1.924-10.7-3.905-21.727-8.228-31.589-4.811-10.973-12.181-18.905-20.312-21.812-.261-.093-.523-.184-.785-.269a22.576,22.576,0,0,0-9.226-.991c-.552.055-1.1.127-1.649.213a30.929,30.929,0,0,0-10.846,4.061,49.5,49.5,0,0,0-15.508,15c-6.148,9.19-10.23,20.015-14.15,30.408-1.422,3.771-2.9,7.641-4.422,11.383-.071.177-.494,1.183-.629,1.507q-1.971,4.7-4.082,8.695c-.246.467-.5.934-.743,1.387-6.006,11.015-12.65,17.913-20.156,20.984-8.893,3.643-18.339,1.7-27.571-1.21-.537-.17-13.209-4.385-13.8-4.564-1.65-.5-3.29-.976-4.91-1.372a58.771,58.771,0,0,0-24.889-.715c-.488.091-.976.189-1.457.29A61.467,61.467,0,0,0,0,264.629Z" transform="translate(0.001 -161.506)"/></g><g class="d" transform="translate(0 0)"><path class="j" d="M0,189.19l17.023,35.375c3.87,8.044,8.3,16.552,13.8,22.718.4.445.807.884,1.224,1.308a24.5,24.5,0,0,0,10.825,6.842c6.785,1.868,13.323-.375,19.442-4.676.51-.359,1.027-.734,1.535-1.118a94.145,94.145,0,0,0,13.846-13.626q3.215-3.725,6.446-7.513c7.712-9.028,15.662-18.418,24.281-27.111.345-.348.687-.7,1.033-1.047,4.546-4.552,9.247-8.942,14.164-13,12.862-10.613,26.241-18.015,39.52-21.855a88.165,88.165,0,0,1,10.98-2.349c.532-.083,1.069-.156,1.606-.212a83.161,83.161,0,0,1,9.685-.46c.078,0,.156.006.233.007,16.086.213,31.766,6.389,46.758,12.586,14.2,5.88,28.493,12.416,42.98,19.371.522.251,1.047.5,1.564.757q17.465,8.58,35.155,18.225c.615.334,1.224.672,1.84,1.012q39.552,21.8,79.741,49.164v-2.377c-26.135-17.765-52.212-33.758-78.008-47.975-.616-.34-1.225-.678-1.839-1.012q-18.28-9.938-36.309-18.791c-.525-.259-1.048-.508-1.563-.757Q254.249,182.2,232.961,173.37c-15.19-6.261-31.1-12.282-47.5-12.643a74.426,74.426,0,0,0-9.834.488c-.551.061-1.1.131-1.649.213-17.049,2.509-34.539,10.832-51.123,24.542-5.009,4.139-9.788,8.621-14.4,13.259-.346.347-.693.7-1.033,1.047C98.871,209,90.926,218.31,83.249,227.309q-3.215,3.779-6.424,7.514c-4.578,5.306-9.554,10.494-14.751,14.256-.533.386-1.074.759-1.613,1.111-5.539,3.61-11.391,5.377-17.4,3.736a22.573,22.573,0,0,1-9.459-5.61c-.452-.425-.89-.865-1.323-1.323-5.624-5.949-10.145-14.588-14.3-23.213L0,186.452Z" transform="translate(0.001 -160.713)"/></g></g><g transform="translate(943.23 160.355)"><g class="k" transform="translate(0 0)"><g transform="translate(0.001 17.665)"><g transform="translate(0)"><g transform="translate(32.382)"><path class="l" d="M399.41,250.036,256.894,443.65l16.5-.114L415.912,249.922Z" transform="translate(-256.894 -7.939)"/><path class="l" d="M401.974,212.469,387,197.958l-16.5.114,41.95,40.661,16.5-.114Z" transform="translate(-232.864 -18.93)"/><path class="l" d="M501.672,177.727,409.04,304.18l16.5-.114,92.632-126.453Z" transform="translate(-224.713 -23.233)"/><path class="l" d="M511.954,143.391l-13.634-13.252-16.5.114,35.114,34.129,16.5-.114Z" transform="translate(-209.319 -33.275)"/><path class="l" d="M595.407,113.262,514.373,223.775l16.5-.113,81.033-110.514Z" transform="translate(-202.434 -36.869)"/><path class="m" d="M597.8,145.591,612.679,50.3l16.5-.114L614.3,145.477Z" transform="translate(-184.788 -50.186)"/></g><g transform="translate(0 0.114)"><path class="n" d="M230.166,384.532l2.8-.406L260.5,410.25l2.052,5.014Z" transform="translate(-230.166 20.333)"/><path class="o" d="M387.258,215.224,230.166,423.89l2.8-.406,165.92-220.392,1.3-5.04Z" transform="translate(-230.166 -19.024)"/><path class="p" d="M397.7,245.9,255.2,439.486l2.052,5.014L399.768,250.887Z" transform="translate(-224.87 -8.903)"/><path class="b" d="M385.7,212.563l-14.97-14.511-1.3,5.04,41.945,40.655,1.3-5.033Z" transform="translate(-200.709 -19.024)"/><path class="q" d="M414.622,284.745l-41.8-38.844,2.073,4.985,41.811,38.85Z" transform="translate(-199.993 -8.903)"/><path class="r" d="M486.415,145.9l-81.06,107.155-1.3,5.033,92.91-122.821,1.3-5.037Z" transform="translate(-193.386 -33.369)"/><path class="s" d="M499.953,173.591,407.324,300.04l2.079,4.991,92.632-126.454Z" transform="translate(-192.694 -24.198)"/><path class="b" d="M495.681,143.485l-13.634-13.252-1.3,5.037,35.115,34.13,1.3-5.038Z" transform="translate(-177.165 -33.369)"/><path class="t" d="M518.763,206l-34.982-32.413,2.082,4.986,34.98,32.413Z" transform="translate(-176.522 -24.198)"/><path class="u" d="M570.762,93.236l2.809-.4-63.843,84.476,1.3-5.038Z" transform="translate(-171.034 -41.279)"/><path class="v" d="M543.571,77.474l4.557,1.259,18.284,17.353-2.809.4Z" transform="translate(-163.875 -44.529)"/><path class="w" d="M593.713,109.1,512.656,219.646l2.08,4.985L595.77,114.118Z" transform="translate(-170.415 -37.839)"/><path class="x" d="M581.619,114.118l-2.057-5.018,18.284,17.351,3.807,6.679Z" transform="translate(-156.263 -37.839)"/><path class="b" d="M598.46,145.571l-3.807-6.679,12.989-83.158,5.7-5.454Z" transform="translate(-153.071 -50.28)"/><path class="y" d="M624.149,50.28l-5.7,5.454-70.318,28.75-4.557-1.259Z" transform="translate(-163.875 -50.28)"/></g><path class="z" d="M613.929,83.532l18.284,17.353L568.37,185.361l-35.115-34.13-92.91,122.821L398.4,233.4,232.48,453.788l27.527,26.123L402.5,286.326l41.8,38.844,92.629-126.448,34.982,32.413,81.057-110.546,18.284,17.351,12.989-83.158Z" transform="translate(-229.676 -49.214)"/><path class="aa" d="M467.857,228.779a102.823,102.823,0,0,1-24.786-14.813l45.84-60.6L524.027,187.5,590,100.208l-17.46-16.57,64.969-26.561-12,76.83L608.2,117.478,527.125,228.044l-34.984-32.413Z" transform="translate(-185.133 -48.729)"/></g></g></g></g></g></svg>