<svg xmlns="http://www.w3.org/2000/svg" xmlns:xlink="http://www.w3.org/1999/xlink" width="594" height="457" viewBox="0 0 594 457"><defs><style>.a,.j{fill:#fff;}.a{stroke:#707070;}.b{clip-path:url(#a);}.c{fill:#7af0ff;}.d{fill:#cef9ff;}.e{fill:#8c6df2;}.f{fill:#312656;}.g{fill:#f9d4e3;}.h{fill:#261d42;}.i{fill:#12263f;}.k{fill:#d35a73;}.l{fill:#ffb74d;}.m{fill:#f8e9f8;}.n,.p{fill:#f4e84d;}.o{opacity:0.3;fill:url(#b);}.o,.p{mix-blend-mode:multiply;isolation:isolate;}</style><clipPath id="a"><rect class="a" width="594" height="457" transform="translate(181 385)"/></clipPath><linearGradient id="b" x1="-58.593" y1="-9.993" x2="-58.323" y2="-10.319" gradientUnits="objectBoundingBox"><stop offset="0" stop-color="#fff"/><stop offset="0.189" stop-color="#c2cad3"/><stop offset="0.403" stop-color="#8494a7"/><stop offset="0.599" stop-color="#536a84"/><stop offset="0.77" stop-color="#304b6b"/><stop offset="0.909" stop-color="#1a385b"/><stop offset="1" stop-color="#133256"/></linearGradient></defs><g class="b" transform="translate(-181 -385)"><g transform="translate(181 385)"><g transform="translate(0 0)"><rect class="c" width="1082" height="457" transform="translate(0 0)"/><path class="d" d="M289.474,1417.453,69.436,1607.539H0v-88.88a20.824,20.824,0,0,1,17.223,7.178,20.478,20.478,0,0,1,3.666,6.122,13.274,13.274,0,0,1,17.956,1.965,14.644,14.644,0,0,1,1.283,1.767,8.322,8.322,0,0,1,.726-.711,13.54,13.54,0,0,1,8.755-3.307,13.284,13.284,0,0,1,2.94.264,13.684,13.684,0,0,1,23.9-6.885,9.319,9.319,0,0,1,.579.748,26.33,26.33,0,0,1,28.984-.059,8.849,8.849,0,0,1,9.092-5.022,17.7,17.7,0,0,1,.96-8.835,17.429,17.429,0,0,1,4.978-7.127,17.7,17.7,0,0,1,14.071-4.128,19.641,19.641,0,0,1,31.565-14.232c.653-.33,1.32-.623,1.994-.887a20.059,20.059,0,0,1,4.341-1.1,19.658,19.658,0,0,1,4.326-11.607,18.056,18.056,0,0,1,2.442-2.53,19.644,19.644,0,0,1,3.358-2.346,19.62,19.62,0,0,1,34.476-12.523c.286.33.55.66.807.99a19.5,19.5,0,0,1,3.432,7.318,12.751,12.751,0,0,1,7.889-1.855,13.061,13.061,0,0,1,.5-2.537,12.788,12.788,0,0,1,12.457-19.5,12.8,12.8,0,0,1,17.971-17.538l.066-.059a11.936,11.936,0,0,1,14.188-1.063,12.579,12.579,0,0,1,1.76-1.891,11.919,11.919,0,0,1,12.788-1.819Z" transform="translate(0 -1150.873)"/><path class="d" d="M1551.088,426.235a15.889,15.889,0,0,0-14.7,21.953v.007c.11.271.227.543.359.807a15.367,15.367,0,0,0,1.965,3.109,4.219,4.219,0,0,0-2.1,2.581,6.485,6.485,0,0,0-1.613-.205,6.715,6.715,0,0,0-1.276.125c-.235.051-.454.11-.682.183a6.378,6.378,0,0,0-3.38,2.522,6.1,6.1,0,0,0-.543.982,12.633,12.633,0,0,0-17.1,4.861,12.427,12.427,0,0,0-1.65,6.225,13.11,13.11,0,0,0,.491,3.49,8.633,8.633,0,0,0-2.734,3.375,17.961,17.961,0,0,0-7.025,1.739,18.513,18.513,0,0,0-5.126,1,28.282,28.282,0,0,0-39.353,11.283,22.433,22.433,0,0,0-20.776-.764A26.222,26.222,0,1,0,1403.159,530c-.013.025-.028.048-.041.073a28.12,28.12,0,0,0,1.839,30.952,14.879,14.879,0,0,0-1.908,2.284l0,0a14.737,14.737,0,0,0-1.968,4.22c-.124.415-.224.838-.307,1.264a21.034,21.034,0,0,0-14.926,4.888c-.028.02-.051.04-.077.062a21.12,21.12,0,0,0-5.069,25.928,12.492,12.492,0,0,0-11.248,16.283,12.442,12.442,0,0,0-6.374,1.839l0,0a12.348,12.348,0,0,0-1.546,1.117,12.5,12.5,0,0,0-3.364,14.585L1473.7,535.759v13.392h89.042V431.331A15.823,15.823,0,0,0,1551.088,426.235Z" transform="translate(-1026.024 -402.298)"/><path class="e" d="M744.637,551.179V953.428H275.015Z" transform="translate(-207.922 -496.761)"/><path class="e" d="M609.65,1838.245l-2.253-7.511,5.258-12.768,11.267-3,8.262,7.511Z" transform="translate(-459.215 -1452.229)"/><path class="e" d="M685.279,1817.9l-3.392-5.447,6.92-3.688,6.482,1.763Z" transform="translate(-515.533 -1447.546)"/><path class="e" d="M1286.879,1314.757l-.479-6.036,7.811.689Z" transform="translate(-972.568 -1069.492)"/><path class="e" d="M1681.176,816l-42.812-6.009-12.017,17.275-6.009,42.812Z" transform="translate(-1225.038 -692.432)"/><path class="e" d="M1579.272,1042.32l-5.627.4-7.65,1.106-1.758,4.46,1.7,5.347,9.837-4.843Z" transform="translate(-1182.623 -868.082)"/><path class="e" d="M1160.87,1315.363l-17.8-19.177,4.006-14.021,8.568.1,28.257,13.067Z" transform="translate(-864.207 -1049.415)"/><g transform="translate(101.66 20.518)"><path class="f" d="M835.017,1094.211c.569-2.666,2.188-12.119,3.628-13.682,5.234-5.682,7.285-9.435,7.134-18.6a13.844,13.844,0,0,0-3.947-9.406l-.552,1.051-4.9,22.365-.523,2.381-2.223,5.068-.141.313-3.42,7.778a16.714,16.714,0,0,1-.963,1.876l-4.8,8c-2.546,2.28-4.293,4.5-3.518,5.864,0,0-.088.174.021.033.356.589,1.193,1.015,2.66,1.208C832.464,1109.641,833.494,1101.347,835.017,1094.211Z" transform="translate(-750.997 -920.985)"/><path class="g" d="M1081.508,1353.023l-5.184,2.22,8.235,18.589,9.6,2.931,2.563-.69-1.557-2.028-5.59-1.681a1.452,1.452,0,0,1-.937-.868Z" transform="translate(-933.201 -1135.095)"/><path class="f" d="M956.821,1294.59l-7.138,2.919c-2.884-5.857-5.835-11.528-8.441-16.735-3.645-7.266-6.63-13.63-7.906-18.328l-37.617,18.908-.091-.349-5.452-15.7,44.554-17.119a5.488,5.488,0,0,1,6.975,3.368Z" transform="translate(-800.569 -1060.18)"/><path class="h" d="M954.755,1294.854c-3.645-7.266-6.63-13.63-7.906-18.328l-37.617,18.908-.091-.349,1.487-6.674,1.271-11.087,3.146,10.473,31.536-13.513,2.846-6.643-.724,7.544Z" transform="translate(-814.082 -1074.26)"/><g transform="translate(64.004 286.533)"><path class="g" d="M829.538,1593.722l-5.786-2.067-5.729,19.7,4.15,6.112a9.242,9.242,0,0,0,3.92,3.266l.06-2.556-3.275-4.781a1.452,1.452,0,0,1-.163-1.327Z" transform="translate(-813.165 -1591.656)"/><path class="i" d="M818.355,1671.111l-1.86,1.6-3.463-1.513-11.91-5.215a13.656,13.656,0,0,1,4.86-5.786l6.959,7.621,1.174-.8,2.372,2.876.405.5a1.68,1.68,0,0,0,.967.6C818.032,1671.02,818.2,1671.062,818.355,1671.111Z" transform="translate(-801.122 -1640.489)"/></g><path class="f" d="M847.917,1304.578l-4.57,43.267a19.4,19.4,0,0,1-1.05,4.529l-17.175,46.979-7.786-2.752c1.884-7.314,4.025-15.455,6.075-22.977,3.034-11.182,5.86-20.993,7.29-24.687l-1.033-34.713c-8.472-11.778.049-18.563.049-18.563l2.777,2.587.446.182Z" transform="translate(-748.671 -1094.224)"/><path class="h" d="M855.468,1350.176l-7.025,1.033-9.976,22.415c3.033-11.182,5.86-20.993,7.29-24.687l-1.033-34.713c-8.472-11.778.049-18.563.049-18.563l3.223,2.769,1.066.918s-4.133,9.092,1.24,14.464l-1.653,34.92Z" transform="translate(-763.726 -1094.224)"/><path class="g" d="M1083.674,970.057a5.7,5.7,0,0,0-.658-.021,2.485,2.485,0,0,0-.489-.016l-.05-.007c-.069.007-.152,0-.221,0l-.083-.011a.532.532,0,0,0-.446-.586c-.691-.28-1.309-.72-2-1a1.936,1.936,0,0,0-2.166.35,3.378,3.378,0,0,0-.52.455c-.264.2-.5.441-.711.615a8.1,8.1,0,0,0-.6.583l-.589.661c-.08.1-.97,2.276-1.048,2.372l-6.235,3.168,2.161,4.158,6.947-3.823c.1.014.713.07.808.078a2.359,2.359,0,0,1,.335.029,12.3,12.3,0,0,0,1.792.039,1.8,1.8,0,0,0,.323-.007.46.46,0,0,0,.152,0c.458-.006,1.012.036,1.458-.005l.016,0a1.565,1.565,0,0,0,.638-.2,1.062,1.062,0,0,0,.006-1.423l0-.017a1,1,0,0,0,.944-1.211,1.1,1.1,0,0,0-.381-.442.056.056,0,0,0-.031-.021c.017,0,.035-.012.055-.026a1.22,1.22,0,0,0,1.128-.695,1.233,1.233,0,0,0-.2-1.162c.31-.161.535-.317.568-.567A.991.991,0,0,0,1083.674,970.057Z" transform="translate(-927.171 -860.928)"/><path class="j" d="M1058.977,740.35s.726-2.657,2.148-7.178,3.57-10.964,6.4-18.584c1.434-3.8,3-7.918,4.776-12.223,1.745-4.317,3.7-8.82,5.768-13.46,2.113-4.619,4.331-9.377,6.743-14.134l1.809-3.584,1.889-3.569c1.241-2.4,2.582-4.752,3.9-7.12s2.725-4.684,4.077-7.019c1.4-2.307,2.826-4.587,4.242-6.847,1.478-2.221,2.895-4.457,4.384-6.606,1.519-2.13,2.938-4.288,4.479-6.31,3.011-4.094,6.051-7.958,9.072-11.5,3-3.565,6.013-6.784,8.844-9.7l4.169-4.084c1.358-1.261,2.691-2.411,3.918-3.516.621-.545,1.205-1.091,1.8-1.585l1.74-1.4,3.065-2.46c1.893-1.429,3.437-2.478,4.463-3.228l1.585-1.133a.577.577,0,0,1,.679.932l-.028.021-1.55,1.15c-1,.76-2.511,1.824-4.36,3.271l-2.99,2.488-1.7,1.412c-.578.5-1.148,1.05-1.753,1.6-1.2,1.116-2.494,2.276-3.816,3.547l-4.055,4.114c-2.752,2.939-5.677,6.176-8.588,9.758-2.929,3.564-5.873,7.443-8.784,11.55-1.491,2.028-2.861,4.194-4.328,6.329-1.439,2.154-2.8,4.4-4.23,6.621-1.364,2.265-2.737,4.549-4.085,6.86-1.3,2.34-2.667,4.652-3.92,7.029s-2.551,4.728-3.74,7.126l-1.811,3.571-1.732,3.585c-2.309,4.759-4.427,9.516-6.441,14.132-1.967,4.638-3.831,9.137-5.486,13.448-1.686,4.3-3.168,8.405-4.523,12.2-2.675,7.6-4.68,14.008-6.015,18.5s-1.983,7.072-1.983,7.072a2.085,2.085,0,1,1-4.042-1.027l.007-.025Z" transform="translate(-920.787 -594.997)"/><path class="g" d="M1107.986,981.441a6.712,6.712,0,0,0,.949.013.959.959,0,0,0,.886-.822.93.93,0,0,1,.619-1.638.942.942,0,0,0-.331-.837,1.114,1.114,0,0,0,1.183-.956,1.1,1.1,0,0,0-.364-.96.967.967,0,0,0,.718-.9.979.979,0,0,0-.955-1,12.028,12.028,0,0,0-2.27.045.958.958,0,0,0-.415.167.889.889,0,0,0-.032,1.394.918.918,0,0,0-1.065.832.9.9,0,0,0,.394.867l-.146-.02a1.06,1.06,0,0,0-1.193.908,1.1,1.1,0,0,0,.368.943.914.914,0,0,0-.574.575.855.855,0,0,0-.058.166c-.12.883.717,1.079,1.479,1.157C1107.435,981.392,1107.709,981.421,1107.986,981.441Z" transform="translate(-954.125 -865.254)"/><path class="g" d="M1096.213,961.065c-.576,1.309-2.319,3.207-4.055,3.127,0,0,.037-.934,0-1.153a8.705,8.705,0,0,1,.438-3.91,4.654,4.654,0,0,1,1.234-2.039c.379-.293,1.841-1.823,2.41-2.413a.9.9,0,0,0,.117-.154c.021-.033.039-.067.056-.1a2.57,2.57,0,0,0,.106-.263l.339-.846a.693.693,0,0,1,.128-.227.431.431,0,0,1,.05-.051.71.71,0,0,1,.546-.162c1.085.356.68,1.891.68,1.891a2.637,2.637,0,0,1-.689,1.526l-1.121,1.3a11.209,11.209,0,0,0,.174,1.211A5.149,5.149,0,0,1,1096.213,961.065Z" transform="translate(-944.428 -849.982)"/><path class="j" d="M849.658,1689.095l-1.785,1.537-1.86,1.6-3.463-1.513,2.422-.595a1.737,1.737,0,0,0,.958-.62.93.93,0,0,1,.074-.09,4.094,4.094,0,0,1,3.075-1.818.841.841,0,0,1,.794.545A.861.861,0,0,1,849.658,1689.095Z" transform="translate(-766.636 -1373.478)"/><g transform="translate(109.04 147.955)"><path class="g" d="M959.778,1114.6l-2,7.93,8.936,3.652,2.878-11.641-1.966-1.63-3.342-3.273-4.22,3.109Z" transform="translate(-957.773 -1109.634)"/></g><path class="k" d="M988.583,1166.986l.743,3.481-1.484.7Z" transform="translate(-870.158 -1002.543)"/><path class="j" d="M955.394,1137.039l-2.108,1.551,9.939,11.239.736-4.18Z" transform="translate(-845.536 -981.206)"/><path class="j" d="M847.388,1188.126a1.467,1.467,0,0,0,.268.177,6.276,6.276,0,0,0,1.7,1.23,6.412,6.412,0,0,0,3.223.745,7.355,7.355,0,0,0,1.809-.315c2.023-.663,6.556,2.606,9.171,4.427a15.6,15.6,0,0,0,4.437,2.425,2.527,2.527,0,0,0,1.374.128,2.241,2.241,0,0,0,1.954-2.588,11.122,11.122,0,0,1,.293-3.208c.144-.534.232-.979.252-1.043.5-2.4,1.271-3.009,2.2-5.29.673-1.669,1.341-3.325,1.532-3.91l.992-2.124c1.681-3.577,2.305-7.322,4.917-10.292,3.026-3.438,6.835-9.167,5.651-15.283l-.044-.117c-.128-.309-.272-.633-.44-.959a6.427,6.427,0,0,1-.468-1.506,10.682,10.682,0,0,0-3.113-5.411c-1.938-1.886-3.052-4.04-5.8-3.269a44.631,44.631,0,0,0-6.022,2.318c-1.374.642-2.537,1.248-3.227,1.665a24.831,24.831,0,0,0-5.395,4.333c-.342.363-.681.736-1,1.1a26.433,26.433,0,0,0-4.711,8.387c-.006.013-.006.013,0,.023-.479,1.328-.905,2.738-1.34,4.183-.5,1.781-1.021,3.584-1.532,5.415-.77,2.831-.832,3.847-1.668,6.413-.212.648-.421,1.273-.642,1.869l-.062.191c-.238.669-.477,1.306-.742,1.929a8.986,8.986,0,0,1-3.427,4.648,2.264,2.264,0,0,0-.973,2.027.43.43,0,0,0,.032.144A2.36,2.36,0,0,0,847.388,1188.126Z" transform="translate(-769.485 -984.585)"/><g transform="translate(109.401 137.247)"><path class="g" d="M999.883,1097.475a9.539,9.539,0,0,1-.419,5.016l-.279.936.352,2.772a.555.555,0,0,1-.706.6l-.523-.153-.742.423-3.316.742-2.4-2.5-.628-4.264-.156-7.236,3.922-.255,3.688,1.92Z" transform="translate(-981.853 -1087.472)"/><path class="f" d="M959.113,1081.35l-.083-4.2a1.6,1.6,0,0,1,1.758-1.7,2.206,2.206,0,0,1,2.823-1.312s2.233-3.293,8.1-.847l-1.172.9a5.963,5.963,0,0,1,5.544,1.446l-.924.766s3.526-.407,3.716,2.916a3.347,3.347,0,0,1-1.82,3.07l-10.973-3.275Z" transform="translate(-959.027 -1072.389)"/><path class="h" d="M970.622,1115.017a3.326,3.326,0,0,0,3.558-5.256.039.039,0,0,1-.005-.04.679.679,0,0,0,.031-.074l1.305-4.092-3.591-.351a2.886,2.886,0,0,1-2.59-3.167c0-.045.01-.091.016-.138s.006-.073.012-.112a5.1,5.1,0,0,1,1.959-3.306,1.991,1.991,0,0,0,.729-2.354,2.119,2.119,0,0,0-.29-.535l0,0a8.885,8.885,0,0,0-10.792-2.768c-.766.349-2.274,1.387-1.808,4.045l.577,1.385a9.785,9.785,0,0,1,.709,4.676l-.046.493,4.065-2.678,1.646,1.523,1.275,1.178s-2.04,2.85-1.192,5.824a4.4,4.4,0,0,0,2.071,2.613A3.317,3.317,0,0,0,970.622,1115.017Z" transform="translate(-959.057 -1086.378)"/><path class="g" d="M979.986,1111.949a1.918,1.918,0,0,0-2.46-.852c-.732.319-1.586,1.075-1.194,2.856,0,0,.548,2.7,2.114,3.327,0,0,1.007.592,1.318-.909l.526-2.532a2.6,2.6,0,0,0-.051-1.262A3.313,3.313,0,0,0,979.986,1111.949Z" transform="translate(-971.287 -1099.854)"/></g><path class="f" d="M719.963,1169.291s12.882-6.463,20.873,7.548l5.2-13.085-1.314-9.211Z" transform="translate(-679.292 -993.677)"/><g transform="translate(109.364 219.044)"><path class="g" d="M972.742,1356.908l-6.31.1.024,18.864,8.739,5.486,2.727,0-1-2.43a31.764,31.764,0,0,1-4.064-2.533,3.176,3.176,0,0,1-1.066-2.078Z" transform="translate(-964.267 -1356.908)"/><path class="i" d="M961.09,1422.866a13.847,13.847,0,0,0-2.182,7.423l20.991-.034a.86.86,0,0,0,.553-1.52,4.246,4.246,0,0,0-3.731-.625,1.792,1.792,0,0,1-1.158-.158l-4.006-2.026-.773,1.232Z" transform="translate(-958.901 -1403.903)"/></g><g transform="translate(0 153.203)"><path class="f" d="M633.562,1128.7l1.767-.807,43.223,94.711a.971.971,0,0,1-1.767.807Z" transform="translate(-617.73 -1127.891)"/><path class="f" d="M623.357,1341.875c-10.459,16.617-34.4,4.276-44.863,20.893l14.985,32.177c10.459-16.618,34.4-4.276,44.864-20.893-6.545-4.083-7.658-10.127-6.936-14.719C624.734,1353.831,623.826,1350.442,623.357,1341.875Z" transform="translate(-578.494 -1280.356)"/><g transform="translate(9.599 76.351)"><path class="l" d="M711.206,1395.331a13.941,13.941,0,0,0,1.138-.9,3.782,3.782,0,0,1,1.583-.892,2.068,2.068,0,0,1,1.474.134,2.521,2.521,0,0,1,1.1,1.281l2.607,5.714a5.8,5.8,0,0,1,.488,2.209,7.32,7.32,0,0,1-.31,2.417,4.008,4.008,0,0,1-1.141,1.863,13.708,13.708,0,0,1-1.138.9,2.514,2.514,0,0,1-1.783.477,3.577,3.577,0,0,1-1.738-.713,3.365,3.365,0,0,1-.664-.611,8.656,8.656,0,0,1-.868-1.609,16.013,16.013,0,0,0,2.438-1.231q.123.266.243.533a1.534,1.534,0,0,0,.642.732.572.572,0,0,0,.6-.045,13.5,13.5,0,0,0,1.138-.9,1.117,1.117,0,0,0,.316-.708,1.692,1.692,0,0,0-.139-.947q-1.3-2.857-2.607-5.714a.893.893,0,0,0-.538-.538.578.578,0,0,0-.587.115,13.473,13.473,0,0,1-1.168.919.958.958,0,0,0-.356.631,1.4,1.4,0,0,0,.112.877q.243.523.487,1.046.426-.264.84-.561l1.049,2.3a15.5,15.5,0,0,1-3.256,1.779l-1.608-3.526.008,0a3.686,3.686,0,0,1-.273-1.769,4.23,4.23,0,0,1,.575-1.825A4.513,4.513,0,0,1,711.206,1395.331Z" transform="translate(-681.287 -1393.465)"/><path class="l" d="M677.727,1410.495a8.983,8.983,0,0,1,1.776-.111,4.236,4.236,0,0,1,1.063.18,5.467,5.467,0,0,1,3.483,3.146q.926,2.033,1.855,4.067a3.875,3.875,0,0,1-.143,4.176,2.311,2.311,0,0,1-.715.584,5.279,5.279,0,0,1-1.588.524,7.007,7.007,0,0,1-1.772.056,4.128,4.128,0,0,1-1.079-.278,6.983,6.983,0,0,1-2.114-1.368,6.791,6.791,0,0,1-1.39-2.057q-.929-2.034-1.855-4.067a4.947,4.947,0,0,1-.537-2.169,2.945,2.945,0,0,1,.71-1.721A3.9,3.9,0,0,1,677.727,1410.495Zm1.171,2.442a2.663,2.663,0,0,0-.938.345c-.406.3-.418.875-.03,1.725q.926,2.034,1.855,4.067a2.312,2.312,0,0,0,1.5,1.49,3.08,3.08,0,0,0,1.122.036,2.217,2.217,0,0,0,.879-.348.839.839,0,0,0,.313-.41,2.105,2.105,0,0,0-.21-1.387l-1.855-4.067a2.9,2.9,0,0,0-.981-1.223,1.449,1.449,0,0,0-.595-.229A3.462,3.462,0,0,0,678.9,1412.937Z" transform="translate(-656.647 -1405.516)"/><path class="l" d="M634,1415.778a19.976,19.976,0,0,1,2.5-.9q.767,1.048,1.536,2.1c.982-.261,1.991-.469,3.014-.642q-.244-1.166-.487-2.332c.907-.145,1.827-.265,2.749-.381q1.324,6.443,2.668,12.931a33.768,33.768,0,0,0-3.512.751Q638.2,1421.449,634,1415.778Zm5.71,3.477q1.368,1.881,2.743,3.778-.44-2.093-.875-4.173C640.95,1418.976,640.326,1419.1,639.712,1419.255Z" transform="translate(-627.643 -1407.829)"/><path class="l" d="M611.884,1427.925a14.065,14.065,0,0,1,5.172-4.787q2.852,6.25,5.7,12.5a14.351,14.351,0,0,0-2.2,1.469l-4.661-10.2a14.3,14.3,0,0,0-2.966,3.32C612.58,1429.464,612.232,1428.693,611.884,1427.925Z" transform="translate(-611.884 -1414.607)"/></g></g><path class="m" d="M924.985,1166.026s3.983,4.869,0,8.851l-10.622,7.081-2.95-4.278Z" transform="translate(-815.701 -1001.859)"/><path class="f" d="M840.534,1210.7v49.027h-8.851c-.531-9.479-1.133-18.605-1.558-26.288-.425-7.886-.655-14.268-.433-17.968h-38.37c-5.665,0-11.683-4.727-12.259-10.462a8.935,8.935,0,0,1,.487-3.957c.106-.318.77-2.2,1.213-2.23.009,0,1.646-.115,3.425-.221,2.124-.142,4.443-.292,4.443-.292l.46-.026,9.6-.336,2.053.274,32.909,4.337A7.868,7.868,0,0,1,840.534,1210.7Z" transform="translate(-721.367 -1024.6)"/><path class="l" d="M975.039,1224.818a12.3,12.3,0,0,1-.352-1.663l-.145-1q-.037-.255-.075-.514l-.038-.261,0-.033,0-.016c.016.224,0,.054.007.1l0-.06-.008-.12q-.066-.967-.135-2a30.042,30.042,0,0,1,.175-4.272c.04-.364.064-.719.115-1.1q.126-.615.253-1.239l.256-1.255.032-.158c.007-.028-.052.178-.025.081l0-.021.009-.041.018-.083.073-.332.146-.667a51.9,51.9,0,0,0,.925-5.389c.091-.9.207-1.8.275-2.7s.115-1.787.171-2.671c.059-1.767.1-3.5.074-5.174s-.071-3.285-.165-4.81c-.075-1.525-.2-2.962-.314-4.286-.482-5.294-1.132-8.778-1.132-8.778l-.878.108s.253,3.495.144,8.737c-.033,1.309-.07,2.727-.164,4.22-.074,1.495-.2,3.066-.363,4.683s-.384,3.278-.628,4.956l-.447,2.514c-.159.839-.363,1.667-.541,2.5a47.67,47.67,0,0,1-1.4,4.829l-.817,2.488-.389,1.2c-.114.436-.212.9-.316,1.349a34.9,34.9,0,0,0-.809,5.161q-.055,1.236-.107,2.4l-.006.146,0,.072.009.182.008.263q.009.262.017.52.017.515.033,1.01a19.18,19.18,0,0,0,.189,2.076l3.925,3.076Z" transform="translate(-856.343 -1009.221)"/><g transform="translate(80.558 112.965)"><rect class="j" width="2.809" height="5.895" transform="matrix(0.894, -0.449, 0.449, 0.894, 61.763, 1.26)"/><path class="f" d="M897.523,1009.955a7.864,7.864,0,0,1-3.057.94l-28.512,2.669a6.613,6.613,0,0,1-7.228-6.265l-.013-.261a6.613,6.613,0,0,1,6.644-6.933l28.069,1.564,27.7-12.222,2.887,5.937Z" transform="translate(-858.704 -989.011)"/></g><path class="g" d="M897.7,1010.843l-8.031,9.546-1.048-2.28-2.134-4.6-1.45-2.512,4.609-6.014,4.6,2.291A9.649,9.649,0,0,1,897.7,1010.843Z" transform="translate(-796.906 -887.116)"/><path class="j" d="M879.253,1020.7l-2.31,1.033,7.33,12.943,1.309-4.082Z" transform="translate(-791.141 -898.315)"/><g transform="translate(82.606 102.321)"><path class="g" d="M908.3,969.8a7.507,7.507,0,0,1,2.212,5.144l.081.426,1.8,2.645a.5.5,0,0,1-.121.692l-.923.669-.417,4.318-3.6-.376-5.231-6.352-1.631-5.151.811-2.45,4.054-.768Z" transform="translate(-890.507 -963.507)"/><path class="h" d="M885.438,967.829a1.569,1.569,0,0,1-1.527.813,4.409,4.409,0,0,1-2.839-1.382l-.949-1.015c-2.616-2.153-.065-5.463-.065-5.463.9-1.761-1.642-2.6-1.642-2.6l5.2-.986a5.361,5.361,0,0,0-1.9-5.379,3.482,3.482,0,0,0-4.456-.214,7.883,7.883,0,0,1-4.145.962,1.722,1.722,0,0,0-1.227,1.91l-3.154.6a1.674,1.674,0,0,0-1,2.662,5.784,5.784,0,0,0-1.748,2.892c-.858,2.459,2.03,4.649,2.03,4.649l4.309,5.841,3.758-4.914,1.539-.1.3,2.5-.228.335a1.621,1.621,0,0,0,.144,2.008c1.832,2.007,3.328,1.723,3.328,1.723l.482.031a.72.72,0,0,1,.662.584c.644,3.39,6.075,2.523,5.4-1.024l-.389-2.051-.242-1.279-.41-2.163A2.016,2.016,0,0,0,885.438,967.829Z" transform="translate(-865.828 -950.904)"/><path class="i" d="M898.791,986l7.741-1.468c-.035-1.017.226-1.8.7-1.89s1,.545,1.339,1.5l.668-.127a10.274,10.274,0,0,0-.353-1.6.53.53,0,0,1,.248-.136c.6-.114,1.305.949,1.576,2.374a4.285,4.285,0,0,1-.085,2.253l-1.223-1.794-.026-.136-.557.106c.248,1.4-.017,2.606-.607,2.718s-1.28-.917-1.56-2.307l-7.675,1.456Z" transform="translate(-889.314 -973.253)"/><path class="g" d="M895.5,993.778a1.874,1.874,0,0,0-2.475.588c-.436.647-.744,1.718.514,2.981,0,0,1.869,1.942,3.489,1.634,0,0,1.141-.04.61-1.44l-.9-2.364a2.547,2.547,0,0,0-.7-1.015A3.254,3.254,0,0,0,895.5,993.778Z" transform="translate(-884.935 -981.28)"/></g><path class="n" d="M903.749,1055.12l.689,3.829-2,.252Z" transform="translate(-809.307 -922.838)"/><path class="h" d="M835.888,1211l-3.983,5.311-1.779,18.747c-.425-7.886-.655-14.268-.433-17.968h-38.37c-5.665,0-11.683-4.727-12.259-10.462a8.934,8.934,0,0,1,.487-3.957c.106-.319.77-2.2,1.213-2.23.009,0,1.646-.115,3.425-.221l1.912,1.381s-3.125,9.382,5.08,10.887l39.512,1.841Z" transform="translate(-721.367 -1026.223)"/><path class="g" d="M937.445,1246.676l-1.167-.774c-.8-1.181-1.619-.878-1.619-.878a15.647,15.647,0,0,1-1.766-.157,2.771,2.771,0,0,0-1.886.006l-3.5,1.227-24.362-8.433-1.861,7.665,25.2,4.989,2.857,2.3a4.408,4.408,0,0,0,1.531.8c1.368.4,2.888.444,2.735-1.24a1.031,1.031,0,0,0,1.038-1.151c1.3-.2,1.119-1.743,1.119-1.743a1.041,1.041,0,0,0,.824-1.407,1.8,1.8,0,0,0,1.1-.2C938.08,1246.837,937.445,1246.676,937.445,1246.676Z" transform="translate(-808.486 -1052.904)"/><path class="j" d="M897.513,1232.84a1.061,1.061,0,0,0-.734-1.032l-3.511-1.134a.866.866,0,0,0-1.028.412,16.541,16.541,0,0,0-2.214,9.266.514.514,0,0,0,.422.5l4.269.776a.734.734,0,0,0,.808-.438A20.416,20.416,0,0,0,897.513,1232.84Z" transform="translate(-800.461 -1047.891)"/><g transform="translate(81.175 135.31)"><path class="e" d="M867.357,1109.324q.014-.45.027-.914a13.146,13.146,0,0,1,1.042-3.987,38.365,38.365,0,0,1,2.371-4.5c.934-1.587,1.939-3.244,2.837-5.082.217-.471.471-.975.648-1.416l.541-1.381q.234-.718.469-1.432c.142-.478.258-.96.386-1.436a36.348,36.348,0,0,0,.9-5.644,43.846,43.846,0,0,0,.067-5.266,44.512,44.512,0,0,0-.485-4.651c-.1-.714-.233-1.393-.366-2.036-.117-.645-.276-1.248-.409-1.816s-.291-1.092-.423-1.578-.274-.93-.408-1.33c-.152-.484-.287-.869-.412-1.208l-1.032.538c.069.3.142.632.212,1.006.082.393.169.828.24,1.312s.173,1,.229,1.56.149,1.15.189,1.78c.055.627.1,1.286.122,1.975a41.989,41.989,0,0,1-.055,4.431,41.163,41.163,0,0,1-.628,4.856,33.027,33.027,0,0,1-1.4,4.952c-.162.4-.31.81-.481,1.208s-.363.784-.545,1.177l-.628,1.174c-.223.408-.444.715-.661,1.076-.929,1.446-2.045,2.895-3.169,4.377a43.623,43.623,0,0,0-3.262,4.774,19.3,19.3,0,0,0-2.168,5.6q-.114.741-.226,1.46c-.018.133-.031.266-.04.4l3.206,3.31Z" transform="translate(-860.847 -1065.651)"/></g><path class="g" d="M672.784,1179.062l-3.348,4.222-.452,3.678a2.771,2.771,0,0,1-.832,1.693,15.682,15.682,0,0,0-.925,1.513s-.093.873-1.5,1.061l-1.212.7s-.426.5-1.011-.226a1.8,1.8,0,0,1,.307-1.076,1.04,1.04,0,0,1-.895-1.363s-1.461-.518-1.066-1.776a1.031,1.031,0,0,1-.57-1.441c-1.577-.61-.861-1.952.1-3a4.366,4.366,0,0,1,1.4-1.016l3.333-1.538,3.2-4.038Z" transform="translate(-636.818 -1009.289)"/><path class="j" d="M793.161,1078.6c-3.038-1.7-6.592-1.421-9.849-2.478a2.241,2.241,0,0,1-1.478-1.623,2.2,2.2,0,0,1,.589-2.1,8.779,8.779,0,0,0,2.461-5.01c.278-1.247.506-2.6.707-4.035.365-2.578.631-5.4.9-8.247.168-1.809.349-3.625.538-5.4.162-1.456.47-3.036.692-4.387.49-3.145,2.094-5.332,3.638-8.021a28.413,28.413,0,0,1,5.5-6.878,16.515,16.515,0,0,1,3.992-3.009c2.437-1.31,8-3.544,10.159-2.083,1.469,1,2,4.267,2.89,6.475a5.849,5.849,0,0,0,.725,1.372,8.922,8.922,0,0,1,1.659,3.452c.075.356.123.614.176,1,.035.274.081.673.108.96.007.079.016.154.023.233.046.587.073,1.2.079,1.808a27.225,27.225,0,0,1-.32,4.593c-.036.215-.07.422-.107.623a28.1,28.1,0,0,1-1.645,5.808c-.729,1.885-3.8,4.525-4.773,4.946-.556,1.232-2.2,4.193-2.42,5.661-.178,1.21-1.487,7.018-1.653,8.241-.367,2.589-1.434,5.445-1.918,8.353a1.667,1.667,0,0,1-1.708,1.392C799.745,1080.162,795.2,1080.167,793.161,1078.6Z" transform="translate(-723.328 -901.275)"/><path class="f" d="M710.288,1078.419c1.925-.545,3.16-.974,4.746-1.524q1.795-.614,3.342-1.218c.268-.117.531-.22.779-.328.984-.4,1.884-.8,2.723-1.207,9.98-4.726,11.38-9.442,18.322-13.686,1.782-1.065,3.706-1.935,5.573-2.873.57-.288,1.126-.58,1.677-.858a31.949,31.949,0,0,0,4.166-2.65c.005-.014.019-.01.044-.033a22.541,22.541,0,0,0,1.923-1.567,9.489,9.489,0,0,0,.849-.807c4.565-4.537,6.05-9.872,5.7-16.3a58.079,58.079,0,0,0-1.928-11.031s-4.635.087-6.46.765a14.349,14.349,0,0,0-3.77,1.7,14.932,14.932,0,0,0-5.273,5.409l-3.216,5.088-1.029,1.652a24.971,24.971,0,0,0-3.1,7.221c-1.187,4.709-1.825,8.54-1.872,8.815l-.029.039s-.624.3-1.541.792c-.946.481-2.175,1.123-3.466,1.759-.186.114-.4.2-.6.311-1.852.943-3.623,1.883-4.393,2.279a.311.311,0,0,0-.127.085c-.01-.019-.034,0-.068.009-.078.037-.171.118-.249.156l-1.6.772a21.717,21.717,0,0,0-3.273,1.761c-.22.167-.45.314-.665.466a23.318,23.318,0,0,0-2.427,1.894,12.129,12.129,0,0,0-1.533,1.7C711.06,1070.388,710.292,1074.222,710.288,1078.419Z" transform="translate(-672.398 -900.903)"/><path class="o" d="M710.288,1084.531c1.925-.545,3.16-.974,4.746-1.524q1.795-.615,3.342-1.219c.268-.117.531-.22.779-.328-2.232-13.553,18.053-19.94,18.053-19.94-.417-4.993,4.735-9.682,4.735-9.682l1.885-2.251a8.034,8.034,0,0,1,8.041-2.653l6.495,1.564-1.732-8.709-8.661-6.876a14.929,14.929,0,0,0-5.273,5.409l-3.216,5.088-1.029,1.651a24.964,24.964,0,0,0-3.1,7.221c-1.188,4.709-1.825,8.54-1.872,8.815l-.029.038s-.624.3-1.541.792c-.946.481-2.175,1.123-3.466,1.759-.186.113-.4.2-.6.311-1.852.943-3.623,1.883-4.393,2.279a.314.314,0,0,0-.127.085c-.01-.019-.034,0-.068.009-.078.037-.171.118-.249.156l-1.6.773a21.718,21.718,0,0,0-3.273,1.761c-.22.167-.45.314-.665.466a23.3,23.3,0,0,0-2.427,1.894,12.1,12.1,0,0,0-1.533,1.7C711.06,1076.5,710.292,1080.334,710.288,1084.531Z" transform="translate(-672.398 -907.015)"/><g transform="translate(29.441 125.48)"><rect class="j" width="2.809" height="5.895" transform="translate(0 44.195) rotate(-52.345)"/><path class="f" d="M701.829,1049.347a7.866,7.866,0,0,1,2.348-2.172l24.537-14.765a6.613,6.613,0,0,1,9.23,2.512l.125.23a6.613,6.613,0,0,1-2.982,9.128l-25.972,10.758-19.667,23.024-5.175-4.1Z" transform="translate(-683.303 -1031.46)"/></g><rect class="j" width="0.864" height="48.132" transform="translate(227.087 0.765)"/><g transform="translate(194.787 43.039)"><g transform="translate(0 0)"><g transform="translate(4.157 4.083)"><path class="l" d="M1270.493,787.929a29.181,29.181,0,0,0,29.088,28.912,28.572,28.572,0,0,0,28.476-29.017,29.234,29.234,0,0,0-27.6-28.917c-.141-.007-.281.006-.421,0-.354-.013-.71,0-1.069,0a28.3,28.3,0,0,0-16.181,5.076,28.693,28.693,0,0,0-12.295,23.943Z" transform="translate(-1270.491 -758.903)"/></g><g transform="translate(0 0)"><ellipse class="l" cx="24.373" cy="24.638" rx="24.373" ry="24.638" transform="translate(0 22.287) rotate(-27.207)"/></g><path class="p" d="M1349.39,799.808A24.767,24.767,0,0,0,1324.7,775.27a24.05,24.05,0,0,0-16.649,6.693,24.066,24.066,0,0,1,17.725-7.789,24.766,24.766,0,0,1,24.686,24.539,24.368,24.368,0,0,1-7.518,17.935A24.374,24.374,0,0,0,1349.39,799.808Z" transform="translate(-1293.098 -765.7)"/><path class="p" d="M1293.208,797.3a24.373,24.373,0,0,0-6.4,16.791,24.766,24.766,0,0,0,24.686,24.539,24.048,24.048,0,0,0,16.6-6.649,24.067,24.067,0,0,1-17.768,7.837,24.767,24.767,0,0,1-24.687-24.539A24.368,24.368,0,0,1,1293.208,797.3Z" transform="translate(-1277.128 -782.177)"/><g transform="translate(14.001 10.585)"><path class="j" d="M1343.439,806.177c-.129-12.273-9.865-22.205-21.746-22.183a21.037,21.037,0,0,0-16.961,8.706,21.171,21.171,0,0,1,18.537-11.18c11.881-.021,21.617,9.91,21.745,22.184a22.428,22.428,0,0,1-4.317,13.554A22.548,22.548,0,0,0,1343.439,806.177Z" transform="translate(-1304.732 -781.52)"/></g></g><path class="j" d="M1352.125,824.44c.064-5.863-5.542-7.136-9.828-8.119-2.743-.613-4.939-1.1-4.923-2.558.013-1.2,1.394-1.741,2.828-1.739,1.668,0,3.037.767,3.019,2.391l8.067.016c.046-4.242-2.571-7.128-7.305-8.07V803.29l-6.737-.013-.032,2.973c-5.01.764-8,3.476-8.047,7.707-.063,5.845,5.313,6.992,9.524,7.923,2.772.6,5.041,1.069,5.023,2.68-.016,1.4-1.634,2.187-3.319,2.184-1.834,0-3.434-.9-3.414-2.733l-8.3-.016c-.051,4.641,3.095,7.721,8.245,8.646v2.515l6.743.013.027-2.491C1348.7,831.858,1352.074,829.075,1352.125,824.44Z" transform="translate(-1307.795 -786.437)"/></g></g><path class="i" d="M1120.687,1424.638a.712.712,0,0,0-.675-.469,2.864,2.864,0,0,0-1.686.616,4.915,4.915,0,0,0-1.437.491,1.491,1.491,0,0,1-.961.125l-3.63-.748-.345,1.144-8.659-1.327a11.566,11.566,0,0,0-.132,6.408l9.891-2.691,6.2-1.679,1.144-.968.1-.088A.75.75,0,0,0,1120.687,1424.638Z" transform="translate(-850.472 -1165.388)"/><circle class="d" cx="22" cy="22" r="22" transform="translate(533 20)"/><path class="e" d="M60.839,6.009,18.026,0,6.009,17.275,0,60.087Z" transform="matrix(0.951, 0.309, -0.309, 0.951, 513.543, 33.492)"/></g><path class="e" d="M-8576.073-11205.579l71.881-69.233h489.414v455.854l-577.5.687Z" transform="translate(9096.141 11274.978)"/></g></g></svg>