<svg xmlns="http://www.w3.org/2000/svg" xmlns:xlink="http://www.w3.org/1999/xlink" width="290" height="319.042" viewBox="0 0 290 319.042"><defs><style>.a{fill:none;}.b{fill:#2c1919;}.c{fill:#fd5e5a;}.d{fill:#040037;}.e{fill:#571c1c;}.f{fill:#794949;}.g{fill:#717794;}.h{fill:#fc7575;}.i{fill:#341102;}.j{fill:#432c47;}.k{fill:#26253a;}.l{fill:#4c5063;}.m{fill:#464f7c;}.n{fill:url(#a);}.o{fill:#e2b2c4;}.p{fill:#7d87b7;}.q{fill:#5e6589;opacity:0.75;}.r{fill:#979fc5;}.s{fill:#d1fedf;}.t{fill:url(#b);}.u{fill:#375866;}.v{fill:url(#c);}.w{fill:url(#d);}.x{fill:#3b1b36;}.y{fill:#a07fc0;}.z{fill:#70497a;}.aa{fill:url(#e);}.ab{fill:#262943;opacity:0.57;}.ac{fill:#381a3f;}.ad{fill:#653870;}.ae{fill:#172866;}.af{fill:#2f499f;}.ag{fill:#fff;}.ah{fill:#284758;}.ai{fill:#e3feec;}.aj{fill:#f4fff7;}.ak{fill:#a4c1ad;}.al{fill:#6ca3c2;}.am{fill:#517a92;}.an{fill:#3d5c6e;}.ao,.ap{fill:url(#f);}.ap{opacity:0.15;mix-blend-mode:screen;isolation:isolate;}.aq{fill:#210075;}.ar{fill:#58307d;}</style><linearGradient id="a" x1="0.235" y1="-0.491" x2="1.064" y2="2.086" gradientUnits="objectBoundingBox"><stop offset="0" stop-color="#535a7d"/><stop offset="1" stop-color="#8791c1"/></linearGradient><linearGradient id="b" x1="14.383" y1="0.01" x2="13.536" y2="1.167" gradientUnits="objectBoundingBox"><stop offset="0" stop-color="#29002c"/><stop offset="1" stop-color="#330065"/></linearGradient><linearGradient id="c" x1="23.015" y1="0.5" x2="24.015" y2="0.5" gradientUnits="objectBoundingBox"><stop offset="0" stop-color="#290051"/><stop offset="1" stop-color="#330065"/></linearGradient><linearGradient id="d" x1="7.568" y1="0.017" x2="7.054" y2="0.85" xlink:href="#c"/><linearGradient id="e" x1="9.853" y1="0.5" x2="10.853" y2="0.5" xlink:href="#c"/><linearGradient id="f" x1="1.234" y1="0.732" x2="0.539" y2="0.509" xlink:href="#c"/></defs><g transform="translate(-223 -2833.999)"><rect class="a" width="290" height="319" transform="translate(223 2834)"/><g transform="translate(18.76 0.198)"><g transform="translate(285.531 2888.283)"><path class="b" d="M447.3,1478.317h2.62l-1.745-22.681Z" transform="translate(-393.008 -1314.884)"/><path class="c" d="M384.074,1406.584a66.6,66.6,0,0,1-2.082-8.152c-2.722.015-5.675.167-8,1.526.285.868,2.682,8.135,2.682,8.975,0,17.642,2.279,12.433,5.386,13.74a3.637,3.637,0,0,0,3.306-.5c.533-.56,3.786-.112,3.786-.448s1.333-2.691,0-4.654,3.68,2.018,3.68.5C392.832,1415.9,385.225,1409.561,384.074,1406.584Z" transform="translate(-359.839 -1289.003)"/><g transform="translate(14.008 126.902)"><path class="d" d="M394.916,1440.363v-6.207a.22.22,0,0,0-.213-.225H377.354a.22.22,0,0,0-.214.225v6.207h-3.412v-6.207a3.727,3.727,0,0,1,3.626-3.813H394.7a3.727,3.727,0,0,1,3.626,3.813v6.207Z" transform="translate(-373.728 -1430.343)"/></g><path class="e" d="M0,0H55.283a0,0,0,0,1,0,0V29.038A13.583,13.583,0,0,1,41.7,42.62H11.752A11.752,11.752,0,0,1,0,30.868V0A0,0,0,0,1,0,0Z" transform="translate(55.283 178.121) rotate(180)"/><path class="f" d="M438.222,1447.03a7.44,7.44,0,0,0-4.655,6.9v35.183h8.509v-36.185A6.437,6.437,0,0,0,438.222,1447.03Z" transform="translate(-386.793 -1310.991)"/><path class="g" d="M354.02,1198.588l6.6,6.513,7.868,78.536s5.809,17.3,7.914,27.227a38.79,38.79,0,0,0-12.269,3.366c-3.214-9.8-7.359-28.742-7.359-28.742Z" transform="translate(-350.804 -1198.588)"/><path class="c" d="M405.841,1434.8s-1.182-2.643-2.431-2.536-.354,2.536-.354,2.536S404.7,1435.938,405.841,1434.8Z" transform="translate(-372.849 -1304.308)"/><path class="c" d="M383.388,1431.323s-2.363,4.354-1.664,5.053,2.93.445,2.93.445,2.787.917,3.659.045c0,0,4.279-.137,4.279-.779s-2.053-5.814-3-5.814-1.349,3.485-1.349,3.485-.417-2.756-1.145-3.485-2.177,3.485-2.177,3.485S385.249,1430.522,383.388,1431.323Z" transform="translate(-363.279 -1303.371)"/></g><g transform="translate(325.662 2960.623)"><path class="c" d="M468.933,1343.822l-18.294,9.9.925-4.279,3.89-11.636h8.885Z" transform="translate(-434.648 -1333.918)"/><path class="h" d="M421.436,1345.026c3.473-.923,18.053,1.041,18.053,1.041s9.737-5.877,9.564-7.525-.787-1.293-1.67-2.793a13.6,13.6,0,0,0-3.226-3.136,5.052,5.052,0,0,0-4.037-1.893c-2.364.249-8.637,5.327-11.215,5.6-.53.056-2.825.282-6.154.626Z" transform="translate(-421.436 -1330.699)"/><path class="c" d="M446.06,1360.743s-6.246-6.321-5.477-7.27,7.365,2.8,7.365,2.8Z" transform="translate(-430.069 -1340.933)"/><path class="c" d="M434.965,1336.3s6.413,4.057,7.268,3-2.505-3.5-2.505-3.5,3.642,2.26,4.36,1.859-2.339-3.3-2.339-3.3,3.491,2.551,4.528,2.087-1.868-4.512-1.868-4.512S435,1332.823,434.965,1336.3Z" transform="translate(-427.557 -1331.257)"/></g><path class="i" d="M519.576,1200.323s-8.306,12.209-9.464,26.792c-.482,6.074-3.767,16.705-9.271,28.337-2.84,6-29.461,16.482-29.461,16.482l6.324,14.136,31.336-14.644,13.613-22.607Z" transform="translate(-118.37 1688.91)"/><path class="j" d="M639.932,1667.857l-21.6.823,13.379-7.18-.481-5.925c2.237,0,4.574,2.472,6.832,2.472C638.7,1661.758,639.932,1667.857,639.932,1667.857Z" transform="translate(-184.854 1482.94)"/><path class="j" d="M586.552,1666.976l-24.118,1.7,16.266-7.749,1.267-5.356c2.236,0,2.776,1.591,5.035,1.591C585.641,1660.878,586.552,1666.976,586.552,1666.976Z" transform="translate(-159.565 1482.94)"/><path class="h" d="M609.947,1264.241c.009-.008.018-.02.027-.028C609.737,1264.2,609.754,1264.208,609.947,1264.241Z" transform="translate(-180.995 1660.009)"/><path class="k" d="M319.1,1297.943c.826-.825,36.224,6.641,36.224,6.641l-7.938-56.29-7.124-33.847-10.065-24.37s-15.091-3.684-16.166-3l-2.712,43.676Z" transform="translate(-45.956 1694.941)"/><path class="l" d="M302.708,1643.368l-1.058,5.821s4.022,7.62,8.168,11.766,9.648,3.581,9.648.053-7.175-12.349-7.175-16.582S302.708,1643.368,302.708,1643.368Z" transform="translate(-41.579 1488.98)"/><path class="l" d="M353.813,1641.436l-1.587,10.76h27.341s-.882-2.646-8.82-4.233-8.378-4.344-8.378-4.344l.617-6.945-7.232-1.059Z" transform="translate(-64.461 1491.972)"/><path class="m" d="M334.186,1396.489l16.14,56.731-5.909,68.387h10.407l14.288-72.32-14.288-82.816Z" transform="translate(-56.299 1613.74)"/><path class="n" d="M334.483,1362.443l-9.614,32.263s-14.729,48.172-17.11,76.042,0,46.921,0,46.921l-13.141,2.116s-7.585-57.856-4.762-77.26-.63-66.676-.63-66.676l5.392-13.406Z" transform="translate(-35.958 1615.563)"/><path class="o" d="M299.791,1197.029s16.941-9.063,27.958,1.955,11.906,42.143,11.906,42.143v35.984l1.582,16.018-41.27-4.905,5.557-54.927Z" transform="translate(-40.738 1691.986)"/><path class="p" d="M322.562,1249.949l-27.044-57.4-17.407,5.991,6.086,51.4-11.377,57.681s44.319-3.837,49.743,1.587Z" transform="translate(-28.535 1692.426)"/><path class="q" d="M291.912,1283.141l-2.039-17.223c7.414,10.195,22.743,21.7,27.449,26.612,1.8,1.885,6.857,4.226,12.956,6.554v18.073c-12.011-3.765-23.852-7.607-26.5-8.924-2.443-1.216-8.083-7.778-13.529-16.659Z" transform="translate(-36.251 1659.233)"/><path class="p" d="M350.132,1203.5s10.054,31.884,10.054,41.644,7.938,66.911,7.938,66.911h4.763l-6.615-66.911-8.171-30.611Z" transform="translate(-63.514 1687.475)"/><path class="r" d="M345.8,1192.625l13.243,58.218-2.9-41.232-2.664-2.789,2.1.473-5.279-11.4Z" transform="translate(-61.554 1692.394)"/><path class="o" d="M412.5,1338.083l5.456,1.743-1.072,9.981-8.238-2.54Z" transform="translate(-89.989 1626.584)"/><path class="r" d="M278.075,1203.5s-4.394,0-5.292,17.017c-1.12,21.221,19.7,51.055,25.252,53.7s53.032,16.316,53.032,16.316l3.527-15.309s-37.885-9.93-43.479-15.524-20.668-27.79-23.956-38.226C284.394,1212.7,278.075,1203.5,278.075,1203.5Z" transform="translate(-28.499 1687.475)"/><path class="h" d="M473.382,1289.462s3.882,1.376,5.166,3.134c1.638,2.244,8.261,6.312,10.138,6.54s7.228,1.728,7.228,1.728l.275,8.962s-25.994-7.889-30.23-12.124c-1.466-1.466,6.862,1.965,6.943,1.3s-9.947-2.651-9.221-4.277,9.062,3.407,9.946,2.665-10.371-3.524-10.154-5.312,11.059,3.962,11.059,3.962.319-.883-2.583-2.708-5.743-3.356-4.974-4,8.077,4.935,9.249,3.95C476.225,1293.273,472.678,1290.418,473.382,1289.462Z" transform="translate(-114.791 1648.668)"/><path class="s" d="M521.614,1308.475l-9.142-1.188-2.015,9,9.831,2.175Z" transform="translate(-136.05 1640.517)"/><path class="t" d="M562.015,1424.639l17.123,117.534h-9.755l-12.573-62.456s-9.651-62.043-9.651-84.444Z" transform="translate(-152.654 1600.709)"/><path class="u" d="M578.089,1186.506l.633,9.909-23.482-2.668,6.507-6.723Z" transform="translate(-156.311 1695.162)"/><path class="s" d="M540.928,1265.812c.06-33.616,5.21-67.054,12.554-71.308,0,0,8.539-.588,12.93-.735,6.553-.22,11.653,3.089,17.094,21.631,3.431,11.69,3.909,37.767,3.541,62.355-.163,10.9-1.173,21.823-1.407,29.542-18.509,0-26.495.788-44.455.788C540.051,1274.825,540.91,1275.806,540.928,1265.812Z" transform="translate(-149.687 1691.88)"/><path class="v" d="M547.432,1195.119s-9.936,4.446-12.976,34.314-7.228,90.848-7.228,90.848h13.839s1.5-87.115,1.5-93.088S547.432,1195.119,547.432,1195.119Z" transform="translate(-143.637 1691.265)"/><path class="h" d="M608.878,1272.387c.009-.009.019-.021.028-.031C608.656,1272.338,608.673,1272.351,608.878,1272.387Z" transform="translate(-180.507 1656.324)"/><path class="w" d="M552.127,1362.371l35.084.86,2.9,18.554,1.135,78.945s14.413,46.319,17.824,64.8c0,0-11.5.874-10.94.874l-24.189-58.141-12.889-60.3L550.5,1384.516Z" transform="translate(-154.164 1615.596)"/><path class="x" d="M588.162,1363.231l.881,5.636H552.6l.478-6.5Z" transform="translate(-155.116 1615.595)"/><rect class="y" width="9.285" height="5.159" transform="translate(407.725 2983.891) rotate(180)"/><path class="z" d="M569.776,1445.625l15.439,59.441,19.949,52.882-22.5-52.023Z" transform="translate(-162.888 1577.929)"/><path class="aa" d="M577.25,1235.124c-.052.4,10.918-39.548,10.918-39.548a46.079,46.079,0,0,1,8.568,3.62c4.888,2.613,7.07,22.415,7.07,22.415s2.919,40.9,2.919,44.151c0,1.746,3.515,27.876,6.765,51.658l-40.044,3.067C574.048,1287.315,577.25,1235.124,577.25,1235.124Z" transform="translate(-164.547 1691.059)"/><path class="ab" d="M577.245,1270.462s24.787-28.882,27.4-25.222c.235,3.323.884,12.481,1.5,21.5-6.257,15.8-26.508,41.608-31.046,47.288C575.771,1297.725,576.635,1281.366,577.245,1270.462Z" transform="translate(-165.297 1668.733)"/><path class="z" d="M577.25,1267.8l-3.805,85.363S576.6,1270.291,577.25,1267.8Z" transform="translate(-164.547 1658.382)"/><g transform="translate(395.289 2833.801)"><path class="ac" d="M573.519,1146.215c.406-.258,5.448-12.8,5.448-12.8s3.364-9.419,1.192-11.013-7.337-7.123-11.862-7.223a17.19,17.19,0,0,0-7.967,1.513c-.406.258-3.339,5.209-3.339,5.209s1.366-1.668,2.069,4.52S573.519,1146.215,573.519,1146.215Z" transform="translate(-552.392 -1106.366)"/><path class="h" d="M566.325,1162.836c.538,1.6.305,13.041.73,15.921.42,2.844,13.4,7.25,13.654-3.092s-.767-22.506-.767-22.506Z" transform="translate(-556.615 -1123.552)"/><path class="c" d="M566.325,1162.836h0l4.52-3.212,9.1-6.465v.034c0,.043.01.124.019.239.03.377.088,1.129.16,2.166v0c.014.21.03.432.045.665,0,.015,0,.03,0,.045.05.752.1,1.616.159,2.567,0,.054.006.107.009.16.013.226.026.456.038.69v.008c.007.121.014.245.02.369l0,.04c0,.047.005.094.008.141,0,.017,0,.036,0,.054,0,.081.008.163.013.245-1.69,5.544-8.079,11.565-13.607,12.279-.012-.382-.032-.768-.06-1.156C566.688,1167.826,566.63,1163.746,566.325,1162.836Z" transform="translate(-556.615 -1123.552)"/><path class="h" d="M576.137,1131.376a19.947,19.947,0,0,1-2.212,17.419c-3.963,5.719-9.434,8.669-13.352,5.784s-5.04-20.986-2.208-25.644S573.6,1125.074,576.137,1131.376Z" transform="translate(-552.299 -1111.245)"/><path class="ad" d="M572.425,1136.595s.882-5.92,3.153-7.362,3.3-2.322,3.707-4.413,7.988-3.49,6.752-6.927-7.171-5.046-10.188-11.023-6.273-9.286-13.305-7.108-8.011,6.467-8.011,6.467-3.1-.539-5,3.175-.536,5.823.685,7.565c0,0-.262-4.9,1.419-4.562s-.013,5.732-.013,5.732a44.418,44.418,0,0,0,5.217-5.262c2.69-3.2,2.028.543,1.232,4.594s5.174.234,7.826-2.7,6.448-.191,7.834,3.962S569.144,1129.414,572.425,1136.595Z" transform="translate(-548.593 -1099.089)"/><path class="h" d="M589.411,1145.35s2.48-4.234,3.769-2.393.227,7.339-2.508,7.393S589.411,1145.35,589.411,1145.35Z" transform="translate(-566.881 -1118.726)"/><path class="c" d="M591.846,1146.782s-.094-2.452,1.238-1.639-.01,4.753-1.237,4.675S591.846,1146.782,591.846,1146.782Z" transform="translate(-567.915 -1119.851)"/><path class="ae" d="M565.659,1146.2a15.358,15.358,0,0,0-.994,3.5,9.136,9.136,0,0,0,.037,3.872c.3-.055,1.106-.174,2.168-.453-.685-.019-1.364,0-2.04.036l.228.168A47.088,47.088,0,0,1,565.659,1146.2Z" transform="translate(-555.788 -1120.405)"/><path class="af" d="M572.715,1146.4a1.228,1.228,0,0,0,.716,1.529c.54.109,1.094-.4,1.239-1.134a1.227,1.227,0,0,0-.716-1.528C573.414,1145.157,572.86,1145.665,572.715,1146.4Z" transform="translate(-559.491 -1119.975)"/><path class="af" d="M559.152,1144.474a1.227,1.227,0,0,0,.716,1.529c.54.109,1.094-.4,1.239-1.134a1.228,1.228,0,0,0-.716-1.529C559.851,1143.232,559.3,1143.739,559.152,1144.474Z" transform="translate(-553.354 -1119.103)"/><path class="ae" d="M576.847,1141.924a5.281,5.281,0,0,0-3.042-2.387c-1.9-.385-1.327,1.215-.883,1.3S576.921,1141.549,576.847,1141.924Z" transform="translate(-559.401 -1117.362)"/><path class="ae" d="M561.693,1137.9s-2.251.666-2.677,1.7c0,0,2.382-.2,2.811-.756A.634.634,0,0,0,561.693,1137.9Z" transform="translate(-553.308 -1116.648)"/><path class="ag" d="M570.164,1164.6s-5.811,2.185-8.962.085c0,0,.883,2.926,1.686,3.453C564.579,1169.251,568.736,1168.409,570.164,1164.6Z" transform="translate(-554.297 -1128.73)"/></g><path class="ah" d="M560.161,1187.451l-6.591,43.411-1.834-21.94,1.919-2.328v-12.42Z" transform="translate(-154.725 1694.734)"/><path class="ai" d="M587.189,1184.573l-6.609,9.875,3.184,6.057,9.8-11.757-4.011-3.118Z" transform="translate(-167.775 1696.036)"/><path class="aj" d="M565.173,1187.451l1.761,7.78-2.781,4.431-1.339-7.5Z" transform="translate(-159.737 1694.734)"/><path class="ah" d="M580.394,1231.021l9.076-44.515,9.381,7.292-8.208,15.242.611,4.773Z" transform="translate(-167.69 1695.162)"/><path class="ak" d="M568.935,1201.659l2.224,1.808,3.384-1.288,1.829,3.48s-7.442.4-9.136-1.293Z" transform="translate(-161.738 1688.307)"/><path class="al" d="M575.8,1202.3l-5.127-.367.156,4.493,4.088.189Z" transform="translate(-163.293 1688.183)"/><path class="am" d="M568.529,1210.326l-4.088-.189-7.888,75.028,3.434,5.346,6.409-4.314Z" transform="translate(-156.904 1684.471)"/><path class="an" d="M571.366,1210.482l-1.754,76.214-6.788,3.97,5.816-4.5Z" transform="translate(-159.741 1684.314)"/><path class="an" d="M579.6,1202.608l-1.18,4.312.587-4.312Z" transform="translate(-166.8 1687.877)"/><path class="ao" d="M572.51,1202.171c3.834,1.149,10.93,15.158,9.1,24.354s-15.447,42.72-19.521,46.794-42.187-2.77-42.187-2.77l1.414-11.571s24.735,0,25.32-1.4C549.394,1250.939,568.676,1201.022,572.51,1202.171Z" transform="translate(-140.321 1688.083)"/><path class="ap" d="M572.51,1202.171c3.834,1.149,10.93,15.158,9.1,24.354s-15.447,42.72-19.521,46.794-42.187-2.77-42.187-2.77l1.414-11.571s24.735,0,25.32-1.4C549.394,1250.939,568.676,1201.022,572.51,1202.171Z" transform="translate(-140.321 1688.083)"/><g transform="translate(263.196 2835.875)"><path class="h" d="M335.564,1118.17s5.926,7.787,6.815,13.072c.915,5.436,2.022,14.128,2.022,14.128h-2.412s-2.01,4.823-2.011,8.038-5.091,1.205-8.038,1.2c-2.526,0-7.44-2.3-10.472-8.654a16.824,16.824,0,0,1-1.584-3.139C317.339,1133.575,312.654,1117.094,335.564,1118.17Z" transform="translate(-312.03 -1109.773)"/><path class="h" d="M315.138,1175.22a7.457,7.457,0,0,0,5.172,6.235c2.929.922,5.71,1.627,7.241,2a.816.816,0,0,0,1.008-.823,88.364,88.364,0,0,1,.739-9.749c.237-2.125.469-4.054.592-5.223-.62-1.556-5.331-13.4-5.028-12.639v-.009l-.97-2.425S314.988,1173.958,315.138,1175.22Z" transform="translate(-310.877 -1125.365)"/><path class="aq" d="M338.93,1105.648c.274.461,4.925,9.922-3.1,13.534s-10.017-1.592-12.161,1.624,1.857,8.419.115,11.367l-2.672.511s-.543-1.584-1.615-1.584-1.375,8.116-3.1,8.116-5.072-6.912-6.679-10.128-4.955-14.068,1.209-16.88,8.842-.668,8.843-3.348,2.68.135,2.68.135a4.716,4.716,0,0,0,.537-4.287c-.937-2.278,6.566-3.081,8.306,1.475S335.983,1100.691,338.93,1105.648Z" transform="translate(-307.357 -1102.876)"/><path class="h" d="M329.765,1146.541s.13,5.289-1.145,5.289-4.067-3-3.594-6.181S329.189,1142.844,329.765,1146.541Z" transform="translate(-315.327 -1121.252)"/><path class="c" d="M330.121,1147.1s.637,2.1-.319,3.059-2.8-1.339-1.781-3.059S329.92,1145.885,330.121,1147.1Z" transform="translate(-316.571 -1122.382)"/><path class="aq" d="M353.626,1145.336l.2,1.277a4.741,4.741,0,0,0-3.469.96c-1.229,1.228-1.4,1.368-1.4,1.368S349.615,1146.05,353.626,1145.336Z" transform="translate(-326.18 -1122.086)"/><path class="aq" d="M353.074,1151.565a1,1,0,1,0,.986-1.171A1.09,1.09,0,0,0,353.074,1151.565Z" transform="translate(-328.041 -1124.375)"/><path class="aq" d="M365.987,1125.557a3,3,0,0,1-.656,1.567c-1.408,1.828-4.143,2.086-5.973,2.32a12.312,12.312,0,0,0,4.735-.1,5.182,5.182,0,0,0,3.915-3.516Z" transform="translate(-330.884 -1113.137)"/><path class="c" d="M330.818,1171.022a48.955,48.955,0,0,0,5.382,3.786c.314-2.891.619-5.22.619-5.22s-1.48,1.276-5.009-12.734a.591.591,0,0,0-.019.086v.009C331.59,1158.147,329.658,1169.871,330.818,1171.022Z" transform="translate(-317.805 -1127.297)"/><path class="aq" d="M347.11,1168.524a21.86,21.86,0,0,1,.425,3.263c0,1.189-2.974,2.506-5.65,1.741s-6.393-2.531-7.306-3.444-1.643-13.242-1.643-13.242l2.422-.464s1.2,8.037,2.2,9.035S347.11,1168.524,347.11,1168.524Z" transform="translate(-318.93 -1127.082)"/><path class="c" d="M350.942,1156.82c.191.872-.807,1.832-2.23,2.144s-2.732-.142-2.923-1.014.807-1.833,2.23-2.144S350.751,1155.948,350.942,1156.82Z" transform="translate(-324.734 -1126.779)"/><path class="aq" d="M349.945,1168.311s1.915,1.961,2.9,2.155,1.483.131,1.081.934-2.286.373-2.286-.385S349.945,1168.311,349.945,1168.311Z" transform="translate(-326.625 -1132.481)"/></g><path class="q" d="M300.705,1197.489l-1.348.109,5.168,14.308H308l-2.088,3.632,28.658,36.644-21.185-44.439Z" transform="translate(-40.542 1690.192)"/><path class="r" d="M334.44,1247.5l-24.871-37.747,2.646-5.645-5.556.353-7.585-11.787,9.42-5.529Z" transform="translate(-40.413 1694.871)"/><path class="g" d="M411.654,1353.32a.975.975,0,1,1-.975-.975A.975.975,0,0,1,411.654,1353.32Z" transform="translate(-90.466 1620.131)"/><path class="g" d="M404.071,1351.257a.974.974,0,1,1-.975-.975A.975.975,0,0,1,404.071,1351.257Z" transform="translate(-87.035 1621.064)"/><path class="g" d="M396.358,1349.133a.975.975,0,1,1-.975-.975A.975.975,0,0,1,396.358,1349.133Z" transform="translate(-83.546 1622.025)"/><g transform="translate(339.295 2982.23)"><path class="ar" d="M446.863,1376.619a.532.532,0,0,1-.053-1.061c.159-.016,16-1.644,27.411-5.374a.532.532,0,0,1,.331,1.01c-11.522,3.767-27.475,5.406-27.635,5.422A.448.448,0,0,1,446.863,1376.619Z" transform="translate(-446.332 -1370.158)"/></g><g transform="translate(317.991 2946.604)"><path class="ar" d="M407.959,1308.112a.532.532,0,0,1-.188-1.029c.481-.181,11.88-4.4,20.74.022a.531.531,0,1,1-.475.951c-8.448-4.214-19.777-.021-19.89.022A.536.536,0,0,1,407.959,1308.112Z" transform="translate(-407.427 -1305.094)"/></g><g transform="translate(247.021 3021.641)"><path class="ar" d="M279.53,1121.31a.532.532,0,0,1-.507-.372,22.337,22.337,0,0,1,3.224-20.7c4.231-5.772,10.151-8.75,11.746-8.75a.532.532,0,1,1,0,1.063c-1.117,0-6.694,2.592-10.888,8.314a21.309,21.309,0,0,0-3.068,19.749.532.532,0,0,1-.347.667A.523.523,0,0,1,279.53,1121.31Z" transform="translate(-277.818 -1091.492)"/></g></g></g></svg>