<svg xmlns="http://www.w3.org/2000/svg" xmlns:xlink="http://www.w3.org/1999/xlink" width="269.533" height="231.928" viewBox="0 0 269.533 231.928"><defs><style>.a{fill:#bef5fc;}.b{fill:none;}.c{fill:url(#a);}.d{fill:url(#b);}.e{fill:url(#c);}.f{fill:url(#d);}.g{fill:#ac4492;}.h{fill:#bf2604;}.i{fill:#4f80ff;}.j{fill:url(#g);}.k{fill:#b9bcfc;}.l{fill:#646aa2;}.m{fill:#fd5e5a;}.n{fill:#131537;}.o{fill:#fc7575;}.p{fill:#230044;}.q{fill:#1d1c22;}.r{fill:#e85553;}.s{fill:#0f1d5b;}.t{fill:#1a0033;opacity:0.53;}.u{fill:#fff7cf;}.v{fill:#d1ccb2;}.w{fill:#2e005b;}.x{fill:#4f3369;}.y{fill:#53587d;}.z{fill:#3a3745;}.aa{fill:#58337c;}.ab{fill:#2e162b;}.ac{fill:#452140;}.ad{fill:#341930;}.ae{fill:#4c2a54;}.af{fill:#653870;}.ag{fill:#363a68;}.ah{fill:#fff;}.ai{fill:#5c2c55;}.aj{fill:#58307d;}</style><linearGradient id="a" x1="0.839" y1="-0.282" x2="0.062" y2="1.125" gradientUnits="objectBoundingBox"><stop offset="0" stop-color="#ebb5d0"/><stop offset="1" stop-color="#7947b5"/></linearGradient><linearGradient id="b" x1="0.495" y1="0.947" x2="0.506" y2="-0.034" gradientUnits="objectBoundingBox"><stop offset="0" stop-color="#191e66"/><stop offset="1" stop-color="#2d32bb"/></linearGradient><linearGradient id="c" x1="0.495" y1="0.947" x2="0.506" y2="-0.034" gradientUnits="objectBoundingBox"><stop offset="0" stop-color="#dc5a4a"/><stop offset="1" stop-color="#f0895e"/></linearGradient><linearGradient id="d" x1="0.502" y1="0.387" x2="0.525" y2="-0.825" gradientUnits="objectBoundingBox"><stop offset="0" stop-color="#f59bf3"/><stop offset="1" stop-color="#ffaf90"/></linearGradient><linearGradient id="g" x1="0.482" y1="0.944" x2="0.521" y2="-0.019" gradientUnits="objectBoundingBox"><stop offset="0" stop-color="#ffaa8d"/><stop offset="1" stop-color="#ffffd9"/></linearGradient></defs><g transform="translate(5498.533 7426.929)"><g transform="translate(-5498.533 -7419.653)"><circle class="a" cx="12.667" cy="12.667" r="12.667" transform="translate(9.669 65.019) rotate(-45)"/><circle class="a" cx="4.789" cy="4.789" r="4.789" transform="translate(22.331 24.238)"/><circle class="a" cx="13.439" cy="13.439" r="13.439" transform="translate(240.76 33.815)"/><circle class="a" cx="3.09" cy="3.09" r="3.09" transform="translate(230.638 12.574) rotate(-58.283)"/><circle class="a" cx="6.179" cy="6.179" r="6.179" transform="translate(253.387 125.719) rotate(-22.5)"/><circle class="a" cx="3.398" cy="3.398" r="3.398" transform="translate(0 149.416) rotate(-68.367)"/><circle class="a" cx="4.943" cy="4.943" r="4.943" transform="translate(5.03 91.898)"/><circle class="a" cx="5.252" cy="5.252" r="5.252" transform="matrix(0.23, -0.973, 0.973, 0.23, 190.262, 10.223)"/></g><path class="a" d="M455.353,339.426c-8.412-3.379-19.242.561-26.539-4.679-5.915-4.247-6.5-12.426-6.134-19.5s.9-14.953-3.863-20.371c-3.842-4.372-10.211-5.89-16.175-6.048s-11.948.783-17.886.211c-12.778-1.231-23.557-9.167-34.838-15.044-14.618-7.614-31.334-12.056-47.922-10.779s-32.948,8.664-43.054,21.327-13.125,30.7-5.968,45.087c3.695,7.428,10.045,14.916,7.807,22.859-1.544,5.484-6.913,9.225-12.43,11.309s-11.48,2.968-16.918,5.236a33.882,33.882,0,0,0-19.117,20.514,31.519,31.519,0,0,0-1.3,12.726,34.155,34.155,0,0,0-.134,3.756A49.719,49.719,0,0,0,218.6,431.36c5.055,8.143,5.2,19.931,6.883,29.206,1.394,7.691,2.923,15.7,7.695,21.939,5.74,7.509,15.415,11.267,24.914,12.163s19.031-.7,28.482-2a454.436,454.436,0,0,1,98.8-2.708c14.354,1.175,29.076,3,42.952-.8s26.871-14.993,27.485-29.168a26.913,26.913,0,0,0-.681-7.191c-2.135-9.345-8.754-17.745-14.711-25.663-7.447-9.9-14.6-22.063-11.073-33.881l.016-.053a11.236,11.236,0,0,1,6.094-6.955c7.045-3.224,21.364-10.42,26.16-17.577C468.013,359.122,466.274,343.812,455.353,339.426Z" transform="translate(-5696.839 -7689.929)"/><rect class="b" width="204" height="204" transform="translate(-5458.033 -7411.929)"/><g transform="translate(-6268.61 -8407.563)"><g transform="translate(823.592 1078.475)"><path class="c" d="M929.337,1335.31c1.144.4,1.826.712,1.826.712a42.939,42.939,0,0,0-5.755-6.374c-3.545-3.219-3.058-3.8-7.389-3.119s-6.572-1.085-7.468-1.085c-.452,0-6.954,7.1-8.181,7.752-1.007-.943,4.13-6.922,2.481-6.922-1.554,0-5.559,5.036-6.434,7.26a35.5,35.5,0,0,0-3.295,1.867c-.015-2.026,2.583-6.973,2.583-6.973s-9.261,2.712-9.261,4.2,6.124,4.068,3.435,4.068-5.676-3.933-5.676-3.933-4.818,2.305-3.9,4.882-2.061,3.505-3.04,4.395c0,0,0,0,0,.006a21.011,21.011,0,0,0-6.4,3.329c-2.091,1.9,3.834,13.064,2.29,14.465s-4.68-10.849-4.68-12.024c0-.677-.668-.733-1.534-.192,2.509-12.6,6.4-23.486,12.453-29a33.108,33.108,0,0,1,7.433-4.778l.084-.046a6.956,6.956,0,0,0-.836,3.915c0,4.95,14.032,6.586,11.95,4.695s-4.406-7.746-3.286-7.746,2.987,6.17,5.975,7.459,6.5-2.17,6.5-2.17-9.373-6.407-8.439-7.255,9.037,7.73,11.277,8.543,6.348-3.119,6.348-3.119-15.46-7.527-15.025-8.815,14.352,8,16.518,7.391,4.033-4.543,4.033-4.543-15.684-4.814-15.086-5.967,13.144,5.086,14.937,4.747.9-5.018.9-5.832-9.672-2-10.6-2.848,9.485,1.559,10.232,1.559,1.568-.814.822-2.373-1.419-6.713-1.419-6.713c-.9,0-4.854-2.848-5.527-3.458s-3.211,4.814-4.182,4.814,2.838-4.882,2.838-6.035-2.39-2.17-4.332-2.17-4.929,11.774-5.826,11.774,3.137-12.045,2.539-12.587-2.315-1.356-5.9-.882-1.568,14.239-2.838,15.392,0-14.578,0-14.985-4.481.678-6.049,2.1,1.12,14.714,0,15.731-2.016-12.68-2.016-14.1-1.419-1.56-5.452,3.052a4.45,4.45,0,0,0-1.03,4.029c-6.351,2.545-5.085,11.778-2.331,14.278a6.436,6.436,0,0,0,4.405,1.584c-6.08,3.255-9.8,5.47-13.94,14.077,0-2.914-.357-9.227-2.091-10.8s2.091-.723,2.091-2.35-.2-7.866-1-8.589-2.888,4.973-4.182,3.8,3.684-4.7,3.684-5.153-2.888-8.95-3.585-8.95-.2,3.707-2.191,4.611,1.1-5.243,1.1-7.142-2.042-2.306-4.382-4.43a43.617,43.617,0,0,1-4.979-5.876,69.706,69.706,0,0,0,5.078,11.753c2.911,5.114,3.7,24.124,3.777,26.282a.3.3,0,0,0-.093.207c-.171,11.142-.335,20.848-.489,29.313a10.2,10.2,0,0,0-.037,2.024c-.221,1.344-.431,2.725-.632,4.134-.675-1.835-1.12-3.195-1.12-3.195s-.384.371-.93.985c-.306-1.636-.963-2.9-2.069-3.29,0,0-.54.5-1.335,1.184-.352-10.692-.946-20.255-1.926-25.959a16.736,16.736,0,0,0-.947-3.451,7.99,7.99,0,0,0,2.945-.744c4.2-1.787-.77-14.7-1.431-12.189s-4.577,6.666-5.085,5.682,3.883-4.851,3.622-7.94-4.786-4.923-4.786-4.923-1.19,10.545-2.333,10.031,2.465-10.727,2.14-12.988-5.524-4.449-5.524-4.449.619,16.294-.672,16.377.286-15.493-1.213-17.175-5.683-1.9-5.683-1.9,3.022,15.512,1.773,15.4-1.641-13.38-2.741-14.831-4.664,1.024-5.355,1.318,2.686,9.216,2.389,10.342-2.975-8.893-3.313-9.549-1.4-1.084-2.386.135-5.054,3.67-5.054,3.67c.406.787-.217,5.291-.43,6.1s5.541,1.082,5.981,1.935-5.429-.73-6.407-.314-.758,2.882.122,4.587,12.226.079,12.632.866-11.643,1.593-11.833,2.314-.1,2.523,1.926,5.5,12.8-3.763,14.349-3.064-12.372,5.263-12.717,5.41,2.606,3.691,4.525,4.554,11.98-6.3,13.35-5.678-9.847,6.348-11.055,6.862-.68,1.809,5.06,3.687a4.116,4.116,0,0,0,3.884-.549c4.83,4.469,11.7.566,13.032-2.691.665,4.959,1.108,11.909,1.4,19.711-1.232-1.913-3.749-4.07-4.963-2.967-1.643,1.492-3.361,7.933-5.228,6.238s4.631-6.1,3.884-8.679-3.271-4.8-4.222-3.933-.707,9.629-1.9,8.544,1.774-9.816.9-10.613-5.327-4.576-6.97-3.084,1.942,9.538,1,8.679-3.286-9.854-4.581-11.029-3.342.3-4.58-.825c0,0-.249,2.5-.9,3.085s6.273,5.877,5.377,5.877-6.572-4.792-6.572-4.792.448,5.108,1.693,6.238,7.867,2.079,7.867,3.074-8.564-1.266-8.564-1.266,1.693,5.877,4.68,6.6,7.667.181,7.667,1.175-5.875.362-5.875.362,1.394,7.232,5.277,7.232,4.326-.633,4.326.633-3.031-.9-3.031,1.356,2.817,6.793,4.282,5.463a7.033,7.033,0,0,0,1.637-2.56,204.525,204.525,0,0,1,6.233,29.184h1.2a205.046,205.046,0,0,0-6.471-30.093,34.394,34.394,0,0,0,7.448,3.213,16.941,16.941,0,0,0,.853,6.837c.045,7.133.026,14.054-.015,20.043h1.768c.021-5.121.022-10.924-.022-16.967a5.47,5.47,0,0,0,1.9,1.425,9.007,9.007,0,0,0,.924.34c-.412,5.23-.726,10.389-.958,15.2h1.607c.153-4.658.38-9.689.734-14.893a9.03,9.03,0,0,0,.948.09c-.132,6.075-.247,10.919-.339,14.8h1.175c.059-4.379.126-9.444.193-14.83a10.228,10.228,0,0,0,3.579-.962,66.961,66.961,0,0,0-2.632,15.793h1.092A76.913,76.913,0,0,1,870.977,1379a11.632,11.632,0,0,0,1.087,3.353c2.29,4.791,12.049,2.712,12.049,2.712-5.975,0-7.668-9.131-5.875-9.854s.8,7.594,6.672,8.86,7.667-2.984,7.667-2.984c-4.58-.814-12.794-7.639-11.25-9.041s9.159,8.137,12.245,8.137,6.473-7.413,6.473-7.413c-3.784,1.989-16.132-3.255-17.282-5.063s12.2,4.791,17.083,3.978,4.581-8.589,4.581-8.589c-1.544,1.4-14.937.091-16.331-1.175s13.244.633,16.032-.633,1.892-7.739,1.892-7.739-10.157,1.953-12.746,1.32,10.655-1.808,11.85-4.52-1.756-9-1.756-9c-1.369,1.243-5.676.214-7.466.03,4.876-2.121,10.571-4.565,13.016-5.491C913.016,1334.335,924.1,1333.888,929.337,1335.31Zm-82.707-6.01a3.694,3.694,0,0,0-.775.249c1.7-2.209,2.46-5.283,2.914-5.078C849.547,1324.82,848.411,1328.942,846.63,1329.3Zm12.441,23.88c-2.042,1.627-4.527,3.325-5.28,2.641-1.1-1,3.507-3.273,5.21-5.032C859.026,1351.579,859.049,1352.377,859.071,1353.18Zm5.689,14.283q-.1.955-.189,1.915c-1.057-.123-2.411-1.722-3.566-3.113-.005-.346-.01-.69-.015-1.036a2.563,2.563,0,0,0,.271-.051,2,2,0,0,0,.852-.606C863.048,1365.736,864.072,1366.7,864.76,1367.463Zm21.817-67.175a4.263,4.263,0,0,0,.075-.873c1.388,2.745,3.955,5.01,3.584,5.348C889.6,1305.339,886.2,1302.186,886.578,1300.288Zm-18.954,46.95c.126-13.177.184-23.967.069-26.354,1.149,1.132.428,6.9,2.18,8.492a2.56,2.56,0,0,0,2.97.643c-.373.871-.751,1.79-1.137,2.776-.309.879-1.985,5.467-2.629,8.116C868.556,1342.834,868.074,1344.964,867.624,1347.238Zm3.942,18.573c-1.047.408-2.691-2.814-4.072-6.132q.022-1.991.044-3.962.087-.584.179-1.164C869.537,1359.161,873,1365.255,871.566,1365.811Zm11.75-11.03c-2.59,0-1.232-7.588-.954-11.155.581.171,1.189.338,1.78.492C884.128,1347.954,885.659,1354.781,883.316,1354.781Zm11.532-12.946c-1.032,1.584-1.805,6.6-3.565,6.979-1.58.342.421-3.954,1.493-6.074Z" transform="translate(-823.592 -1282.455)"/></g><g transform="translate(851.715 1002.493)"><g transform="translate(31.685 35.341)"><path class="d" d="M13.721,0H67.67A13.721,13.721,0,0,1,81.39,13.721V53.662a13.72,13.72,0,0,1-13.72,13.72H13.721A13.721,13.721,0,0,1,0,53.661V13.721A13.721,13.721,0,0,1,13.721,0Z"/><path class="e" d="M12.972,0H63.981A12.973,12.973,0,0,1,76.954,12.973V50.737A12.972,12.972,0,0,1,63.982,63.709H12.973A12.973,12.973,0,0,1,0,50.736V12.972A12.972,12.972,0,0,1,12.972,0Z" transform="translate(2.218 1.837)"/><path class="f" d="M11.682,0H57.613A11.682,11.682,0,0,1,69.294,11.682v34A11.682,11.682,0,0,1,57.613,57.368H11.681A11.681,11.681,0,0,1,0,45.687v-34A11.682,11.682,0,0,1,11.682,0Z" transform="translate(6.048 5.007)"/><path class="g" d="M1173.721,1241.921l-3.051-6.251h-18.546l-3.051,6.251Z" transform="translate(-1120.546 -1207.727)"/><path class="h" d="M1164.525,1210.264h16.26l-3.051-6.251h-10.159Z" transform="translate(-1131.804 -1184.662)"/><path class="g" d="M1166.657,1273.577l-3.051-6.251h-26.933l-3.051,6.251Z" transform="translate(-1109.288 -1230.792)"/><path class="i" d="M1108.31,1330.64l-2.1,4.312h47.916l-2.1-4.312Z" transform="translate(-1089.313 -1276.922)"/><path class="h" d="M1187.85,1173.737l-3.937-8.065-3.937,8.065Z" transform="translate(-1143.063 -1156.726)"/><path class="i" d="M1156.541,1298.983h-35.32l-3.051,6.25h41.422Z" transform="translate(-1098.03 -1253.857)"/><g transform="translate(48.542 15.232)"><path class="g" d="M1243.645,1188.836h-16.474l-4.35,6.543.878.583,4.037-6.073h15.909Z" transform="translate(-1222.821 -1188.836)"/><path class="g" d="M1254.776,1257.549l-2.79,5.186h0l3.357-4.132h9.9v-1.054Z" transform="translate(-1244.07 -1238.9)"/></g></g><g transform="translate(0)"><path class="d" d="M13.721,0H67.67A13.72,13.72,0,0,1,81.39,13.72V53.662A13.721,13.721,0,0,1,67.67,67.382H13.721A13.721,13.721,0,0,1,0,53.662V13.721A13.721,13.721,0,0,1,13.721,0Z"/><rect class="e" width="76.954" height="63.709" rx="12.973" transform="translate(2.218 1.837)"/><path class="j" d="M11.682,0H57.613A11.681,11.681,0,0,1,69.294,11.681v34A11.683,11.683,0,0,1,57.612,57.368H11.682A11.682,11.682,0,0,1,0,45.687v-34A11.682,11.682,0,0,1,11.682,0Z" transform="translate(6.048 5.007)"/><rect class="k" width="50.876" height="2.265" transform="translate(16.369 7.75)"/><path class="k" d="M994.443,1189.643a1.3,1.3,0,1,1-1.3-1.3A1.3,1.3,0,0,1,994.443,1189.643Z" transform="translate(-974.31 -1137.907)"/><path class="g" d="M1002.035,1131.229a1.3,1.3,0,1,1-1.3-1.3A1.3,1.3,0,0,1,1002.035,1131.229Z" transform="translate(-979.841 -1095.346)"/><path class="k" d="M1033.576,1178.149a1.449,1.449,0,1,1-1.449-1.449A1.449,1.449,0,0,1,1033.576,1178.149Z" transform="translate(-1002.599 -1129.42)"/><path class="k" d="M1055.306,1141.064a1.585,1.585,0,1,1-1.585-1.585A1.585,1.585,0,0,1,1055.306,1141.064Z" transform="translate(-1018.232 -1102.301)"/><path class="h" d="M1095.42,1143.731a1.585,1.585,0,1,1-1.586-1.585A1.585,1.585,0,0,1,1095.42,1143.731Z" transform="translate(-1047.459 -1104.244)"/><path class="h" d="M1057.924,1182.608a1.585,1.585,0,1,1-1.585-1.585A1.585,1.585,0,0,1,1057.924,1182.608Z" transform="translate(-1020.139 -1132.57)"/><path class="g" d="M1049.466,1099.209a1.585,1.585,0,1,1-1.585-1.586A1.586,1.586,0,0,1,1049.466,1099.209Z" transform="translate(-1013.977 -1071.805)"/><path class="k" d="M1100.052,1102.027a1.361,1.361,0,1,1-1.361-1.361A1.361,1.361,0,0,1,1100.052,1102.027Z" transform="translate(-1051.161 -1074.022)"/><path class="h" d="M1135.367,1114.759a1.361,1.361,0,1,1,.7-1.793A1.361,1.361,0,0,1,1135.367,1114.759Z" transform="translate(-1077.485 -1082.39)"/><path class="h" d="M1168.459,1087.945a1.361,1.361,0,1,1,.7-1.793A1.361,1.361,0,0,1,1168.459,1087.945Z" transform="translate(-1101.595 -1062.853)"/><path class="g" d="M1106.9,1064.687a1.361,1.361,0,1,1-1.361-1.361A1.361,1.361,0,0,1,1106.9,1064.687Z" transform="translate(-1056.152 -1046.816)"/><path class="g" d="M1155.434,1054.778a1.361,1.361,0,1,1-1.361-1.361A1.361,1.361,0,0,1,1155.434,1054.778Z" transform="translate(-1091.512 -1039.596)"/><circle class="k" cx="1.559" cy="1.559" r="1.559" transform="translate(60.219 19.18)"/><g transform="translate(13.999 13.821)"><path class="k" d="M1042.382,1152.542l-3.387,5.637a2.508,2.508,0,0,1,.9.541l3.378-5.648A2.64,2.64,0,0,1,1042.382,1152.542Z" transform="translate(-1022.657 -1125.639)"/><path class="k" d="M1010.35,1182.612l-6.133,1.725a2.337,2.337,0,0,1,.286,1.014l6.133-1.725A2.482,2.482,0,0,1,1010.35,1182.612Z" transform="translate(-997.317 -1147.548)"/><path class="k" d="M1160.519,1058.8l4.24-4.671-.78-.708-4.239,4.67A2.635,2.635,0,0,1,1160.519,1058.8Z" transform="translate(-1110.631 -1053.417)"/><path class="k" d="M981.542,1197.05l-2.747,2.3.677.808,2.747-2.3A2.361,2.361,0,0,1,981.542,1197.05Z" transform="translate(-978.795 -1158.068)"/><path class="k" d="M1119.064,1081.463l-9.87,5.033a2.409,2.409,0,0,1,.48.938l9.87-5.034A2.6,2.6,0,0,1,1119.064,1081.463Z" transform="translate(-1073.804 -1073.851)"/><path class="k" d="M1072.143,1110.016l-8.357,7.466a2.666,2.666,0,0,1,.7.786l8.357-7.466A2.437,2.437,0,0,1,1072.143,1110.016Z" transform="translate(-1040.719 -1094.655)"/></g><g transform="translate(14.209 13.668)"><path class="g" d="M1019.14,1107.041l-8.923,5.818a2.358,2.358,0,0,1,.577.882l8.923-5.818A2.645,2.645,0,0,1,1019.14,1107.041Z" transform="translate(-1001.899 -1092.335)"/><path class="g" d="M1166.088,1054.369c0,.024,0,.049,0,.073l2.874-.552-.2-1.035-2.874.552A2.4,2.4,0,0,1,1166.088,1054.369Z" transform="translate(-1115.321 -1052.855)"/><path class="g" d="M1070.506,1071.24l-11.278,6.942a2.653,2.653,0,0,1,.554.9l11.278-6.943A2.418,2.418,0,0,1,1070.506,1071.24Z" transform="translate(-1037.608 -1066.25)"/><path class="g" d="M1126.078,1059.3a2.4,2.4,0,0,1-.211-.988c0-.015,0-.03,0-.045l-8.554,1.746a2.4,2.4,0,0,1,.211.988c0,.015,0,.03,0,.045Z" transform="translate(-1079.929 -1056.798)"/><path class="g" d="M985.059,1142.146l-5.491,17.165,1,.321,5.49-17.164A2.325,2.325,0,0,1,985.059,1142.146Z" transform="translate(-979.568 -1117.912)"/></g><rect class="i" width="1.519" height="41.264" transform="translate(13.578 14.826)"/><g transform="translate(15.083 13.062)"><path class="h" d="M1072.4,1153.51l-6.59,6.827a2.656,2.656,0,0,1,.757.731l6.588-6.83A2.654,2.654,0,0,1,1072.4,1153.51Z" transform="translate(-1043.279 -1125.586)"/><path class="h" d="M1170.891,1058.989a2.414,2.414,0,0,1,.795.135l.97-8.382-1.047-.121-.97,8.381A2.457,2.457,0,0,1,1170.891,1058.989Z" transform="translate(-1119.656 -1050.621)"/><path class="h" d="M1149.319,1094.31l-5.32,4.311a2.41,2.41,0,0,1,.663.819l5.32-4.311A2.412,2.412,0,0,1,1149.319,1094.31Z" transform="translate(-1100.246 -1082.453)"/><path class="h" d="M1001.269,1187.337l-18.481,4.71.26,1.021,18.481-4.71A2.619,2.619,0,0,1,1001.269,1187.337Z" transform="translate(-982.788 -1150.232)"/><path class="h" d="M1111.516,1120.891l-7.033,5.367a2.647,2.647,0,0,1,.64.837l7.032-5.367A2.412,2.412,0,0,1,1111.516,1120.891Z" transform="translate(-1071.455 -1101.82)"/></g><path class="k" d="M1172.546,1051.277a1.361,1.361,0,1,1,.7-1.793A1.361,1.361,0,0,1,1172.546,1051.277Z" transform="translate(-1104.573 -1036.137)"/><rect class="i" width="58.199" height="1.164" transform="translate(14.338 54.927)"/><rect class="g" width="10.098" height="1.4" transform="translate(17.982 13.062)"/><rect class="k" width="10.098" height="1.4" transform="translate(17.982 15.81)"/><rect class="h" width="10.098" height="1.4" transform="translate(17.982 18.48)"/></g><g transform="translate(4.568 77.378)"><path class="d" d="M13.721,0H67.67A13.72,13.72,0,0,1,81.39,13.72V53.661A13.721,13.721,0,0,1,67.67,67.382H13.721A13.721,13.721,0,0,1,0,53.661V13.721A13.721,13.721,0,0,1,13.721,0Z"/><rect class="e" width="76.954" height="63.709" rx="12.973" transform="translate(2.218 1.836)"/><path class="j" d="M11.682,0H57.613A11.682,11.682,0,0,1,69.294,11.682v34A11.682,11.682,0,0,1,57.613,57.368H11.681A11.681,11.681,0,0,1,0,45.687v-34A11.682,11.682,0,0,1,11.682,0Z" transform="translate(6.048 5.007)"/><rect class="k" width="1.519" height="41.264" transform="translate(13.578 14.826)"/><rect class="g" width="3.398" height="32.117" transform="translate(69.571 55.968) rotate(180)"/><rect class="k" width="3.398" height="26.937" transform="translate(63.874 55.968) rotate(180)"/><rect class="k" width="3.398" height="21.34" transform="translate(58.526 55.968) rotate(180)"/><rect class="k" width="3.398" height="21.34" transform="translate(53.179 55.968) rotate(180)"/><rect class="k" width="3.398" height="20.097" transform="translate(47.831 55.968) rotate(180)"/><rect class="k" width="3.398" height="14.643" transform="translate(42.484 55.968) rotate(180)"/><rect class="k" width="3.398" height="10.048" transform="translate(37.136 55.968) rotate(180)"/><rect class="k" width="3.398" height="8.446" transform="translate(31.789 55.968) rotate(180)"/><rect class="k" width="3.398" height="8.446" transform="translate(26.442 55.968) rotate(180)"/><rect class="k" width="3.398" height="3.909" transform="translate(21.094 55.968) rotate(180)"/><path class="h" d="M1057.206,1349.54l-.835-3.276-4.163,7.016-10.857.636-13.418,12.09h-9.557l-14.7,15.109-1.433-1.394,15.287-15.714h9.634l13.369-12.046,10.5-.615,3.622-6.1-3.275.837,1.469-2.475,4.644-1.185,1.185,4.644Z" transform="translate(-986.45 -1327.542)"/><rect class="k" width="50.876" height="2.264" transform="translate(16.369 7.75)"/><rect class="k" width="58.199" height="1.164" transform="translate(14.338 54.926)"/></g><path class="l" d="M1065.448,1678.611c0,2.1-43.93,5.2-75.935,1.667-32.394-3.572-52.41-.606-52.41-2.707s31.74-3.782,64.33-3.782S1065.448,1676.51,1065.448,1678.611Z" transform="translate(-934.419 -1491.599)"/><g transform="translate(91.427 53.611)"><path class="m" d="M1281.734,1224.864c-.281-1.428-1.709-7.359-1.709-9.383a14.5,14.5,0,0,1,.907-5.371,11.115,11.115,0,0,0,0-5.023c-.068-.332-.872-1.273-1.151-.994s.419.715.279,1.622-.532.671-.75.454-.279-6.034-.82-6.139-.331,4.29-.418,5.057-.771.5-1.064.8-.14.478-.454.792-.384,1.011-.227,2.023,1.535,2.7,1.535,3.47-1.21,19.688,2.372,20.125c1.1.135,3.421-1.043,5.158-3.111a10.33,10.33,0,0,0-1.811-4.009C1282.994,1225.661,1282,1226.216,1281.734,1224.864Z" transform="translate(-1272.946 -1200.028)"/><path class="n" d="M1293.82,1232.282a.709.709,0,0,0-.4.235,40.766,40.766,0,0,0-5.413,9.14l-3.816,7.35-2.1-10.705-3.213,1.028c-.857,8.1-.857,18.461,4.069,16.876s8.1-9.412,8.1-9.412l3.942-12.487S1294.754,1232.28,1293.82,1232.282Z" transform="translate(-1274.557 -1223.528)"/><path class="o" d="M1276.862,1221.061s2.588,2.526,2.091,3.023-2.573-2.187-2.573-2.187,2.3,2.348,1.9,2.755-2.4-1.577-2.4-1.577,2.1,1.807,1.724,2.015-1.724-1.235-1.724-1.235a2.054,2.054,0,0,1-.121-.864c.071-.325-.046-.461.013-.663a1.979,1.979,0,0,1,.429-.617C1276.312,1221.6,1276.357,1220.873,1276.862,1221.061Z" transform="translate(-1272.578 -1215.33)"/><path class="p" d="M1318.785,1331.157l-5.172.76,2.908-13.417,2.811,1.445Z" transform="translate(-1300.172 -1286.347)"/><path class="q" d="M1374.583,1672.81l-.08,4.956.552.016.711-5.65Z" transform="translate(-1344.536 -1544.003)"/><g transform="translate(1.153 77.108)"><path class="o" d="M1356.969,1513.927s.591,7.75,1.54,10.065-.747,32.923-1.553,35.392a7.553,7.553,0,0,1-.671,1.465c-.88,1.5-1.079,1.811.1,1.815,1.515.005,2.842-.283,3.136-.9.508-1.071.957-4.76,1.993-4.757a4.318,4.318,0,0,0,.531-2.1c-.266-1.09-1.006-.53-1-2.044s5.025-24.538,4.239-27.889-1.343-3.752-1.33-7.738S1356.969,1513.927,1356.969,1513.927Z" transform="translate(-1331.889 -1505.811)"/><path class="m" d="M1289.99,1484.141s-5.652,10.772-5.291,13.963,1.555,5.766.53,10.121-9.132,20.148-9.325,23.036c-.082,1.217.289,1.331.289,1.331-.016,2.1-.671,4.345-1.107,4.778-.56.556-1.191,3.321-1.722,3.319s-5.023.479-5.023.479c-.116-1.025,1.258-.2,2.063-2.325s1.293-5.311,2.317-9.612,5.225-23.932,5.24-28.45-.4-4.54.3-7.514a62.052,62.052,0,0,1,3.324-8.546Z" transform="translate(-1268.336 -1484.141)"/><path class="r" d="M1310.253,1498.1c-.361-3.19,5.291-13.963,5.291-13.963l-8.4.579a62.052,62.052,0,0,0-3.324,8.546,13.149,13.149,0,0,0-.351,4.72c1.606.346,4.105.85,6.959,1.311C1310.359,1498.906,1310.3,1498.51,1310.253,1498.1Z" transform="translate(-1293.889 -1484.141)"/><path class="m" d="M1367.728,1517.234c.013-3.986-6.983-3.307-6.983-3.307s.377,4.942,1.012,8.112a31.723,31.723,0,0,0,6.451-.237A15.938,15.938,0,0,1,1367.728,1517.234Z" transform="translate(-1335.665 -1505.811)"/></g><path class="s" d="M1308.328,1345.413s-.984,15.173-1.728,18.788-5,29.232-5,29.232,18.943,1.594,23.514,0c0,0,.51-32.873-.566-37.1s-5.781-11.914-5.781-11.914Z" transform="translate(-1291.421 -1305.232)"/><path class="t" d="M1336.527,1344.42l-10.442.993s-.04.617-.11,1.63a25.768,25.768,0,0,1,4.588,7.3c1.412,3.655-.056,33.6-.373,39.714,5.09.169,10.511.132,12.684-.626,0,0,.51-32.873-.566-37.1S1336.527,1344.42,1336.527,1344.42Z" transform="translate(-1309.179 -1305.232)"/><path class="p" d="M1341.576,1228.835l-5.746-.416-2.035,3.984,8.176.851Z" transform="translate(-1314.876 -1220.714)"/><path class="u" d="M1322.74,1232.288s2.615-2,11.481,0c.242.054.465,9.66.465,9.66s-4.114,16.1-3.332,20.123c0,0-4.7,3.969-11.718.514,0,0,.911-12.646.274-15.463s-1.911-5.371-.1-8.295A33.157,33.157,0,0,0,1322.74,1232.288Z" transform="translate(-1304.007 -1222.886)"/><path class="v" d="M1337.186,1245.882v18.535a10.172,10.172,0,0,0,7.509-1.83c-.782-4.019,3.332-20.123,3.332-20.123s-.224-9.606-.465-9.66a39.177,39.177,0,0,0-3.962-.7Z" transform="translate(-1317.347 -1223.399)"/><path class="w" d="M1349,1229.953l-5.016,14.361v23.837l11.084.536-3.864-5.055-.929-6.719,2.7-16.016-.466-9.66Z" transform="translate(-1322.301 -1221.832)"/><path class="w" d="M1321.125,1228.419,1317,1242.126l-1.071,24.158h-2.313l2.484-12.764-1.456-14.392,4.155-9.295Z" transform="translate(-1300.172 -1220.714)"/><path class="x" d="M1349,1229.953l-5.016,14.361,6.409-8.352,1.068-5.628Z" transform="translate(-1322.301 -1221.832)"/><path class="x" d="M1330.21,1228.419l-4.129,13.707.372-9.805,1.721-3.485Z" transform="translate(-1309.256 -1220.714)"/><path class="m" d="M1376.763,1354.174c.144-.144,1.4-2,1.669-1.727s-1.113,1.977-1.113,1.977,1.6-1.622,1.919-1.305-2.141,2.506-2.4,2.506S1376.763,1354.174,1376.763,1354.174Z" transform="translate(-1346.137 -1311.061)"/><path class="o" d="M1367.962,1344.688s-.678,1.034-.178,1.533.232,1.016.571,1.355,1.854.392,1.854.392a10.409,10.409,0,0,1,.856-3.138,11.7,11.7,0,0,1,1.211-1.721,20.533,20.533,0,0,0-2.092-1.2C1368.929,1343.539,1367.985,1344.647,1367.962,1344.688Z" transform="translate(-1339.506 -1303.405)"/><path class="x" d="M1374.366,1234.674s-.88,6.989,0,8.914c.856,1.874,5.86,4.036,6.718,7.833.642,2.836-4.188,8.169-6.909,11.7a35.948,35.948,0,0,0,3.106,2.9c2.77-3.525,9.645-12.172,9.819-14.118C1387.314,1249.515,1378.084,1234.424,1374.366,1234.674Z" transform="translate(-1344.151 -1225.269)"/><path class="y" d="M1374.041,1234.682c-.132,1.629-.237,3.19-.268,4.853-.027,2.936.149,3.862.8,4.6,1.5,1.744,5.53,3.873,6.189,7.3-.937-3.393-4.831-5.281-6.4-7.113a3.665,3.665,0,0,1-.781-2.341A36.42,36.42,0,0,1,1374.041,1234.682Z" transform="translate(-1343.827 -1225.277)"/><path class="z" d="M1359.77,1660.355c-.466,2.771-2.022,7.548-3.092,8-1.773.372-1.782.188-1.771-.781-.88,1.5-1.876,2.273-.7,2.277,1.515.005,3.877.1,4.172-.516.508-1.071.8-5.128,1.834-5.124l-.339,4.994.55.017s.838-6.876.662-7.563A1.988,1.988,0,0,0,1359.77,1660.355Z" transform="translate(-1329.358 -1535.422)"/><path class="z" d="M1266.76,1669.889c-1.234.763-2.762.78-2.669,1.6,0,0,5.815-.23,6.346-.228s.994-3.266,1.554-3.822.2,3.828.2,3.828l.573,0a46.909,46.909,0,0,1,.936-6.269,1.9,1.9,0,0,0-.6-2.339C1271.343,1665.993,1271.156,1670.685,1266.76,1669.889Z" transform="translate(-1264.087 -1537.103)"/><path class="aa" d="M1347.755,1307.191a.626.626,0,1,1-.626-.626A.626.626,0,0,1,1347.755,1307.191Z" transform="translate(-1324.136 -1277.651)"/><path class="aa" d="M1347.755,1320.7a.626.626,0,1,1-.626-.626A.626.626,0,0,1,1347.755,1320.7Z" transform="translate(-1324.136 -1287.493)"/><path class="aa" d="M1347.755,1331.538a.626.626,0,1,1-.626-.626A.626.626,0,0,1,1347.755,1331.538Z" transform="translate(-1324.136 -1295.39)"/></g><g transform="translate(109.177 40.874)"><path class="ab" d="M1342.29,1154.471c.357.33,3.768-.168,6.657,2.94,3.821,4.111,3.369,13.716,3.369,13.716a49.325,49.325,0,0,1-5.661.987,48.253,48.253,0,0,1-6.606-.659c-1.777-.262-2.736-10.26-1.539-12.908A9.847,9.847,0,0,1,1342.29,1154.471Z" transform="translate(-1335.674 -1154.099)"/><path class="ac" d="M1336.1,1154.457s-3.808-.219-4.751,2.24-.545,10.325-1.864,11.141a3.941,3.941,0,0,0,1.834.591s.551.97-.773,2.4a10.843,10.843,0,0,0,3.314.61c.116,0,1.351.346,1.464-.7.134-1.236-.853-3.974-.726-5.171C1335.144,1160.506,1336.1,1154.457,1336.1,1154.457Z" transform="translate(-1329.489 -1154.085)"/><path class="ad" d="M1341.37,1156.141a3.667,3.667,0,0,0-1,.115s-3.264,1.367-3.413,3.77.185,3.336-.078,4.891c-.413,2.444,1.133,6.99,3.795,6.931.062-1.288-.859-3.888-.735-5.046C1340.392,1162.564,1341.138,1157.637,1341.37,1156.141Z" transform="translate(-1334.825 -1155.315)"/><path class="o" d="M1341.4,1204.848s-.612,4.638-1.249,5.861-1.652,6.563-.76,6.563,5.042-4.155,5.309-5.837,1.567-8.626,1.567-8.626Z" transform="translate(-1336.445 -1189.318)"/><path class="m" d="M1347.216,1204.328c-.035.016-.137.977-.142,1.014-.147,1.033-.19.97-.146,1.107.345,1.081,1.741,1.758,3.8-.08a10.331,10.331,0,0,0,.754-.75c.289-1.565.522-2.811.522-2.811S1347.257,1204.311,1347.216,1204.328Z" transform="translate(-1342.182 -1189.318)"/><path class="o" d="M1342.143,1156.211s-3.085,1.307-3.224,3.607.176,3.194-.072,4.683.393,5.467,2.728,6.472,5.442-2.847,5.986-4.577a13.865,13.865,0,0,0,.143-6.911C1347.113,1156.781,1343.859,1155.736,1342.143,1156.211Z" transform="translate(-1336.271 -1155.285)"/><path class="m" d="M1346.063,1169.1a8.417,8.417,0,0,0,1.723-2.707,13.866,13.866,0,0,0,.143-6.911c-.591-2.706-3.845-3.751-5.561-3.276,0,0-3.085,1.307-3.224,3.607-.047.771-.042,1.383-.025,1.913h0l2.905-.1s-.18-2.466.4-3.091l.1,2.964,1.991.015a5.579,5.579,0,0,0,.684-2.435,6.644,6.644,0,0,1-.339,2.441s1.622-.083,1.655.757c.027.687-.213,4.994-.335,6.134A6.521,6.521,0,0,1,1346.063,1169.1Z" transform="translate(-1336.497 -1155.285)"/><path class="ae" d="M1350.613,1158.013c-2.33-4.8-6.555-5.506-8.9-4.543a4.91,4.91,0,0,0-3.942,1.961,4.23,4.23,0,0,0-.231,3.831l2.773-.029s.108-2.845.686-3.469l.135,3.438,1.967-.077a9.768,9.768,0,0,0,.595-2.874,6.515,6.515,0,0,1-.022,2.852s1.4.155,1.435,1c.027.687-.212,4.994-.335,6.134a5.857,5.857,0,0,1-1.435,3.346s4.623.813,5.576-.219l-.483,1.442a16.587,16.587,0,0,0,3.306-.672C1352.451,1169.755,1351.954,1160.777,1350.613,1158.013Z" transform="translate(-1335.097 -1153.099)"/><path class="af" d="M1337.771,1156.429a4.23,4.23,0,0,0-.231,3.832l2.773-.029s.108-2.844.686-3.47l.135,3.438,1.967-.077a9.769,9.769,0,0,0,.595-2.874,6.514,6.514,0,0,1-.022,2.852s1.4.155,1.435,1c.027.687-.212,4.994-.335,6.134-.013.123-.03.243-.049.359h0c2.587-2.587,2.142-8.789,1.45-10.98s-4.463-2.139-4.463-2.139A4.91,4.91,0,0,0,1337.771,1156.429Z" transform="translate(-1335.097 -1154.097)"/><path class="af" d="M1353.893,1155.109c3.5-.189,5.966.6,7.2,3.894,1.2,3.167,2.381,8.084,1.271,11.284l-1.143-.437c1.061-2.55.424-6.8-.294-9.487C1360.029,1157,1358.868,1155.145,1353.893,1155.109Z" transform="translate(-1347.27 -1154.544)"/><g transform="translate(2.687 0.725)"><path class="ag" d="M1342.72,1155.853a4.686,4.686,0,0,0-3.038,2.075,5.32,5.32,0,0,0-.043,3.336l.3,0C1339.372,1158.92,1339.086,1157.08,1342.72,1155.853Z" transform="translate(-1339.388 -1155.831)"/><path class="ag" d="M1346.437,1156.178c-2.462,1.05-2.366,2.954-1.764,5.307l.293,0C1344.191,1159.173,1344.005,1157.3,1346.437,1156.178Z" transform="translate(-1342.978 -1156.067)"/><path class="ag" d="M1353.774,1155.77a7.84,7.84,0,0,1,.143,5.35l.283-.011A8.112,8.112,0,0,0,1353.774,1155.77Z" transform="translate(-1349.87 -1155.77)"/></g><path class="ac" d="M1346.525,1188.238a3.188,3.188,0,0,0,.4-2.072,6.53,6.53,0,0,1-.606,2.006l-.063.078a1.4,1.4,0,0,0,.945.417A2.109,2.109,0,0,1,1346.525,1188.238Z" transform="translate(-1341.705 -1177.192)"/><path class="ah" d="M1350.173,1207.684h0Z" transform="translate(-1344.559 -1192.87)"/><g transform="translate(4.297 12.082)"><path class="ah" d="M1348.225,1197.615a8.987,8.987,0,0,1-2.9.63,3.079,3.079,0,0,0,.355.485,8.924,8.924,0,0,0,2.315-.5A3.85,3.85,0,0,0,1348.225,1197.615Z" transform="translate(-1345.322 -1197.615)"/><path class="ab" d="M1348.945,1199.9a8.924,8.924,0,0,1-2.315.5C1347.5,1201.358,1348.374,1201.086,1348.945,1199.9Z" transform="translate(-1346.275 -1199.278)"/></g><path class="ai" d="M1351.874,1178.148a1.576,1.576,0,0,1,.788-.4,3.707,3.707,0,0,1,1.665.5,9.631,9.631,0,0,0-1.446-.288,2.3,2.3,0,0,0-.81.319Z" transform="translate(-1345.799 -1171.049)"/><path class="ai" d="M1340.792,1178.621a1.441,1.441,0,0,0-.669-.38,3.216,3.216,0,0,0-1.453.309,8.539,8.539,0,0,1,1.258-.147,2.114,2.114,0,0,1,.69.315Z" transform="translate(-1336.178 -1171.4)"/><path class="ab" d="M1351.685,1183.654a1.456,1.456,0,0,1,1.189-.335c.5.1.78.505,1.09.568-.467.115-.625-.409-1.7-.354A1.969,1.969,0,0,0,1351.685,1183.654Z" transform="translate(-1345.661 -1175.103)"/><path class="ab" d="M1339.989,1184.046a1.455,1.455,0,0,0-1.158-.432c-.5.057-.818.44-1.133.477.456.152.657-.357,1.724-.214A1.933,1.933,0,0,1,1339.989,1184.046Z" transform="translate(-1335.47 -1175.328)"/><ellipse class="m" cx="0.916" cy="0.502" rx="0.916" ry="0.502" transform="translate(2.687 9.594)"/><path class="m" d="M1356.638,1189.023c0,.318-.615.576-1.372.576s-1.372-.258-1.372-.576.614-.576,1.372-.576S1356.638,1188.705,1356.638,1189.023Z" transform="translate(-1347.27 -1178.854)"/></g></g><g transform="translate(973.559 1039.408)"><path class="aj" d="M1382.674,1147.953a.264.264,0,0,1-.255-.2c-1.687-6.818-6.055-8.719-6.1-8.738a.264.264,0,0,1,.2-.486c.189.079,4.656,2.025,6.406,9.1a.264.264,0,0,1-.192.319A.26.26,0,0,1,1382.674,1147.953Z" transform="translate(-1376.158 -1138.509)"/></g><g transform="translate(971.708 1033.352)"><path class="aj" d="M1380.148,1133.161a.264.264,0,0,1-.263-.264c0-10.027-10.309-16.15-10.414-16.21a.263.263,0,0,1,.265-.455,26.547,26.547,0,0,1,5.332,4.4c2.438,2.609,5.343,6.854,5.343,12.262A.264.264,0,0,1,1380.148,1133.161Z" transform="translate(-1369.34 -1116.196)"/></g></g></g></svg>