<svg xmlns="http://www.w3.org/2000/svg" width="153" height="153" viewBox="0 0 153 153"><defs><style>.a{fill:#8c6df2;}.b{fill:#ffb74d;}.c{fill:#e6e9ed;}.d{fill:#aab2bd;}.e{fill:#ffeaa7;}.f{fill:#838f9b;}.g{fill:#f0d0b4;}</style></defs><g transform="translate(-881 -5054)"><path class="a" d="M76.5,0A76.5,76.5,0,1,1,0,76.5,76.5,76.5,0,0,1,76.5,0Z" transform="translate(881 5054)"/><g transform="translate(910.424 5082.924)"><path class="b" d="M54.809,13.973V28.836H34V11H54.809Z" transform="translate(16.049 4.863)"/><path class="c" d="M34,29H54.809V46.836H34Z" transform="translate(16.049 13.617)"/><path class="d" d="M65.863,55.918,51,64.836V47Z" transform="translate(24.316 22.371)"/><path class="e" d="M65.123,53v8.918h-43.1L21.96,61.9a3.906,3.906,0,0,0,.059-.728V53Z" transform="translate(10.193 25.289)"/><path class="a" d="M22,47H65.1v8.918H22Z" transform="translate(10.213 22.371)"/><path class="f" d="M18.4,38V68.47a5.208,5.208,0,0,1-5.2,5.2A5.227,5.227,0,0,1,8,68.47V38Z" transform="translate(3.404 17.994)"/><path class="f" d="M25.4,62.24v8.175a3.907,3.907,0,0,1-.059.728A5.2,5.2,0,0,1,15,70.415V39.945h4.459V34H25.4V62.24Z" transform="translate(6.809 16.049)"/><path class="c" d="M22.863,24V44.809H8V37.377h8.175a3.716,3.716,0,0,0,0-7.432H8V24Z" transform="translate(3.404 11.186)"/><path class="b" d="M31.727,42.754H25.781V27.891H10.918v5.945h8.175a3.716,3.716,0,1,1,0,7.432H7.945A5.944,5.944,0,0,1,2,35.322V30.863A14.869,14.869,0,0,1,16.863,16h7.432A14.869,14.869,0,0,1,39.158,30.863V45.727a5.944,5.944,0,0,1-5.945,5.945H31.727Z" transform="translate(0.486 7.295)"/><circle class="g" cx="10.5" cy="10.5" r="10.5" transform="translate(11.152 2.152)"/><path d="M33.7,67.885V60.453a7.44,7.44,0,0,0,7.432-7.432V38.158A16.365,16.365,0,0,0,28.958,22.369,11.882,11.882,0,1,0,14.3,22.1,16.368,16.368,0,0,0,1,38.158v4.459a7.44,7.44,0,0,0,7.432,7.432H9.918V86.464a6.661,6.661,0,0,0,11.891,4.153,6.631,6.631,0,0,0,11.48-1.923H75.728l17.341-10.4-17.341-10.4Zm0,11.891H73.83v5.945H33.7ZM73.83,70.857V76.8H33.7V70.857ZM12.891,12.891a8.918,8.918,0,1,1,8.918,8.918A8.927,8.927,0,0,1,12.891,12.891ZM3.973,42.617V38.158A13.393,13.393,0,0,1,17.35,24.781h7.432A13.393,13.393,0,0,1,38.158,38.158V53.021A4.464,4.464,0,0,1,33.7,57.48V33.7H30.727V48.563H27.754V33.7H9.918v5.945H6.945v2.973H19.579a2.229,2.229,0,0,1,0,4.459H8.432A4.464,4.464,0,0,1,3.973,42.617Zm15.606,7.432a5.2,5.2,0,0,0,0-10.4H12.891V36.672H24.781V54.508H12.891V50.049ZM16.606,90.18a3.721,3.721,0,0,1-3.716-3.716V57.48h7.432V86.464A3.721,3.721,0,0,1,16.606,90.18Zm10.4,0a3.721,3.721,0,0,1-3.716-3.716V57.48h4.459V51.535h2.973V86.464A3.721,3.721,0,0,1,27.011,90.18Zm49.792-5.6V72L87.29,78.289Z"/><path d="M56.781,28H33V48.809H56.781ZM53.809,45.836H35.973V30.973H53.809Z" transform="translate(15.562 13.131)"/><path d="M56.781,16.391l7-7-2.1-2.1-4.894,4.894v-.871H33V32.125H56.781ZM35.973,29.152V14.289H53.809v.871l-8.918,8.918L40,19.184l-2.1,2.1,7,7,8.918-8.918v9.789Z" transform="translate(15.562 3.06)"/><path d="M51,28H68.836v2.973H51Z" transform="translate(24.316 13.131)"/><path d="M51,22H68.836v2.973H51Z" transform="translate(24.316 10.213)"/><path d="M51,18H68.836v2.973H51Z" transform="translate(24.316 8.268)"/><path d="M51,14H68.836v2.973H51Z" transform="translate(24.316 6.322)"/><path d="M55,10H66.891v2.973H55Z" transform="translate(26.262 4.377)"/><path d="M51,32H68.836v2.973H51Z" transform="translate(24.316 15.076)"/><path d="M61,36h2.973v2.973H61Z" transform="translate(29.18 17.021)"/><path d="M51,36H62.891v2.973H51Z" transform="translate(24.316 17.021)"/><path d="M51,40H68.836v2.973H51Z" transform="translate(24.316 18.967)"/></g></g></svg>