<svg xmlns="http://www.w3.org/2000/svg" width="180" height="131" viewBox="0 0 180 131"><defs><style>.a{fill:none;}.b{fill:#d1d3d4;}.c{fill:#8c6df2;}.d{fill:#ffd4be;}.e{fill:#c6c5ca;}.f{fill:#e6e7e8;}.g{fill:#ffb74d;}.h{fill:#3d9ae2;}.i{fill:#5aaae7;}.j{fill:#1e81ce;}</style></defs><g transform="translate(-863 -5866)"><rect class="a" width="180" height="131" transform="translate(863 5866)"/><g transform="translate(904.479 5884.659)"><path class="b" d="M54.692,33v3.063a3.072,3.072,0,0,1-3.063,3.063H24.063A3.072,3.072,0,0,1,21,36.063V33Z" transform="translate(10.352 16.476)"/><path class="c" d="M21,13H54.692V43.629H21Z" transform="translate(10.352 5.846)"/><path class="d" d="M62.317,50.162,77.892,44.5a4.775,4.775,0,0,1,6,2.343,4.594,4.594,0,0,1-2.619,6.2l-28,10.184a18.391,18.391,0,0,1-7.55,1.072l-7.274-.505a18.378,18.378,0,0,0-7.55,1.057L25.93,66.656l-6.8-18.7.674-.536a24.736,24.736,0,0,1,6.846-3.844l2.389-.858A21.387,21.387,0,0,1,40.1,41.754L58.565,45a4.617,4.617,0,0,1,3.8,4.518A4.541,4.541,0,0,1,62.317,50.162Z" transform="translate(9.359 20.954)"/><path class="e" d="M46.189,33v3.063a3.072,3.072,0,0,1-3.063,3.063H40.063A3.072,3.072,0,0,1,37,36.063V33Z" transform="translate(18.856 16.476)"/><path class="f" d="M66.566,33v3.063A3.072,3.072,0,0,1,63.5,39.126H42.063A3.072,3.072,0,0,1,39,36.063V33Z" transform="translate(19.919 16.476)"/><path class="g" d="M39,20H66.566V39.909H39Z" transform="translate(19.919 9.566)"/><path class="h" d="M33.343,68.268l-5.13,1.868H14.46L7.691,51.529l-.521-1.44L24.43,43.81l1.057,2.879,6.8,18.7Z" transform="translate(3.002 22.221)"/><path class="i" d="M17.277,67.457H7.49L1.87,51.99l8.637-3.14Z" transform="translate(0.185 24.899)"/><path class="j" d="M37,20h3.063V39.909H37Z" transform="translate(18.856 9.566)"/><path d="M55.224,17.315H49.1V12.72a10.72,10.72,0,0,0-21.441,0v4.594H21.531A1.531,1.531,0,0,0,20,18.846V52.538a4.608,4.608,0,0,0,4.594,4.594H44.5V54.07H24.594a1.531,1.531,0,0,1-1.531-1.531V51.007H44.5V47.944H23.063V20.378h4.594v4.594H30.72V20.378H46.035v4.594H49.1V20.378h4.594v4.594h3.063V18.846A1.531,1.531,0,0,0,55.224,17.315Zm-9.189,0H30.72V12.72a7.657,7.657,0,0,1,15.315,0Z" transform="translate(9.821 0)"/><path d="M67.1,19H39.531A1.531,1.531,0,0,0,38,20.531V43.5A4.608,4.608,0,0,0,42.594,48.1H64.035A4.608,4.608,0,0,0,68.629,43.5V20.531A1.531,1.531,0,0,0,67.1,19ZM65.566,43.5a1.531,1.531,0,0,1-1.531,1.531H42.594A1.531,1.531,0,0,1,41.063,43.5V41.972h24.5Zm0-4.594h-24.5V22.063h24.5Z" transform="translate(19.387 9.035)"/><path d="M50.657,33.72a7.667,7.667,0,0,0,7.657-7.657V23H55.252v3.063a4.594,4.594,0,1,1-9.189,0V23H43v3.063a7.667,7.667,0,0,0,7.657,7.657Z" transform="translate(22.045 11.161)"/><path d="M94.651,46.742a6.293,6.293,0,0,0-7.927-3.158L73.048,48.562a6.126,6.126,0,0,0-4.861-4.532L49.713,40.773A23,23,0,0,0,37.867,41.81l-2.38.874a25.908,25.908,0,0,0-6.279,3.337l-.338-.93a1.531,1.531,0,0,0-1.962-.919L9.638,50.452a1.531,1.531,0,0,0-.919,1.962l-7.2,2.619L2.569,57.91l7.2-2.619,6.247,17.165,2.878-1.048-6.763-18.6,14.4-5.238,7.858,21.594L30.706,70.5l1.048,2.876,5.112-1.868a1.531,1.531,0,0,0,.919-1.963l-.524-1.44,3.522-1.283a16.759,16.759,0,0,1,6.927-.977l7.265.5A19.667,19.667,0,0,0,63.161,65.2l28-10.189a6.126,6.126,0,0,0,3.493-8.27Zm-2.815,3.8A3.038,3.038,0,0,1,90.11,52.13l-28,10.19a16.682,16.682,0,0,1-6.927.976l-7.265-.5a19.846,19.846,0,0,0-8.184,1.153L36.207,65.23,30.3,49.009a22.852,22.852,0,0,1,6.233-3.455l2.377-.865a19.932,19.932,0,0,1,10.269-.9l18.466,3.257a3.063,3.063,0,1,1-1.063,6.033L50,50.155l-.533,3.017L66.053,56.1a6.1,6.1,0,0,0,6.9-4.242l14.812-5.392a3.262,3.262,0,0,1,4.084,1.531,3.078,3.078,0,0,1-.014,2.551Z" transform="translate(0 20.422)"/></g></g></svg>