<svg xmlns="http://www.w3.org/2000/svg" width="153" height="153" viewBox="0 0 153 153"><defs><style>.a{fill:#87f9ff;}.b{fill:#183651;}.c{fill:#8c6df2;}.d{fill:#e0e4e8;}.e{fill:#ffb74d;}</style></defs><g transform="translate(-566 -5054)"><path class="a" d="M76.5,0A76.5,76.5,0,1,1,0,76.5,76.5,76.5,0,0,1,76.5,0Z" transform="translate(566 5054)"/><g transform="translate(594.723 5082.723)"><circle class="a" cx="47.277" cy="47.277" r="47.277" transform="translate(0 0)"/><g transform="translate(9.751 2.512)"><rect class="b" width="2.955" height="2.955" transform="translate(54.221 34.128)"/><rect class="b" width="2.955" height="2.955" transform="translate(63.233 34.128)"/><rect class="b" width="2.955" height="2.955" transform="translate(72.098 34.128)"/><rect class="b" width="2.955" height="2.955" transform="translate(0 52.448)"/><rect class="b" width="2.955" height="2.955" transform="translate(8.864 52.448)"/><rect class="b" width="2.955" height="2.955" transform="translate(17.877 52.448)"/><path class="b" d="M137.551,23.142l-2.068-2.068,2.659-2.807-2.659-2.807,2.068-2.068,4.876,4.875Z" transform="translate(-119.822 -13.391)"/><rect class="b" width="9.16" height="2.955" transform="translate(11.228 3.398)"/></g><rect class="c" width="19.502" height="11.967" transform="translate(37.526 81.11)"/><path class="b" d="M213.176,439.488h-19.5a1.4,1.4,0,0,1-1.477-1.477V426.043a1.4,1.4,0,0,1,1.477-1.477h19.5a1.4,1.4,0,0,1,1.477,1.477V438.01A1.4,1.4,0,0,1,213.176,439.488Zm-18.024-2.955H211.7v-9.012H195.152Z" transform="translate(-156.148 -344.933)"/><rect class="d" width="19.502" height="11.967" transform="translate(37.526 61.165)"/><path class="b" d="M213.176,333.15h-19.5a1.4,1.4,0,0,1-1.477-1.477V319.705a1.4,1.4,0,0,1,1.477-1.477h19.5a1.4,1.4,0,0,1,1.477,1.477v11.967A1.4,1.4,0,0,1,213.176,333.15ZM195.152,330.2H211.7v-9.012H195.152Z" transform="translate(-156.148 -258.54)"/><rect class="c" width="19.502" height="11.967" transform="translate(37.526 41.368)"/><path class="b" d="M213.176,226.811h-19.5a1.4,1.4,0,0,1-1.477-1.477V213.366a1.4,1.4,0,0,1,1.477-1.477h19.5a1.4,1.4,0,0,1,1.477,1.477v11.967A1.4,1.4,0,0,1,213.176,226.811Zm-18.024-2.955H211.7v-9.012H195.152Z" transform="translate(-156.148 -172.147)"/><rect class="d" width="19.502" height="11.967" transform="translate(37.526 21.422)"/><path class="b" d="M213.176,121.26h-19.5a1.4,1.4,0,0,1-1.477-1.477V107.815a1.4,1.4,0,0,1,1.477-1.477h19.5a1.4,1.4,0,0,1,1.477,1.477v11.967A1.48,1.48,0,0,1,213.176,121.26Zm-18.024-2.955H211.7v-9.012H195.152Z" transform="translate(-156.148 -86.393)"/><rect class="c" width="19.502" height="11.967" transform="translate(37.526 1.477)"/><g transform="translate(1.034)"><path class="b" d="M213.176,14.922h-19.5a1.4,1.4,0,0,1-1.477-1.477V1.477A1.4,1.4,0,0,1,193.674,0h19.5a1.4,1.4,0,0,1,1.477,1.477V13.444A1.481,1.481,0,0,1,213.176,14.922Zm-18.024-2.955H211.7V2.955H195.152Z" transform="translate(-157.182)"/><path class="b" d="M329.748,445.985l-2.068-2.068,2.659-2.659-2.659-2.807,2.068-2.068,4.728,4.875Z" transform="translate(-267.254 -354.533)"/><rect class="b" width="9.16" height="2.955" transform="translate(55.994 85.247)"/><path class="b" d="M143.213,442.194,141,440.126l2.807-2.807L141,434.511l2.216-2.068,4.728,4.876Z" transform="translate(-115.585 -351.333)"/><path class="b" d="M35.653,372.241H16.447a10.86,10.86,0,1,1,.148-21.718H42.006v2.955H16.595a7.978,7.978,0,1,0,0,15.956H35.8v2.807h-.148Z" transform="translate(-5.514 -284.778)"/><path class="b" d="M143.213,230.157,141,228.089l2.807-2.659L141,222.622l2.216-2.068,4.728,4.876Z" transform="translate(-115.585 -179.186)"/><path class="b" d="M35.653,159.713H16.447A10.908,10.908,0,0,1,5.514,148.78a11.035,11.035,0,0,1,11.081-10.933H42.006V140.8H16.595a7.978,7.978,0,1,0,0,15.956H35.8v2.955h-.148Z" transform="translate(-5.514 -111.992)"/><path class="b" d="M330.833,340.434l-4.728-4.875,4.728-4.728,2.216,2.068-2.807,2.659,2.807,2.807Z" transform="translate(-265.974 -268.78)"/><path class="b" d="M329.461,266H310.254v-2.955h19.206a7.945,7.945,0,0,0,7.978-7.978v-.739a7.945,7.945,0,0,0-7.978-7.978H304.049V243.4h25.411a10.908,10.908,0,0,1,10.933,10.933v.739A10.908,10.908,0,0,1,329.461,266Z" transform="translate(-248.055 -197.746)"/><path class="b" d="M330.833,127.9l-4.728-4.876,4.728-4.875,2.216,2.068-2.807,2.807,2.807,2.807Z" transform="translate(-265.974 -95.993)"/><path class="b" d="M329.461,54.112H310.254V51.158h19.206a7.945,7.945,0,0,0,7.978-7.978v-.739a7.945,7.945,0,0,0-7.978-7.978H304.049V31.508h25.411a10.908,10.908,0,0,1,10.933,10.933v.739A10.908,10.908,0,0,1,329.461,54.112Z" transform="translate(-248.055 -25.598)"/></g><rect class="e" width="19.502" height="11.967" transform="translate(73.575 81.11)"/><path class="b" d="M405.373,439.488h-19.5a1.4,1.4,0,0,1-1.477-1.477V426.043a1.4,1.4,0,0,1,1.477-1.477h19.5a1.4,1.4,0,0,1,1.477,1.477V438.01A1.4,1.4,0,0,1,405.373,439.488Zm-18.024-2.955H403.9v-9.012H387.349Z" transform="translate(-312.296 -344.933)"/><rect class="e" width="19.502" height="11.967" transform="translate(1.477 1.477)"/><path class="b" d="M20.979,14.922H1.477A1.4,1.4,0,0,1,0,13.444V1.477A1.4,1.4,0,0,1,1.477,0h19.5a1.4,1.4,0,0,1,1.477,1.477V13.444A1.481,1.481,0,0,1,20.979,14.922ZM2.955,11.967H19.5V2.955H2.955Z"/></g></g></svg>