<svg xmlns="http://www.w3.org/2000/svg" width="153" height="153" viewBox="0 0 153 153"><defs><style>.a{fill:#87f9ff;}.b{fill:#b1a2e3;}.c{fill:#8c6df2;}.d{fill:#ffb74d;}.e{fill:#f9f6f9;}.f{fill:#90d8f9;}.g{fill:#dddaec;}.h{fill:#ffe07d;}.i{fill:#ffd064;}</style></defs><g transform="translate(-1196 -5054)"><path class="a" d="M76.5,0A76.5,76.5,0,1,1,0,76.5,76.5,76.5,0,0,1,76.5,0Z" transform="translate(1196 5054)"/><g transform="translate(1221.448 5067.139)"><g transform="translate(19.435 41.347)"><path class="b" d="M127.365,213.616a29.336,29.336,0,0,1-20.751-50.083l17.612-17.612a1.38,1.38,0,0,1,1.951,0l8.222,8.222a1.38,1.38,0,0,1,0,1.951l-17.612,17.612a14.959,14.959,0,0,0,21.155,21.155l17.612-17.612a1.38,1.38,0,0,1,1.951,0l8.222,8.222a1.38,1.38,0,0,1,0,1.951l-17.612,17.612A29.255,29.255,0,0,1,127.365,213.616Z" transform="translate(-98.019 -145.517)"/></g><g transform="translate(25.625 73.079)"><path class="c" d="M190.753,313.776l-8.222-8.222,3.121,3.121a1.38,1.38,0,0,1,0,1.951L168.04,328.238a29.389,29.389,0,0,1-38.806,2.384,29.823,29.823,0,0,0,2.406,2.717,29.379,29.379,0,0,0,41.5,0l17.612-17.612A1.38,1.38,0,0,0,190.753,313.776Z" transform="translate(-129.234 -305.554)"/></g><g transform="translate(1.478 22.476)"><g transform="translate(0 0)"><path class="d" d="M63.636,50.36A20.039,20.039,0,0,0,45.4,60.544a.25.25,0,0,1-.437,0A20.051,20.051,0,1,0,18.156,88.135a69.749,69.749,0,0,1,13.775,9.394l1.557,1.38a71.848,71.848,0,0,1,10.154,11.107l.938,1.271a.752.752,0,0,0,1.21,0l.938-1.271A71.856,71.856,0,0,1,56.881,98.909l1.557-1.38a69.759,69.759,0,0,1,13.776-9.394A20.051,20.051,0,0,0,63.636,50.36Z" transform="translate(-7.453 -50.345)"/></g></g><g transform="translate(34.646 22.476)"><path class="d" d="M217.008,69.494a20.053,20.053,0,0,0-24.593-18.623A20.053,20.053,0,0,1,197.2,88.136a69.753,69.753,0,0,0-13.776,9.394l-1.557,1.38a71.863,71.863,0,0,0-7.133,7.3q1.571,1.853,3.021,3.807l.938,1.271a.752.752,0,0,0,1.21,0l.938-1.271a71.855,71.855,0,0,1,10.154-11.107l1.557-1.38a69.759,69.759,0,0,1,13.776-9.394A20.046,20.046,0,0,0,217.008,69.494Z" transform="translate(-174.733 -50.346)"/></g><g transform="translate(68.412 72.675)"><path class="e" d="M355.534,303.92a1.38,1.38,0,0,0-1.951,0l-8.559,8.559L355.2,322.652l8.559-8.559a1.38,1.38,0,0,0,0-1.951Z" transform="translate(-345.024 -303.516)"/></g><g transform="translate(19.435 41.347)"><path class="a" d="M116.786,194.861a14.959,14.959,0,0,1,0-21.155L134.4,156.094a1.38,1.38,0,0,0,0-1.951l-8.222-8.222a1.38,1.38,0,0,0-1.951,0l-17.612,17.612a29.346,29.346,0,0,0,0,41.5Z" transform="translate(-98.018 -145.517)"/></g><g transform="translate(37.084 41.347)"><path class="e" d="M197.2,164.652l8.559-8.559a1.38,1.38,0,0,0,0-1.951l-8.222-8.222a1.38,1.38,0,0,0-1.951,0l-8.559,8.559Z" transform="translate(-187.026 -145.516)"/></g><g transform="translate(25.625 98.147)"><path class="f" d="M129.234,431.98a29.815,29.815,0,0,0,2.406,2.717l.635-.635A29.153,29.153,0,0,1,129.234,431.98Z" transform="translate(-129.234 -431.98)"/></g><g transform="translate(73.483 76.2)"><path class="g" d="M384.263,326.394l-5.1-5.1a1.38,1.38,0,0,1,0,1.951L370.6,331.8l5.1,5.1,8.559-8.559A1.38,1.38,0,0,0,384.263,326.394Z" transform="translate(-370.603 -321.293)"/></g><g transform="translate(1.976 20.628)"><path class="h" d="M23.882,41.261l1.209,8.367a4.2,4.2,0,0,0,3.554,3.554l8.367,1.209a.278.278,0,0,1,0,.55L28.645,56.15A4.2,4.2,0,0,0,25.091,59.7l-1.209,8.367a.278.278,0,0,1-.55,0L22.123,59.7a4.2,4.2,0,0,0-3.554-3.554L10.2,54.941a.278.278,0,0,1,0-.55l8.367-1.209a4.2,4.2,0,0,0,3.554-3.554l1.209-8.367A.278.278,0,0,1,23.882,41.261Z" transform="translate(-9.963 -41.023)"/></g><g transform="translate(13.735 32.387)"><g transform="translate(0 0)"><path class="i" d="M84.559,101.938l-8.367-1.209a4.194,4.194,0,0,1-1.277-.4l-1.827.264a4.2,4.2,0,0,0-3.554,3.554l-.264,1.827a4.194,4.194,0,0,1,.4,1.277l1.209,8.367a.278.278,0,0,0,.55,0l1.209-8.367a4.2,4.2,0,0,1,3.554-3.554l8.367-1.209A.278.278,0,0,0,84.559,101.938Z" transform="translate(-69.27 -100.329)"/></g></g><g transform="translate(0 15.584)"><path d="M88.189,94.673l-5.121-5.121,2.386-2.386a1.478,1.478,0,0,0-2.09-2.09l-2.386,2.386-1.011-1.011h0a2.867,2.867,0,0,0-4.042,0L58.313,104.063a13.481,13.481,0,0,1-22.941-8.134c.333.454.678.936,1.1,1.514l.938,1.271a2.23,2.23,0,0,0,3.589,0l.938-1.271a70.5,70.5,0,0,1,9.945-10.878l1.557-1.38a68.53,68.53,0,0,1,13.485-9.193A21.524,21.524,0,0,0,78.4,55.977a21.357,21.357,0,0,0-4.59-12.3,1.489,1.489,0,0,0,.256-.2l3.527-3.528a1.478,1.478,0,0,0-2.09-2.09l-3.527,3.528a1.532,1.532,0,0,0-.116.132A21.819,21.819,0,0,0,70.1,39.986a1.477,1.477,0,0,0-2.24-1.914l-.237.237a21.274,21.274,0,0,0-9.91-2.878A21.543,21.543,0,0,0,50.19,36.48a1.478,1.478,0,0,0,.92,2.81,18.544,18.544,0,0,1,6.5-.9,18.324,18.324,0,0,1,7.845,2.1L64.335,41.6a1.478,1.478,0,0,0,2.09,2.09L68.013,42.1a18.545,18.545,0,0,1-2.465,31.275,71.491,71.491,0,0,0-14.066,9.6l-1.557,1.38A73.462,73.462,0,0,0,39.562,95.688l-.353.479-.353-.479c-1.025-1.389-2.114-2.754-3.238-4.071A13.386,13.386,0,0,1,39.249,85L56.861,67.387a2.876,2.876,0,0,0,0-4.042L51.815,58.3l2.071-2.071a1.478,1.478,0,1,0-2.09-2.09L49.725,56.21l-1.087-1.087a2.877,2.877,0,0,0-4.041,0L26.985,72.735a31.01,31.01,0,0,0-4.894,6.353,76.4,76.4,0,0,0-9.222-5.712,18.687,18.687,0,0,1-9.9-17.27,18.272,18.272,0,0,1,1.06-5.387l6.335.915a2.735,2.735,0,0,1,2.3,2.3l1.209,8.367a1.756,1.756,0,0,0,3.476,0l1.209-8.367a2.735,2.735,0,0,1,2.3-2.3l8.367-1.209a1.756,1.756,0,0,0,0-3.476l-8.367-1.209a2.735,2.735,0,0,1-2.3-2.3l-.679-4.7a18.23,18.23,0,0,1,2.926-.352A18.536,18.536,0,0,1,37.7,47.821a1.733,1.733,0,0,0,1.5.879h0a1.733,1.733,0,0,0,1.5-.879,18.549,18.549,0,0,1,5.064-5.756A1.478,1.478,0,0,0,44.007,39.7a21.482,21.482,0,0,0-4.8,4.965A21.476,21.476,0,0,0,20.7,35.431a21.167,21.167,0,0,0-3.238.378l-.106-.737h0a1.756,1.756,0,0,0-3.476,0l-.269,1.864a21.62,21.62,0,0,0-6.356,3.917,1.478,1.478,0,1,0,1.963,2.21,18.659,18.659,0,0,1,3.893-2.659l-.438,3.034a2.735,2.735,0,0,1-2.3,2.3L2,46.951a1.759,1.759,0,0,0-.867,3.1A21.221,21.221,0,0,0,.021,55.978,21.524,21.524,0,0,0,11.49,75.991a72.979,72.979,0,0,1,9.227,5.757,30.855,30.855,0,0,0,13.426,39.913,1.478,1.478,0,0,0,1.4-2.6,27.723,27.723,0,0,1-5.394-3.807l8.1-8.1a16.453,16.453,0,0,0,22.151-1l8.008-8.008,8.083,8.083-8.008,8.008a27.678,27.678,0,0,1-19.706,8.149,28.074,28.074,0,0,1-7.065-.9,1.478,1.478,0,1,0-.745,2.861,31.021,31.021,0,0,0,7.81,1,30.616,30.616,0,0,0,21.8-9.014L88.189,98.716a2.87,2.87,0,0,0,0-4.042Zm-77.4-46.005A5.708,5.708,0,0,0,15.6,43.862l.021-.144.021.144a5.708,5.708,0,0,0,4.806,4.806l.144.021-.144.021a5.708,5.708,0,0,0-4.806,4.806l-.021.144-.021-.144a5.708,5.708,0,0,0-4.806-4.806l-.144-.021Zm35.825,8.615L54.7,65.366,47.257,72.81l-8.083-8.083Zm-18.559,55.88q-.152-.169-.3-.34a27.868,27.868,0,0,1,1.318-38l8.008-8.008L45.166,74.9l-8.008,8.008a16.44,16.44,0,0,0-1,22.154ZM70.5,96.055l7.444-7.444,4.041,4.041,4.041,4.042L80.8,101.921l-2.218,2.218Z" transform="translate(0 -30.001)"/><path d="M485.351,250.2a1.479,1.479,0,0,0-2.09,0l-3.527,3.527a1.478,1.478,0,1,0,2.09,2.09l3.527-3.527A1.478,1.478,0,0,0,485.351,250.2Z" transform="translate(-384.265 -203.333)"/><path d="M444.737,288.723l-3.527,3.528a1.478,1.478,0,1,0,2.09,2.09l3.527-3.528a1.478,1.478,0,0,0-2.09-2.09Z" transform="translate(-353.379 -234.218)"/><path d="M480.779,218.807a1.474,1.474,0,0,0,1.045-.433l3.527-3.528a1.478,1.478,0,0,0-2.091-2.09l-3.527,3.528a1.478,1.478,0,0,0,1.045,2.523Z" transform="translate(-384.265 -173.314)"/><path d="M444.737,251.28l-3.527,3.527a1.478,1.478,0,1,0,2.09,2.09l3.527-3.527a1.478,1.478,0,1,0-2.09-2.09Z" transform="translate(-353.379 -204.199)"/><path d="M324.805,97.6l3.527-3.527a1.478,1.478,0,1,0-2.091-2.09l-3.527,3.527a1.478,1.478,0,1,0,2.091,2.09Z" transform="translate(-258.38 -76.488)"/><path d="M285.923,132.3,282.4,135.83a1.478,1.478,0,0,0,2.09,2.09l3.527-3.528a1.478,1.478,0,0,0-2.09-2.09Z" transform="translate(-226.055 -108.812)"/><path d="M362.285,22.067a1.475,1.475,0,0,0,1.045-.433l3.527-3.527a1.478,1.478,0,1,0-2.09-2.09l-3.527,3.527a1.478,1.478,0,0,0,1.045,2.523Z" transform="translate(-289.266 -15.584)"/><path d="M288.014,94.859a1.479,1.479,0,0,0-2.09,0L282.4,98.387a1.478,1.478,0,0,0,2.09,2.09l3.527-3.527A1.478,1.478,0,0,0,288.014,94.859Z" transform="translate(-226.055 -78.793)"/></g></g></g></svg>