<svg xmlns="http://www.w3.org/2000/svg" width="180" height="131" viewBox="0 0 180 131"><defs><style>.a{fill:none;}.b{fill:#ffd4be;}.c{fill:#98a1b3;}.d{fill:#60a4ff;}.e{fill:#f6838d;}.f{fill:#ffc15a;}</style></defs><g transform="translate(-549 -5866)"><rect class="a" width="180" height="131" transform="translate(549 5866)"/><g transform="translate(591 5886.105)"><path class="b" d="M85.7,275.9h19.614l19.017,7.872a6.482,6.482,0,0,1,3.49,8.516l-.065.152a6.67,6.67,0,0,1-8.546,3.65c-5.4-2.082-12.474-4.8-12.474-4.8l18.223,7.006a20.709,20.709,0,0,0,12.055.857l18.67-4.275a6.266,6.266,0,0,1,2.941,12.18l-22.276,5.662a20.713,20.713,0,0,1-12.665-.792L94.93,300.648H85.7Zm0,0" transform="translate(-69.711 -224.437)"/><path class="b" d="M85.7,275.9h19.614l19.017,7.872a6.482,6.482,0,0,1,3.49,8.516l-.065.152a6.67,6.67,0,0,1-8.546,3.65c-5.4-2.082-12.474-4.8-12.474-4.8l18.223,7.006a20.709,20.709,0,0,0,12.055.857l18.67-4.275a6.266,6.266,0,0,1,2.941,12.18l-22.276,5.662a20.713,20.713,0,0,1-12.665-.792L94.93,300.648H85.7Zm0,0" transform="translate(-69.711 -224.437)"/><path class="c" d="M10,252.316H24.119V285.1H10Zm0,0" transform="translate(-8.135 -205.253)"/><path class="d" d="M144.6,166.871v22.36l-4.892-2.025H127.977V166.871Zm0,0" transform="translate(-104.106 -135.746)"/><path class="e" d="M233.714,101.376V143.59a6.471,6.471,0,0,0-2.5-1.835l-14.123-5.846V101.32Zm0,0" transform="translate(-176.601 -82.422)"/><path class="f" d="M322.816,218.41v32.5l-6.434,1.473a20.71,20.71,0,0,1-10.187-.238V247.24a6.727,6.727,0,0,0,.928-1.566l.063-.152a6.478,6.478,0,0,0-.992-6.682V218.41Zm0,0" transform="translate(-249.083 -177.672)"/><path class="c" d="M419.147,112.556a2.818,2.818,0,1,1-2.818-2.818A2.817,2.817,0,0,1,419.147,112.556Zm0,0" transform="translate(-336.382 -89.269)"/><path class="c" d="M363.616,40.083a2.818,2.818,0,1,1-2.818-2.818A2.818,2.818,0,0,1,363.616,40.083Zm0,0" transform="translate(-291.209 -30.315)"/><path d="M95.327,149.178a8.13,8.13,0,0,0-9.775-6.271L75.6,145.186v-4.069a39.32,39.32,0,0,0,5.553-6.58A38.575,38.575,0,0,0,86.6,121.695a39.348,39.348,0,0,0,.075-16.7,1.865,1.865,0,0,0-3.648.781,35.572,35.572,0,0,1-.068,15.107,34.86,34.86,0,0,1-4.928,11.6A33.209,33.209,0,0,1,75.6,135.7V115.026a1.865,1.865,0,0,0-1.865-1.865H58.978V93.242a1.866,1.866,0,0,0-1.859-1.865L40.5,91.32h-.006a1.866,1.866,0,0,0-1.865,1.865v10.362H23.871a1.866,1.866,0,0,0-1.865,1.865v18.471H17.849V121.35a1.865,1.865,0,0,0-1.865-1.865H14.071a35.3,35.3,0,0,1,1.524-18.294c.348-.959.742-1.915,1.173-2.84a1.865,1.865,0,1,0-3.381-1.575c-.477,1.024-.914,2.082-1.3,3.143a38.977,38.977,0,0,0-1.8,19.565H1.865A1.865,1.865,0,0,0,0,121.351v32.786A1.865,1.865,0,0,0,1.865,156H15.984a1.865,1.865,0,0,0,1.865-1.865v-1.773h7.016l28.422,11.148a22.45,22.45,0,0,0,13.8.863l22.277-5.662A8.115,8.115,0,0,0,95.327,149.178ZM71.868,116.891v29.149l-4.987,1.142c-.536.122-1.078.219-1.623.3A18.935,18.935,0,0,1,59,147.295l-.026-.006v-2.828a8.638,8.638,0,0,0,1.148-7.267,8.376,8.376,0,0,0-.878-1.956q-.128-.208-.267-.407a.026.026,0,0,0,0-.006V116.89H71.868ZM42.358,95.057l12.89.043v36.763l-7.2-2.981-5.686-2.354Zm-16.622,12.22h12.89v17.7l-2.313-.957a1.863,1.863,0,0,0-.713-.142H25.736ZM14.119,152.271H3.73V123.215H14.119ZM88.451,155.1l-22.277,5.662a18.746,18.746,0,0,1-11.524-.721L25.9,148.762a1.863,1.863,0,0,0-.681-.128H17.849v-21.02H35.227l12.069,5,6.6,2.734a4.666,4.666,0,0,1,2.5,6.044,5.333,5.333,0,0,1-.747,1.311,4.808,4.808,0,0,1-4.889,1.687l-.044-.011c-.108-.027-.215-.058-.321-.093l-12.55-4.825-.156-.06a1.865,1.865,0,1,0-1.338,3.482s7.076,2.721,12.472,4.8c.109.042.216.082.325.118l4.144,1.593a34.254,34.254,0,0,0,3.8,1.294,22.63,22.63,0,0,0,10.62.133l6.434-1.473.02-.006,12.216-2.8a4.4,4.4,0,0,1,2.066,8.554Zm0,0" transform="translate(0 -74.287)"/><path d="M119.742,13.267a1.858,1.858,0,0,0,1.25-.481,35.051,35.051,0,0,1,25.9-8.98,34.985,34.985,0,0,1,10.169,2.215,1.865,1.865,0,1,0,1.328-3.486A38.706,38.706,0,0,0,147.135.083a38.784,38.784,0,0,0-28.643,9.934,1.865,1.865,0,0,0,1.25,3.25Zm0,0" transform="translate(-95.89)"/><path d="M352.087,51.178a1.867,1.867,0,0,0,2.632-.184l15.346-17.665a1.865,1.865,0,1,0-2.815-2.447L351.9,48.547A1.864,1.864,0,0,0,352.087,51.178Zm0,0" transform="translate(-285.893 -24.6)"/><path d="M408.194,99.738a4.683,4.683,0,1,0,4.683,4.683A4.688,4.688,0,0,0,408.194,99.738Zm0,5.635a.952.952,0,1,1,.952-.952A.953.953,0,0,1,408.194,105.373Zm0,0" transform="translate(-328.247 -81.135)"/><path d="M352.663,36.631a4.683,4.683,0,1,0-4.683-4.683A4.688,4.688,0,0,0,352.663,36.631Zm0-5.636a.953.953,0,1,1-.952.953A.954.954,0,0,1,352.663,31Zm0,0" transform="translate(-283.074 -22.18)"/><path d="M91.72,83.4a1.864,1.864,0,1,0,.686-2.265A1.88,1.88,0,0,0,91.72,83.4Zm0,0" transform="translate(-74.499 -65.75)"/></g></g></svg>