<svg xmlns="http://www.w3.org/2000/svg" width="122" height="122" viewBox="0 0 122 122"><defs><style>.a{fill:#b7baf4;}.b{fill:#ffbf9e;}.c{fill:#ffd4be;}.d{fill:#91def5;}.e{fill:#f6838d;}</style></defs><g transform="translate(-875 -631)"><rect class="a" width="122" height="122" rx="14" transform="translate(875 631)"/><g transform="translate(896.317 656.321)"><path class="b" d="M232.213,246.2l4.059,2.673a10.215,10.215,0,0,0,8.01,1.4l21.247,21.247,8.151-21.544-13.145-13.144a30.18,30.18,0,0,0-.864-7.172Z" transform="translate(-196.518 -194.361)"/><path class="c" d="M75.347,80.721a3.686,3.686,0,0,0-5.213,0,3.686,3.686,0,0,0-5.213-5.213,3.686,3.686,0,0,0-5.213-5.213,3.686,3.686,0,0,0-5.213-5.213l-6.385,6.385L28.616,93.859,10.244,112.231l7.286,19.013,23.762-23.762a7.121,7.121,0,0,1,5.035-2.086,23.073,23.073,0,0,0,16.315-6.758l12.7-12.7a3.686,3.686,0,0,0,0-5.213Z" transform="translate(-8.665 -54.165)"/><path class="d" d="M93.55,263.833l13.15,13.15,5.095-5.095c.158-.158.324-.308.5-.45L99.118,258.265Z" transform="translate(-79.167 -218.57)"/><path class="e" d="M0,0H21V7.874H0Z" transform="translate(50.355 58.513) rotate(-45)"/><g transform="translate(18.549 12.227)"><path class="b" d="M127.271,159.216l-5.535-5.535a3.686,3.686,0,0,1,5.213-5.213L132.484,154a3.686,3.686,0,0,1-5.213,5.213Z" transform="translate(-120.656 -136.961)"/><path class="b" d="M161.19,125.3l-5.535-5.535a3.686,3.686,0,1,1,5.213-5.213l5.535,5.535a3.686,3.686,0,1,1-5.213,5.213Z" transform="translate(-149.361 -108.255)"/><path class="b" d="M195.109,91.378l-5.535-5.535a3.686,3.686,0,0,1,5.213-5.213l5.535,5.535a3.686,3.686,0,0,1-5.213,5.213Z" transform="translate(-178.067 -79.55)"/></g><g transform="translate(15.608 30.139)"><path class="b" d="M105.865,205.649l-3.262-3.262a3.686,3.686,0,0,1,5.213-5.213l3.262,3.262a3.686,3.686,0,0,1-5.213,5.213Z" transform="translate(-101.523 -196.094)"/></g><g transform="translate(0.005)"><path d="M67.065,88.841a16.9,16.9,0,0,0-1.809-7.568l2.716-2.716a5.221,5.221,0,0,0-3.684-8.914,5.218,5.218,0,0,0-5.216-5.213,5.218,5.218,0,0,0-5.211-5.216,5.223,5.223,0,0,0-8.917-3.684l-5.388,5.388-3-3a5.223,5.223,0,0,0-8.917,3.686,5.218,5.218,0,0,0-5.213,5.211,5.222,5.222,0,0,0-4.561,7.749A5.22,5.22,0,0,0,15.8,83.22L17.98,85.4.7,102.68a1.537,1.537,0,1,0,2.174,2.174L14.586,93.137l10.976,10.976L7.981,121.693a1.537,1.537,0,1,0,2.174,2.174L33.917,100.1a5.59,5.59,0,0,1,1.475-1.059l3.719,2.45a11.8,11.8,0,0,0,8.35,1.785l20.666,20.666a1.537,1.537,0,1,0,2.174-2.174L58.31,109.781l1.45-1.45a1.537,1.537,0,0,0-2.174-2.174l-1.45,1.45-3.394-3.394L65.416,91.54l3.394,3.394L67.364,96.38a1.537,1.537,0,1,0,2.174,2.174l1.446-1.446,5.294,5.294a1.537,1.537,0,0,0,2.174-2.174ZM47.119,57.7a2.149,2.149,0,0,1,3.04,3.04l-3.378,3.378a1.537,1.537,0,0,0,2.174,2.174l3.378-3.378a2.149,2.149,0,0,1,3.04,3.04l-5.158,5.158a1.537,1.537,0,1,0,2.174,2.174l5.158-5.158a2.149,2.149,0,1,1,3.04,3.04l-5.158,5.158A1.537,1.537,0,1,0,57.6,78.5l5.157-5.158a2.149,2.149,0,1,1,3.04,3.04l-12.7,12.7A21.394,21.394,0,0,1,37.866,95.4,8.606,8.606,0,0,0,33.5,96.572l-8.9-8.9a5.229,5.229,0,0,0,3.376-4.88,5.214,5.214,0,0,0,5.211-5.211,5.218,5.218,0,0,0,5.213-5.213,5.223,5.223,0,0,0,3.686-8.917l-.363-.363Zm-15.773,2.39a2.149,2.149,0,0,1,3.04,0l5.535,5.535a2.149,2.149,0,0,1-3.039,3.04h0l-5.535-5.535a2.149,2.149,0,0,1,0-3.04Zm-5.213,5.213a2.152,2.152,0,0,1,3.04,0l5.535,5.535a2.149,2.149,0,0,1-3.039,3.04h0l-5.535-5.535a2.15,2.15,0,0,1,0-3.04ZM20.919,70.52a2.149,2.149,0,0,1,3.04,0l5.535,5.535a2.149,2.149,0,0,1-3.04,3.04L20.919,73.56A2.152,2.152,0,0,1,20.919,70.52Zm-2.941,7.486a2.152,2.152,0,0,1,3.038,0l3.264,3.264a2.149,2.149,0,0,1-3.039,3.04h0l-3.262-3.262a2.152,2.152,0,0,1,0-3.04ZM16.76,90.963l3.394-3.394L31.13,98.545l-3.394,3.394Zm32.294,9.562a1.535,1.535,0,0,0-1.447-.407,8.708,8.708,0,0,1-6.8-1.19l-.832-.548a24.424,24.424,0,0,0,15.3-7.118l7.67-7.67a13.835,13.835,0,0,1,1.049,5.031L50.569,102.04Z" transform="translate(-0.208 -45.7)"/><path d="M402.635,359.075a1.536,1.536,0,1,0,1.087-.45A1.546,1.546,0,0,0,402.635,359.075Z" transform="translate(-340.37 -303.505)"/><path d="M25.247,27.416a1.537,1.537,0,0,0,2.174-2.174l-7.235-7.235a1.537,1.537,0,0,0-2.174,2.174Z" transform="translate(-14.863 -14.859)"/><path d="M113.542,8.379a1.537,1.537,0,0,0,1.537-1.537V1.537a1.537,1.537,0,0,0-3.074,0V6.842A1.537,1.537,0,0,0,113.542,8.379Z" transform="translate(-94.791 0)"/><path d="M1.542,115.074H6.847a1.537,1.537,0,1,0,0-3.074H1.542a1.537,1.537,0,0,0,0,3.074Z" transform="translate(-0.005 -94.786)"/><path d="M428.912,27.866a1.532,1.532,0,0,0,1.087-.45l7.235-7.235a1.537,1.537,0,0,0-2.174-2.174l-7.235,7.235a1.537,1.537,0,0,0,1.087,2.624Z" transform="translate(-361.689 -14.858)"/><path d="M381.542,8.379a1.537,1.537,0,0,0,1.537-1.537V1.537a1.537,1.537,0,0,0-3.074,0V6.842A1.537,1.537,0,0,0,381.542,8.379Z" transform="translate(-321.599 0)"/><path d="M457.49,113.537a1.537,1.537,0,0,0,1.537,1.537h5.305a1.537,1.537,0,1,0,0-3.074h-5.305A1.537,1.537,0,0,0,457.49,113.537Z" transform="translate(-387.175 -94.786)"/></g></g></g></svg>