<svg xmlns="http://www.w3.org/2000/svg" width="122" height="122" viewBox="0 0 122 122"><defs><style>.a{fill:#e2feff;}.b{fill:#eac092;}.c{fill:#fedbab;}.d{fill:#eaecf0;}.e{fill:#3688c8;}.f{fill:#26cfad;}.g{fill:#ffd36c;}.h{fill:#00b192;}</style></defs><g transform="translate(-333 -1303)"><rect class="a" width="122" height="122" rx="14" transform="translate(333 1303)"/><g transform="translate(351 1324.562)"><path class="b" d="M107.34,372.017v12.518c7.13.314,5.073,1.574,17.479,7.152a11.741,11.741,0,0,0,9.134-.155l.008,0,24.372-8.726c.793-.365,4.794-2.538,3.216-6.587-1.845-4.317-6.592-2.516-6.99-2.387l-12.724,3.518" transform="translate(-90.393 -313.261)"/><g transform="translate(16.948 50.53)"><path class="c" d="M121.736,333.383l14.17,4.49a4.655,4.655,0,0,0,5.751-3.2h0c.7-2.473-.731-5.048-3.565-6.1L125.522,324.3a10.685,10.685,0,0,0-9.074-4.383c-4.035,0-7.513,3.261-9.107,6.116v5.7" transform="translate(-107.341 -319.921)"/></g><path d="M154.329,387.014a1.557,1.557,0,0,1-.308-.032,1.529,1.529,0,0,1-.3-.09,1.589,1.589,0,0,1-.272-.145,1.534,1.534,0,0,1-.436-.436,1.46,1.46,0,0,1-.145-.273,1.484,1.484,0,0,1-.09-.3,1.516,1.516,0,0,1,0-.616,1.531,1.531,0,0,1,.09-.3,1.556,1.556,0,0,1,.581-.707,1.6,1.6,0,0,1,.272-.145,1.529,1.529,0,0,1,.3-.09,1.555,1.555,0,0,1,.616,0,1.482,1.482,0,0,1,.3.09,1.556,1.556,0,0,1,.273.145,1.534,1.534,0,0,1,.436.436,1.6,1.6,0,0,1,.145.272,1.647,1.647,0,0,1,.09.3,1.516,1.516,0,0,1,0,.616,1.594,1.594,0,0,1-.09.3,1.56,1.56,0,0,1-.145.273,1.534,1.534,0,0,1-.436.436,1.558,1.558,0,0,1-.273.145,1.482,1.482,0,0,1-.3.09A1.557,1.557,0,0,1,154.329,387.014Z" transform="translate(-128.633 -323.232)"/><rect class="d" width="5.981" height="16.963" transform="translate(10.967 56.445)"/><rect class="e" width="9.388" height="19.906" transform="translate(1.579 56.445)"/><path d="M72.626,323.352l-.019-.047c-1.453-3.4-4.861-4.657-8.895-3.28l-11,3.042a7.211,7.211,0,0,0-4.465-4.4l-.042-.015-12.091-4.1a12.471,12.471,0,0,0-10.061-4.629c-4.125,0-7.774,2.83-9.861,5.914H1.579A1.579,1.579,0,0,0,0,317.415v19.906A1.579,1.579,0,0,0,1.579,338.9h9.387a1.579,1.579,0,0,0,1.579-1.579v-1.363h4.4a1.579,1.579,0,0,0,1.579-1.579v-.454c2.566.224,3.41.711,5.767,2.07a95.549,95.549,0,0,0,9.485,4.843l.069.029a14.172,14.172,0,0,0,5.08.958,12.585,12.585,0,0,0,5.231-1.12L68.472,332c.043-.015.086-.033.128-.052C70.923,330.877,74.385,327.864,72.626,323.352ZM9.387,335.741H3.158V318.993h6.23Zm5.981-2.942H12.545V318.993h2.823Zm51.969-3.749-24.3,8.7-.071.027-.064.027a10.233,10.233,0,0,1-7.863.134,91.458,91.458,0,0,1-9.167-4.682c-2.584-1.49-3.829-2.208-7.345-2.5V318.043c1.5-2.453,4.4-4.964,7.528-4.964a9.111,9.111,0,0,1,7.729,3.631,1.579,1.579,0,0,0,.838.668l12.548,4.259c2,.752,3.063,2.468,2.576,4.18a3.076,3.076,0,0,1-3.78,2.123L31.82,323.458a1.579,1.579,0,1,0-.954,3.01l14.17,4.49.045.014a6.2,6.2,0,0,0,4.739-.551,6.192,6.192,0,0,0,2.962-3.741q.054-.192.1-.384l11.855-3.284c1.712-.585,3.96-.8,4.96,1.509C70.729,327.228,68.037,328.716,67.338,329.05Z" transform="translate(0 -260.97)"/><path class="f" d="M71.334,24.046,57.311,10.023,39.729,27.6,69.773,57.648,86.364,41.057" transform="translate(-33.456 -8.421)"/><path class="g" d="M150.457,113.961h0l0-.009a7.421,7.421,0,1,0,7.927,7.59" transform="translate(-120.883 -95.941)"/><path class="b" d="M223.456,45.849V33.331c-7.13-.315-5.073-1.574-17.479-7.152a11.741,11.741,0,0,0-9.134.155l-.008,0-7.353,2.633,7.587,7.587" transform="translate(-159.566 -21.305)"/><g transform="translate(6.273 1.602)"><path class="h" d="M39.729,89.589l5.96-5.96a8.438,8.438,0,0,1,0,11.921Z" transform="translate(-39.729 -72.007)"/><path class="h" d="M192.264,260.766a8.438,8.438,0,0,1,11.921,0l-5.96,5.961Z" transform="translate(-168.181 -219.101)"/><path class="h" d="M113.333,15.983l5.96-5.96,5.96,5.96A8.438,8.438,0,0,1,113.333,15.983Z" transform="translate(-101.712 -10.023)"/><path class="h" d="M288.512,182.048a8.44,8.44,0,0,0,1.96,8.844l4.97-4.97" transform="translate(-248.808 -154.888)"/></g><g transform="translate(29.397 14.637)"><path class="c" d="M206.288,97.254l-14.17-4.49a4.655,4.655,0,0,0-5.751,3.2h0c-.7,2.473.731,5.048,3.565,6.1l12.576,4.268-.005,0a10.685,10.685,0,0,0,9.074,4.383c4.035,0,7.513-3.261,9.107-6.116V98.9" transform="translate(-186.19 -92.585)"/></g><path d="M340.829,126.655a1.555,1.555,0,0,1-.308-.032,1.594,1.594,0,0,1-.3-.09,1.559,1.559,0,0,1-.273-.145,1.534,1.534,0,0,1-.436-.436,1.557,1.557,0,0,1-.145-.273,1.482,1.482,0,0,1-.09-.3,1.516,1.516,0,0,1,0-.616,1.529,1.529,0,0,1,.09-.3,1.6,1.6,0,0,1,.145-.272,1.534,1.534,0,0,1,.436-.436,1.559,1.559,0,0,1,.273-.145,1.482,1.482,0,0,1,.3-.09,1.572,1.572,0,0,1,.913.09,1.6,1.6,0,0,1,.272.145,1.534,1.534,0,0,1,.436.436,1.5,1.5,0,0,1,.145.272,1.532,1.532,0,0,1,.092.3,1.593,1.593,0,0,1,0,.616,1.484,1.484,0,0,1-.092.3,1.458,1.458,0,0,1-.145.273,1.534,1.534,0,0,1-.436.436,1.6,1.6,0,0,1-.272.145,1.67,1.67,0,0,1-.3.09A1.583,1.583,0,0,1,340.829,126.655Z" transform="translate(-285.687 -103.98)"/><rect class="d" width="5.981" height="16.963" transform="translate(63.89 9.892)"/><rect class="e" width="9.388" height="19.906" transform="translate(69.871 6.949)"/><path d="M104.262,5.37H94.874A1.579,1.579,0,0,0,93.3,6.949V8.313h-4.4a1.579,1.579,0,0,0-1.579,1.579v.454c-2.566-.224-3.41-.711-5.767-2.07a95.535,95.535,0,0,0-9.485-4.843L71.992,3.4a13.432,13.432,0,0,0-10.31.162L55.329,5.841,49.974.486a1.579,1.579,0,0,0-2.233,0L30.159,18.067a1.566,1.566,0,0,0,0,2.233L60.2,50.344a1.706,1.706,0,0,0,2.233,0L78.487,34.293c.417.036.85.055,1.3.055,4.125,0,7.774-2.83,9.861-5.914h14.614a1.579,1.579,0,0,0,1.579-1.579V6.949A1.579,1.579,0,0,0,104.262,5.37Zm-51.4,14.643A6.99,6.99,0,0,0,57.593,25.6l.042.015,3.157,1.072a5.842,5.842,0,1,1-7.93-6.673Zm3.158-6.165a6.189,6.189,0,0,0-2.573,2.717,9,9,0,1,0,10.347,11.14l5.331,1.809a10.08,10.08,0,0,0,1.672,8l-3.606,3.606a10.033,10.033,0,0,0-11.745,0L39.382,25.057a10.034,10.034,0,0,0,0-11.746l3.6-3.6a10.034,10.034,0,0,0,11.746,0l3.415,3.415A6.231,6.231,0,0,0,56.02,13.848ZM73.072,35.241a6.906,6.906,0,0,1-1.009-3.283,12.276,12.276,0,0,0,2.784,1.508ZM48.857,3.835l3.6,3.6a6.883,6.883,0,0,1-7.2,0Zm-11.75,11.75a6.884,6.884,0,0,1,0,7.2l-3.6-3.6ZM61.319,46.994l-3.6-3.6a6.874,6.874,0,0,1,7.2,0Zm18.467-15.8a11.492,11.492,0,0,1-1.647-.116h-.006a9.043,9.043,0,0,1-5.848-3.2c-.032-.047-.169-.227-.19-.257a1.573,1.573,0,0,0-.87-.724L58.672,22.632c-2-.752-3.062-2.467-2.577-4.178v-.007a3.076,3.076,0,0,1,3.778-2.118L74.02,20.811a1.579,1.579,0,0,0,.954-3.01l-11.25-3.565-.1-.1,0,0L57.8,8.31,62.8,6.518l.054-.021.017-.007.064-.027A10.232,10.232,0,0,1,70.8,6.329a91.456,91.456,0,0,1,9.167,4.682c2.584,1.49,3.829,2.208,7.345,2.5V26.226C85.817,28.679,82.915,31.19,79.786,31.19ZM90.472,11.47H93.3V25.276H90.472Zm12.211,13.806h-6.23V8.528h6.23Z" transform="translate(-25.003)"/></g></g></svg>