<svg xmlns="http://www.w3.org/2000/svg" width="122" height="122" viewBox="0 0 122 122"><defs><style>.a{fill:#e2feff;}.b{fill:#c4e2ff;}.c{fill:#ffbfb1;}.d{fill:#b3dafe;}.e{fill:#ffcebf;}.f{fill:#c4573a;}.g{fill:#fd544d;}.h{fill:#a74b30;}.i{fill:#8ac9fe;}.j{fill:#fdb97e;}.k{fill:#537983;}.l{fill:#fe7701;}.m{fill:#ffb09e;}.n{fill:#fea95c;}.o{fill:#3e5959;}</style></defs><g transform="translate(-333 -631)"><rect class="a" width="122" height="122" rx="14" transform="translate(333 631)"/><g transform="translate(285.515 643.695)"><g transform="translate(75.095 11.353)"><path class="b" d="M127.408,452.9v-2.757a7.71,7.71,0,0,0-7.71-7.71H88.869a7.71,7.71,0,0,0-7.71,7.71V452.9Z" transform="translate(-81.159 -369.081)"/><path class="c" d="M164.627,364.88v11.58l7.117,4.745,7.117-4.745V364.88Z" transform="translate(-148.646 -306.374)"/><path class="d" d="M255.332,442.436h-6.421a7.71,7.71,0,0,1,7.71,7.71V452.9h6.421v-2.757A7.71,7.71,0,0,0,255.332,442.436Z" transform="translate(-216.794 -369.081)"/><path class="e" d="M121.8,216.516c-.08,0-.159,0-.237.006a17.179,17.179,0,0,0-33.881,0c-.079,0-.158-.006-.237-.006a5.833,5.833,0,0,0,0,11.666c.08,0,.159,0,.237-.006a17.179,17.179,0,0,0,33.881,0c.079,0,.158.006.237.006a5.833,5.833,0,1,0,0-11.666Z" transform="translate(-81.527 -174.838)"/><path class="c" d="M208.811,216.517c-.08,0-.159,0-.237.006a17.188,17.188,0,0,0-19.348-14.155,17.189,17.189,0,0,1,14.533,14.155c.079,0,.158-.006.237-.006a5.833,5.833,0,0,1,0,11.666c-.08,0-.159,0-.237-.006a17.189,17.189,0,0,1-14.533,14.155,17.188,17.188,0,0,0,19.348-14.155c.079,0,.158.006.237.006a5.833,5.833,0,1,0,0-11.666Z" transform="translate(-168.535 -174.839)"/><path class="f" d="M123.727,158.108a7.266,7.266,0,0,0-6.174-3.43H103.58a12.89,12.89,0,0,0-12.89,12.89V178.1h24.4a9.7,9.7,0,0,0,6.5-2.485,6.563,6.563,0,0,0,5.147,2.485h6.5V167.752A9.645,9.645,0,0,0,123.727,158.108Z" transform="translate(-88.865 -136.416)"/><path class="d" d="M139.219,425.363l-6.016,3.269,8.488,6.326,4.646-4.85Z" transform="translate(-123.239 -355.277)"/><path class="g" d="M186.4,450.146l-3.648,3.809,1.322,5.182h4.652l1.322-5.182Z" transform="translate(-163.297 -375.315)"/><g transform="translate(22.267 18.262)"><path class="h" d="M210.057,158.108a7.266,7.266,0,0,0-6.174-3.43h-6.421a7.267,7.267,0,0,1,6.174,3.43,9.645,9.645,0,0,1,9.509,9.643V178.1h6.421V167.752a9.645,9.645,0,0,0-9.509-9.643Z" transform="translate(-197.462 -154.678)"/></g><path class="d" d="M208.918,425.363l6.016,3.269-8.488,6.326-4.646-4.85Z" transform="translate(-178.703 -355.277)"/><path class="i" d="M220.067,425.363,217.9,426.8l3.363,1.827-5.678,4.232,2.006,2.094,8.488-6.326Z" transform="translate(-189.851 -355.277)"/><path class="j" d="M257.824,84.6h10.337a14.116,14.116,0,0,1,3.265-5.348,11.763,11.763,0,1,0-16.865,0,14.11,14.11,0,0,1,3.263,5.347Z" transform="translate(-218.669 -59.296)"/><path class="k" d="M285.673,191.483H296.01v4.233a5.168,5.168,0,1,1-10.337,0v-4.233Z" transform="translate(-246.517 -166.175)"/><path class="l" d="M290.853,97.023l1.195,2.421a.567.567,0,0,0,.426.31l2.672.388a.566.566,0,0,1,.314.966l-1.933,1.884a.566.566,0,0,0-.163.5l.456,2.661a.566.566,0,0,1-.822.6l-2.39-1.256a.566.566,0,0,0-.527,0l-2.39,1.256a.566.566,0,0,1-.822-.6l.456-2.661a.566.566,0,0,0-.163-.5l-1.933-1.884a.566.566,0,0,1,.314-.966l2.672-.388a.566.566,0,0,0,.426-.31l1.195-2.421A.566.566,0,0,1,290.853,97.023Z" transform="translate(-246.021 -89.545)"/><g transform="translate(31.827 52.899)"><path class="m" d="M250.9,338.38h-2.115a1.395,1.395,0,0,1,0-2.789H250.9a1.395,1.395,0,0,1,0,2.789Z" transform="translate(-247.394 -335.591)"/></g><g transform="translate(9.464 52.899)"><path class="m" d="M134.1,338.38h-2.115a1.395,1.395,0,0,1,0-2.789H134.1a1.395,1.395,0,0,1,0,2.789Z" transform="translate(-130.591 -335.591)"/></g><path class="n" d="M315.264,70.547A11.757,11.757,0,0,0,301.344,59.5a11.76,11.76,0,0,1,6.26,19.757,14.118,14.118,0,0,0-3.265,5.348h4.342a14.116,14.116,0,0,1,3.265-5.348A11.721,11.721,0,0,0,315.264,70.547Z" transform="translate(-259.188 -59.296)"/><path class="o" d="M304.327,191.483v4.233a5.168,5.168,0,0,1-3,4.69,5.168,5.168,0,0,0,7.339-4.69v-4.233Z" transform="translate(-259.176 -166.175)"/></g><g transform="translate(73.659)"><path d="M129.837,56.914a1.436,1.436,0,0,0-2.266,1.764,10.29,10.29,0,0,1-.748,13.512,15.671,15.671,0,0,0-3.23,4.914h-8.348a15.854,15.854,0,0,0-3.229-4.913A10.322,10.322,0,0,1,122.87,55.264a1.436,1.436,0,1,0,.969-2.7,13.051,13.051,0,0,0-4.42-.765,13.2,13.2,0,0,0-11.778,19.157,8.7,8.7,0,0,0-3.858-.9H89.81A14.342,14.342,0,0,0,75.484,84.383V94.915a1.429,1.429,0,0,0,.255.816,7.277,7.277,0,0,0,4.325,12.218,18.6,18.6,0,0,0,9.575,12.3v2.219l-4.945,2.687H82.805a9.157,9.157,0,0,0-9.146,9.146v2.756a1.436,1.436,0,0,0,1.436,1.436h6.079a1.436,1.436,0,0,0,0-2.872H76.531V134.3a6.282,6.282,0,0,1,6.274-6.274h1.778l8.106,6.042h0a1.447,1.447,0,0,0,.987.277h.015l.326,1.276H87.875a1.436,1.436,0,1,0,0,2.872h33.469a1.436,1.436,0,0,0,1.436-1.436V134.3a9.157,9.157,0,0,0-9.146-9.146h-1.942l-4.945-2.687v-2.219a18.6,18.6,0,0,0,9.575-12.3,7.277,7.277,0,0,0,4.325-12.218,1.429,1.429,0,0,0,.255-.816V89.207a6.614,6.614,0,0,0,5.122-6.435V78.793a12.764,12.764,0,0,1,2.858-4.6,13.162,13.162,0,0,0,.956-17.279ZM78.356,84.383A11.467,11.467,0,0,1,89.81,72.929h13.973a5.809,5.809,0,0,1,4.956,2.754,1.435,1.435,0,0,0,1.2.676,8.207,8.207,0,0,1,1.85.238l.042.073a12.7,12.7,0,0,1,.986,2.124v3.979a6.618,6.618,0,0,0,5.215,6.457v4.249h-5.068a5.118,5.118,0,0,1-4.024-1.943,1.438,1.438,0,0,0-2.082-.175,8.284,8.284,0,0,1-5.537,2.118H78.355v-9.1Zm21.9,47.906-.849,3.328H96.983l-.85-3.328,2.06-2.15Zm-12.535-5.512L91,124.993l4.971,3.314L93.388,131ZM103,131l-2.583-2.7,4.971-3.314,3.283,1.783Zm16.91,3.293v1.32h-17.54l.326-1.276a1.448,1.448,0,0,0,1-.277l8.106-6.042h1.83A6.282,6.282,0,0,1,119.907,134.3Zm-16.033-12.854v1.106l-5.682,3.788-5.681-3.788v-1.106a18.669,18.669,0,0,0,11.363,0Zm11.317-16.309a1.434,1.434,0,0,0-1.474,1.2,15.743,15.743,0,0,1-31.048,0,1.436,1.436,0,0,0-1.474-1.2,4.4,4.4,0,0,1-.386-8.783h20.51a11.151,11.151,0,0,0,6.36-1.988,7.965,7.965,0,0,0,5.283,1.988h2.616a4.4,4.4,0,0,1-.386,8.783Zm7.961-22.362a3.732,3.732,0,0,1-7.465,0v-2.8h7.465Z" transform="translate(-73.659 -41.878)"/><path d="M306.6,7.168a1.436,1.436,0,0,0,1.436-1.436v-4.3a1.436,1.436,0,0,0-2.872,0v4.3A1.436,1.436,0,0,0,306.6,7.168Z" transform="translate(-260.845)"/><path d="M240.1,27a1.436,1.436,0,0,0,2.031-2.031l-3.038-3.038a1.436,1.436,0,0,0-2.031,2.031Z" transform="translate(-205.438 -17.394)"/><path d="M361.287,21.932l-3.038,3.038A1.436,1.436,0,0,0,360.28,27l3.038-3.038a1.436,1.436,0,0,0-2.031-2.031Z" transform="translate(-303.422 -17.393)"/><path d="M399.241,81.741h-4.3a1.436,1.436,0,0,0,0,2.872h4.3a1.436,1.436,0,0,0,0-2.872Z" transform="translate(-332.271 -66.091)"/><path d="M195.826,84.613h4.3a1.436,1.436,0,0,0,0-2.872h-4.3a1.436,1.436,0,1,0,0,2.872Z" transform="translate(-171.275 -66.091)"/><path d="M151.943,298.2a1.436,1.436,0,0,0-1.436,1.436V302.8a1.436,1.436,0,1,0,2.872,0v-3.163A1.436,1.436,0,0,0,151.943,298.2Z" transform="translate(-135.794 -241.108)"/><path d="M239.531,298.2a1.436,1.436,0,0,0-1.436,1.436V302.8a1.436,1.436,0,1,0,2.872,0v-3.163A1.436,1.436,0,0,0,239.531,298.2Z" transform="translate(-206.612 -241.108)"/><path d="M183.978,342.769a1.436,1.436,0,0,0-1.436,1.436,2.212,2.212,0,0,1-4.425,0,1.436,1.436,0,1,0-2.872,0,5.084,5.084,0,0,0,10.168,0A1.436,1.436,0,0,0,183.978,342.769Z" transform="translate(-155.796 -277.143)"/><path d="M287.064,92.338l-.992-2.011a2,2,0,0,0-3.591,0l-.993,2.011-2.219.323a2,2,0,0,0-1.109,3.415l1.606,1.565-.379,2.21a2,2,0,0,0,2.905,2.11l1.985-1.044,1.985,1.043a2,2,0,0,0,2.905-2.111l-.379-2.21,1.606-1.565a2,2,0,0,0-1.11-3.415Zm-.609,3.566a2,2,0,0,0-.576,1.772l.158.924-.829-.436a2,2,0,0,0-1.864,0l-.83.436.158-.923A2,2,0,0,0,282.1,95.9l-.671-.654.927-.135a2,2,0,0,0,1.508-1.1l.415-.841.415.84a2,2,0,0,0,1.508,1.1l.928.135Z" transform="translate(-238.516 -72.131)"/></g></g></g></svg>