<svg xmlns="http://www.w3.org/2000/svg" width="122" height="122" viewBox="0 0 122 122"><defs><style>.a{fill:#b7baf4;}.b{fill:#fec9a5;}</style></defs><g transform="translate(-875 -1136)"><rect class="a" width="122" height="122" rx="14" transform="translate(875 1136)"/><g transform="translate(908.813 1153.5)"><path class="b" d="M30.391,21.895V15.1a5.1,5.1,0,0,1,10.2,0v10.2a5.1,5.1,0,0,1,10.2,0V48.4a6.8,6.8,0,0,1,7.13-6.788A3.34,3.34,0,0,1,60.977,45V68.113a25.488,25.488,0,0,1-50.977,0V32.09a5.1,5.1,0,0,1,10.2,0v-10.2a5.1,5.1,0,0,1,10.2,0Zm0,0" transform="translate(-8.301 -8.301)"/><path d="M140,393.7a1.7,1.7,0,1,0,1.7-1.7A1.7,1.7,0,0,0,140,393.7Zm0,0" transform="translate(-116.211 -325.391)"/><path d="M27.188,0a6.8,6.8,0,0,0-6.8,6.8v.915a6.791,6.791,0,0,0-10.2,5.882v4.313A6.791,6.791,0,0,0,0,23.789V59.813a27.188,27.188,0,0,0,54.375,0V36.7a5.006,5.006,0,0,0-4.683-5.087,8.407,8.407,0,0,0-5.512,1.69V16.992a6.791,6.791,0,0,0-10.2-5.882V6.8A6.8,6.8,0,0,0,27.188,0Zm10.2,13.594a3.4,3.4,0,0,1,3.4,3.4V53.016a16.91,16.91,0,0,0-14.421,8,1.7,1.7,0,0,0,2.882,1.8,13.532,13.532,0,0,1,11.539-6.4A14.007,14.007,0,0,1,42.3,56.5a1.7,1.7,0,0,0,1.884-1.689V40.1a5.094,5.094,0,0,1,5.35-5.091A1.657,1.657,0,0,1,50.977,36.7V59.813a23.789,23.789,0,0,1-47.578,0V23.789a3.4,3.4,0,0,1,6.8,0V43.5a1.7,1.7,0,0,0,3.4,0V13.594a3.4,3.4,0,0,1,6.8,0V43.5a1.7,1.7,0,0,0,3.4,0V6.8a3.4,3.4,0,0,1,6.8,0V43.5a1.7,1.7,0,0,0,3.4,0V16.992A3.4,3.4,0,0,1,37.383,13.594Zm0,0"/></g></g></svg>