<svg xmlns="http://www.w3.org/2000/svg" width="122" height="122" viewBox="0 0 122 122"><defs><style>.a{fill:#b7baf4;}.b{fill:#ffddce;}.c{fill:#ffcbbe;}.d{fill:#80b4fb;}.e{fill:#61a2f9;}</style></defs><g transform="translate(-875 -800)"><rect class="a" width="122" height="122" rx="14" transform="translate(875 800)"/><g transform="translate(891.345 816.768)"><path class="b" d="M136.2,332.836l2.283.659a58.784,58.784,0,0,0,53.655-11.1,3.5,3.5,0,0,0,.156-5.27l-.071-.066a4.8,4.8,0,0,0-5.762-.594l-7.507,4.566a29.933,29.933,0,0,1-25.275,2.738,4.5,4.5,0,0,1-1.125-7.93l7.807-5.486a3.316,3.316,0,0,0-2.617-5.953L136.2,309.132l-3.554,3.838v16.288Z" transform="translate(-110.97 -254.595)"/><path class="c" d="M251.354,309.583l-7.807,5.486a4.5,4.5,0,0,0-1.108,6.254,4.5,4.5,0,0,1,1.3-1.392l7.807-5.486a3.31,3.31,0,0,0,.248-5.231A3.331,3.331,0,0,1,251.354,309.583Z" transform="translate(-202.148 -258.682)"/><path class="c" d="M192.332,382.89a3.524,3.524,0,0,1-.38.37,58.783,58.783,0,0,1-53.655,11.1l-2.283-.659-3.367-3.39v4.674l3.554,3.578,2.283.659a58.784,58.784,0,0,0,53.655-11.1A3.5,3.5,0,0,0,192.332,382.89Z" transform="translate(-110.97 -320.318)"/><path class="d" d="M8.781,342.539H29.554a1.953,1.953,0,0,0,1.953-1.953V312.854a1.953,1.953,0,0,0-1.953-1.953H8.781a1.28,1.28,0,0,0-1.28,1.28v29.078A1.28,1.28,0,0,0,8.781,342.539Z" transform="translate(-6.275 -260.094)"/><path class="e" d="M31.506,340.586V312.854a1.953,1.953,0,0,0-1.953-1.953H27.37v24.977a1.953,1.953,0,0,1-1.953,1.953H7.5v3.429a1.28,1.28,0,0,0,1.28,1.28H29.554A1.952,1.952,0,0,0,31.506,340.586Z" transform="translate(-6.275 -260.094)"/><path class="d" d="M228.137,115.964l18.854-18.127a2.438,2.438,0,0,0,.259-3.223l-6.412-8.523a2.438,2.438,0,0,0-1.948-.973H214.005a2.438,2.438,0,0,0-1.948.973l-6.412,8.523a2.438,2.438,0,0,0,.259,3.223l18.854,18.127A2.438,2.438,0,0,0,228.137,115.964Z" transform="translate(-171.629 -71.208)"/><path class="e" d="M338.83,94.613l-6.412-8.523a2.438,2.438,0,0,0-1.948-.973h-6.805a2.438,2.438,0,0,1,1.948.973l6.412,8.523a2.438,2.438,0,0,1-.259,3.223l-17.141,16.48,1.713,1.647a2.438,2.438,0,0,0,3.38,0l18.854-18.127a2.439,2.439,0,0,0,.259-3.224Z" transform="translate(-263.209 -71.207)"/><g transform="translate(0)"><path d="M329.172,7.262A1.225,1.225,0,0,0,330.4,6.036V1.226a1.226,1.226,0,1,0-2.451,0v4.81A1.226,1.226,0,0,0,329.172,7.262Z" transform="translate(-274.353)"/><path d="M247.543,24.785a1.226,1.226,0,1,0,1.853-1.6l-3.122-3.606a1.226,1.226,0,1,0-1.853,1.6Z" transform="translate(-204.228 -16.022)"/><path d="M393.091,24.909a1.226,1.226,0,0,0,1.729-.124l3.122-3.606a1.226,1.226,0,1,0-1.853-1.6l-3.122,3.606A1.225,1.225,0,0,0,393.091,24.909Z" transform="translate(-328.498 -16.022)"/><path d="M217.64,110.573a3.654,3.654,0,0,0,5.079,0l18.854-18.127a3.667,3.667,0,0,0,.389-4.844l-2.531-3.364a1.226,1.226,0,0,0-1.959,1.474l2.173,2.889h-9.729l-2.584-8.532h5.29a1.219,1.219,0,0,1,.969.484l.935,1.243a1.226,1.226,0,1,0,1.959-1.474l-.935-1.243a3.682,3.682,0,0,0-2.928-1.461H207.738a3.682,3.682,0,0,0-2.928,1.461L198.4,87.6a3.667,3.667,0,0,0,.388,4.844Zm-7.264-19.521,7.019,15.885L200.873,91.052Zm29.11,0-16.521,15.884,7.019-15.884h9.5ZM220.18,107.174l-7.124-16.122H227.3Zm4.591-27.1,2.584,8.531H213l2.584-8.531Zm-18,.484a1.219,1.219,0,0,1,.969-.484h5.29L210.443,88.6h-9.729Z" transform="translate(-165.361 -64.934)"/><path d="M74.856,309.136,67.349,313.7a28.628,28.628,0,0,1-24.24,2.626,3.269,3.269,0,0,1-.818-5.768l7.807-5.486a4.542,4.542,0,0,0-3.585-8.153l-20.057,4.4v-.253a3.182,3.182,0,0,0-3.178-3.178H13.228a1.226,1.226,0,1,0,0,2.451h10.05a.728.728,0,0,1,.727.727V328.8a.728.728,0,0,1-.727.727H2.506a.054.054,0,0,1-.054-.054V300.4a.054.054,0,0,1,.054-.054H8.328a1.226,1.226,0,1,0,0-2.451H2.506A2.508,2.508,0,0,0,0,300.4v29.079a2.508,2.508,0,0,0,2.506,2.505H23.278a3.182,3.182,0,0,0,3.178-3.178v-.623l.718.207a59.622,59.622,0,0,0,16.571,2.348,60.643,60.643,0,0,0,6.32-.331,59.706,59.706,0,0,0,22.153-6.815,1.226,1.226,0,0,0-1.16-2.159,57.663,57.663,0,0,1-43.2,4.6l-1.4-.4v-21.8l20.582-4.515a2.091,2.091,0,0,1,1.65,3.752l-7.807,5.486a5.721,5.721,0,0,0,1.432,10.092,31.071,31.071,0,0,0,26.309-2.85l7.507-4.566c2.152-1.31,5.152.117,5.089,2.246a2.276,2.276,0,0,1-.828,1.69,57.907,57.907,0,0,1-5.1,3.746,1.226,1.226,0,0,0,1.342,2.052,60.363,60.363,0,0,0,5.312-3.905,4.726,4.726,0,0,0,1.72-3.51c.125-4.223-5.136-6.651-8.813-4.413Z" transform="translate(0 -248.309)"/><path d="M96.275,425.39v-2.658a1.226,1.226,0,1,0-2.451,0v2.658a1.226,1.226,0,1,0,2.451,0Z" transform="translate(-78.491 -352.624)"/></g></g></g></svg>