<svg xmlns="http://www.w3.org/2000/svg" width="260.495" height="246.244" viewBox="0 0 260.495 246.244"><defs><style>.a{fill:#fff;opacity:0.949;}.b{fill:#ffb74d;}.c{fill:#f0b77d;}.d{fill:#87f9ff;}.e{fill:#816892;}.f{fill:#e9cd4b;}</style></defs><g transform="translate(-213 -429)"><g transform="translate(0.5 3.416)"><g transform="translate(212.5 425.584)"><rect class="a" width="260.495" height="246.244"/></g></g><g transform="translate(249.946 459)"><path class="b" d="M14.493,8H81.6a6.439,6.439,0,0,1,6.439,6.439v48.65A6.439,6.439,0,0,1,81.6,69.528H14.493a6.439,6.439,0,0,1-6.439-6.439V14.439A6.439,6.439,0,0,1,14.493,8Z" transform="translate(-4.924 -4.924)"/><path class="c" d="M161.283,56h15.382V80.611H161.283a9.229,9.229,0,0,1-9.229-9.229V65.229A9.229,9.229,0,0,1,161.283,56Z" transform="translate(-93.549 -34.465)"/><path class="d" d="M200.054,280l12.841,36.917h47.567L273.887,280Z" transform="translate(-123.09 -172.326)"/><circle class="e" cx="6.5" cy="6.5" r="6.5" transform="translate(95.054 169)"/><circle class="f" cx="12" cy="12" r="12" transform="translate(105.054 71)"/><circle class="e" cx="6.5" cy="6.5" r="6.5" transform="translate(129.054 169)"/><path d="M76.679,0H9.569A9.526,9.526,0,0,0,.054,9.515V58.166a9.526,9.526,0,0,0,9.515,9.515h67.11a9.526,9.526,0,0,0,9.515-9.515V9.515A9.526,9.526,0,0,0,76.679,0Zm0,61.528H9.569a3.365,3.365,0,0,1-3.362-3.362V9.515A3.365,3.365,0,0,1,9.569,6.153h67.11A3.365,3.365,0,0,1,80.04,9.515v8.944H67.735A12.319,12.319,0,0,0,55.429,30.764v6.153A12.319,12.319,0,0,0,67.735,49.222H80.04v8.944A3.365,3.365,0,0,1,76.679,61.528ZM80.04,43.07H67.735a6.16,6.16,0,0,1-6.153-6.153V30.764a6.16,6.16,0,0,1,6.153-6.153H80.04Z" transform="translate(0)"/><path d="M176.054,80h6.153v6.153h-6.153Z" transform="translate(-108.319 -49.236)"/><path d="M32.054,32h6.153v6.153H32.054Z" transform="translate(-19.694 -19.694)"/><path d="M32.054,64h6.153v6.153H32.054Z" transform="translate(-19.694 -39.389)"/><path d="M32.054,96h6.153v6.153H32.054Z" transform="translate(-19.694 -59.083)"/><g transform="translate(12.36 12.306)"><path d="M32.054,32h6.153v6.153H32.054Z" transform="translate(-32.054 -32)"/></g><path d="M32.054,128h6.153v6.153H32.054Z" transform="translate(-19.694 -78.778)"/><path d="M255.539,315.07H207.971A3.075,3.075,0,0,1,205.065,313l-12.84-36.917A3.076,3.076,0,0,1,195.13,272h73.833a3.079,3.079,0,0,1,2.892,4.128l-13.425,36.917A3.078,3.078,0,0,1,255.539,315.07Zm-45.381-6.153h43.227l11.187-30.764H199.458Z" transform="translate(-118.166 -167.403)"/><path d="M248.054,304h36.917v6.153H248.054Z" transform="translate(-152.632 -187.097)"/><path d="M256.054,336h30.764v6.153H256.054Z" transform="translate(-157.555 -206.791)"/><path d="M279.436,206.764a15.382,15.382,0,1,1,15.382-15.382A15.382,15.382,0,0,1,279.436,206.764Zm0-24.611a9.229,9.229,0,1,0,9.229,9.229h0A9.239,9.239,0,0,0,279.436,182.153Z" transform="translate(-162.479 -108.319)"/><path d="M302.193,248a3.076,3.076,0,0,0-2.887,2.013l-20.793,56.439H216.054V312.6h15.382v6.72a9.229,9.229,0,1,0,6.153,0V312.6h27.688v6.72a9.229,9.229,0,1,0,6.153,0V312.6h9.229a3.076,3.076,0,0,0,2.887-2.013l20.793-56.439h13.237V248Zm-67.681,83.063a3.076,3.076,0,1,1,3.076-3.076A3.077,3.077,0,0,1,234.512,331.063Zm33.84,0a3.076,3.076,0,1,1,3.076-3.076A3.077,3.077,0,0,1,268.353,331.063Z" transform="translate(-132.937 -152.632)"/><path d="M276.069,100.633l-4.35-4.35-3.978,3.978V83.076A3.076,3.076,0,0,0,264.667,80H240.054v6.153h21.535v14.108l-3.978-3.978-4.35,4.35,9.229,9.229a3.075,3.075,0,0,0,3.353.667,3.017,3.017,0,0,0,.978-.687l.02.02Z" transform="translate(-147.708 -49.236)"/><path d="M16.879,253.528V202.5l3.978,3.978,4.35-4.35L15.977,192.9a3.075,3.075,0,0,0-4.349,0h0L2.4,202.131l4.35,4.35,3.978-3.978v54.1a3.076,3.076,0,0,0,3.075,3.076H69.177v-6.153Z" transform="translate(-1.443 -118.167)"/></g></g></svg>