<svg xmlns="http://www.w3.org/2000/svg" width="314.209" height="170.083" viewBox="0 0 314.209 170.083"><defs><style>.a{fill:#8c6df2;}.b{fill:#252ca1;}.c{fill:#87f9ff;}.d{fill:#ffb74d;}.e{fill:#ce02fe;}.f,.g,.k{fill:#1a1a1a;}.f{opacity:0.2;}.f,.k{mix-blend-mode:multiply;isolation:isolate;}.h{fill:none;}.i{fill:#12263f;}.j{fill:#fff;}</style></defs><g transform="translate(-800 -2028)"><path class="a" d="M918.738,492.449H761.128a156.637,156.637,0,0,1,12.8-62.212c.232-.534.465-1.068.7-1.6q1.058-2.376,2.188-4.711.391-.8.784-1.589a157.015,157.015,0,0,1,13.7-22.481l26.359,19.149,1.879,1.368L823.7,423.4l1.829,1.331Z" transform="translate(38.872 1692.656)"/><path class="b" d="M969.3,396.9,841.863,304.311a157.42,157.42,0,0,1,78.83-57.013Z" transform="translate(-11.692 1788.203)"/><path class="c" d="M1149.926,235.025l-48.513,149.3-48.609-149.6a157.965,157.965,0,0,1,97.121.3Z" transform="translate(-143.803 1800.774)"/><path class="d" d="M1309.654,305.294,1182.877,397.4l48.513-149.3A157.416,157.416,0,0,1,1309.654,305.294Z" transform="translate(-225.267 1787.703)"/><path class="e" d="M1339.476,493.258h-156.6l126.777-92.107A156.378,156.378,0,0,1,1339.476,493.258Z" transform="translate(-225.267 1691.846)"/><path class="f" d="M945.292,551.871l-18.411,9.179,16.059,12.859.77-7.209,60.364,6.444.814-7.62-60.364-6.444Z" transform="translate(2107.785 2332.008) rotate(158)"/><path class="g" d="M940.419,563.183l-.8,8.2,64.183,7.478-.848,8.666-64.183-7.478-.8,8.2-17.1-14.667Z" transform="matrix(-0.966, 0.259, -0.259, -0.966, 2083.178, 2482.273)"/><path class="h" d="M1174.324,441.756" transform="translate(-219.91 1666.416)"/><path class="i" d="M1139.466,280.511l.274-16.846h3.15l2.439,11.837,2.509-11.837h3.079l.284,16.846h-2.317l-.2-11.6-2.428,11.6h-1.8L1142,268.867l-.183,11.644Z" transform="translate(-198.079 1777.953)"/><path class="i" d="M1177.529,280.511V263.665h7.051v2.164H1180.6v4.836h3.15v2.164h-3.15v5.558h4.034v2.123Z" transform="translate(-221.917 1777.953)"/><path class="i" d="M1201.263,280.511V263.665h3.922a9.088,9.088,0,0,1,2.55.3,3.613,3.613,0,0,1,1.646.965,3.758,3.758,0,0,1,.879,1.62,9.215,9.215,0,0,1,.259,2.363v6.075a9.776,9.776,0,0,1-.264,2.449,4.206,4.206,0,0,1-.868,1.707,3.524,3.524,0,0,1-1.611,1.031,7.991,7.991,0,0,1-2.469.33Zm3.068-2.154h.874a3.513,3.513,0,0,0,.8-.081,2.847,2.847,0,0,0,.579-.193.936.936,0,0,0,.391-.365,2.817,2.817,0,0,0,.239-.467,2.639,2.639,0,0,0,.122-.645q.04-.432.051-.737t.01-.9v-6.157q0-.6-.02-.966a5.04,5.04,0,0,0-.1-.737,1.493,1.493,0,0,0-.224-.574,1.579,1.579,0,0,0-.391-.371,1.552,1.552,0,0,0-.61-.234,5.051,5.051,0,0,0-.884-.066h-.843Z" transform="translate(-236.782 1777.953)"/><path class="j" d="M825.1,583.6V566.752h3.068v14.723H832.2V583.6Z" transform="translate(-1.194 1588.131)"/><path class="j" d="M852.089,583.478a4.5,4.5,0,0,1-3.729-1.412,6.511,6.511,0,0,1-1.128-4.135v-6.218a9.4,9.4,0,0,1,.254-2.327,4.6,4.6,0,0,1,.818-1.707,3.412,3.412,0,0,1,1.509-1.082,6.386,6.386,0,0,1,2.276-.361,4.535,4.535,0,0,1,3.724,1.392,6.347,6.347,0,0,1,1.133,4.084v6.218a9.333,9.333,0,0,1-.259,2.321,4.8,4.8,0,0,1-.823,1.737,3.464,3.464,0,0,1-1.509,1.113A6.132,6.132,0,0,1,852.089,583.478Zm-.767-2.408a2.012,2.012,0,0,0,.767.132,1.972,1.972,0,0,0,.762-.132,1.357,1.357,0,0,0,.5-.346,1.5,1.5,0,0,0,.294-.559,3.57,3.57,0,0,0,.142-.691q.035-.345.035-.823V571a7.015,7.015,0,0,0-.061-1.016,2.6,2.6,0,0,0-.239-.767,1.158,1.158,0,0,0-.533-.538,2.02,2.02,0,0,0-.9-.178,2.053,2.053,0,0,0-.909.178,1.129,1.129,0,0,0-.534.538,2.7,2.7,0,0,0-.234.767,7.024,7.024,0,0,0-.061,1.016v7.651a8.221,8.221,0,0,0,.036.823,3.547,3.547,0,0,0,.142.691,1.548,1.548,0,0,0,.289.559A1.3,1.3,0,0,0,851.321,581.07Z" transform="translate(-15.054 1588.454)"/><path class="j" d="M880.091,583.6l-2.408-16.846h2.58l1.382,10.861,1.8-10.861h2.062l1.839,10.872,1.382-10.872h2.53L888.849,583.6H886.4l-1.9-11.247L882.61,583.6Z" transform="translate(-34.125 1588.131)"/><path class="j" d="M1433.41,583.571V566.725h3.068v7.041h3.424v-7.041h3.069v16.846H1439.9v-7.62h-3.424v7.62Z" transform="translate(-382.174 1588.148)"/><path class="j" d="M1466.061,583.571V566.725h3.028v16.846Z" transform="translate(-402.623 1588.148)"/><path class="j" d="M1484.853,583.471a3.912,3.912,0,0,1-3.44-1.493,7.525,7.525,0,0,1-1.052-4.349v-5.486a11.919,11.919,0,0,1,.229-2.5,5.209,5.209,0,0,1,.767-1.844,3.28,3.28,0,0,1,1.483-1.189,6,6,0,0,1,2.317-.4,4.587,4.587,0,0,1,3.587,1.224,5.456,5.456,0,0,1,1.087,3.713v.823H1486.9V571.1q0-.558-.025-.914a3.862,3.862,0,0,0-.122-.716,1.268,1.268,0,0,0-.279-.554,1.337,1.337,0,0,0-.5-.315,2.144,2.144,0,0,0-.772-.122,2.011,2.011,0,0,0-.614.086,1.7,1.7,0,0,0-.452.214,1.017,1.017,0,0,0-.31.361,2.439,2.439,0,0,0-.193.452,3.1,3.1,0,0,0-.1.564q-.036.345-.046.609t-.01.681v6.8a4.97,4.97,0,0,0,.376,2.23,1.471,1.471,0,0,0,1.432.706,1.858,1.858,0,0,0,.92-.208,1.419,1.419,0,0,0,.579-.63,3.369,3.369,0,0,0,.295-.965,8.556,8.556,0,0,0,.086-1.316v-1.382h-1.818v-1.981h4.582v8.555h-1.991l-.223-1.707A2.826,2.826,0,0,1,1484.853,583.471Z" transform="translate(-411.58 1588.472)"/><path class="j" d="M1512.227,583.571V566.725h3.068v7.041h3.424v-7.041h3.068v16.846h-3.068v-7.62H1515.3v7.62Z" transform="translate(-431.537 1588.148)"/><path class="k" d="M1171.7,615.755h-32.888a16.443,16.443,0,0,1,10.878-15.475v-2.664a18.826,18.826,0,0,1,5.566-.835,19.025,19.025,0,0,1,4.554.552v2.618A16.448,16.448,0,0,1,1171.7,615.755Z" transform="translate(-197.666 1569.324)"/><path class="g" d="M1171.7,619.995h-32.888a16.444,16.444,0,1,1,32.888,0Z" transform="translate(-197.666 1565.084)"/></g></svg>