<svg xmlns="http://www.w3.org/2000/svg" width="260.495" height="246.244" viewBox="0 0 260.495 246.244"><defs><style>.a{fill:#fff;opacity:0.949;}.b{fill:#dff6fd;}.c{fill:#c8effe;}.d{fill:#defdff;}.e{fill:#87f9ff;}.f{fill:none;stroke:#000;stroke-linecap:round;stroke-linejoin:round;stroke-miterlimit:10;stroke-width:15px;}.g{fill:#ffb74d;}</style></defs><g transform="translate(-213 -429)"><g transform="translate(0.5 3.416)"><g transform="translate(212.5 425.584)"><rect class="a" width="260.495" height="246.244"/></g></g><g transform="translate(254.56 468)"><path class="b" d="M132.23,10.609v159.44H17.051a3.112,3.112,0,0,1-3.11-3.113V43.869H47.518a3.256,3.256,0,0,0,3.26-3.256V7.5h78.34a3.113,3.113,0,0,1,3.113,3.113Z" transform="translate(-5.056 -5.053)"/><path class="c" d="M303.868,68.387h-2.237a1.062,1.062,0,0,1-.939-.561,11.914,11.914,0,0,0-10.516-6.332h-9.691A11.906,11.906,0,0,0,268.58,73.4v37.556a11.906,11.906,0,0,0,11.906,11.906s4.319-.007,7.445-.017a3.146,3.146,0,0,1,3.156,3.146v16.891a18.969,18.969,0,0,0,1.752,8l2.312,5.029v43.5a15.106,15.106,0,0,0,1.721,7.031h6.995V68.387Z" transform="translate(-176.694 -41.45)"/><path class="d" d="M384.819,158.106V208a10.964,10.964,0,0,1-1.007,4.6l-3.057,6.649v45.288a7.029,7.029,0,0,1-14.058,0V219.248l-3.057-6.649a10.964,10.964,0,0,1-1.007-4.6v-49.9Z" transform="translate(-240.089 -106.571)"/><g transform="translate(8.885 2.443)"><path class="e" d="M372.18,158.105h-9.55V208a10.964,10.964,0,0,0,1.007,4.6l3.057,6.649v45.288a7.028,7.028,0,0,0,12.441,4.486,6.987,6.987,0,0,1-1.347-4.125V219.609l-3.057-6.65a10.964,10.964,0,0,1-1.007-4.6V188.705a7.617,7.617,0,0,1,7.617-7.617h3.477V158.105H372.18Z" transform="translate(-248.974 -109.013)"/><path class="d" d="M310.54,107.641h56.366v31.284H310.54Z" transform="translate(-213.862 -74.998)"/><g transform="translate(113.657 80.856)"><path class="d" d="M384.819,255.556v12.507H362.631V255.556h22.188Z" transform="translate(-362.631 -255.556)"/></g><path class="e" d="M373.724,268.063V255.556H362.63v12.507h11.094Z" transform="translate(-248.974 -174.7)"/><g transform="translate(0)"><path class="b" d="M50.777,7.5V40.613a3.256,3.256,0,0,1-3.26,3.256H13.941a3.106,3.106,0,0,1,.913-2.2L48.114,8.409a3.114,3.114,0,0,1,2.2-.913h.463Z" transform="translate(-13.941 -7.496)"/></g><path class="f" d="M74.716,185.544H78.6" transform="translate(-54.906 -127.509)"/></g><path class="e" d="M330.366,118.152V107.641H310.54v31.284h56.366V127.534H339.747A9.381,9.381,0,0,1,330.366,118.152Z" transform="translate(-204.977 -72.555)"/><path class="e" d="M307.028,131.564h-9.691a3.757,3.757,0,0,1-3.757-3.757V90.25a3.757,3.757,0,0,1,3.757-3.757h9.691a3.757,3.757,0,0,1,3.757,3.757v37.556A3.757,3.757,0,0,1,307.028,131.564Z" transform="translate(-193.546 -58.3)"/><path class="e" d="M450.726,131.564h9.691a3.757,3.757,0,0,0,3.757-3.757V90.25a3.757,3.757,0,0,0-3.757-3.757h-9.691a3.757,3.757,0,0,0-3.757,3.757v37.556A3.757,3.757,0,0,0,450.726,131.564Z" transform="translate(-296.937 -58.3)"/><path class="c" d="M50.776,7.5V40.613a3.256,3.256,0,0,1-3.26,3.256H13.94V166.936a3.113,3.113,0,0,0,3.113,3.113H54.942a3.112,3.112,0,0,1-3.11-3.113V55.654a7.965,7.965,0,0,1,2.874-6.195,11.383,11.383,0,0,0,4.218-8.846V7.5Z" transform="translate(-5.055 -5.053)"/><path class="g" d="M152.179,376.939h-82.8a1.567,1.567,0,0,1-1.567-1.567v-17.31a1.567,1.567,0,0,1,1.567-1.567h82.8a1.567,1.567,0,0,1,1.567,1.567v17.31A1.567,1.567,0,0,1,152.179,376.939Z" transform="translate(-41.371 -240.294)"/><path class="g" d="M69.384,356.5a1.567,1.567,0,0,0-1.567,1.567v17.31a1.567,1.567,0,0,0,1.567,1.567H88.148V356.5Z" transform="translate(-41.371 -240.294)"/><g transform="translate(6.44 0)"><path d="M351.97,78.993H342.28a6.209,6.209,0,0,0-6.2,6.2v.691h-27.9v-.691a6.209,6.209,0,0,0-6.2-6.2h-9.691a6.209,6.209,0,0,0-6.2,6.2v37.556a6.209,6.209,0,0,0,6.2,6.2h9.691a6.209,6.209,0,0,0,6.2-6.2v-.691h.413v32.617a13.353,13.353,0,0,0,1.23,5.618l2.835,6.163v22.471a2.445,2.445,0,1,0,4.889,0V165.923a2.443,2.443,0,0,0-.224-1.022l-3.059-6.649a8.5,8.5,0,0,1-.783-3.575V151.5h17.3v3.182a8.5,8.5,0,0,1-.783,3.575l-3.059,6.649a2.442,2.442,0,0,0-.224,1.022v45.289a4.584,4.584,0,0,1-9.168,0V199.347a2.445,2.445,0,1,0-4.889,0v11.864a9.473,9.473,0,0,0,18.946,0V166.458l2.835-6.163a13.354,13.354,0,0,0,1.23-5.618V122.06h.413v.691a6.209,6.209,0,0,0,6.2,6.2h9.691a6.209,6.209,0,0,0,6.2-6.2V85.195a6.209,6.209,0,0,0-6.2-6.2Zm-48.685,43.758a1.314,1.314,0,0,1-1.313,1.313h-9.691a1.314,1.314,0,0,1-1.313-1.313V85.195a1.314,1.314,0,0,1,1.313-1.312h9.691a1.314,1.314,0,0,1,1.313,1.312Zm10.192,23.855V138.99h17.3v7.616Zm17.3-12.505h-17.3V122.06h17.3Zm22.508-11.35a1.314,1.314,0,0,1-1.313,1.312H342.28a1.314,1.314,0,0,1-1.313-1.312V102.708a2.445,2.445,0,1,0-4.889,0V117.17h-27.9v-26.4h27.9v1.514a2.445,2.445,0,1,0,4.889,0V85.195a1.314,1.314,0,0,1,1.313-1.312h9.691a1.314,1.314,0,0,1,1.313,1.312Z" transform="translate(-194.93 -53.245)"/><path d="M115.247,162.551H12a.667.667,0,0,1-.667-.667V41.262H42.463a5.71,5.71,0,0,0,5.7-5.7V4.889h75.9a.667.667,0,0,1,.667.667V21.582a2.445,2.445,0,0,0,4.889,0V5.556A5.563,5.563,0,0,0,124.062,0h-78.8a5.52,5.52,0,0,0-3.929,1.627L8.068,34.889A5.519,5.519,0,0,0,6.44,38.818V161.884A5.562,5.562,0,0,0,12,167.441H115.247a2.445,2.445,0,0,0,0-4.89ZM43.277,6.594V35.559a.815.815,0,0,1-.815.814H13.5Z" transform="translate(-6.44 0)"/><path d="M69.661,182.933h3.884a2.445,2.445,0,1,0,0-4.889H69.661a2.445,2.445,0,1,0,0,4.889Z" transform="translate(-47.406 -120.01)"/><path d="M160.439,182.933a2.445,2.445,0,1,0,0-4.889H116.075a2.445,2.445,0,1,0,0,4.889Z" transform="translate(-78.691 -120.01)"/><path d="M133.43,233.866H69.661a2.445,2.445,0,0,0,0,4.889h63.77a2.445,2.445,0,1,0,0-4.889Z" transform="translate(-47.406 -157.636)"/><path d="M151.31,289.688H69.661a2.445,2.445,0,0,0,0,4.889H151.31a2.445,2.445,0,1,0,0-4.889Z" transform="translate(-47.406 -195.263)"/><path d="M74.593,353.884a2.445,2.445,0,0,0,0-4.889H64.329a4.016,4.016,0,0,0-4.012,4.012v17.31a4.017,4.017,0,0,0,4.012,4.012h82.8a4.016,4.016,0,0,0,4.012-4.012v-17.31a4.016,4.016,0,0,0-4.012-4.012H85.011a2.445,2.445,0,0,0,0,4.889h61.236v15.555H65.206V353.884Z" transform="translate(-42.756 -235.239)"/></g></g></g></svg>