<svg xmlns="http://www.w3.org/2000/svg" xmlns:xlink="http://www.w3.org/1999/xlink" width="643.032" height="311.218" viewBox="0 0 643.032 311.218"><defs><style>.a,.b{fill:none;}.b{clip-rule:evenodd;}.c{fill:#87f9ff;}.aa,.ab,.ac,.ad,.af,.c,.d,.e,.f,.g,.h,.i,.j,.k,.l,.m,.n,.o,.p,.q,.r,.s,.t,.v,.w,.x,.y,.z{fill-rule:evenodd;}.d{fill:#283997;}.e{fill:#2c3d9a;}.f{fill:#253486;}.g{fill:#3848a3;}.h{fill:#4051af;}.i{fill:#263486;}.j{fill:#323e85;}.k{fill:#1d296d;}.l{fill:#394696;}.m{fill:#39479a;}.n{fill:#3949a4;}.o{fill:#364499;}.p{fill:#313f94;}.q{fill:#1e2c7e;}.r{fill:#333f84;}.s{fill:#3f4d9b;}.t{fill:#1c1168;}.u{clip-path:url(#a);}.v{fill:#3f54ca;}.w{fill:#2f44b7;}.x{fill:#2f42b1;}.y{fill:#2033a0;}.z{fill:#5c72ef;}.aa{fill:#758afe;}.ab{fill:#a4b2ff;}.ac{fill:#fffbf7;}.ad{fill:#3e52c0;}.ae{clip-path:url(#b);}.af{fill:#fff;}.ag{clip-path:url(#c);}.ah{clip-path:url(#d);}.ai{clip-path:url(#e);}.aj{clip-path:url(#f);}.ak{clip-path:url(#g);}.al{clip-path:url(#h);}.am{clip-path:url(#i);}.an{clip-path:url(#j);}.ao{clip-path:url(#k);}.ap{clip-path:url(#l);}.aq{clip-path:url(#m);}</style><clipPath id="a"><path class="a" d="M0,311.218s-1.271-47.275,95.307-63.33c0,0,41.591-6.495,37.157-19.645-12.219-18.11-28.3-40.067-36.531-46.592-15.043-11.92-24.44-14.112-24.44-14.112-4.751-.5-10.259.3-15.314,1.089-6.45,1.011-12.162,2.023-14.621.357-8.981-6.08.394-15.988-6.442-19.85-3.5-1.98-2.084-6.458-.426-7.771-2.087-.879-3.68-6.116-1.636-9.357,2.153-3.412,2.648-6.645-.376-8.679-6.636,1.552-12.956-3.269-11.469-10.207,6.854-10.027,16.171-21.234,22.671-33.32C46,75.863,45.576,64.205,45.576,64.205,48.969,26.846,87.147,6.824,87.147,6.824c24.869-12.167,54.414-5.9,70.687,2.055a11.164,11.164,0,0,1,1.611.682c26.758,13.849,45.207,40.891,45.207,72.129,0,27.4-14.009,51.686-35.511,66.583-1.75,9.086,59.175,66.151,59.175,66.151,9.991,12.317,59.526,15.539,97.467,33.977v62.818Z" transform="translate(0 0)"/></clipPath><clipPath id="b"><path class="a" d="M0,311.218V240.532c33.816-11.853,69.954-15.787,78.326-26.108,0,0,60.926-57.065,59.175-66.151-21.5-14.9-35.511-39.18-35.511-66.583,0-31.238,18.45-58.28,45.207-72.129a11.164,11.164,0,0,1,1.612-.682C165.082.926,194.627-5.343,219.495,6.824c0,0,38.179,20.022,41.572,57.382,0,0-.423,11.658,1.695,15.595,6.5,12.086,15.817,23.294,22.671,33.321,1.487,6.938-4.833,11.759-11.47,10.207-3.023,2.034-2.528,5.267-.376,8.679,2.045,3.241.451,8.478-1.636,9.357,1.659,1.313,3.078,5.79-.426,7.771-6.835,3.863,2.54,13.771-6.441,19.85-2.46,1.665-8.172.654-14.622-.357-5.055-.792-10.563-1.585-15.314-1.089,0,0-9.4,2.192-24.44,14.112-8.234,6.525-24.311,28.483-36.53,46.592-4.434,13.151,37.156,19.645,37.156,19.645,96.579,16.055,95.307,63.33,95.307,63.33Z" transform="translate(0 0)"/></clipPath><clipPath id="c"><path class="b" d="M5492.327,2872.375h-47.16v12.591h47.16v-12.591Z" transform="translate(-5445.167 -2872.375)"/></clipPath><clipPath id="d"><path class="b" d="M5699.2,3078.751h-41.034v12.177H5699.2v-12.177Z" transform="translate(-5658.161 -3078.751)"/></clipPath><clipPath id="e"><path class="b" d="M5924.358,2769.187h49.689v12.591h-49.689v-12.591Z" transform="translate(-5924.358 -2769.187)"/></clipPath><clipPath id="f"><path class="b" d="M5921.753,2975.566h49.689v12.591h-49.689v-12.591Z" transform="translate(-5921.753 -2975.566)"/></clipPath><clipPath id="g"><path class="b" d="M5872.862,3178.165h44.159v12.659h-44.159v-12.659Z" transform="translate(-5872.862 -3178.165)"/></clipPath><clipPath id="h"><path class="b" d="M5069.576,2666h-51.567v12.591h51.567V2666Z" transform="translate(-5018.009 -2665.999)"/></clipPath><clipPath id="i"><path class="b" d="M5905.747,2562.809h50.008V2575.4h-50.008v-12.592Z" transform="translate(-5905.747 -2562.809)"/></clipPath><clipPath id="j"><path class="b" d="M5034.918,2459.621h-50.069v12.591h50.069v-12.591Z" transform="translate(-4984.849 -2459.621)"/></clipPath><clipPath id="k"><path class="b" d="M5804.571,2356.433h49.079v12.591h-49.079v-12.591Z" transform="translate(-5804.571 -2356.433)"/></clipPath><clipPath id="l"><path class="b" d="M5187.787,2253.242h-49.6v12.592h49.6v-12.592Z" transform="translate(-5138.185 -2253.242)"/></clipPath><clipPath id="m"><path class="b" d="M5509.26,2150.362h49.6v12.591h-49.6v-12.591Z" transform="translate(-5509.26 -2150.362)"/></clipPath></defs><g transform="translate(-1499.038 -2096.09)"><path class="c" d="M3178.479,3000c81.369,0,147.429,63.679,147.429,142.113a137.531,137.531,0,0,1-20.379,72.1c-.026.042-254.075.039-254.1,0a137.525,137.525,0,0,1-20.38-72.1c0-78.434,66.061-142.113,147.428-142.113Z" transform="translate(-1367.823 -807.036)"/><path class="d" d="M4944.7,4086.979s55.314,11.713,91.436,60.116l-3.09,1.331s-22.876-40.154-88.346-61.446Z" transform="translate(-3076.382 -1777.521)"/><path class="e" d="M5293.446,4004.064s-16.52-13.622-3.352-33.174c0,0,15.908,16.47,3.352,33.174Z" transform="translate(-3380.213 -1673.874)"/><path class="d" d="M5135.613,4337.069s19.652,18.857,42.687-1.414c0,0-23.193-17.584-42.687,1.414Z" transform="translate(-3246.836 -1992.928)"/><path class="f" d="M5527.645,4000.325s17.472,20.895-4.327,42.492c0,0-15.958-24.34,4.327-42.492Z" transform="translate(-3587.663 -1700.155)"/><path class="d" d="M5804.16,4248.759s17.968,28.181-11.214,50.907c0,0-15.664-32.122,11.214-50.907Z" transform="translate(-3829.669 -1921.963)"/><path class="g" d="M4963.268,4188.807s13.137,14.1,31.115-1.523c0,0-15.788-13.1-31.115,1.523Z" transform="translate(-3092.962 -1862.259)"/><path class="h" d="M5091.654,3937.837s12.118,10.992,3.2,21.883c0,0-11.347-9.778-3.2-21.883Z" transform="translate(-3204.959 -1644.363)"/><path class="i" d="M6851.146,3301.2s-41.275,52.681-37.246,124.05l3.813-1.142s-9.771-53.818,33.433-122.909Z" transform="translate(-4745.011 -1075.96)"/><path class="j" d="M6728.206,3527.19s4.629-24.917-22.18-32.643c0,0-1.909,27.036,22.18,32.643Z" transform="translate(-4648.914 -1248.582)"/><path class="i" d="M6906.028,3727.99s-3.491,32.048-39.8,31.169c0,0,7.673-33.583,39.8-31.169Z" transform="translate(-4791.978 -1456.895)"/><path class="k" d="M6491.864,3729.1s.035,32.238,36.228,35.258c0,0-4.026-34.212-36.228-35.258Z" transform="translate(-4457.734 -1457.999)"/><path class="i" d="M6889.017,4022.172s-10.181,32.153-48.766,22.412c0,0,14.952-32.717,48.766-22.412Z" transform="translate(-4768.784 -1717.867)"/><path class="i" d="M6388,4199.5s5.122,39.225,48.872,37.655c0,0-10.207-41.049-48.872-37.655Z" transform="translate(-4365 -1877.804)"/><path class="l" d="M7023.331,3459.328s-1.2,22.78-29.385,22.274c0,0,4.366-23.885,29.385-22.274Z" transform="translate(-4906.008 -1217.068)"/><path class="m" d="M6893.51,3296.28s-2.639,19.184,13.732,22.284c0,0,2.86-17.5-13.732-22.284Z" transform="translate(-4816.195 -1071.563)"/><path class="i" d="M6355.6,3419.352s-18.029,35-7.814,75.8l2.077-1.081s-11.595-30.018,5.737-74.717Z" transform="translate(-4326.296 -1181.445)"/><path class="n" d="M6208.865,3644.751s-.079-14.909-16.423-16.411c0,0,1.884,15.834,16.423,16.411Z" transform="translate(-4190.403 -1368.036)"/><path class="o" d="M6379.369,3664.151s1.523,18.9-19.555,22.41c0,0,.723-20.254,19.555-22.41Z" transform="translate(-4339.838 -1400.009)"/><path class="i" d="M6109.716,3790.22s3.584,18.625,24.83,16.37c0,0-6.108-19.325-24.83-16.37Z" transform="translate(-4116.542 -1512.293)"/><path class="p" d="M6396.828,3843.786s1.831,19.758-21.312,23.3c0,0,.625-21.155,21.312-23.3Z" transform="translate(-4353.856 -1560.392)"/><path class="q" d="M6097.989,4016.065s7.295,22.1,32.4,16.357c0,0-10.433-22.592-32.4-16.357Z" transform="translate(-4106.073 -1713.236)"/><path class="r" d="M6403.709,3499.568s1.826,13.3-14.519,16.119c0,0-.117-14.284,14.519-16.119Z" transform="translate(-4366.065 -1253.065)"/><path class="s" d="M6290.851,3446.228s.6,11.377,10.4,11.359c0,0-.28-10.427-10.4-11.359Z" transform="translate(-4278.265 -1205.441)"/><g transform="translate(1816.277 2096.09)"><path class="t" d="M4591.6,2324.333c-12.219-18.11-28.3-40.067-36.531-46.592-15.042-11.92-24.439-14.112-24.439-14.112-10.813-1.129-25.548,4.417-29.937,1.447-8.981-6.08.4-15.988-6.44-19.851-3.5-1.98-2.085-6.457-.426-7.77-2.087-.88-3.68-6.117-1.637-9.358,2.153-3.411,2.648-6.645-.375-8.678-6.636,1.552-12.956-3.269-11.469-10.207,6.854-10.027,16.17-21.234,22.67-33.321,2.117-3.937,1.695-15.594,1.695-15.594,3.394-37.36,41.571-57.382,41.571-57.382,24.869-12.167,54.414-5.9,70.687,2.054a11.112,11.112,0,0,1,1.612.682c26.758,13.849,45.207,40.891,45.207,72.129,0,27.4-14.009,51.686-35.511,66.583-1.751,9.086,59.175,66.151,59.175,66.151,9.991,12.317,59.527,15.538,97.468,33.977.017.008,0,62.817,0,62.817H4459.138s-1.271-47.275,95.308-63.33c0,0,41.591-6.494,37.157-19.645Z" transform="translate(-4459.137 -2096.091)"/><g class="u" transform="translate(0 0)"><path class="v" d="M6071.422,4098.394s57.248,40.468,74.644,113.3H6141.9s-6.362-56.943-70.475-113.3Z" transform="translate(-5898.63 -3883.803)"/><path class="v" d="M6503.837,4258.814s-12.129-23.613,12.453-39.421c0,0,10.037,26.558-12.453,39.421Z" transform="translate(-6282.032 -3991.835)"/><path class="c" d="M6121.833,4540.5s13.133,31.112,49.3,19.324c0,0-17.787-31.4-49.3-19.324Z" transform="translate(-5943.639 -4276.064)"/><path class="w" d="M6692.05,4411.124s9.648,32.363-25.766,46.267c0,0-6.235-35.544,25.766-46.267Z" transform="translate(-6429.302 -4163.018)"/><path class="x" d="M6218.775,4846.136s13.348,32.713,52.813,19.281c0,0-18.378-32.9-52.812-19.281Z" transform="translate(-6030.191 -4548.459)"/><path class="y" d="M6805.763,4768.474s6.642,40.9-37.734,52.472c0,0-2.088-44.262,37.734-52.472Z" transform="translate(-6520.563 -4482.069)"/><path class="z" d="M6014.369,4271.013s8.045,22.5,36.179,13.524c0,0-11.556-22.658-36.179-13.524Z" transform="translate(-5847.692 -4035.985)"/><path class="aa" d="M6262.723,4012.65s8.411,18.459-7.087,26.489c0,0-8.127-16.7,7.087-26.489Z" transform="translate(-6061.166 -3807.248)"/><path class="ab" d="M5905,3897.743a13.24,13.24,0,0,1,18.053,5.916,13.943,13.943,0,0,1-6.324,18.349,13.24,13.24,0,0,1-18.054-5.916,13.942,13.942,0,0,1,6.324-18.349Z" transform="translate(-5743.2 -3703.316)"/><path class="ac" d="M6019.548,4013.069a3.528,3.528,0,0,1,4.834,1.49,3.713,3.713,0,0,1-1.766,4.854,3.527,3.527,0,0,1-4.833-1.489,3.715,3.715,0,0,1,1.765-4.855Z" transform="translate(-5850.437 -3807.248)"/><path class="v" d="M5375.159,4618.09s41.139,13.528,60.727,52.708l-2.651.722s-10.712-31.887-58.076-53.43Z" transform="translate(-5276.987 -4347.803)"/><path class="v" d="M5691.428,4613.842s-10.478-11.578,3.3-24.994c0,0,9.493,13.646-3.3,24.994Z" transform="translate(-5555.956 -4321.693)"/><path class="ad" d="M5461.68,4837.82s11.993,15.75,33.61,2.654c0,0-14.984-15.108-33.61-2.654Z" transform="translate(-5354.236 -4539.589)"/><path class="w" d="M5839.808,4653.878s9.923,17.077-10.964,31.266c0,0-8.128-19.511,10.964-31.266Z" transform="translate(-5680.515 -4379.755)"/><path class="x" d="M5559.63,4994.428s12.317,16.638,35.838,2.021c0,0-15.537-15.875-35.838-2.021Z" transform="translate(-5441.688 -4678.742)"/><path class="y" d="M5965.246,4824.614s9.012,22.544-17.848,36.933c0,0-6.511-25.28,17.848-36.933Z" transform="translate(-5787.193 -4532.193)"/><path class="z" d="M5361.211,4706.16s7.751,11.643,24.59,1.569c0,0-10-11.124-24.59-1.569Z" transform="translate(-5264.533 -4422.974)"/><path class="aa" d="M5500.866,4521.923s7.509,9.237-1.4,16.574c0,0-7.123-8.266,1.4-16.574Z" transform="translate(-5385.479 -4261.941)"/><path class="ab" d="M5258.268,4507.875c3.876-3.153,9.331-3.019,12.172.3s2,8.574-1.873,11.727-9.329,3.018-12.172-.3-2-8.573,1.873-11.726Z" transform="translate(-5169.447 -4247.363)"/><path class="ac" d="M5335.565,4571.358a2.355,2.355,0,0,1,3.246.027,2.216,2.216,0,0,1-.554,3.118,2.354,2.354,0,0,1-3.246-.026,2.219,2.219,0,0,1,.554-3.119Z" transform="translate(-5240.76 -4305.515)"/></g></g><path class="d" d="M3115.221,3983.92s-54.333,15.651-86.888,66.518l3.177,1.1s19.938-41.69,83.711-67.623Z" transform="translate(-1365.397 -1685.507)"/><path class="e" d="M3386.11,3929.275s15.5-14.771.963-33.328c0,0-14.686,17.569-.963,33.328Z" transform="translate(-1679.6 -1606.963)"/><path class="d" d="M3316.312,4258.8s-18.249,20.22-42.678,1.651c0,0,21.871-19.2,42.678-1.651Z" transform="translate(-1584.409 -1924.326)"/><path class="f" d="M3121.606,3945.447s-15.927,22.093,7.363,42.072c0,0,14.171-25.423-7.363-42.072Z" transform="translate(-1443.929 -1651.157)"/><path class="d" d="M2828.27,4216.332s-15.9,29.4,14.836,49.972c0,0,13.322-33.161-14.836-49.972Z" transform="translate(-1183.104 -1893.011)"/><path class="g" d="M3572.528,4095.869s-12.092,15.007-31.144.712c0,0,14.808-14.2,31.144-.712Z" transform="translate(-1823.464 -1780.267)"/><path class="h" d="M3611.188,3847.46s-11.3,11.832-1.622,22.057c0,0,10.615-10.566,1.622-22.057Z" transform="translate(-1880.841 -1563.672)"/><path class="i" d="M1711.161,3435.636s41.276,52.681,37.247,124.05l-3.813-1.143s9.771-53.817-33.434-122.908Z" transform="translate(-189.39 -1195.984)"/><path class="j" d="M1959.1,3661.62s-4.63-24.916,22.178-32.642c0,0,1.91,27.036-22.178,32.642Z" transform="translate(-410.484 -1368.606)"/><path class="i" d="M1637.322,3862.426s3.492,32.048,39.8,31.169c0,0-7.672-33.583-39.8-31.169Z" transform="translate(-123.464 -1576.923)"/><path class="k" d="M2081.245,3863.533s-.035,32.237-36.228,35.257c0,0,4.027-34.213,36.228-35.257Z" transform="translate(-487.466 -1578.023)"/><path class="i" d="M1579.645,4156.6s10.179,32.155,48.765,22.413c0,0-14.952-32.718-48.765-22.413Z" transform="translate(-71.968 -1837.886)"/><path class="i" d="M2079.769,4333.93s-5.123,39.224-48.872,37.655c0,0,10.207-41.049,48.872-37.655Z" transform="translate(-474.858 -1997.828)"/><path class="l" d="M1606.786,3593.758s1.2,22.781,29.384,22.274c0,0-4.365-23.885-29.384-22.274Z" transform="translate(-96.201 -1337.09)"/><path class="m" d="M1864.124,3430.708s2.638,19.184-13.733,22.284c0,0-2.86-17.5,13.733-22.284Z" transform="translate(-313.53 -1191.584)"/><path class="i" d="M2376.456,3324.169s18.029,35,7.814,75.8l-2.078-1.082s11.594-30.019-5.737-74.718Z" transform="translate(-783.384 -1096.463)"/><path class="n" d="M2477.573,3549.569s.079-14.909,16.424-16.41c0,0-1.884,15.833-16.424,16.41Z" transform="translate(-873.663 -1283.055)"/><path class="o" d="M2280.783,3568.969s-1.523,18.9,19.553,22.41c0,0-.722-20.254-19.553-22.41Z" transform="translate(-697.942 -1315.028)"/><path class="i" d="M2506.681,3695.035s-3.583,18.625-24.83,16.369c0,0,6.107-19.325,24.83-16.369Z" transform="translate(-877.483 -1427.308)"/><path class="p" d="M2248.6,3748.6s-1.832,19.758,21.312,23.3c0,0-.626-21.154-21.312-23.3Z" transform="translate(-669.198 -1475.41)"/><path class="q" d="M2455.333,3920.882s-7.295,22.1-32.4,16.356c0,0,10.434-22.591,32.4-16.356Z" transform="translate(-824.878 -1628.253)"/><path class="r" d="M2298.088,3404.378s-1.825,13.3,14.518,16.119c0,0,.117-14.284-14.518-16.119Z" transform="translate(-713.36 -1168.076)"/><path class="s" d="M2445.778,3351.045s-.6,11.377-10.4,11.359c0,0,.281-10.426,10.4-11.359Z" transform="translate(-835.992 -1120.459)"/><g transform="translate(1499.038 2096.09)"><path class="t" d="M1673.242,2324.333c12.219-18.11,28.3-40.067,36.53-46.592,15.044-11.92,24.44-14.112,24.44-14.112,10.811-1.129,25.548,4.417,29.935,1.447,8.982-6.08-.394-15.988,6.442-19.851,3.5-1.98,2.084-6.457.426-7.77,2.087-.88,3.681-6.117,1.636-9.358-2.153-3.411-2.648-6.645.376-8.678,6.636,1.552,12.956-3.269,11.469-10.207-6.855-10.027-16.171-21.234-22.671-33.321-2.118-3.937-1.695-15.594-1.695-15.594-3.392-37.36-41.572-57.382-41.572-57.382-24.867-12.167-54.413-5.9-70.686,2.054a11.087,11.087,0,0,0-1.612.682c-26.757,13.849-45.207,40.891-45.207,72.129,0,27.4,14.009,51.686,35.512,66.583,1.75,9.086-59.176,66.151-59.176,66.151-8.372,10.32-44.51,14.255-78.326,26.108-.059.021,0,70.687,0,70.687h306.642s1.271-47.275-95.307-63.33c0,0-41.591-6.494-37.156-19.645Z" transform="translate(-1499.038 -2096.091)"/><g class="ae" transform="translate(0.026 0)"><path class="v" d="M1947.178,4283.274s-64.087,28.419-95.467,96.408l4.089.82s17.435-54.582,91.378-97.228Z" transform="translate(-1813.941 -4048.869)"/><path class="v" d="M2114.6,4330.217s16.537-20.766-4.457-41.1c0,0-15.065,24.065,4.457,41.1Z" transform="translate(-2039.724 -4054.085)"/><path class="ad" d="M2167.217,4678.059s-18.994,27.922-52.141,9.249c0,0,23.615-27.285,52.141-9.249Z" transform="translate(-2049.079 -4395.84)"/><path class="w" d="M1825.425,4424.828s-15.824,29.834,16.164,50.431c0,0,13.1-33.624-16.164-50.431Z" transform="translate(-1786.977 -4175.252)"/><path class="x" d="M1982.605,4954.7s-19.519,29.448-55.572,8.517c0,0,24.487-28.641,55.572-8.517Z" transform="translate(-1881.19 -4641.942)"/><path class="y" d="M1561.587,4734s-14.556,38.8,26.678,58.867c0,0,10.751-42.986-26.678-58.867Z" transform="translate(-1552.684 -4451.294)"/><path class="c" d="M2443.253,4440.946s-12.313,20.481-38.133,6.146c0,0,15.786-19.942,38.133-6.146Z" transform="translate(-2308.04 -4185.301)"/><path class="aa" d="M2456.213,4146.418s-11.876,16.445,1.74,27.366c0,0,11.252-14.775-1.74-27.366Z" transform="translate(-2349.373 -3926.681)"/><path class="ab" d="M2700.135,4094.407a13.239,13.239,0,0,0-18.864,2.25,13.942,13.942,0,0,0,2.593,19.234,13.24,13.24,0,0,0,18.865-2.25,13.942,13.942,0,0,0-2.594-19.235Z" transform="translate(-2552.154 -3877.61)"/><path class="ac" d="M2744.545,4202.956a3.525,3.525,0,0,0-5.031.511,3.712,3.712,0,0,0,.776,5.105,3.527,3.527,0,0,0,5.031-.509,3.714,3.714,0,0,0-.777-5.107Z" transform="translate(-2605.975 -3976.426)"/><path class="v" d="M2880.791,4561.539s-39.531,17.683-54.992,58.668l2.712.446s7.379-32.818,52.28-59.114Z" transform="translate(-2683.633 -4297.312)"/><path class="v" d="M2945.644,4595.894s9.233-12.594-5.852-24.523c0,0-8.041,14.551,5.852,24.523Z" transform="translate(-2783.343 -4306.089)"/><path class="ad" d="M3003.378,4800.862s-10.311,16.9-33.162,6.093c0,0,13.355-16.567,33.162-6.093Z" transform="translate(-2812.573 -4507.887)"/><path class="w" d="M2763.256,4655.728s-8.118,18.008,14.118,29.975c0,0,6.08-20.242-14.118-29.975Z" transform="translate(-2626.503 -4381.406)"/><path class="x" d="M2903.693,4968.161s-10.542,17.816-35.44,5.693c0,0,13.824-17.388,35.44-5.693Z" transform="translate(-2721.537 -4656.745)"/><path class="y" d="M2613.025,4843.546s-6.649,23.353,21.548,34.906c0,0,3.879-25.815-21.548-34.906Z" transform="translate(-2493.052 -4549.096)"/><path class="z" d="M3162.739,4657.007s-6.514,12.377-24.3,4.086c0,0,8.805-12.093,24.3-4.086Z" transform="translate(-2962.77 -4380.102)"/><path class="aa" d="M3151.273,4482.389s-6.521,9.959,3.1,16.342c0,0,6.235-8.955-3.1-16.342Z" transform="translate(-2972.298 -4226.644)"/><path class="ab" d="M3305.414,4447.889c-4.18-2.738-9.591-2.044-12.077,1.549s-1.111,8.733,3.067,11.472,9.591,2.044,12.076-1.549,1.112-8.733-3.067-11.472Z" transform="translate(-3099.959 -4194.348)"/><path class="ac" d="M3336.4,4513.191a2.355,2.355,0,0,0-3.227.359,2.218,2.218,0,0,0,.871,3.046,2.356,2.356,0,0,0,3.227-.36,2.217,2.217,0,0,0-.871-3.045Z" transform="translate(-3136.352 -4253.73)"/></g></g><path class="af" d="M5926.461,3178.076h-17.1v1.532h17.1v-1.532Z" transform="translate(-3937.66 -966.027)"/><path class="af" d="M5828.091,3078.751H5789.4v1.532h38.688v-1.532Z" transform="translate(-3830.558 -877.347)"/><path class="af" d="M5745,2975.566h-54.491v1.532H5745v-1.532Z" transform="translate(-3742.261 -785.221)"/><path class="af" d="M5661.95,2872.375h-66.513v1.532h66.513v-1.532Z" transform="translate(-3657.38 -693.089)"/><g transform="translate(1921.952 2179.286)"><g class="ag" transform="translate(0 0)"><path class="af" d="M5595.9,2878.67a6.06,6.06,0,0,0-5.786-6.3h-35.586a6.318,6.318,0,0,0,0,12.591h35.586a6.06,6.06,0,0,0,5.786-6.3Zm-2.868,0a4.585,4.585,0,0,0-4.378-4.764h-34.089a4.781,4.781,0,0,0,0,9.527h34.089a4.585,4.585,0,0,0,4.378-4.764Z" transform="translate(-5537.644 -2872.375)"/></g></g><g transform="translate(1944.779 2201.404)"><g class="ah" transform="translate(0 0)"><path class="af" d="M5789.319,3084.84c0-3.36-2.256-6.089-5.034-6.089H5753.32c-2.779,0-5.035,2.729-5.035,6.089s2.256,6.088,5.035,6.088h30.965c2.778,0,5.034-2.729,5.034-6.088Zm-2.5,0c0-2.543-1.708-4.607-3.811-4.607h-29.66c-2.1,0-3.81,2.063-3.81,4.607s1.708,4.607,3.81,4.607h29.66c2.1,0,3.811-2.065,3.811-4.607Z" transform="translate(-5738.627 -3078.751)"/></g></g><g transform="translate(1973.308 2168.227)"><g class="ai" transform="translate(0)"><path class="af" d="M5815.225,2775.482a6.2,6.2,0,0,1,6.1-6.3h37.5a6.3,6.3,0,0,1,0,12.591h-37.5a6.2,6.2,0,0,1-6.1-6.3Zm3.023,0a4.692,4.692,0,0,1,4.613-4.763h35.915a4.766,4.766,0,0,1,0,9.527h-35.915a4.692,4.692,0,0,1-4.613-4.764Z" transform="translate(-5826.921 -2769.187)"/></g></g><g transform="translate(1973.029 2190.345)"><g class="aj" transform="translate(0 0)"><path class="af" d="M5812.62,2981.861a6.2,6.2,0,0,1,6.1-6.3h37.495a6.3,6.3,0,0,1,0,12.591h-37.495a6.2,6.2,0,0,1-6.1-6.3Zm3.024,0a4.692,4.692,0,0,1,4.614-4.763h35.914a4.766,4.766,0,0,1,0,9.527h-35.914a4.692,4.692,0,0,1-4.614-4.763Z" transform="translate(-5824.316 -2975.565)"/></g></g><g transform="translate(1967.789 2212.058)"><g class="ak" transform="translate(0 0)"><path class="af" d="M5775.881,3184.495c0-3.493,2.427-6.33,5.417-6.33h33.322c2.99,0,5.419,2.836,5.419,6.33s-2.429,6.329-5.419,6.329H5781.3c-2.991,0-5.417-2.836-5.417-6.329Zm2.687,0c0-2.643,1.836-4.789,4.1-4.789h31.917c2.264,0,4.1,2.146,4.1,4.789s-1.837,4.789-4.1,4.789h-31.917c-2.263,0-4.1-2.146-4.1-4.789Z" transform="translate(-5786.274 -3178.165)"/></g></g><g transform="translate(1876.173 2157.168)"><g class="al" transform="translate(0 0)"><path class="af" d="M5182.836,2672.295a6.315,6.315,0,0,0-6.328-6.3H5137.6a6.3,6.3,0,1,0,0,12.591h38.912a6.315,6.315,0,0,0,6.328-6.3Zm-3.137,0a4.778,4.778,0,0,0-4.788-4.764h-37.273a4.764,4.764,0,1,0,0,9.527h37.273a4.778,4.778,0,0,0,4.788-4.763Z" transform="translate(-5119.131 -2665.999)"/></g></g><g transform="translate(1971.314 2146.109)"><g class="am" transform="translate(0 0)"><path class="af" d="M5795.923,2569.105a6.221,6.221,0,0,1,6.137-6.3h37.733a6.3,6.3,0,0,1,0,12.591H5802.06a6.22,6.22,0,0,1-6.137-6.3Zm3.042,0a4.707,4.707,0,0,1,4.643-4.764h36.144a4.765,4.765,0,0,1,0,9.528h-36.144a4.706,4.706,0,0,1-4.643-4.763Z" transform="translate(-5807.692 -2562.809)"/></g></g><g transform="translate(1872.619 2135.05)"><g class="an" transform="translate(0 0)"><path class="af" d="M5144.889,2465.917a6.224,6.224,0,0,0-6.143-6.3h-37.783a6.3,6.3,0,0,0,0,12.591h37.783a6.223,6.223,0,0,0,6.143-6.3Zm-3.046,0a4.709,4.709,0,0,0-4.649-4.763H5101a4.765,4.765,0,0,0,0,9.527h36.19a4.709,4.709,0,0,0,4.649-4.764Z" transform="translate(-5083.033 -2459.621)"/></g></g><g transform="translate(1960.471 2123.992)"><g class="ao" transform="translate(0 0)"><path class="af" d="M5696.783,2362.729a6.167,6.167,0,0,1,6.022-6.3h37.036a6.3,6.3,0,0,1,0,12.591H5702.8a6.167,6.167,0,0,1-6.022-6.3Zm2.985,0a4.666,4.666,0,0,1,4.557-4.764H5739.8a4.768,4.768,0,0,1,0,9.527h-35.475a4.666,4.666,0,0,1-4.557-4.763Z" transform="translate(-5708.334 -2356.433)"/></g></g><g transform="translate(1889.053 2112.932)"><g class="ap" transform="translate(0 0)"><path class="af" d="M5296.725,2259.538a6.2,6.2,0,0,0-6.087-6.3h-37.429a6.3,6.3,0,0,0,0,12.591h37.429a6.2,6.2,0,0,0,6.087-6.3Zm-3.018,0a4.688,4.688,0,0,0-4.605-4.763h-35.852a4.766,4.766,0,0,0,0,9.527H5289.1a4.689,4.689,0,0,0,4.605-4.764Z" transform="translate(-5235.447 -2253.242)"/></g></g><g transform="translate(1928.821 2101.906)"><g class="aq" transform="translate(0 0)"><path class="af" d="M5400.315,2156.657a6.2,6.2,0,0,1,6.085-6.3h37.429a6.3,6.3,0,0,1,0,12.591H5406.4a6.2,6.2,0,0,1-6.085-6.3Zm3.017,0a4.689,4.689,0,0,1,4.606-4.764h35.852a4.766,4.766,0,0,1,0,9.527h-35.852a4.689,4.689,0,0,1-4.606-4.764Z" transform="translate(-5411.991 -2150.361)"/></g></g><path class="af" d="M5379.564,2769.187h-100.41v1.532h100.41v-1.532Z" transform="translate(-3374.993 -600.96)"/><path class="af" d="M5291.059,2666h-108.98v1.532h108.98V2666Z" transform="translate(-3288.323 -508.831)"/><path class="af" d="M5256.756,2562.809H5149.487v1.532h107.269v-1.532Z" transform="translate(-3259.223 -416.7)"/><path class="af" d="M5280.455,2459.621h-98.375v1.532h98.375v-1.532Z" transform="translate(-3288.323 -324.571)"/><path class="af" d="M5386.016,2356.433h-78.643v1.533h78.643v-1.533Z" transform="translate(-3400.188 -232.441)"/><path class="af" d="M5402.685,2253.242h-47.1v1.532h47.1v-1.532Z" transform="translate(-3443.229 -140.31)"/><path class="t" d="M2601.2,2280.348c-7.582.057-12.684-6.939-8.478-14.418,2.154-3.831,5.383-4.708,8.612-7.473,5.506-4.715,8.453-13.607,4.567-20.119a16.421,16.421,0,0,0-11-7.382c-17.868-3.473-21.263,16.624-10.936,17.808,13.942,1.6,10.887-19.9,19.215-26.061,1.427-1.055,3.244-2.105,5.1-1.63,3.387.863,9.16,3.653,11.384,6.371,5.523,6.751,5.365,27.919-5.021,30.944-4.9,1.427-3.407-7.413-2.7-9.531a15.26,15.26,0,0,1,17.921-9.63c3.451.911,2.2,11.755-3.3,9.488-8.988-3.706,4.386-22.5,10.864-24.078a2.649,2.649,0,0,1,2.224.27c7.089,4.188-8.02,9.927-.511,13.138a10.115,10.115,0,0,0,4.04.917c2.012.047,4.133.148,5.844-1.037,8.458-5.857,7.846-20.07-.809-25.9-5.869-3.955-22.351-4.854-23,5.33-.565,8.9,10.755,8,16.764,6.693,12.417-2.7,15.17-20.579,30.69-14.81a8.271,8.271,0,0,1,5.6,6.3c2.443,13.721-16.25,13.691-22.712,4.824-3.187-4.373-4.066-12.938-1.949-17.955,2.639-6.254,16.464-18.082,23.551-12.713,3.727,2.824,2.672,12.364-3.109,11.154-7.317-1.533-19.249-11.288-26.388-14.967-8.732-4.5-21.18-3.431-30.572-2.142-6.84.938-16.008,2.1-18.689,9.595-3.3,9.222,10.081,7.455,15.525,7.353,4.794-.09,16.835,1.194,16.407-6.674-.419-7.7-14.242-6.273-14.886,4.857-.4,6.925,14.237,4.773,11.959,1.91-5.242-6.588-25.359,4.3-23.459,11.588,1.512,5.8,9.186,7.747,13.989,6.065,1.422-.5,3.355-1.321,3.786-2.953,2.141-8.108-14.452-3.839-12.584.116,1.911,4.046,16.5-2.907,8.01-9.25-9.938-7.428-24.95-4.393-35.807-1.131-3.728,1.12-12.275,2.992-12.718,8.274-.457,5.448,7.7,10.163,12.292,10.485,10.049.706,22.87-9.106,26.787,6.029,4.8,18.529-25.437,30.948-35.6,15.415-3.182-4.863-2.392-21.37,5.946-20.479.341.036.49.565.571.818,1.433,4.516-.469,11.025-6.106,9.206-1.469-.474-3.157-1.176-3.755-2.716-3.077-7.916,9.326-24.361,18.1-21.592,4.889,1.544,3.6,7.6,2.845,11.6-1.1,5.817-4.785,10.863-6.106,16.5-1.122,4.781-.226,11.354.268,16.211.233,2.288.9,4.083,2.864,5.435,2.209,1.522,5.419,1.086,7.94,1.825,3.367.988,10.8,5.667,14.011,2.461,4.052-4.052-5.383-11-10.859-6.989-.409.3-.958.952-.671,1.517,1.876,3.708,9.023-2.307,10.16-3.867,6.689-9.185-.212-18.8,8.852-29.419,3.637-4.263,9.241-7.2,14.609-4.719,2.76,1.276,1.313,2.921-.184,5.218-.988,1.517-2.62,3.866-4.322,4.647-.847.389-1.755-.329-2.493-.7-5.562-2.781-1.012-5.453-3.784-9.592-2.614-3.9-6.872-6.752-10.463-9.72-2.212-1.827-12.576-8.662-15.135-8.293-1.7.244-10.409,4.837-6.6,7.175,2.992,1.835,7.166-2.332,7.661-4.905.8-4.149-.126-11.638-3.136-14.921-2.185-2.383-9.479,1.806-8.7,5.015.422,1.749,6.746-.551,7.54-.862,11.271-4.414,3.815-11.764,13.293-17.671,6.642-4.14,18.792-3.126,24.791,1.791,1.165.955,2.721,2.2,2.384,3.921-1.128,5.768-22.034,19.222-23.218,4.217a17.21,17.21,0,0,1,3.162-11.569,20.363,20.363,0,0,1,6.813-5.836,15.366,15.366,0,0,1,9.841-1.552c2.811.446,12.808,3.685,14.229,6.474,1.08,2.118-.042,6.374-.389,8.542-1.183,7.409-1.558,12.8-10.594,10.185-5.47-1.583-.906-18.759,9.626-13.169,2.809,1.491,5.653,3.759,6.93,6.749a8.88,8.88,0,0,1,.125,6.556c-2.908,7-5.537,3.7-10.781,5.854-1.134.465-6.937,3.345-5.694,5.252,2.257,3.462,7.5-4.674,8.477-5.355,2.787-1.941,9.821-3.884,12.586-1.045,1.257,1.292,1.934,4.09,2.708,5.757,3.066,6.607-9.991,2.053-11.8,2.209-2.552.22-6.381,2.912-7.561,5.032-3.494,6.276,5.026,11,10.16,11.427.66.055-1.161-.8-1.241-1.327-.028-.187.04-4.9.812-3.246.638,1.366.494,9.542.25,11.441-.151,1.173-1.208,2-1.777,2.97-.256.436-.794,1.538-.277,2.01,1.1,1.011,3.823.154,4.992-.131,9.061-2.225,2.915-7.014,6-11.83,1.5-2.351,4.73-3.185,7.229-3.868,1.324-.36,5.324-1.534,6.62-.73,2.7,1.676-3.445,11.886-6.091,13.371-1.328.745-3.52,1.708-5.063,1-.846-.392-2.222-2.618-2.753-2.017a10.729,10.729,0,0,0-1.233,2.22c-2.044,4.084,3.863-.14,5.65,3.256a1.392,1.392,0,0,1-.045,1.542c-2.506,4.322-20.12,7.708-23.163,5.172-2.473-2.06,1.963-7.767,3.453-8.923a25.206,25.206,0,0,1,6.927-3.4c6.318-2.306,13.072-4.981,19.914-4.765,5.566.177,4.794,5.768,9.776,3.261,1.836-.924,4.275-1.5,5.779-2.935,4-3.815,4.821-19.712-1.172-22.259-2.805-1.191-11.253-.724-10.64,4.012.236,1.825,3.3,3.745,4.638,4.616,11.435,7.465,12.547-15.193,18.9-13.17a4,4,0,0,1,2.064,2.708c.882,4.1.533,10.1-4.808,10.219-1.282.028-1.752.17-2.34-1.018-1.194-2.412-2.248-5.459-1.984-8.179.64-6.618,8.92-12.172-.132-16.942a31.745,31.745,0,0,0-10.344-3.442,15.733,15.733,0,0,0-6.888.5c-15.021,5.144-1.841,16.323,3.511,10.177,4.463-5.125-9.817-16.131-.247-19.049,4.911-1.5,8.294,13.388.371,12.691a.846.846,0,0,1-.859-.7c-.59-6.83,8.939-4.2,12.092-2.863,1.827.776,3.6,1.367,4.685,3.085,2.565,4.065,2.321,5.842-2.648,6.526-3.572.491-1.287-4.218-4.834-4-.289.018-1.929-.009-2.21.409-4.915,7.29,7.878,7.285,5.507,3.93-2.388-3.376-3.076,6.707-3.487,6.922-4.207,2.2-8.811-3.482-13.148-1.664-2.891,1.211-9.633,10.419-3.513,7.748,6.475-2.826,6.109-10.1,5.933-16.013-.354-11.91-3.751-27.747-17.951-29.775-2.382-.34-4.7-.624-6.841.648-7.277,4.336-3.016,15.973,4.293,17.348,6.075,1.143,5.961-8.168,10.263-10.207,4.919-2.332,12.024,1.031,10.021,7-3.318,9.891-8.079-.958-12.11,1.767-4.353,2.941.367,6.045,3.025,3.053a1.794,1.794,0,0,0,.147-1.306c-.6-1.992-5.592,2.441-6.061,2.993-3.4,3.993,2.878,4.251,4.05,6.492,1.637,3.126.246,8.913-3.7,9.588-2.786.477-5.412-.012-7.1-2.388-2.4-3.379-2.514-12.723-2.949-13.156-2.064-2.05-5.107-5.318-8-3.229a3.8,3.8,0,0,0-1.841,2.629c-.074,1.028.764.937,1.593.937a25.55,25.55,0,0,0,8.556-1.1c3.636-1.283,11.237-7.916,7.589-12.062-5.711-6.49-27.731-11.048-31.786-.405s13.389,8.681,9.286,4.578c-.489-.489-1.778-.319-2.361-.28-5.173.35-1.025,4.006-.413,6.228.542,1.963-.163,4.84-1.01,6.612a5.607,5.607,0,0,1-3.514,3.167,25.678,25.678,0,0,1-9.815.1,42.6,42.6,0,0,1-7.374-1.71c-1.956-.708-3.428-2.821-4.139-4.658-3.382-8.744,9.871-17.369,11.633-12.392a6.317,6.317,0,0,1-.687,5.343c-4.137,6.1-11.448,1.931-17.174,3.142a16.424,16.424,0,0,0-7.8,3.654c-9.73,8.434,5.942,19.393,3.311,11.452-.63-1.9-8.109-.868-9.509-.319-5.36,2.1-10.382,11.333-8.758,16.839.73,2.477,6.363,5.055,8.608,4.476,3.709-.958,5.692-1.577,9.978-1.481,1.193.026,2.874-.139,4.009.365,1.594.708,3.246,5.156,5.89,3.194,2.928-2.173-3.98-18.874,9.781-21.08,2.386-.382,4.143.853,6.394,1,3.092.2,10.631-1.105,12.808,2.1.79,1.162.464,2.714.431,4.044-.085,3.405.356,4.563-3.043,4.563-.666,0-1.951.89-1.984.226-.154-3.084,3.165-6.618,4.786-8.842,2.979-4.086,6.058-10.714,10.564-13.517,4.3-2.674,9.711-3.247,13.228-7.4,1.514-1.787-.317-7.452,2.346-10.255.536-.564,4.808,1.241,4.52-1.063-.326-2.611-4.667.959-3.956-1.985" transform="translate(-954.653 -56.414)"/><path class="af" d="M2635.8,2155.476a33.319,33.319,0,0,0-9.591-1.07c-5.207.243-9.724,2.065-11.677,6.075a14.676,14.676,0,0,0-3.218,1.3,24.571,24.571,0,0,0-3.077,2,5.817,5.817,0,0,0-.234-.87c-.672-1.9-2.6-2.419-4.933-1.668a14.152,14.152,0,0,0-6.764,5.313,11.659,11.659,0,0,0-1.854,4.215,17.9,17.9,0,0,0-5.235.106,17.189,17.189,0,0,0-8.159,3.833,9.438,9.438,0,0,0-3.389,5.563,8.284,8.284,0,0,0,.395,4.148,8.183,8.183,0,0,0-.778.789,12.553,12.553,0,0,0-2.193.493c-2.829,1.11-5.6,4.075-7.415,7.516a17.229,17.229,0,0,0-2.157,7.843q-.2.114-.4.234c-2.176,1.334-3.777,3.124-3.976,5.489-.2,2.333.991,4.566,2.87,6.422a22.79,22.79,0,0,0-2.857,6.671,10.351,10.351,0,0,0,.175,6.023,4.374,4.374,0,0,0,1.721,2.03c-.465,4.393.225,9.036,1.7,11.29a16.213,16.213,0,0,0,11.419,7.156c.073.7.147,1.379.212,2.027.258,2.539,1.03,4.515,3.208,6.015a9.322,9.322,0,0,0,4.209,1.342,33.624,33.624,0,0,1,3.552.485,11.855,11.855,0,0,0-2.017,2.653c-2.275,4.047-2,7.963-.159,10.86a10.753,10.753,0,0,0,9.344,4.757.8.8,0,1,0-.012-1.608,9.16,9.16,0,0,1-7.975-4.01c-1.558-2.457-1.727-5.778.2-9.21a10.475,10.475,0,0,1,2.351-2.858,54.383,54.383,0,0,0,7.376,2.8c2.409.572,4.635.45,6.1-1.017,1.957-1.957,1.425-4.483-.48-6.489a9.587,9.587,0,0,0-2.072-1.626,10.225,10.225,0,0,0,1.264-1.32c3.449-4.736,3.436-9.571,3.688-14.6.236-4.722.739-9.625,5.125-14.767.091-.105.181-.21.273-.313a11.054,11.054,0,0,1,1.995,1.821c1.853,2.264,3.022,6.208,3.35,10.515a16.005,16.005,0,0,0-11.214,10.135,20,20,0,0,0-.79,6.4,5.124,5.124,0,0,0,1.538,3.783,3.151,3.151,0,0,0,2.942.371c4.414-1.285,7.156-5.6,8.4-10.84.092-.388.176-.78.252-1.177a5.384,5.384,0,0,0,2.736,2.315,4.118,4.118,0,0,0,2.7.245c1.733-.472,2.924-2.274,3.391-4.365a8.683,8.683,0,0,0-.237-4.856,3.159,3.159,0,0,0-2.05-2.032,14.726,14.726,0,0,0-4.056-.48,34.147,34.147,0,0,1,6.531-9.1,14.49,14.49,0,0,1,4.552-3.291c.586-.044,1.165-.1,1.729-.177a2.133,2.133,0,0,1,.422.194,3,3,0,0,1,1.485,1.525,2.355,2.355,0,0,1-.365,1.832,16.272,16.272,0,0,1-1.743,2.375,14.108,14.108,0,0,0-2.138,3.069,3.344,3.344,0,0,0-.3,1.437,10.955,10.955,0,0,0-1.451,3.237,3.249,3.249,0,0,0,.9,3.411,5.6,5.6,0,0,0,2.885.964,27.6,27.6,0,0,0,6.488-.266,42.349,42.349,0,0,0,10.627-2.873,9.589,9.589,0,0,0,4.373-3.212,2.092,2.092,0,0,0,.06-2.319c-.883-1.679-2.542-1.941-4.1-1.866-.529.025-1.039.086-1.47.106a2.908,2.908,0,0,1-.291,0,16.072,16.072,0,0,0,.792-1.964,5.537,5.537,0,0,1,.281-.491c.112.1.243.211.343.314a8.352,8.352,0,0,0,1.733,1.549,4.269,4.269,0,0,0,2.546.234,10.968,10.968,0,0,0,3.249-1.258,9.153,9.153,0,0,0,2.246-2.124c.489-.6,1-1.294,1.486-2.04a16.33,16.33,0,0,0,3.349,0c.266.255.512.512.754.751a4.8,4.8,0,0,0,2.2,1.4,4.864,4.864,0,0,0,3.4-.635c1.9-.958,4.414-1.586,5.972-3.071a10.839,10.839,0,0,0,2.5-4.849,27.7,27.7,0,0,0,.724-10.252c-.049-.4-.107-.785-.177-1.167.382-.564.747-1.159,1.1-1.772a24.287,24.287,0,0,0,1.225,2.925,2.609,2.609,0,0,0,1.04,1.227,4.065,4.065,0,0,0,2.039.237,5.5,5.5,0,0,0,5.485-4.177,14.425,14.425,0,0,0,.09-7.013,5.611,5.611,0,0,0-1.138-2.243,3.34,3.34,0,0,0-1.468-1.063,3.422,3.422,0,0,0-3.487.863,16.529,16.529,0,0,0-3.063,4.468c0-.255.013-.508.037-.758.313-3.242,2.526-6.212,3.524-8.968a6.508,6.508,0,0,0,.226-4.605c-.033-.087-.069-.174-.107-.261a12.653,12.653,0,0,0-1.574-3.217c-1.176-1.863-3.069-2.554-5.051-3.4a23.8,23.8,0,0,0-6.046-1.59,11.985,11.985,0,0,0-.574-3.023,7.96,7.96,0,0,0-2.636-4.021,3.231,3.231,0,0,0-2.9-.52,9.142,9.142,0,0,0-.959.348c.319-3.9-2.966-6.543-6.683-6.979a17.83,17.83,0,0,0-12.073-7.1c-2.568-.367-5.064-.619-7.368.754a8.458,8.458,0,0,0-2.759,2.587Zm-37.082,96.123a14.6,14.6,0,0,1-5.272,2.856,4.771,4.771,0,0,1-1.174.11c-.585.388-1.16.76-1.716,1.147a40.72,40.72,0,0,0,6.286,2.354c1.8.428,3.5.509,4.593-.59,1.286-1.286.743-2.926-.51-4.244a8.4,8.4,0,0,0-2.207-1.635Zm1.205-15.909a23.114,23.114,0,0,1-10.772,8.9,24.815,24.815,0,0,1-11.34,1.977c.062.578.122,1.138.177,1.678a6.02,6.02,0,0,0,2.521,4.854,7.721,7.721,0,0,0,3.5,1.071,27.249,27.249,0,0,1,4.213.646c.182.053.375.118.579.19q.337-.256.685-.5c.312-.22.63-.434.953-.648a3.159,3.159,0,0,1-.68-.918,1.6,1.6,0,0,1-.034-1.354,2.935,2.935,0,0,1,.948-1.175,7.438,7.438,0,0,1,5.486-1.266c3.052-3.7,4.746-8.835,3.769-13.453Zm-5.165,14.955a5.581,5.581,0,0,0-3.14,1.06,1.46,1.46,0,0,0-.315.318.83.83,0,0,0-.084.145.457.457,0,0,0-.019.062,1.263,1.263,0,0,0,.719.644,24.03,24.03,0,0,0,2.213-1.662q.319-.273.627-.566Zm2.027.22q-.248.274-.506.536c.24-.156.476-.318.706-.483l-.088-.024-.112-.028Zm19.011-17.4a14.334,14.334,0,0,0-9.772,9.012,16.136,16.136,0,0,0-.547,6.969,2.077,2.077,0,0,0,.938,1.546,1.874,1.874,0,0,0,1.325-.01c3.9-1.134,6.188-5.043,7.287-9.669a30.87,30.87,0,0,0,.769-7.849Zm-6.77-14.875a30.042,30.042,0,0,0-7.623-3.372,4.53,4.53,0,0,0-3.519.868c1.659,1.386,3.024,3.611,3.923,7.082a15.748,15.748,0,0,1-.8,10.458c1.849,5.255.268,11.418-3.122,15.916q.3.1.589.21a10.936,10.936,0,0,0,1.511-1.515c3.24-4.449,3.146-9.012,3.382-13.737.252-5.036.831-10.248,5.508-15.73l.154-.179Zm-17.369,7.641c-.643,2-1.233,4.074-1.9,6.039-2.125,6.255-5.075,11.391-12.309,10.686.06.676.125,1.341.193,1.994a23.142,23.142,0,0,0,10.886-1.84,20.841,20.841,0,0,0,10.736-9.546,11.235,11.235,0,0,0-.729-1.446,14.857,14.857,0,0,0-6.875-5.886Zm-9.86-8.9a28.006,28.006,0,0,1-7.611.817,11.312,11.312,0,0,1-2.1-.37,1.416,1.416,0,0,1,.144.138,2.846,2.846,0,0,1,.481.968c1.616,5.089-.765,12.265-7.119,10.214-.334-.107-.677-.229-1.016-.367-.323,3.8.256,7.679,1.525,9.619a14.551,14.551,0,0,0,9.9,6.388c-.068-.681-.133-1.375-.191-2.077a6.986,6.986,0,0,1-4.886-5.367,11.6,11.6,0,0,1,5.228-11.945,13.106,13.106,0,0,1,3.062-1.462,46.475,46.475,0,0,0,2.577-6.555Zm36.827,15.645c-1.421,3.684-1.562,7.077,1.569,8.367,2.205.909,3.458-.947,3.913-2.984a7,7,0,0,0-.159-3.908,1.6,1.6,0,0,0-.969-1.076,13.323,13.323,0,0,0-4.354-.4Zm-28.469-7.313a17.176,17.176,0,0,0-2.091-.546,16.8,16.8,0,0,0-7.739.132,38.772,38.772,0,0,0-2.622,7.055,31.658,31.658,0,0,0-.387,9.027l.058.007c6.522.748,8.97-4.018,10.86-9.58.674-1.984,1.271-4.074,1.921-6.1Zm-11.9.369c-4.705,2.291-6.623,7.166-5.755,10.9a5.5,5.5,0,0,0,3.194,3.976,32.262,32.262,0,0,1,.448-8.968,33.646,33.646,0,0,1,2.113-5.905Zm68.457,1.832a14.074,14.074,0,0,1-3.9,4.094c-1.853,1.284-4.141,1.231-6.321,1.179a10.867,10.867,0,0,1-4.337-.981,5.659,5.659,0,0,1-1.825-1.162c-.146.282-.278.565-.391.847a4.518,4.518,0,0,0-.394,1.763,1.306,1.306,0,0,0,.444,1.017,4.042,4.042,0,0,0,2.032.6,25.936,25.936,0,0,0,6.088-.26,40.623,40.623,0,0,0,10.2-2.749,8.018,8.018,0,0,0,3.637-2.55.69.69,0,0,0,.029-.764,1.968,1.968,0,0,0-1.749-1,25.009,25.009,0,0,0-2.594.107,2.606,2.606,0,0,1-.912-.14Zm-50.175-10.789a15.121,15.121,0,0,0-3.842,6.188q-.274.709-.527,1.444a16.514,16.514,0,0,1,7.747,6.592c.053.089.1.178.156.268a14.193,14.193,0,0,0,.182-7.991c-.848-3.278-2.111-5.32-3.717-6.5Zm40.313,7.881a16.66,16.66,0,0,0-3.434,1.994,12.692,12.692,0,0,0-2.206,2.566,2.885,2.885,0,0,0,1.572,1.162,9.383,9.383,0,0,0,3.743.853c1.845.044,3.8.191,5.367-.894a12.484,12.484,0,0,0,3.538-3.754,13.769,13.769,0,0,1-2.915,1.024,17.625,17.625,0,0,1-3.247.627,3.4,3.4,0,0,1-2.48-.683,1.516,1.516,0,0,1-.477-1.148,4.117,4.117,0,0,1,.539-1.746Zm-11.378-6.075c-.27.426-.576.877-.887,1.353-1.057,1.623-2.839,4.1-4.66,4.938a2.188,2.188,0,0,1-1.6.067,10.806,10.806,0,0,1-1.586-.776,10.619,10.619,0,0,1-1.168-.671,27.7,27.7,0,0,1,1.706,7.729l.227-.033a35.367,35.367,0,0,1,7.236-10.388,23.19,23.19,0,0,1,2.4-2.078c-.564-.024-1.123-.069-1.669-.14Zm-54.393.21c-2.82-.186-4.559,2.014-5.55,4.9a18.488,18.488,0,0,0-.75,3.094,13.525,13.525,0,0,0,1.312.48,4.115,4.115,0,0,0,2.868.034,4.335,4.335,0,0,0,2.314-2.985,9.345,9.345,0,0,0-.088-5.247c-.019-.06-.069-.189-.106-.28Zm75.638,2.216c-2.239.743-4.44,1.574-6.591,2.358l-.508.187c-.1.159-.207.314-.321.466a15.655,15.655,0,0,0-1,1.335,3.343,3.343,0,0,0-.344.789,1.63,1.63,0,0,0-.034.264,1.945,1.945,0,0,0,1.265.221,15.832,15.832,0,0,0,2.943-.583c2.41-.592,3.644-1.32,4.212-2.261a4.444,4.444,0,0,0,.373-2.776Zm-81.474-7.01a20.928,20.928,0,0,0-2.511,5.95,8.749,8.749,0,0,0,.107,5.08,2.523,2.523,0,0,0,.488.783,18.71,18.71,0,0,1,.683-2.637c1.241-3.621,3.576-6.189,7.1-5.991a19.809,19.809,0,0,1-5.865-3.185Zm73.547,2.768a15.191,15.191,0,0,1-3.31,1.138c-.312.067-.637.135-.974.2a3.7,3.7,0,0,1,1.082,1.612,3.57,3.57,0,0,1-.209,2.516,9.8,9.8,0,0,1-1.241,2.01,29.037,29.037,0,0,1,4.352-1.979,1.643,1.643,0,0,0,.1-.384c.108-.841.2-2.937.2-5.11Zm16.08,2.188a42.6,42.6,0,0,0-5.761,1.3q-.074.833-.225,1.653a1.984,1.984,0,0,1,.526.288,10.512,10.512,0,0,1,1.165,1.128,3.467,3.467,0,0,0,.778.708,2.673,2.673,0,0,0,1.589.111,9.286,9.286,0,0,0,2.745-1.077,10.268,10.268,0,0,0,2.518-2.691c.08-.11.158-.221.237-.334a18.787,18.787,0,0,1-3.572-1.09Zm-59.813-3a10.764,10.764,0,0,0-5.042-.5,53.652,53.652,0,0,0-6.451,1.193,38.644,38.644,0,0,1-2.392,6.448,19.341,19.341,0,0,1,7.2.147,18.572,18.572,0,0,1,2.291.6c.382-1.1.789-2.166,1.246-3.165a15.311,15.311,0,0,1,3.144-4.721Zm23.325-1.642a11.5,11.5,0,0,0-3.446,1.222,8.236,8.236,0,0,1,.105,2.757,4.169,4.169,0,0,0,.244,2.732,5.051,5.051,0,0,0,2.171,1.7c.354.177.747.44,1.155.61a.788.788,0,0,0,.644.077c1.582-.726,3.064-2.944,3.983-4.355.178-.272.355-.537.525-.791a7.942,7.942,0,0,1-4.941-3.161,6.135,6.135,0,0,1-.441-.794Zm27.514-2.961a30.188,30.188,0,0,1-5.5,4.545c.016,2.214-.059,4.513-.163,5.722,2.077-.761,4.2-1.546,6.354-2.248a8.041,8.041,0,0,1,.649-4.068,16.32,16.32,0,0,0-1.337-3.951Zm31.654-7.091a7.715,7.715,0,0,1-3.427,2.356,5.822,5.822,0,0,1-2.184.227,8.859,8.859,0,0,1,.452,1.63c.663,3.725-.147,6.507-1.787,8.449a9.738,9.738,0,0,1-5.118,3.041,3.124,3.124,0,0,0,1.4.939,3.411,3.411,0,0,0,2.294-.51c1.771-.891,4.137-1.417,5.586-2.8a9.243,9.243,0,0,0,2.062-4.117,26.039,26.039,0,0,0,.724-9.216Zm-64.083,12.177a17.1,17.1,0,0,0-1.979,1.619,13.209,13.209,0,0,1,1.853,1.642c0-.194,0-.39.017-.589a13.271,13.271,0,0,0,.11-2.671Zm50.725-13.874c-6.455-1.819-10.452.946-14.14,4.549-.77.752-1.528,1.538-2.291,2.329a13.941,13.941,0,0,0,1.635,3.325,18.768,18.768,0,0,1,5.943-2.409,26.942,26.942,0,0,1,5.037-1.023,4,4,0,0,1,2.218.385,2.177,2.177,0,0,1,.973,1.455,6.026,6.026,0,0,1-.248,2.8,19.551,19.551,0,0,1-1.412,3.431,6.563,6.563,0,0,1,2.156,1.219,8.588,8.588,0,0,0,5.313-2.734c1.381-1.635,1.991-3.993,1.432-7.129a6.922,6.922,0,0,0-.89-2.386,11.584,11.584,0,0,1-2.214-1.152,23.145,23.145,0,0,1-3.408-2.549l-.105-.1Zm-14.966,12.545c-.081.1-.157.211-.229.324-.028.043-.055.087-.081.131a18.642,18.642,0,0,1,.25,2.446q.01.285.011.568c1.1-.312,2.21-.591,3.324-.824a15.241,15.241,0,0,1-3.277-2.646Zm11.043,1.965a18.833,18.833,0,0,0,1.505-3.546,5.227,5.227,0,0,0,.256-1.786.789.789,0,0,0-.283-.657,1.517,1.517,0,0,0-.681-.147,7.275,7.275,0,0,0-1.3.068,30.5,30.5,0,0,0-4,.9,26.545,26.545,0,0,0-3.871,1.266,8.992,8.992,0,0,0-1.5.835,14.382,14.382,0,0,0,4.681,3.3,28.229,28.229,0,0,1,4.712-.263c.165.005.324.014.48.028Zm-31.513-13.875a17.338,17.338,0,0,0-3.305.587c-3.3.944-5.869,3-6.1,6.692a7.455,7.455,0,0,0,.139,2.1,10.411,10.411,0,0,1,4.947.968,3.355,3.355,0,0,1,1.869,1.686,2.521,2.521,0,0,1-.029,1.821,23.388,23.388,0,0,0,3.8.018c.167-.057.331-.105.49-.144a3.788,3.788,0,0,1,1.726-.089c1.025-.142,1.992-.32,2.848-.507a13.927,13.927,0,0,0,2.385-.751,16.837,16.837,0,0,1-6.8-3.385c-2.626-2.271-3.986-5.375-2.021-8.9l.054-.095Zm-32.012,3.227a11.426,11.426,0,0,1-.155,1.921,2.81,2.81,0,0,1-3.014,2.5,3.952,3.952,0,0,1-2.368-1.321c-.572-.58-1.1-1.281-1.6-1.827a2.45,2.45,0,0,0-.705-.6c-1.047-.465-2.6-.271-3.7-.3-.347-.008-.678-.011-1-.008a8.81,8.81,0,0,1,.319,1.745,24.64,24.64,0,0,1-.605,6.413,48.232,48.232,0,0,1,5.942-1.1,11.573,11.573,0,0,1,6.586.977c1.541-1.065,3.437-1.95,5.357-1.46a31.857,31.857,0,0,1,8.334,3.757,18.57,18.57,0,0,1,2.83-2.28,5.727,5.727,0,0,0-.323-.544,18.856,18.856,0,0,0-1.48-1.916,13.619,13.619,0,0,1-8.408-.351,9.73,9.73,0,0,1-6.015-5.609Zm23.388,7.747.035.056a6.664,6.664,0,0,0,4.457,2.587l.018,0a1.393,1.393,0,0,0,.2-.889c-.075-.365-.438-.624-1.08-.921a8.884,8.884,0,0,0-3.627-.837Zm-37.614-7.324a35.534,35.534,0,0,0-7.076,1.405,8.351,8.351,0,0,1-4.651-.793,24.808,24.808,0,0,0-3.469,3.561c-.421.525-.823,1.067-1.2,1.621a16.25,16.25,0,0,0,8.184,3.605,28.4,28.4,0,0,0,7.909-.913l.031-.157a25,25,0,0,0,.683-6.5,6.487,6.487,0,0,0-.406-1.829Zm48.277-3.724a5.681,5.681,0,0,0-.688.951c-1.529,2.747-.376,5.14,1.668,6.906a14.994,14.994,0,0,0,5.759,2.95l0-.025a16.682,16.682,0,0,1,.324-3.688,1.092,1.092,0,0,1,.962-.833c.247-.005.716.1,1.048.813a10.521,10.521,0,0,1,.457,3.012q.022.4.037.831a31.143,31.143,0,0,0,4.738-4.124,13.961,13.961,0,0,0-4-4.153c-2.306-1.553-6.321-2.605-10.3-2.64Zm12.855-12.864a8.335,8.335,0,0,0-2.374-.189,13.642,13.642,0,0,0-1.54.164,5.153,5.153,0,0,1-.4.333,6.109,6.109,0,0,1-3.349,1.093c-.3.026-.6.045-.919.067a9.422,9.422,0,0,0-1.132.663,18.24,18.24,0,0,0-1.507,1.762,17.766,17.766,0,0,1-4.413,4.145,2.993,2.993,0,0,1-2.34.331,2.3,2.3,0,0,1-.422-.19c-.005.049-.011.1-.018.144a2.68,2.68,0,0,1-.645,1.519c-.51.548-1.411.881-3.1.881a2.72,2.72,0,0,0-.75.241,3.48,3.48,0,0,1-.854.227,1.07,1.07,0,0,1-.9-.319,1.038,1.038,0,0,1-.28-.686,7.6,7.6,0,0,1,1.019-3.806c-.122.049-.249.1-.38.14a12.835,12.835,0,0,1-8.394-.233,5.155,5.155,0,0,1-2.367-1.979c-.224,0-.441,0-.647,0q-.622.283-1.234.6t-1.2.655a21.974,21.974,0,0,1,5.458,2.964c2.239,1.673,3.015,3.421,2.952,5.01a3.769,3.769,0,0,1,1.666,1.517,4.5,4.5,0,0,1,.252,3.456,3.888,3.888,0,0,1-1.38,2.02,7.727,7.727,0,0,1-1.689,1,19.215,19.215,0,0,1,1.222,1.625c.143.213.268.422.378.628a13.283,13.283,0,0,1,3.525-1.254,9.188,9.188,0,0,1-.142-2.4c.283-4.451,3.3-7,7.265-8.136a19.826,19.826,0,0,1,5.086-.706,14.717,14.717,0,0,1,2.126-1.743,10.821,10.821,0,0,1,4.677-1.939,9.944,9.944,0,0,1,2.144.295,48.851,48.851,0,0,0,6.131,1.055,15.473,15.473,0,0,1,1.026-4.031,11.7,11.7,0,0,1,.689-1.355l-.038-.1a7.711,7.711,0,0,0-1.364-2.473,3.228,3.228,0,0,0-.754-.571,6.659,6.659,0,0,1-1.081-.416Zm-77.956,12.29c-1.579,1.023-2.792,2.321-2.94,4.081a6.491,6.491,0,0,0,2.169,4.914q.545-.782,1.144-1.529a26.864,26.864,0,0,1,3.164-3.332c-1.662-.966-3.013-2.246-3.37-3.457-.065-.22-.12-.446-.167-.677Zm32.925-.431a4.293,4.293,0,0,0-.565,3.121,7.954,7.954,0,0,0,5.261,5.288,12.2,12.2,0,0,0,6.592.526c-.419-.414-.852-.815-1.294-1.21a8.7,8.7,0,0,1-4.531.766,2.958,2.958,0,0,1-2.342-1.595,2.449,2.449,0,0,1,.477-2.727,5.292,5.292,0,0,1,.942-.867q-.416-.333-.82-.667c-.656-.542-2.039-1.529-3.72-2.636Zm14.915,3.3a8.392,8.392,0,0,1-3.408,3.644c.516.472,1.018.957,1.5,1.456a7.981,7.981,0,0,0,1.462-.732,2.588,2.588,0,0,0,1.188-1.436,2.979,2.979,0,0,0-.1-2.255,1.994,1.994,0,0,0-.642-.676Zm-23.8-8.3c-.043.4-.1.783-.168,1.141a9.034,9.034,0,0,1-4.214,5.265,5.454,5.454,0,0,1-2.63.746,5.108,5.108,0,0,1,.761.92c.544-.015,1.124-.016,1.751,0,1.286.029,3.094-.109,4.318.434a4.04,4.04,0,0,1,1.236.982c.49.533,1,1.219,1.561,1.786a2.373,2.373,0,0,0,1.36.849,1.372,1.372,0,0,0,.927-.334.848.848,0,0,0,.252-.413,4.406,4.406,0,0,0,.2-1.057c.133-1.437-.02-3.438-.034-5.6,0-.632,0-1.278.033-1.928-1.286-.765-2.581-1.486-3.751-2.062-.572-.281-1.112-.527-1.605-.724Zm14.735,9.339a5.407,5.407,0,0,0-.672.5c-.493.436-.832.881-.6,1.364a1.411,1.411,0,0,0,1.147.695,6.27,6.27,0,0,0,2.881-.367c-.908-.75-1.837-1.475-2.752-2.194Zm7.57-1.6a11.246,11.246,0,0,0-5.094.489c-.307.1-.605.2-.893.316.939.743,1.885,1.495,2.8,2.274a6.906,6.906,0,0,0,3.186-3.079Zm32.988-4.066a42.34,42.34,0,0,1-5.359-.878,15.424,15.424,0,0,0-2.635-.467,9.13,9.13,0,0,0-3.913,1.668c-.228.155-.452.316-.669.482a20.923,20.923,0,0,1,9.539,2.827,15.366,15.366,0,0,1,3.688,3.511,25.588,25.588,0,0,1-.651-7.143Zm8.937-12.7a29.114,29.114,0,0,0-5.3,5.875c.287.774.553,1.525.833,2.128.8,1.729.614,2.876.016,3.6a3.96,3.96,0,0,1-2.9,1.122,23.36,23.36,0,0,0,.63,6.851c.559-.585,1.119-1.161,1.687-1.716,3.738-3.652,7.776-6.474,13.919-5.365a2.755,2.755,0,0,1-.138-.566c-.3-2.293,1.094-3.808,3.168-4.649a10.451,10.451,0,0,1,2-.57,5.747,5.747,0,0,1-.664-.1,19.675,19.675,0,0,1-3.665-1.222,9.686,9.686,0,0,1-5.4,5.678,5.669,5.669,0,0,1-1.972.55,1.648,1.648,0,0,1-1.107-.317,1.389,1.389,0,0,1-.526-1.007,3.31,3.31,0,0,1,.3-1.49,17.721,17.721,0,0,1,3.4-4.8c.294-.3.591-.589.882-.848-.845-.478-1.7-.987-2.568-1.516s-1.731-1.078-2.6-1.637Zm-72.5,17.223a4.181,4.181,0,0,0-1.52-.829,7.364,7.364,0,0,0-5,.4,14.275,14.275,0,0,0-2.644,1.43,5.262,5.262,0,0,0,2.744.37,42.63,42.63,0,0,1,6.423-1.373Zm2.128-8.488c-3.058.622-6,1.416-8.69,2.224a47.558,47.558,0,0,0-7.719,2.648,6.729,6.729,0,0,0,.22,1.063,2.858,2.858,0,0,0,.76,1.134,9.57,9.57,0,0,0,2.41,1.681,16.752,16.752,0,0,1,3.766-2.182,9.294,9.294,0,0,1,5.364-.632,2.125,2.125,0,0,1-.313-.8,2.729,2.729,0,0,1,.471-1.916,11.782,11.782,0,0,1,3.73-3.218Zm93.625,5.3a12.58,12.58,0,0,0-.983-2.935,5.028,5.028,0,0,0-2.4-2.544,11.5,11.5,0,0,0-7.35.215c-1.353.55-2.371,1.458-2.178,2.954a2.583,2.583,0,0,0,.747,1.314q.6.185,1.229.418a9.823,9.823,0,0,1,4.689,3.472,4.747,4.747,0,0,0,2.284.149,6.017,6.017,0,0,0,3.341-2.246c.215-.253.422-.52.624-.8Zm-73.458-5.226a18.854,18.854,0,0,0-4.26,3.868c1.746,1.149,3.184,2.176,3.864,2.739.416.343.84.685,1.269,1.027a13.374,13.374,0,0,1,1.835-.723,13.074,13.074,0,0,1,5.82-.541,4.983,4.983,0,0,0-2.291-3.213,20.772,20.772,0,0,0-6.237-3.156Zm77.339,1.812a20.8,20.8,0,0,0,1.585,4.206,1.154,1.154,0,0,0,.377.533.687.687,0,0,0,.313.056c.25.009.546-.01.911-.019a4.009,4.009,0,0,0,3.99-3.057,12.734,12.734,0,0,0,.05-6.187,3.875,3.875,0,0,0-.8-1.545,1.713,1.713,0,0,0-.725-.567c-.958-.3-1.722.217-2.457,1.069a31.229,31.229,0,0,0-3.249,5.512Zm-92.928-2.076a1.241,1.241,0,0,0-.34-.008,15.979,15.979,0,0,0-5.956,3.482,4.2,4.2,0,0,0-.735.931,1.083,1.083,0,0,0-.17.614c.027.256.231.46.568.667a2.949,2.949,0,0,0,3.036-.21,7.238,7.238,0,0,0,3.414-4.162c.078-.407.139-.848.182-1.314Zm8.5,4.225c0,.321-.005.641,0,.955q0,.379.01.75a8.036,8.036,0,0,1,.592-1.329l-.283-.18-.316-.2Zm86.376-15.957q-.146.084-.309.162a10.772,10.772,0,0,1-3.109.808,4.286,4.286,0,0,1-.569.043,1.693,1.693,0,0,1-.056.8,2.528,2.528,0,0,1-1.89,1.485,5.484,5.484,0,0,1-.985.161c-.312,1.435-.522,2.948-.686,3.686a2.411,2.411,0,0,1-.236.686.868.868,0,0,1-.338.316,5.481,5.481,0,0,1-3.377.532,4.346,4.346,0,0,1-1.583.994,11.459,11.459,0,0,1,4.552.593c1.842.782,3.149,2.692,3.931,5.148.351-.6.689-1.215,1.016-1.836a11.794,11.794,0,0,1-.229-3.461c.265-2.738,1.771-5.31,2.911-7.716a15.04,15.04,0,0,0,.957-2.4Zm-106.816,1.834a4.308,4.308,0,0,0-.546.163c-2.531.993-4.955,3.694-6.582,6.771a16.382,16.382,0,0,0-1.957,6.272,56.669,56.669,0,0,1,7.294-2.433,86.7,86.7,0,0,1,13.8-3.085,24.7,24.7,0,0,0-.746-5.568c-.157-.611-.339-1.206-.546-1.773q-.463.25-.982.49a2.564,2.564,0,0,1-.309,1.72,1.968,1.968,0,0,1-2.408.563,5.874,5.874,0,0,1-1.5-.794,15.45,15.45,0,0,1-3.115.58,3.434,3.434,0,0,1-1.683-.267,1.475,1.475,0,0,1-.8-.991,3.091,3.091,0,0,1,.072-1.646Zm21.087,8.971a16.393,16.393,0,0,0-.567,3.314c.472.29.94.581,1.4.87a19.091,19.091,0,0,1,3.622-3.532,30.182,30.182,0,0,0-4.45-.652Zm26.5-2.229a29.759,29.759,0,0,0-2.466,3.506,7.659,7.659,0,0,0-1.014,2.654l.215-.075a3.007,3.007,0,0,1,.932-.2,6.129,6.129,0,0,0,1.42-.124,1.006,1.006,0,0,0,.507-.246,1.551,1.551,0,0,0,.263-.963c.047-.636.025-1.442.05-2.448.017-.653.106-1.362.093-2.049v-.055Zm23.835,2.368a13.973,13.973,0,0,0-.879,3.352,2.088,2.088,0,0,0,1.5-.524.81.81,0,0,0,.156-.557,3.557,3.557,0,0,0-.389-1.346c-.13-.281-.258-.593-.386-.925Zm-51.972-.221q-1.361-.039-2.733.014-1.117.043-2.237.139c.423.179.871.386,1.338.616,1,.49,2.085,1.084,3.181,1.722a18.109,18.109,0,0,1,.451-2.491Zm64.947-3.562a18.275,18.275,0,0,0-3.73,4.354,6.473,6.473,0,0,0-.682,1.423,1.619,1.619,0,0,0-.047.23,6.164,6.164,0,0,0,1.342-.388,8.184,8.184,0,0,0,4.573-4.879q-.718-.348-1.456-.74Zm-28.712.175c-.3.091-.6.2-.919.33a19.723,19.723,0,0,0-4.336,2.582,3.84,3.84,0,0,0-.94,1.06c-.077.151-.135.3-.048.428a1.01,1.01,0,0,0,.529.46,1.1,1.1,0,0,0,.673-.061,6.946,6.946,0,0,0,2.279-1.658,41.214,41.214,0,0,0,2.763-3.141Zm-12.509,1.424a29.64,29.64,0,0,1-8.642.914,4.461,4.461,0,0,0,.842.493,11.038,11.038,0,0,0,7.218.173,3.7,3.7,0,0,0,1.166-.584,1.027,1.027,0,0,0,.142-.145c.015-.021.045-.034.041-.057a.3.3,0,0,0-.067-.112,3.884,3.884,0,0,0-.7-.683Zm-15.147,1.008c-.763.03-1.572.058-2.4.067q.827.18,1.635.408l.295-.188.3-.187.167-.1Zm-9.852-20.72a16.139,16.139,0,0,0-1.828,5.289c-.589,2.527-1.312,4.944-4.238,6.991a19.629,19.629,0,0,1,.71,2.225,26.342,26.342,0,0,1,.791,5.789c1.6-.157,3.2-.244,4.783-.242-.25-.078-.492-.162-.725-.256a5.371,5.371,0,0,1-3.08-2.7,6.477,6.477,0,0,1,.153-4.915,12.3,12.3,0,0,1,6.31-6.867,10.56,10.56,0,0,1-2.418-3.7,8.956,8.956,0,0,1-.458-1.61Zm42.1,4.067q-.382.2-.754.413a27.04,27.04,0,0,1-1.019,4.426,6.971,6.971,0,0,1-2.16,3.292,6.332,6.332,0,0,1-4.546,1.126c-1.012,1.608-1.971,3.176-2.917,4.5a4.888,4.888,0,0,1,.311,1.728c0,.2,0,.4-.009.6a21.39,21.39,0,0,1,4.969-3.025,13.423,13.423,0,0,1,4.255-.94,18.906,18.906,0,0,1,4.316-1.406,8.749,8.749,0,0,0,1.372-2.169,32.546,32.546,0,0,1-1.7-7.81q-1.033-.412-2.117-.738Zm-13.494,13.515a6.9,6.9,0,0,1-1.961,1.458c.107.113.21.232.309.354a2.1,2.1,0,0,1,.242.379c.548-.732,1.1-1.419,1.57-2.033-.051-.055-.1-.107-.16-.158Zm41.18-.326c-.038.186-.078.37-.122.552-.015.061-.029.122-.045.184a18.475,18.475,0,0,0,3.514,1.186,3.248,3.248,0,0,0,1.8-.088c-.559-.193-1.118-.417-1.678-.648a19.635,19.635,0,0,0-3.2-1.131c-.09-.02-.179-.037-.269-.054Zm-55.905-1.565-.359-.1a6.613,6.613,0,0,0-2.909-.282c-3.286.527-5.294,1.947-6.515,3.8a85.213,85.213,0,0,0,8.731-.113c.111,0,.226,0,.344,0l.318-.137.09-.038a5.463,5.463,0,0,1-.018-.881,13.372,13.372,0,0,1,.318-2.247Zm8.3,3.021c-.173-.019-.349-.031-.528-.04a13.714,13.714,0,0,0-3.52.351,30.749,30.749,0,0,0,4.047-.311Zm-17.858-12.317a11.045,11.045,0,0,0-6.246,6.326,4.973,4.973,0,0,0-.2,3.716c.62,1.384,2.2,2.033,4.078,2.4.126.024.254.047.384.069a9.314,9.314,0,0,1,2.014-2.558,11.532,11.532,0,0,1,6.005-2.624,8.192,8.192,0,0,1,3.588.32l.4.113c.121-.319.255-.626.4-.921a7.653,7.653,0,0,1-5.119-1.05,7.271,7.271,0,0,1-2.9-4.919c-.563-.159-1.117-.334-1.655-.529a5.312,5.312,0,0,1-.747-.34Zm50.314,10.455-.014,0a12.044,12.044,0,0,1-1.733.174,10.019,10.019,0,0,1,.65,1.217c.335-.457.7-.923,1.1-1.394Zm-39.2-.744a11.576,11.576,0,0,0-.271,1.925c0,.061-.005.121-.006.18a18.06,18.06,0,0,1,6.564-1.144,8.09,8.09,0,0,1,3.464.869,6.184,6.184,0,0,0,1.927-1.173,10.512,10.512,0,0,0-2.078-.419c-2.925-.333-6.364.09-8.21-.03a8.867,8.867,0,0,1-1.39-.209Zm63.62-2a9.531,9.531,0,0,1-.183,1.952,8.01,8.01,0,0,1-.693,2.043,3.784,3.784,0,0,0,1.269-.3c.157-.638.363-2.034.657-3.446a6.642,6.642,0,0,1-1.05-.244Zm-5.674-5.688a4.577,4.577,0,0,1-1.064,3.548,5.964,5.964,0,0,1-2.122,1.571c-.029.721-.08,1.439-.164,2.146a19.035,19.035,0,0,1,3.831,1.271,20.492,20.492,0,0,0,2.558.944,5.71,5.71,0,0,0,.877-2.158,8.377,8.377,0,0,0,.115-2.5,3.619,3.619,0,0,1-.7-.751,3.435,3.435,0,0,1-.554-2.494,3.652,3.652,0,0,0-.57-.54,5.81,5.81,0,0,0-2.208-1.032Zm-5.231,8.79c-.049.006-.1.015-.147.025l.055.027.072.036.02-.088Zm-38.14-4.6c.018.155.032.312.041.472a6.476,6.476,0,0,1-.55,3.167c.073.059.146.12.215.183.7-1.024,1.419-2.168,2.16-3.351q-.808-.161-1.722-.424c-.049-.015-.1-.029-.144-.046Zm32.43-.708q-.809.559-1.584,1.166c.713.456,1.427.9,2.136,1.338,1.058.648,2.1,1.266,3.126,1.831a4.068,4.068,0,0,1,.5-.257,5.344,5.344,0,0,1,1.808-.408c.065-.524.11-1.055.141-1.589a7.72,7.72,0,0,1-5.565-1.6q-.3-.228-.564-.479Zm-37.839-2.739a28.177,28.177,0,0,1-5.356,2.9,19.1,19.1,0,0,1-2.416.793,9.238,9.238,0,0,0-.91,1.709,7.191,7.191,0,0,0,1.011.141c1.864.121,5.336-.3,8.289.037a10.777,10.777,0,0,1,2.856.683,4.809,4.809,0,0,0,.372-2.259,4.159,4.159,0,0,0-3.845-4.006Zm23.6-2.35a9.53,9.53,0,0,1-.4,5.513c-.041.1-.082.2-.123.29a5.225,5.225,0,0,0,.359.589,5.028,5.028,0,0,0,1.883,1.631,6.148,6.148,0,0,1,.916.35,8.054,8.054,0,0,0,3.512.081,4.194,4.194,0,0,0,3.009-2.555c-3.267-2.147-6.447-4.307-9.161-5.9Zm-1.351,7.484q-.062.108-.124.21l.066,0c.071,0,.142-.006.212-.008-.052-.064-.1-.131-.154-.2Zm-57.085.052-.233.081h0a.978.978,0,0,0,.3.03c.03,0,.062,0,.08-.019a.3.3,0,0,0,.063-.169l-.214.077Zm-5.041-2.02c-.33.031-.653.068-.961.109-.051.075-.1.151-.144.227a1.946,1.946,0,0,0-.323,1.331.978.978,0,0,0,.142.048,2.82,2.82,0,0,0,.717.04,10.624,10.624,0,0,0,1.734-.259q-.248-.264-.484-.557a10.843,10.843,0,0,1-.681-.939Zm1.9-.106a8.946,8.946,0,0,0,1.073,1.121c.879-.268,1.619-.535,1.958-.664a1.293,1.293,0,0,0-.2-.1,3.964,3.964,0,0,0-1.129-.275,12.643,12.643,0,0,0-1.7-.081Zm95.486-2.142c-.128-.358-.225-.75-.348-1.12a1.48,1.48,0,0,0-.551-.889,1.518,1.518,0,0,0-.887-.147c-.15.009-.68,0-1.178.063a4.452,4.452,0,0,0-.485.1,6.483,6.483,0,0,0-.784,1.558,8.026,8.026,0,0,1,1,2.642c.084.046.17.088.259.128a4.784,4.784,0,0,0,1.347.364,7.941,7.941,0,0,1,.664-1.753,2.172,2.172,0,0,1,.963-.945Zm.564,1.557a1.164,1.164,0,0,0-.094.125,4.414,4.414,0,0,0-.388.875l-.029.089a2.534,2.534,0,0,0,.589-.2c.142-.071.272-.135.31-.252s-.047-.209-.147-.349a1.89,1.89,0,0,0-.233-.28l-.009-.008Zm-14.111-2.859a18.865,18.865,0,0,0-2.718,1.1c-.672.332-1.343.7-2,1.11a6.574,6.574,0,0,0,2.161,1.162,5.412,5.412,0,0,0,2.626.19c.011-1.208-.028-2.411-.064-3.567Zm-7.692-12.292a1.705,1.705,0,0,1,.1.268,3.086,3.086,0,0,1,.059,1.164,1.778,1.778,0,0,1-.375.907,4,4,0,0,1-4.529,1.213,3.1,3.1,0,0,1-.556-.3,9.987,9.987,0,0,0-.818.764c-.6.706-.867,1.218-.8,1.665a1.2,1.2,0,0,0,.458.69,6.957,6.957,0,0,0,1.25.807,20.307,20.307,0,0,1,2.1,1.21,3.671,3.671,0,0,1,1.136,1.226,8.458,8.458,0,0,1,.4,5.971l.135.087c.634-.514,1.287-1.009,1.955-1.477a5.2,5.2,0,0,1-.861-3.948c.437-2.161,2.468-4.515,7.3-6.193q-.208-1.31-.483-2.616a3.211,3.211,0,0,1-.622.354,4.283,4.283,0,0,1-3.759-.526c-.7-.374-1.4-.849-2.1-1.262Zm-68.973,15.154a8.386,8.386,0,0,0-1.258-1.87,1.648,1.648,0,0,0-1.239-.441,6.714,6.714,0,0,0-3.23,1.005c-.177.1-.352.21-.522.323a16.266,16.266,0,0,1,2.873.05,4.97,4.97,0,0,1,1.879.556,1.933,1.933,0,0,1,.753.767c.261-.127.508-.258.744-.39Zm47.586-5.857a25.027,25.027,0,0,0-4.23,5.025q-.318.47-.629.946a4.231,4.231,0,0,0,2.555-.827,6.352,6.352,0,0,0,1.919-3.481c.143-.523.269-1.08.384-1.664Zm-31.007,1.92a5.314,5.314,0,0,0,2.056,3.145,6.809,6.809,0,0,0,5.318.6,10.228,10.228,0,0,1,2.882-2.56,31.408,31.408,0,0,1-6.146-.413c-1.336-.222-2.734-.465-4.111-.776Zm63.277.536a9.487,9.487,0,0,0-1.594.147v.043c.032,1.055.067,2.152.071,3.259a4.468,4.468,0,0,0,.879-.78,3.153,3.153,0,0,0,.644-2.669Zm-40.74-5.7a11.03,11.03,0,0,1-1.893,2.763,8.48,8.48,0,0,0-.068,3.87,2.452,2.452,0,0,0,1.555,1.943,18.718,18.718,0,0,0,2.2.508c.7-1.092,1.421-2.187,2.187-3.224a19.479,19.479,0,0,1,4.892-4.909,44.5,44.5,0,0,0-8.867-.951Zm31.711-16.011a7.546,7.546,0,0,0-1.737.16l-.009.013a2.266,2.266,0,0,1-1.731.68h-.117a6.1,6.1,0,0,0-1.884,2.121c-.681,1.128-1.251,2.432-1.878,3.637-.062.121-.126.24-.19.358a12.322,12.322,0,0,1-.221,2.24,3.405,3.405,0,0,1-.673,1.471,16.936,16.936,0,0,1-6.617,4.471c-.564.241-1.136.471-1.707.7a11.774,11.774,0,0,1,1.416,2.127c2.96,1.581,6.67,4.1,10.514,6.633a6.562,6.562,0,0,0-.408-4.295,3.155,3.155,0,0,0-1.293-1.073c-.714-.409-1.516-.785-2.175-1.215a3.374,3.374,0,0,1-1.624-2.029,3.627,3.627,0,0,1,1.142-3.068,12.5,12.5,0,0,1,1.058-.98c-.371-1.064-.031-2.538,1.993-3.9a3.489,3.489,0,0,1,3.18-.381,12.865,12.865,0,0,1,2.741,1.413,11.92,11.92,0,0,0,2.125,1.139,1.924,1.924,0,0,0,1.551.019,2.414,2.414,0,0,0,.758-.615,34.032,34.032,0,0,0-2.092-5.944,23.609,23.609,0,0,0-2.122-3.678Zm-63.329,11.531a14.9,14.9,0,0,0-4.25.143,15.658,15.658,0,0,0-7.439,3.475,7.454,7.454,0,0,0-2.943,5.61,6.853,6.853,0,0,0,.254,1.871q.174-.109.353-.212a8.368,8.368,0,0,1,4.056-1.219,3.216,3.216,0,0,1,2.4.962,9.769,9.769,0,0,1,1.422,2.077,9.055,9.055,0,0,0,3.359-5.839c.528-2.263.959-4.61,2.79-6.867Zm77.728,3.88a4.656,4.656,0,0,1-4.34,3.959c.1.285.2.566.277.844a7.4,7.4,0,0,1,3.5,1.43c.047.036.094.073.14.111a9.452,9.452,0,0,1,.693-1.2,1.706,1.706,0,0,1,1.034-.6,10.818,10.818,0,0,1,1.794-.158,2.874,2.874,0,0,1,2.074.555,3.111,3.111,0,0,1,.937,1.433c.137.382.236.792.365,1.173a1.441,1.441,0,0,0,.411.719,1.3,1.3,0,0,0,.986.127,9.209,9.209,0,0,0,2.634-.666,1.513,1.513,0,0,0,.867-.8,1.637,1.637,0,0,0-.005-.931,7.3,7.3,0,0,0-3.432-3.022,32.617,32.617,0,0,0-7.939-2.977Zm-31.193,3.631c.142,1.086.321,2.241.556,3.348.083.392.173.779.271,1.154a8.332,8.332,0,0,0-.557-4.291l-.043-.1-.146-.074-.082-.04Zm22.139-3.406c-5.058,1.828-6.506,4.278-5.886,6.454a4.215,4.215,0,0,0,.551,1.176,26.678,26.678,0,0,1,2.4-1.349,19.257,19.257,0,0,1,3.368-1.308c-.079-1.614-.216-3.286-.431-4.974Zm-40.806,4.952q-.47.41-.979.813a6.339,6.339,0,0,1,1.012.467,9.855,9.855,0,0,1-.033-1.279Zm-1.379-4.464c-3.422.192-6.753.587-9.764,1a66.734,66.734,0,0,0-8.031,1.431c.009.164.019.33.031.5.011.137.023.273.039.4,1.558.385,3.166.663,4.691.916a24.83,24.83,0,0,0,9.485-.088,4.8,4.8,0,0,0,2.988-2.735,11.652,11.652,0,0,0,.562-1.423Zm43.917.5c.134,1.231.228,2.451.291,3.641a11.407,11.407,0,0,1,1.26-.126c-.114-.337-.245-.679-.388-1.024a1.484,1.484,0,0,1-.786-1.193q-.026-.307-.029-.592l-.161-.33-.187-.375Zm-41.868-.59-.36.012a13.194,13.194,0,0,1-.8,2.195,7.911,7.911,0,0,1-.826,1.361c.461-.391.894-.787,1.292-1.182.144-.143.283-.285.417-.426a13.229,13.229,0,0,1,.688-1.97l-.41.011Zm-26.472-4.3a7.259,7.259,0,0,0,.494,2.771,8.352,8.352,0,0,0,2.51,3.553c.117-.047.233-.093.351-.139.536-.207,1.086-.4,1.643-.567a18.118,18.118,0,0,1,.948-5.58,14.6,14.6,0,0,1-3.281.182c-.877-.037-1.771-.127-2.666-.221Zm71.325,3.144a2.423,2.423,0,0,0-.452.431,2.853,2.853,0,0,0-.57,1.684c.124.26.246.519.361.778a3.372,3.372,0,0,0,2.028-.464,3.492,3.492,0,0,0,1.407-2.193c-.191-.03-.382-.058-.573-.082a18.308,18.308,0,0,0-2.2-.155Zm-47.081-4.6a23.61,23.61,0,0,0-9.767-2.786c-.892-.068-1.789-.093-2.677-.072a5.881,5.881,0,0,1-.444.783,8.1,8.1,0,0,1-3.466,2.986,16.358,16.358,0,0,0-1.271,5.717,72.312,72.312,0,0,1,7.82-1.368c3.2-.439,6.753-.848,10.393-1.024a7,7,0,0,0-.012-3.012,5.508,5.508,0,0,0-.577-1.224Zm16.6,4.42-.275.049-.166.027c-.034.188-.065.367-.092.533l-.073.464.146.04.093.025q.6-.29,1.217-.555-.361-.312-.742-.6l-.109.021Zm-2.108.285c-.539.05-1.079.085-1.619.109q.784.134,1.554.3l.054-.339.012-.07Zm-6.109-2.77c-.089.031-.175.065-.26.1a6.7,6.7,0,0,0-2.448,1.829c.008.1.012.194.012.293.916.021,1.83.062,2.738.126a1.632,1.632,0,0,1-.336-1.224,3.209,3.209,0,0,1,.294-1.126Zm-6.1-.327a9.619,9.619,0,0,1-.076,2.564q.639-.018,1.28-.025.212-.339.448-.66a2.818,2.818,0,0,0-.371-.624,8.033,8.033,0,0,0-1.281-1.255Zm24.455-1.576a4.626,4.626,0,0,1-2.789.746,16.819,16.819,0,0,1-4.386,2.833,4.4,4.4,0,0,1,.1.474c.557-.225,1.111-.45,1.662-.686a16.509,16.509,0,0,0,5.41-3.368Zm-16.146,1.584a2.35,2.35,0,0,0-.905,1.559c0,.016,0,.034,0,.052a1.028,1.028,0,0,0,.126.017c.207.016.438.006.666.006a39.691,39.691,0,0,0,4.24-.182q-.4-.232-.793-.442a8.082,8.082,0,0,0-3.333-1.01Zm39.432.67a10.678,10.678,0,0,0-.491-2.424,7.153,7.153,0,0,0-1.644-2.881,1.888,1.888,0,0,0-1.892-.621,5.31,5.31,0,0,0-1.939.968,12.819,12.819,0,0,1-.871,1.948,5.053,5.053,0,0,0,.126,1.075,14.087,14.087,0,0,0,1.029,2.84,16.5,16.5,0,0,1,2.287-.191,5.686,5.686,0,0,1,1.579-.553,9.111,9.111,0,0,1,1.816-.161Zm-33.682-6.354.032.061a7.416,7.416,0,0,1,.516,3.715c-.024.359-.06.726-.1,1.09.586.475,1.144,1,1.661,1.5.107-.035.214-.07.321-.108a12.6,12.6,0,0,0,3.137-1.809,10.893,10.893,0,0,1-5.563-4.453Zm-1.066,3.827.01-.155a5.8,5.8,0,0,0-.343-2.881,6.978,6.978,0,0,0-2.834-2.2,45.041,45.041,0,0,0-10.8-3.844,15.617,15.617,0,0,0-5.727.124c-.729,1.93-.7,3.381-.136,4.438a4.187,4.187,0,0,0,2.468,1.91,6.762,6.762,0,0,0,.679.191,2.3,2.3,0,0,1,.207-2.243,3.835,3.835,0,0,1,2.915-1.118,7.965,7.965,0,0,1,1.955.01,1.984,1.984,0,0,1,1.028.5,2.424,2.424,0,0,1,.85,2.039,2.928,2.928,0,0,1-2.1,2.114,7.95,7.95,0,0,1-1.87.434,14.932,14.932,0,0,1,1.38,1,11.537,11.537,0,0,1,1.885,1.806c.075.1.148.2.216.3a7.973,7.973,0,0,1,2.438-1.639,7.091,7.091,0,0,1,2.543-.554q.109-.083.219-.163a4.376,4.376,0,0,1,5.019-.079Zm18.463.727a.632.632,0,0,0-.065.007,2.3,2.3,0,0,0-.491.16,5.542,5.542,0,0,0-.549.272,13.576,13.576,0,0,0-1.384.907c.039.012.078.021.118.03a2.5,2.5,0,0,0,2.342-.857,3.376,3.376,0,0,0,.028-.519Zm-.24-1.583a1.927,1.927,0,0,0-1.723.2,3.623,3.623,0,0,0-1.287,1.306,10.824,10.824,0,0,1,2.238-1.31,3.213,3.213,0,0,1,.771-.2Zm-49.881-1.357a16.227,16.227,0,0,0-5.536,2.049q-.332.207-.635.417.525.04,1.042.063a10.773,10.773,0,0,0,3.964-.434,17.914,17.914,0,0,1,1.166-2.1Zm32.89-11.258a8.48,8.48,0,0,0-.2,5.8c.986,3.34,3.625,6.367,6.993,7l.122.021a14.112,14.112,0,0,0,2.464-2.965c.974-1.628,1.352-3.341.135-4.725-1.834-2.084-5.411-3.946-9.513-5.133Zm-29.865,7.686a4.9,4.9,0,0,0-.267-1.575c-.387-1.093-1.58-1.107-2.925-.674a12.469,12.469,0,0,0-5.932,4.693,10.726,10.726,0,0,0-1.282,2.479c.311-.224.641-.447,1-.666a10.929,10.929,0,0,0,9.411-4.258Zm41.245,1.771a9.483,9.483,0,0,1-.621,1.226,12.7,12.7,0,0,1-.966,1.385,7.49,7.49,0,0,0,1.575-2.087l.007-.3.005-.228Zm-27.455,1.8a7.086,7.086,0,0,0,2.445-.4,2.7,2.7,0,0,0,.843-.473.6.6,0,0,0,.228-.344c.028-.219-.131-.432-.392-.694a.4.4,0,0,0-.2-.064,2.532,2.532,0,0,0-.4-.04,10.99,10.99,0,0,0-1.137.057,4.268,4.268,0,0,0-1.458.292.58.58,0,0,0-.333.275.792.792,0,0,0,.023.478,4.367,4.367,0,0,0,.384.916Zm38.749-7.458a26.339,26.339,0,0,1,1.413,2.636,33.346,33.346,0,0,1,1.637,4.268l.024-.036a3.993,3.993,0,0,1,.411-.515l.008-.024c1.071-3.19-.85-5.482-3.492-6.33Zm-45.467,1.258a12.851,12.851,0,0,0-1.737.794,22.241,22.241,0,0,0-3.77,2.591,7.455,7.455,0,0,1-.119.8c.753,0,1.511.025,2.266.083a28.758,28.758,0,0,1,3.751.534c-.03-.05-.058-.1-.085-.152a6.243,6.243,0,0,1-.306-4.647Zm21.213-5.476a31.889,31.889,0,0,0-8.756-.907c-4.038.189-7.666,1.347-9.629,4.044a17.545,17.545,0,0,1,5.014.083,47.134,47.134,0,0,1,11.314,4.017,9.967,9.967,0,0,1,3.266,2.5,12.759,12.759,0,0,1-1.373-3.066,10.174,10.174,0,0,1,.163-6.673Zm15.841,4.455a4.907,4.907,0,0,0-1,2.242,14.644,14.644,0,0,1,.852-1.4,8.857,8.857,0,0,1,.631-.806c-.179-.019-.375-.03-.483-.035Zm3.827-3.394a16.166,16.166,0,0,0-9.009-4.252c-2.2-.314-4.344-.632-6.317.543a6.942,6.942,0,0,0-1.923,1.669c4.262,1.3,7.961,3.286,9.881,5.467a4.609,4.609,0,0,1,1,1.787,6.316,6.316,0,0,1,1.5-3.066,1.428,1.428,0,0,1,1.049-.366c.53,0,1.377.172,2.171.239l.093.007.03-.015a8.392,8.392,0,0,1,.948-.378.255.255,0,0,0-.071-.165c-.13-.11-.327-.061-.532-.041-.483.046-1.006.184-1.45.239a1.9,1.9,0,0,1-1.52-.33,1.766,1.766,0,0,1-.353-1.874.8.8,0,1,1,1.563.377,1.864,1.864,0,0,0-.038.231c.163-.013.4-.036.574-.069.257-.048.524-.1.785-.14a3.005,3.005,0,0,1,1.618.136Zm.851.856a2.263,2.263,0,0,1,.138.421l.217-.027q-.174-.2-.355-.395Z" transform="translate(-947.971 -49.78)"/><path class="af" d="M3203.371,3281.673H2866.249v1.566h337.122v-1.566Z" transform="translate(-1220.685 -1058.521)"/><path class="af" d="M3405.587,2150.36c-.092,0-.291.007-.37.012a6.642,6.642,0,0,0-.941.106c-.841.169-1.634.461-2.453.7a14.626,14.626,0,0,0-3.059,1.322c-.629.368-1.2.859-1.842,1.2a4.859,4.859,0,0,0-2.61,2.452.8.8,0,0,0,1.533.486,1.709,1.709,0,0,1,.635-.8,7.787,7.787,0,0,1,1.186-.712c.667-.348,1.258-.852,1.909-1.232a12.966,12.966,0,0,1,2.708-1.17c.772-.23,1.519-.51,2.313-.67a5.164,5.164,0,0,1,.718-.077c.1-.006.362-.01.4-.012a.794.794,0,0,0,.756-.652c0-.01.058-.956-.816-.956-.021,0-.043,0-.064,0Zm-.555,1.313a.676.676,0,0,0,.267.21.811.811,0,0,1-.267-.21Z" transform="translate(-1692.121 -48.451)"/><path class="af" d="M3731.624,2150.362H3494.679v1.565h236.944v-1.565Z" transform="translate(-1781.765 -48.455)"/></g></svg>